ISO-10303-21;
HEADER;
/* Generated by software containing ST-Developer
 * from STEP Tools, Inc. (www.steptools.com) 
 */

FILE_DESCRIPTION(
/* description */ (''),
/* implementation_level */ '2;1');

FILE_NAME(
/* name */ 'ducted_fan_plate.step',
/* time_stamp */ '2026-08-26T09:02:40-05:00',
/* author */ (''),
/* organization */ (''),
/* preprocessor_version */ 'ST-DEVELOPER v20.1',
/* originating_system */ 'Autodesk Translation Framework v15.8.0.0',
/* authorisation */ '');

FILE_SCHEMA (('AUTOMOTIVE_DESIGN { 1 0 10303 214 3 1 1 }'));
ENDSEC;

DATA;
#10=MECHANICAL_DESIGN_GEOMETRIC_PRESENTATION_REPRESENTATION('',(#13),#2464);
#11=SHAPE_REPRESENTATION_RELATIONSHIP('SRR','None',#2471,#12);
#12=ADVANCED_BREP_SHAPE_REPRESENTATION('',(#14),#2463);
#13=STYLED_ITEM('',(#2480),#14);
#14=MANIFOLD_SOLID_BREP('Ducted Fan Plate',#1496);
#15=FACE_BOUND('',#196,.T.);
#16=FACE_BOUND('',#199,.T.);
#17=FACE_BOUND('',#202,.T.);
#18=FACE_BOUND('',#205,.T.);
#19=FACE_BOUND('',#256,.T.);
#20=FACE_BOUND('',#257,.T.);
#21=FACE_BOUND('',#258,.T.);
#22=FACE_BOUND('',#259,.T.);
#23=FACE_BOUND('',#260,.T.);
#24=FACE_BOUND('',#261,.T.);
#25=FACE_BOUND('',#263,.T.);
#26=FACE_BOUND('',#264,.T.);
#27=FACE_BOUND('',#265,.T.);
#28=FACE_BOUND('',#266,.T.);
#29=FACE_BOUND('',#267,.T.);
#30=FACE_BOUND('',#268,.T.);
#31=FACE_BOUND('',#284,.T.);
#32=FACE_BOUND('',#285,.T.);
#33=FACE_BOUND('',#286,.T.);
#34=FACE_BOUND('',#287,.T.);
#35=FACE_BOUND('',#288,.T.);
#36=FACE_BOUND('',#289,.T.);
#37=FACE_BOUND('',#290,.T.);
#38=FACE_BOUND('',#291,.T.);
#39=FACE_BOUND('',#292,.T.);
#40=FACE_BOUND('',#293,.T.);
#41=FACE_BOUND('',#294,.T.);
#42=FACE_BOUND('',#295,.T.);
#43=FACE_BOUND('',#296,.T.);
#44=FACE_BOUND('',#297,.T.);
#45=FACE_BOUND('',#298,.T.);
#46=FACE_BOUND('',#299,.T.);
#47=FACE_BOUND('',#300,.T.);
#48=FACE_BOUND('',#301,.T.);
#49=FACE_BOUND('',#302,.T.);
#50=FACE_BOUND('',#303,.T.);
#51=FACE_BOUND('',#304,.T.);
#52=FACE_BOUND('',#305,.T.);
#53=FACE_BOUND('',#306,.T.);
#54=FACE_BOUND('',#307,.T.);
#55=FACE_BOUND('',#308,.T.);
#56=FACE_BOUND('',#310,.T.);
#57=FACE_BOUND('',#311,.T.);
#58=FACE_BOUND('',#312,.T.);
#59=FACE_BOUND('',#313,.T.);
#60=FACE_BOUND('',#314,.T.);
#61=FACE_BOUND('',#315,.T.);
#62=FACE_BOUND('',#316,.T.);
#63=FACE_BOUND('',#317,.T.);
#64=FACE_BOUND('',#318,.T.);
#65=FACE_BOUND('',#319,.T.);
#66=FACE_BOUND('',#320,.T.);
#67=PLANE('',#1513);
#68=PLANE('',#1518);
#69=PLANE('',#1523);
#70=PLANE('',#1528);
#71=PLANE('',#1530);
#72=PLANE('',#1531);
#73=PLANE('',#1532);
#74=PLANE('',#1533);
#75=PLANE('',#1534);
#76=PLANE('',#1535);
#77=PLANE('',#1536);
#78=PLANE('',#1537);
#79=PLANE('',#1538);
#80=PLANE('',#1539);
#81=PLANE('',#1540);
#82=PLANE('',#1541);
#83=PLANE('',#1542);
#84=PLANE('',#1543);
#85=PLANE('',#1544);
#86=PLANE('',#1545);
#87=PLANE('',#1546);
#88=PLANE('',#1547);
#89=PLANE('',#1548);
#90=PLANE('',#1549);
#91=PLANE('',#1550);
#92=PLANE('',#1551);
#93=PLANE('',#1552);
#94=PLANE('',#1553);
#95=PLANE('',#1564);
#96=PLANE('',#1572);
#97=PLANE('',#1591);
#98=PLANE('',#1599);
#99=PLANE('',#1606);
#100=PLANE('',#1614);
#101=PLANE('',#1625);
#102=PLANE('',#1626);
#103=PLANE('',#1627);
#104=PLANE('',#1628);
#105=PLANE('',#1629);
#106=PLANE('',#1630);
#107=PLANE('',#1631);
#108=PLANE('',#1632);
#109=PLANE('',#1633);
#110=PLANE('',#1634);
#111=PLANE('',#1635);
#112=PLANE('',#1636);
#113=PLANE('',#1637);
#114=PLANE('',#1638);
#115=PLANE('',#1639);
#116=PLANE('',#1640);
#117=PLANE('',#1641);
#118=PLANE('',#1642);
#119=FACE_OUTER_BOUND('',#194,.T.);
#120=FACE_OUTER_BOUND('',#195,.T.);
#121=FACE_OUTER_BOUND('',#197,.T.);
#122=FACE_OUTER_BOUND('',#198,.T.);
#123=FACE_OUTER_BOUND('',#200,.T.);
#124=FACE_OUTER_BOUND('',#201,.T.);
#125=FACE_OUTER_BOUND('',#203,.T.);
#126=FACE_OUTER_BOUND('',#204,.T.);
#127=FACE_OUTER_BOUND('',#206,.T.);
#128=FACE_OUTER_BOUND('',#207,.T.);
#129=FACE_OUTER_BOUND('',#208,.T.);
#130=FACE_OUTER_BOUND('',#209,.T.);
#131=FACE_OUTER_BOUND('',#210,.T.);
#132=FACE_OUTER_BOUND('',#211,.T.);
#133=FACE_OUTER_BOUND('',#212,.T.);
#134=FACE_OUTER_BOUND('',#213,.T.);
#135=FACE_OUTER_BOUND('',#214,.T.);
#136=FACE_OUTER_BOUND('',#215,.T.);
#137=FACE_OUTER_BOUND('',#216,.T.);
#138=FACE_OUTER_BOUND('',#217,.T.);
#139=FACE_OUTER_BOUND('',#218,.T.);
#140=FACE_OUTER_BOUND('',#219,.T.);
#141=FACE_OUTER_BOUND('',#220,.T.);
#142=FACE_OUTER_BOUND('',#221,.T.);
#143=FACE_OUTER_BOUND('',#222,.T.);
#144=FACE_OUTER_BOUND('',#223,.T.);
#145=FACE_OUTER_BOUND('',#224,.T.);
#146=FACE_OUTER_BOUND('',#225,.T.);
#147=FACE_OUTER_BOUND('',#226,.T.);
#148=FACE_OUTER_BOUND('',#227,.T.);
#149=FACE_OUTER_BOUND('',#228,.T.);
#150=FACE_OUTER_BOUND('',#229,.T.);
#151=FACE_OUTER_BOUND('',#230,.T.);
#152=FACE_OUTER_BOUND('',#231,.T.);
#153=FACE_OUTER_BOUND('',#232,.T.);
#154=FACE_OUTER_BOUND('',#233,.T.);
#155=FACE_OUTER_BOUND('',#234,.T.);
#156=FACE_OUTER_BOUND('',#235,.T.);
#157=FACE_OUTER_BOUND('',#236,.T.);
#158=FACE_OUTER_BOUND('',#237,.T.);
#159=FACE_OUTER_BOUND('',#238,.T.);
#160=FACE_OUTER_BOUND('',#239,.T.);
#161=FACE_OUTER_BOUND('',#240,.T.);
#162=FACE_OUTER_BOUND('',#241,.T.);
#163=FACE_OUTER_BOUND('',#242,.T.);
#164=FACE_OUTER_BOUND('',#243,.T.);
#165=FACE_OUTER_BOUND('',#244,.T.);
#166=FACE_OUTER_BOUND('',#245,.T.);
#167=FACE_OUTER_BOUND('',#246,.T.);
#168=FACE_OUTER_BOUND('',#247,.T.);
#169=FACE_OUTER_BOUND('',#248,.T.);
#170=FACE_OUTER_BOUND('',#249,.T.);
#171=FACE_OUTER_BOUND('',#250,.T.);
#172=FACE_OUTER_BOUND('',#251,.T.);
#173=FACE_OUTER_BOUND('',#252,.T.);
#174=FACE_OUTER_BOUND('',#253,.T.);
#175=FACE_OUTER_BOUND('',#254,.T.);
#176=FACE_OUTER_BOUND('',#255,.T.);
#177=FACE_OUTER_BOUND('',#262,.T.);
#178=FACE_OUTER_BOUND('',#269,.T.);
#179=FACE_OUTER_BOUND('',#270,.T.);
#180=FACE_OUTER_BOUND('',#271,.T.);
#181=FACE_OUTER_BOUND('',#272,.T.);
#182=FACE_OUTER_BOUND('',#273,.T.);
#183=FACE_OUTER_BOUND('',#274,.T.);
#184=FACE_OUTER_BOUND('',#275,.T.);
#185=FACE_OUTER_BOUND('',#276,.T.);
#186=FACE_OUTER_BOUND('',#277,.T.);
#187=FACE_OUTER_BOUND('',#278,.T.);
#188=FACE_OUTER_BOUND('',#279,.T.);
#189=FACE_OUTER_BOUND('',#280,.T.);
#190=FACE_OUTER_BOUND('',#281,.T.);
#191=FACE_OUTER_BOUND('',#282,.T.);
#192=FACE_OUTER_BOUND('',#283,.T.);
#193=FACE_OUTER_BOUND('',#309,.T.);
#194=EDGE_LOOP('',(#996,#997,#998,#999));
#195=EDGE_LOOP('',(#1000));
#196=EDGE_LOOP('',(#1001));
#197=EDGE_LOOP('',(#1002,#1003,#1004,#1005));
#198=EDGE_LOOP('',(#1006));
#199=EDGE_LOOP('',(#1007));
#200=EDGE_LOOP('',(#1008,#1009,#1010,#1011));
#201=EDGE_LOOP('',(#1012));
#202=EDGE_LOOP('',(#1013));
#203=EDGE_LOOP('',(#1014,#1015,#1016,#1017));
#204=EDGE_LOOP('',(#1018));
#205=EDGE_LOOP('',(#1019));
#206=EDGE_LOOP('',(#1020,#1021,#1022,#1023));
#207=EDGE_LOOP('',(#1024,#1025,#1026,#1027));
#208=EDGE_LOOP('',(#1028,#1029,#1030,#1031));
#209=EDGE_LOOP('',(#1032,#1033,#1034,#1035));
#210=EDGE_LOOP('',(#1036,#1037,#1038,#1039));
#211=EDGE_LOOP('',(#1040,#1041,#1042,#1043));
#212=EDGE_LOOP('',(#1044,#1045,#1046,#1047));
#213=EDGE_LOOP('',(#1048,#1049,#1050,#1051));
#214=EDGE_LOOP('',(#1052,#1053,#1054,#1055));
#215=EDGE_LOOP('',(#1056,#1057,#1058,#1059));
#216=EDGE_LOOP('',(#1060,#1061,#1062,#1063));
#217=EDGE_LOOP('',(#1064,#1065,#1066,#1067));
#218=EDGE_LOOP('',(#1068,#1069,#1070,#1071));
#219=EDGE_LOOP('',(#1072,#1073,#1074,#1075));
#220=EDGE_LOOP('',(#1076,#1077,#1078,#1079));
#221=EDGE_LOOP('',(#1080,#1081,#1082,#1083));
#222=EDGE_LOOP('',(#1084,#1085,#1086,#1087));
#223=EDGE_LOOP('',(#1088,#1089,#1090,#1091));
#224=EDGE_LOOP('',(#1092,#1093,#1094,#1095));
#225=EDGE_LOOP('',(#1096,#1097,#1098,#1099));
#226=EDGE_LOOP('',(#1100,#1101,#1102,#1103));
#227=EDGE_LOOP('',(#1104,#1105,#1106,#1107));
#228=EDGE_LOOP('',(#1108,#1109,#1110,#1111));
#229=EDGE_LOOP('',(#1112,#1113,#1114,#1115));
#230=EDGE_LOOP('',(#1116,#1117,#1118,#1119));
#231=EDGE_LOOP('',(#1120,#1121,#1122,#1123));
#232=EDGE_LOOP('',(#1124,#1125,#1126,#1127));
#233=EDGE_LOOP('',(#1128,#1129,#1130,#1131));
#234=EDGE_LOOP('',(#1132,#1133));
#235=EDGE_LOOP('',(#1134,#1135,#1136,#1137,#1138,#1139,#1140,#1141));
#236=EDGE_LOOP('',(#1142,#1143));
#237=EDGE_LOOP('',(#1144,#1145,#1146,#1147));
#238=EDGE_LOOP('',(#1148,#1149,#1150,#1151));
#239=EDGE_LOOP('',(#1152,#1153,#1154,#1155));
#240=EDGE_LOOP('',(#1156,#1157,#1158,#1159));
#241=EDGE_LOOP('',(#1160,#1161,#1162,#1163));
#242=EDGE_LOOP('',(#1164,#1165,#1166,#1167));
#243=EDGE_LOOP('',(#1168,#1169));
#244=EDGE_LOOP('',(#1170,#1171,#1172,#1173,#1174,#1175,#1176,#1177));
#245=EDGE_LOOP('',(#1178,#1179));
#246=EDGE_LOOP('',(#1180,#1181,#1182,#1183));
#247=EDGE_LOOP('',(#1184,#1185,#1186,#1187));
#248=EDGE_LOOP('',(#1188,#1189));
#249=EDGE_LOOP('',(#1190,#1191,#1192,#1193,#1194,#1195,#1196,#1197));
#250=EDGE_LOOP('',(#1198,#1199));
#251=EDGE_LOOP('',(#1200,#1201,#1202,#1203));
#252=EDGE_LOOP('',(#1204,#1205,#1206,#1207));
#253=EDGE_LOOP('',(#1208,#1209,#1210,#1211));
#254=EDGE_LOOP('',(#1212,#1213,#1214,#1215));
#255=EDGE_LOOP('',(#1216,#1217,#1218,#1219,#1220));
#256=EDGE_LOOP('',(#1221,#1222,#1223,#1224));
#257=EDGE_LOOP('',(#1225,#1226,#1227,#1228));
#258=EDGE_LOOP('',(#1229));
#259=EDGE_LOOP('',(#1230));
#260=EDGE_LOOP('',(#1231));
#261=EDGE_LOOP('',(#1232));
#262=EDGE_LOOP('',(#1233,#1234,#1235,#1236,#1237));
#263=EDGE_LOOP('',(#1238,#1239,#1240,#1241));
#264=EDGE_LOOP('',(#1242,#1243,#1244,#1245));
#265=EDGE_LOOP('',(#1246));
#266=EDGE_LOOP('',(#1247));
#267=EDGE_LOOP('',(#1248));
#268=EDGE_LOOP('',(#1249));
#269=EDGE_LOOP('',(#1250,#1251,#1252,#1253,#1254,#1255,#1256,#1257,#1258,
#1259));
#270=EDGE_LOOP('',(#1260,#1261,#1262,#1263));
#271=EDGE_LOOP('',(#1264,#1265,#1266,#1267));
#272=EDGE_LOOP('',(#1268,#1269,#1270,#1271));
#273=EDGE_LOOP('',(#1272,#1273,#1274,#1275));
#274=EDGE_LOOP('',(#1276,#1277,#1278,#1279));
#275=EDGE_LOOP('',(#1280,#1281,#1282,#1283));
#276=EDGE_LOOP('',(#1284,#1285,#1286,#1287,#1288,#1289,#1290,#1291,#1292,
#1293));
#277=EDGE_LOOP('',(#1294,#1295,#1296,#1297));
#278=EDGE_LOOP('',(#1298,#1299,#1300,#1301));
#279=EDGE_LOOP('',(#1302,#1303,#1304,#1305));
#280=EDGE_LOOP('',(#1306,#1307,#1308,#1309));
#281=EDGE_LOOP('',(#1310,#1311,#1312,#1313));
#282=EDGE_LOOP('',(#1314,#1315,#1316,#1317));
#283=EDGE_LOOP('',(#1318,#1319,#1320,#1321));
#284=EDGE_LOOP('',(#1322,#1323,#1324,#1325));
#285=EDGE_LOOP('',(#1326,#1327,#1328,#1329));
#286=EDGE_LOOP('',(#1330,#1331,#1332,#1333));
#287=EDGE_LOOP('',(#1334,#1335,#1336,#1337));
#288=EDGE_LOOP('',(#1338,#1339,#1340,#1341));
#289=EDGE_LOOP('',(#1342,#1343,#1344,#1345));
#290=EDGE_LOOP('',(#1346));
#291=EDGE_LOOP('',(#1347));
#292=EDGE_LOOP('',(#1348));
#293=EDGE_LOOP('',(#1349));
#294=EDGE_LOOP('',(#1350));
#295=EDGE_LOOP('',(#1351));
#296=EDGE_LOOP('',(#1352));
#297=EDGE_LOOP('',(#1353));
#298=EDGE_LOOP('',(#1354));
#299=EDGE_LOOP('',(#1355));
#300=EDGE_LOOP('',(#1356));
#301=EDGE_LOOP('',(#1357));
#302=EDGE_LOOP('',(#1358));
#303=EDGE_LOOP('',(#1359));
#304=EDGE_LOOP('',(#1360));
#305=EDGE_LOOP('',(#1361));
#306=EDGE_LOOP('',(#1362));
#307=EDGE_LOOP('',(#1363));
#308=EDGE_LOOP('',(#1364));
#309=EDGE_LOOP('',(#1365,#1366,#1367,#1368));
#310=EDGE_LOOP('',(#1369));
#311=EDGE_LOOP('',(#1370));
#312=EDGE_LOOP('',(#1371));
#313=EDGE_LOOP('',(#1372));
#314=EDGE_LOOP('',(#1373));
#315=EDGE_LOOP('',(#1374));
#316=EDGE_LOOP('',(#1375));
#317=EDGE_LOOP('',(#1376));
#318=EDGE_LOOP('',(#1377,#1378,#1379,#1380,#1381,#1382,#1383,#1384,#1385,
#1386,#1387,#1388,#1389));
#319=EDGE_LOOP('',(#1390,#1391,#1392,#1393));
#320=EDGE_LOOP('',(#1394,#1395,#1396,#1397));
#321=LINE('',#2059,#464);
#322=LINE('',#2068,#465);
#323=LINE('',#2077,#466);
#324=LINE('',#2086,#467);
#325=LINE('',#2094,#468);
#326=LINE('',#2096,#469);
#327=LINE('',#2098,#470);
#328=LINE('',#2099,#471);
#329=LINE('',#2102,#472);
#330=LINE('',#2104,#473);
#331=LINE('',#2105,#474);
#332=LINE('',#2108,#475);
#333=LINE('',#2110,#476);
#334=LINE('',#2111,#477);
#335=LINE('',#2113,#478);
#336=LINE('',#2114,#479);
#337=LINE('',#2118,#480);
#338=LINE('',#2120,#481);
#339=LINE('',#2122,#482);
#340=LINE('',#2123,#483);
#341=LINE('',#2126,#484);
#342=LINE('',#2128,#485);
#343=LINE('',#2129,#486);
#344=LINE('',#2132,#487);
#345=LINE('',#2134,#488);
#346=LINE('',#2135,#489);
#347=LINE('',#2137,#490);
#348=LINE('',#2138,#491);
#349=LINE('',#2142,#492);
#350=LINE('',#2144,#493);
#351=LINE('',#2146,#494);
#352=LINE('',#2147,#495);
#353=LINE('',#2150,#496);
#354=LINE('',#2152,#497);
#355=LINE('',#2153,#498);
#356=LINE('',#2156,#499);
#357=LINE('',#2158,#500);
#358=LINE('',#2159,#501);
#359=LINE('',#2161,#502);
#360=LINE('',#2162,#503);
#361=LINE('',#2166,#504);
#362=LINE('',#2168,#505);
#363=LINE('',#2170,#506);
#364=LINE('',#2171,#507);
#365=LINE('',#2174,#508);
#366=LINE('',#2176,#509);
#367=LINE('',#2177,#510);
#368=LINE('',#2180,#511);
#369=LINE('',#2182,#512);
#370=LINE('',#2183,#513);
#371=LINE('',#2185,#514);
#372=LINE('',#2186,#515);
#373=LINE('',#2190,#516);
#374=LINE('',#2192,#517);
#375=LINE('',#2194,#518);
#376=LINE('',#2195,#519);
#377=LINE('',#2198,#520);
#378=LINE('',#2200,#521);
#379=LINE('',#2201,#522);
#380=LINE('',#2204,#523);
#381=LINE('',#2206,#524);
#382=LINE('',#2207,#525);
#383=LINE('',#2209,#526);
#384=LINE('',#2210,#527);
#385=LINE('',#2214,#528);
#386=LINE('',#2216,#529);
#387=LINE('',#2218,#530);
#388=LINE('',#2219,#531);
#389=LINE('',#2222,#532);
#390=LINE('',#2224,#533);
#391=LINE('',#2225,#534);
#392=LINE('',#2228,#535);
#393=LINE('',#2230,#536);
#394=LINE('',#2231,#537);
#395=LINE('',#2233,#538);
#396=LINE('',#2234,#539);
#397=LINE('',#2238,#540);
#398=LINE('',#2242,#541);
#399=LINE('',#2247,#542);
#400=LINE('',#2253,#543);
#401=LINE('',#2258,#544);
#402=LINE('',#2269,#545);
#403=LINE('',#2272,#546);
#404=LINE('',#2277,#547);
#405=LINE('',#2283,#548);
#406=LINE('',#2289,#549);
#407=LINE('',#2295,#550);
#408=LINE('',#2301,#551);
#409=LINE('',#2307,#552);
#410=LINE('',#2312,#553);
#411=LINE('',#2323,#554);
#412=LINE('',#2326,#555);
#413=LINE('',#2331,#556);
#414=LINE('',#2337,#557);
#415=LINE('',#2342,#558);
#416=LINE('',#2353,#559);
#417=LINE('',#2356,#560);
#418=LINE('',#2361,#561);
#419=LINE('',#2367,#562);
#420=LINE('',#2372,#563);
#421=LINE('',#2376,#564);
#422=LINE('',#2378,#565);
#423=LINE('',#2379,#566);
#424=LINE('',#2381,#567);
#425=LINE('',#2382,#568);
#426=LINE('',#2385,#569);
#427=LINE('',#2387,#570);
#428=LINE('',#2389,#571);
#429=LINE('',#2391,#572);
#430=LINE('',#2392,#573);
#431=LINE('',#2395,#574);
#432=LINE('',#2397,#575);
#433=LINE('',#2398,#576);
#434=LINE('',#2401,#577);
#435=LINE('',#2403,#578);
#436=LINE('',#2404,#579);
#437=LINE('',#2406,#580);
#438=LINE('',#2407,#581);
#439=LINE('',#2412,#582);
#440=LINE('',#2414,#583);
#441=LINE('',#2416,#584);
#442=LINE('',#2417,#585);
#443=LINE('',#2420,#586);
#444=LINE('',#2422,#587);
#445=LINE('',#2423,#588);
#446=LINE('',#2425,#589);
#447=LINE('',#2427,#590);
#448=LINE('',#2429,#591);
#449=LINE('',#2430,#592);
#450=LINE('',#2432,#593);
#451=LINE('',#2433,#594);
#452=LINE('',#2438,#595);
#453=LINE('',#2440,#596);
#454=LINE('',#2442,#597);
#455=LINE('',#2443,#598);
#456=LINE('',#2446,#599);
#457=LINE('',#2448,#600);
#458=LINE('',#2449,#601);
#459=LINE('',#2452,#602);
#460=LINE('',#2454,#603);
#461=LINE('',#2455,#604);
#462=LINE('',#2457,#605);
#463=LINE('',#2458,#606);
#464=VECTOR('',#1649,3.24999999999999);
#465=VECTOR('',#1660,3.24999999999999);
#466=VECTOR('',#1671,3.24999999999999);
#467=VECTOR('',#1682,3.24999999999999);
#468=VECTOR('',#1691,10.);
#469=VECTOR('',#1692,10.);
#470=VECTOR('',#1693,10.);
#471=VECTOR('',#1694,10.);
#472=VECTOR('',#1697,10.);
#473=VECTOR('',#1698,10.);
#474=VECTOR('',#1699,10.);
#475=VECTOR('',#1702,10.);
#476=VECTOR('',#1703,10.);
#477=VECTOR('',#1704,10.);
#478=VECTOR('',#1707,10.);
#479=VECTOR('',#1708,10.);
#480=VECTOR('',#1711,10.);
#481=VECTOR('',#1712,10.);
#482=VECTOR('',#1713,10.);
#483=VECTOR('',#1714,10.);
#484=VECTOR('',#1717,10.);
#485=VECTOR('',#1718,10.);
#486=VECTOR('',#1719,10.);
#487=VECTOR('',#1722,10.);
#488=VECTOR('',#1723,10.);
#489=VECTOR('',#1724,10.);
#490=VECTOR('',#1727,10.);
#491=VECTOR('',#1728,10.);
#492=VECTOR('',#1731,10.);
#493=VECTOR('',#1732,10.);
#494=VECTOR('',#1733,10.);
#495=VECTOR('',#1734,10.);
#496=VECTOR('',#1737,10.);
#497=VECTOR('',#1738,10.);
#498=VECTOR('',#1739,10.);
#499=VECTOR('',#1742,10.);
#500=VECTOR('',#1743,10.);
#501=VECTOR('',#1744,10.);
#502=VECTOR('',#1747,10.);
#503=VECTOR('',#1748,10.);
#504=VECTOR('',#1751,10.);
#505=VECTOR('',#1752,10.);
#506=VECTOR('',#1753,10.);
#507=VECTOR('',#1754,10.);
#508=VECTOR('',#1757,10.);
#509=VECTOR('',#1758,10.);
#510=VECTOR('',#1759,10.);
#511=VECTOR('',#1762,10.);
#512=VECTOR('',#1763,10.);
#513=VECTOR('',#1764,10.);
#514=VECTOR('',#1767,10.);
#515=VECTOR('',#1768,10.);
#516=VECTOR('',#1771,10.);
#517=VECTOR('',#1772,10.);
#518=VECTOR('',#1773,10.);
#519=VECTOR('',#1774,10.);
#520=VECTOR('',#1777,10.);
#521=VECTOR('',#1778,10.);
#522=VECTOR('',#1779,10.);
#523=VECTOR('',#1782,10.);
#524=VECTOR('',#1783,10.);
#525=VECTOR('',#1784,10.);
#526=VECTOR('',#1787,10.);
#527=VECTOR('',#1788,10.);
#528=VECTOR('',#1791,10.);
#529=VECTOR('',#1792,10.);
#530=VECTOR('',#1793,10.);
#531=VECTOR('',#1794,10.);
#532=VECTOR('',#1797,10.);
#533=VECTOR('',#1798,10.);
#534=VECTOR('',#1799,10.);
#535=VECTOR('',#1802,10.);
#536=VECTOR('',#1803,10.);
#537=VECTOR('',#1804,10.);
#538=VECTOR('',#1807,10.);
#539=VECTOR('',#1808,10.);
#540=VECTOR('',#1813,1.7);
#541=VECTOR('',#1818,1.7);
#542=VECTOR('',#1823,1.8);
#543=VECTOR('',#1830,1.8);
#544=VECTOR('',#1835,10.);
#545=VECTOR('',#1848,19.5);
#546=VECTOR('',#1853,10.);
#547=VECTOR('',#1858,1.8);
#548=VECTOR('',#1865,1.8);
#549=VECTOR('',#1872,1.8);
#550=VECTOR('',#1879,1.8);
#551=VECTOR('',#1886,1.8);
#552=VECTOR('',#1893,1.8);
#553=VECTOR('',#1898,10.);
#554=VECTOR('',#1911,19.5);
#555=VECTOR('',#1916,10.);
#556=VECTOR('',#1921,1.8);
#557=VECTOR('',#1928,1.8);
#558=VECTOR('',#1933,10.);
#559=VECTOR('',#1946,19.5);
#560=VECTOR('',#1951,10.);
#561=VECTOR('',#1956,1.8);
#562=VECTOR('',#1963,1.8);
#563=VECTOR('',#1970,1.7);
#564=VECTOR('',#1975,1.7);
#565=VECTOR('',#1978,10.);
#566=VECTOR('',#1979,10.);
#567=VECTOR('',#1982,10.);
#568=VECTOR('',#1983,10.);
#569=VECTOR('',#1986,10.);
#570=VECTOR('',#1987,10.);
#571=VECTOR('',#1988,10.);
#572=VECTOR('',#1989,10.);
#573=VECTOR('',#1990,10.);
#574=VECTOR('',#1993,10.);
#575=VECTOR('',#1994,10.);
#576=VECTOR('',#1995,10.);
#577=VECTOR('',#1998,10.);
#578=VECTOR('',#1999,10.);
#579=VECTOR('',#2000,10.);
#580=VECTOR('',#2003,10.);
#581=VECTOR('',#2004,10.);
#582=VECTOR('',#2009,10.);
#583=VECTOR('',#2010,10.);
#584=VECTOR('',#2011,10.);
#585=VECTOR('',#2012,10.);
#586=VECTOR('',#2015,10.);
#587=VECTOR('',#2016,10.);
#588=VECTOR('',#2017,10.);
#589=VECTOR('',#2020,10.);
#590=VECTOR('',#2021,10.);
#591=VECTOR('',#2022,10.);
#592=VECTOR('',#2023,10.);
#593=VECTOR('',#2026,10.);
#594=VECTOR('',#2027,10.);
#595=VECTOR('',#2032,10.);
#596=VECTOR('',#2033,10.);
#597=VECTOR('',#2034,10.);
#598=VECTOR('',#2035,10.);
#599=VECTOR('',#2038,10.);
#600=VECTOR('',#2039,10.);
#601=VECTOR('',#2040,10.);
#602=VECTOR('',#2043,10.);
#603=VECTOR('',#2044,10.);
#604=VECTOR('',#2045,10.);
#605=VECTOR('',#2048,10.);
#606=VECTOR('',#2049,10.);
#607=CIRCLE('',#1511,3.24999999999999);
#608=CIRCLE('',#1512,3.24999999999999);
#609=CIRCLE('',#1514,1.7);
#610=CIRCLE('',#1516,3.24999999999999);
#611=CIRCLE('',#1517,3.24999999999999);
#612=CIRCLE('',#1519,1.7);
#613=CIRCLE('',#1521,3.24999999999999);
#614=CIRCLE('',#1522,3.24999999999999);
#615=CIRCLE('',#1524,1.7);
#616=CIRCLE('',#1526,3.24999999999999);
#617=CIRCLE('',#1527,3.24999999999999);
#618=CIRCLE('',#1529,1.7);
#619=CIRCLE('',#1555,1.7);
#620=CIRCLE('',#1557,1.7);
#621=CIRCLE('',#1559,1.8);
#622=CIRCLE('',#1560,1.8);
#623=CIRCLE('',#1562,1.8);
#624=CIRCLE('',#1563,1.8);
#625=CIRCLE('',#1565,19.5);
#626=CIRCLE('',#1567,19.5);
#627=CIRCLE('',#1568,19.5);
#628=CIRCLE('',#1569,19.5);
#629=CIRCLE('',#1570,19.5);
#630=CIRCLE('',#1571,19.5);
#631=CIRCLE('',#1574,1.8);
#632=CIRCLE('',#1575,1.8);
#633=CIRCLE('',#1577,1.8);
#634=CIRCLE('',#1578,1.8);
#635=CIRCLE('',#1580,1.8);
#636=CIRCLE('',#1581,1.8);
#637=CIRCLE('',#1583,1.8);
#638=CIRCLE('',#1584,1.8);
#639=CIRCLE('',#1586,1.8);
#640=CIRCLE('',#1587,1.8);
#641=CIRCLE('',#1589,1.8);
#642=CIRCLE('',#1590,1.8);
#643=CIRCLE('',#1592,19.5);
#644=CIRCLE('',#1594,19.5);
#645=CIRCLE('',#1595,19.5);
#646=CIRCLE('',#1596,19.5);
#647=CIRCLE('',#1597,19.5);
#648=CIRCLE('',#1598,19.5);
#649=CIRCLE('',#1601,1.8);
#650=CIRCLE('',#1602,1.8);
#651=CIRCLE('',#1604,1.8);
#652=CIRCLE('',#1605,1.8);
#653=CIRCLE('',#1607,19.5);
#654=CIRCLE('',#1609,19.5);
#655=CIRCLE('',#1610,19.5);
#656=CIRCLE('',#1611,19.5);
#657=CIRCLE('',#1612,19.5);
#658=CIRCLE('',#1613,19.5);
#659=CIRCLE('',#1616,1.8);
#660=CIRCLE('',#1617,1.8);
#661=CIRCLE('',#1619,1.8);
#662=CIRCLE('',#1620,1.8);
#663=CIRCLE('',#1622,1.7);
#664=CIRCLE('',#1624,1.7);
#665=VERTEX_POINT('',#2056);
#666=VERTEX_POINT('',#2058);
#667=VERTEX_POINT('',#2062);
#668=VERTEX_POINT('',#2065);
#669=VERTEX_POINT('',#2067);
#670=VERTEX_POINT('',#2071);
#671=VERTEX_POINT('',#2074);
#672=VERTEX_POINT('',#2076);
#673=VERTEX_POINT('',#2080);
#674=VERTEX_POINT('',#2083);
#675=VERTEX_POINT('',#2085);
#676=VERTEX_POINT('',#2089);
#677=VERTEX_POINT('',#2092);
#678=VERTEX_POINT('',#2093);
#679=VERTEX_POINT('',#2095);
#680=VERTEX_POINT('',#2097);
#681=VERTEX_POINT('',#2101);
#682=VERTEX_POINT('',#2103);
#683=VERTEX_POINT('',#2107);
#684=VERTEX_POINT('',#2109);
#685=VERTEX_POINT('',#2116);
#686=VERTEX_POINT('',#2117);
#687=VERTEX_POINT('',#2119);
#688=VERTEX_POINT('',#2121);
#689=VERTEX_POINT('',#2125);
#690=VERTEX_POINT('',#2127);
#691=VERTEX_POINT('',#2131);
#692=VERTEX_POINT('',#2133);
#693=VERTEX_POINT('',#2140);
#694=VERTEX_POINT('',#2141);
#695=VERTEX_POINT('',#2143);
#696=VERTEX_POINT('',#2145);
#697=VERTEX_POINT('',#2149);
#698=VERTEX_POINT('',#2151);
#699=VERTEX_POINT('',#2155);
#700=VERTEX_POINT('',#2157);
#701=VERTEX_POINT('',#2164);
#702=VERTEX_POINT('',#2165);
#703=VERTEX_POINT('',#2167);
#704=VERTEX_POINT('',#2169);
#705=VERTEX_POINT('',#2173);
#706=VERTEX_POINT('',#2175);
#707=VERTEX_POINT('',#2179);
#708=VERTEX_POINT('',#2181);
#709=VERTEX_POINT('',#2188);
#710=VERTEX_POINT('',#2189);
#711=VERTEX_POINT('',#2191);
#712=VERTEX_POINT('',#2193);
#713=VERTEX_POINT('',#2197);
#714=VERTEX_POINT('',#2199);
#715=VERTEX_POINT('',#2203);
#716=VERTEX_POINT('',#2205);
#717=VERTEX_POINT('',#2212);
#718=VERTEX_POINT('',#2213);
#719=VERTEX_POINT('',#2215);
#720=VERTEX_POINT('',#2217);
#721=VERTEX_POINT('',#2221);
#722=VERTEX_POINT('',#2223);
#723=VERTEX_POINT('',#2227);
#724=VERTEX_POINT('',#2229);
#725=VERTEX_POINT('',#2236);
#726=VERTEX_POINT('',#2240);
#727=VERTEX_POINT('',#2244);
#728=VERTEX_POINT('',#2246);
#729=VERTEX_POINT('',#2250);
#730=VERTEX_POINT('',#2252);
#731=VERTEX_POINT('',#2256);
#732=VERTEX_POINT('',#2257);
#733=VERTEX_POINT('',#2261);
#734=VERTEX_POINT('',#2262);
#735=VERTEX_POINT('',#2264);
#736=VERTEX_POINT('',#2268);
#737=VERTEX_POINT('',#2274);
#738=VERTEX_POINT('',#2276);
#739=VERTEX_POINT('',#2280);
#740=VERTEX_POINT('',#2282);
#741=VERTEX_POINT('',#2286);
#742=VERTEX_POINT('',#2288);
#743=VERTEX_POINT('',#2292);
#744=VERTEX_POINT('',#2294);
#745=VERTEX_POINT('',#2298);
#746=VERTEX_POINT('',#2300);
#747=VERTEX_POINT('',#2304);
#748=VERTEX_POINT('',#2306);
#749=VERTEX_POINT('',#2310);
#750=VERTEX_POINT('',#2311);
#751=VERTEX_POINT('',#2315);
#752=VERTEX_POINT('',#2316);
#753=VERTEX_POINT('',#2318);
#754=VERTEX_POINT('',#2322);
#755=VERTEX_POINT('',#2328);
#756=VERTEX_POINT('',#2330);
#757=VERTEX_POINT('',#2334);
#758=VERTEX_POINT('',#2336);
#759=VERTEX_POINT('',#2340);
#760=VERTEX_POINT('',#2341);
#761=VERTEX_POINT('',#2345);
#762=VERTEX_POINT('',#2346);
#763=VERTEX_POINT('',#2348);
#764=VERTEX_POINT('',#2352);
#765=VERTEX_POINT('',#2358);
#766=VERTEX_POINT('',#2360);
#767=VERTEX_POINT('',#2364);
#768=VERTEX_POINT('',#2366);
#769=VERTEX_POINT('',#2370);
#770=VERTEX_POINT('',#2374);
#771=VERTEX_POINT('',#2384);
#772=VERTEX_POINT('',#2386);
#773=VERTEX_POINT('',#2388);
#774=VERTEX_POINT('',#2390);
#775=VERTEX_POINT('',#2394);
#776=VERTEX_POINT('',#2396);
#777=VERTEX_POINT('',#2400);
#778=VERTEX_POINT('',#2402);
#779=VERTEX_POINT('',#2410);
#780=VERTEX_POINT('',#2411);
#781=VERTEX_POINT('',#2413);
#782=VERTEX_POINT('',#2415);
#783=VERTEX_POINT('',#2419);
#784=VERTEX_POINT('',#2421);
#785=VERTEX_POINT('',#2426);
#786=VERTEX_POINT('',#2428);
#787=VERTEX_POINT('',#2436);
#788=VERTEX_POINT('',#2437);
#789=VERTEX_POINT('',#2439);
#790=VERTEX_POINT('',#2441);
#791=VERTEX_POINT('',#2445);
#792=VERTEX_POINT('',#2447);
#793=VERTEX_POINT('',#2451);
#794=VERTEX_POINT('',#2453);
#795=EDGE_CURVE('',#665,#665,#607,.T.);
#796=EDGE_CURVE('',#665,#666,#321,.T.);
#797=EDGE_CURVE('',#666,#666,#608,.T.);
#798=EDGE_CURVE('',#667,#667,#609,.T.);
#799=EDGE_CURVE('',#668,#668,#610,.T.);
#800=EDGE_CURVE('',#668,#669,#322,.T.);
#801=EDGE_CURVE('',#669,#669,#611,.T.);
#802=EDGE_CURVE('',#670,#670,#612,.T.);
#803=EDGE_CURVE('',#671,#671,#613,.T.);
#804=EDGE_CURVE('',#671,#672,#323,.T.);
#805=EDGE_CURVE('',#672,#672,#614,.T.);
#806=EDGE_CURVE('',#673,#673,#615,.T.);
#807=EDGE_CURVE('',#674,#674,#616,.T.);
#808=EDGE_CURVE('',#674,#675,#324,.T.);
#809=EDGE_CURVE('',#675,#675,#617,.T.);
#810=EDGE_CURVE('',#676,#676,#618,.T.);
#811=EDGE_CURVE('',#677,#678,#325,.T.);
#812=EDGE_CURVE('',#677,#679,#326,.T.);
#813=EDGE_CURVE('',#680,#679,#327,.T.);
#814=EDGE_CURVE('',#678,#680,#328,.T.);
#815=EDGE_CURVE('',#681,#677,#329,.T.);
#816=EDGE_CURVE('',#681,#682,#330,.T.);
#817=EDGE_CURVE('',#679,#682,#331,.T.);
#818=EDGE_CURVE('',#683,#681,#332,.T.);
#819=EDGE_CURVE('',#683,#684,#333,.T.);
#820=EDGE_CURVE('',#682,#684,#334,.T.);
#821=EDGE_CURVE('',#678,#683,#335,.T.);
#822=EDGE_CURVE('',#684,#680,#336,.T.);
#823=EDGE_CURVE('',#685,#686,#337,.T.);
#824=EDGE_CURVE('',#685,#687,#338,.T.);
#825=EDGE_CURVE('',#688,#687,#339,.T.);
#826=EDGE_CURVE('',#686,#688,#340,.T.);
#827=EDGE_CURVE('',#689,#685,#341,.T.);
#828=EDGE_CURVE('',#689,#690,#342,.T.);
#829=EDGE_CURVE('',#687,#690,#343,.T.);
#830=EDGE_CURVE('',#691,#689,#344,.T.);
#831=EDGE_CURVE('',#691,#692,#345,.T.);
#832=EDGE_CURVE('',#690,#692,#346,.T.);
#833=EDGE_CURVE('',#686,#691,#347,.T.);
#834=EDGE_CURVE('',#692,#688,#348,.T.);
#835=EDGE_CURVE('',#693,#694,#349,.T.);
#836=EDGE_CURVE('',#693,#695,#350,.T.);
#837=EDGE_CURVE('',#696,#695,#351,.T.);
#838=EDGE_CURVE('',#694,#696,#352,.T.);
#839=EDGE_CURVE('',#697,#693,#353,.T.);
#840=EDGE_CURVE('',#697,#698,#354,.T.);
#841=EDGE_CURVE('',#695,#698,#355,.T.);
#842=EDGE_CURVE('',#699,#697,#356,.T.);
#843=EDGE_CURVE('',#699,#700,#357,.T.);
#844=EDGE_CURVE('',#698,#700,#358,.T.);
#845=EDGE_CURVE('',#694,#699,#359,.T.);
#846=EDGE_CURVE('',#700,#696,#360,.T.);
#847=EDGE_CURVE('',#701,#702,#361,.T.);
#848=EDGE_CURVE('',#701,#703,#362,.T.);
#849=EDGE_CURVE('',#704,#703,#363,.T.);
#850=EDGE_CURVE('',#702,#704,#364,.T.);
#851=EDGE_CURVE('',#705,#701,#365,.T.);
#852=EDGE_CURVE('',#705,#706,#366,.T.);
#853=EDGE_CURVE('',#703,#706,#367,.T.);
#854=EDGE_CURVE('',#707,#705,#368,.T.);
#855=EDGE_CURVE('',#707,#708,#369,.T.);
#856=EDGE_CURVE('',#706,#708,#370,.T.);
#857=EDGE_CURVE('',#702,#707,#371,.T.);
#858=EDGE_CURVE('',#708,#704,#372,.T.);
#859=EDGE_CURVE('',#709,#710,#373,.T.);
#860=EDGE_CURVE('',#709,#711,#374,.T.);
#861=EDGE_CURVE('',#712,#711,#375,.T.);
#862=EDGE_CURVE('',#710,#712,#376,.T.);
#863=EDGE_CURVE('',#713,#709,#377,.T.);
#864=EDGE_CURVE('',#713,#714,#378,.T.);
#865=EDGE_CURVE('',#711,#714,#379,.T.);
#866=EDGE_CURVE('',#715,#713,#380,.T.);
#867=EDGE_CURVE('',#715,#716,#381,.T.);
#868=EDGE_CURVE('',#714,#716,#382,.T.);
#869=EDGE_CURVE('',#710,#715,#383,.T.);
#870=EDGE_CURVE('',#716,#712,#384,.T.);
#871=EDGE_CURVE('',#717,#718,#385,.T.);
#872=EDGE_CURVE('',#717,#719,#386,.T.);
#873=EDGE_CURVE('',#720,#719,#387,.T.);
#874=EDGE_CURVE('',#718,#720,#388,.T.);
#875=EDGE_CURVE('',#721,#717,#389,.T.);
#876=EDGE_CURVE('',#721,#722,#390,.T.);
#877=EDGE_CURVE('',#719,#722,#391,.T.);
#878=EDGE_CURVE('',#723,#721,#392,.T.);
#879=EDGE_CURVE('',#723,#724,#393,.T.);
#880=EDGE_CURVE('',#722,#724,#394,.T.);
#881=EDGE_CURVE('',#718,#723,#395,.T.);
#882=EDGE_CURVE('',#724,#720,#396,.T.);
#883=EDGE_CURVE('',#725,#725,#619,.T.);
#884=EDGE_CURVE('',#725,#667,#397,.T.);
#885=EDGE_CURVE('',#726,#726,#620,.T.);
#886=EDGE_CURVE('',#726,#673,#398,.T.);
#887=EDGE_CURVE('',#727,#727,#621,.T.);
#888=EDGE_CURVE('',#727,#728,#399,.T.);
#889=EDGE_CURVE('',#728,#728,#622,.T.);
#890=EDGE_CURVE('',#729,#729,#623,.T.);
#891=EDGE_CURVE('',#729,#730,#400,.T.);
#892=EDGE_CURVE('',#730,#730,#624,.T.);
#893=EDGE_CURVE('',#731,#732,#401,.T.);
#894=EDGE_CURVE('',#732,#731,#625,.T.);
#895=EDGE_CURVE('',#733,#734,#626,.T.);
#896=EDGE_CURVE('',#735,#733,#627,.T.);
#897=EDGE_CURVE('',#731,#735,#628,.T.);
#898=EDGE_CURVE('',#734,#732,#629,.T.);
#899=EDGE_CURVE('',#734,#736,#402,.T.);
#900=EDGE_CURVE('',#736,#736,#630,.T.);
#901=EDGE_CURVE('',#733,#735,#403,.T.);
#902=EDGE_CURVE('',#737,#737,#631,.T.);
#903=EDGE_CURVE('',#737,#738,#404,.T.);
#904=EDGE_CURVE('',#738,#738,#632,.T.);
#905=EDGE_CURVE('',#739,#739,#633,.T.);
#906=EDGE_CURVE('',#739,#740,#405,.T.);
#907=EDGE_CURVE('',#740,#740,#634,.T.);
#908=EDGE_CURVE('',#741,#741,#635,.T.);
#909=EDGE_CURVE('',#741,#742,#406,.T.);
#910=EDGE_CURVE('',#742,#742,#636,.T.);
#911=EDGE_CURVE('',#743,#743,#637,.T.);
#912=EDGE_CURVE('',#743,#744,#407,.T.);
#913=EDGE_CURVE('',#744,#744,#638,.T.);
#914=EDGE_CURVE('',#745,#745,#639,.T.);
#915=EDGE_CURVE('',#745,#746,#408,.T.);
#916=EDGE_CURVE('',#746,#746,#640,.T.);
#917=EDGE_CURVE('',#747,#747,#641,.T.);
#918=EDGE_CURVE('',#747,#748,#409,.T.);
#919=EDGE_CURVE('',#748,#748,#642,.T.);
#920=EDGE_CURVE('',#749,#750,#410,.T.);
#921=EDGE_CURVE('',#750,#749,#643,.T.);
#922=EDGE_CURVE('',#751,#752,#644,.T.);
#923=EDGE_CURVE('',#753,#751,#645,.T.);
#924=EDGE_CURVE('',#749,#753,#646,.T.);
#925=EDGE_CURVE('',#752,#750,#647,.T.);
#926=EDGE_CURVE('',#752,#754,#411,.T.);
#927=EDGE_CURVE('',#754,#754,#648,.T.);
#928=EDGE_CURVE('',#751,#753,#412,.T.);
#929=EDGE_CURVE('',#755,#755,#649,.T.);
#930=EDGE_CURVE('',#755,#756,#413,.T.);
#931=EDGE_CURVE('',#756,#756,#650,.T.);
#932=EDGE_CURVE('',#757,#757,#651,.T.);
#933=EDGE_CURVE('',#757,#758,#414,.T.);
#934=EDGE_CURVE('',#758,#758,#652,.T.);
#935=EDGE_CURVE('',#759,#760,#415,.T.);
#936=EDGE_CURVE('',#760,#759,#653,.T.);
#937=EDGE_CURVE('',#761,#762,#654,.T.);
#938=EDGE_CURVE('',#763,#761,#655,.T.);
#939=EDGE_CURVE('',#759,#763,#656,.T.);
#940=EDGE_CURVE('',#762,#760,#657,.T.);
#941=EDGE_CURVE('',#762,#764,#416,.T.);
#942=EDGE_CURVE('',#764,#764,#658,.T.);
#943=EDGE_CURVE('',#761,#763,#417,.T.);
#944=EDGE_CURVE('',#765,#765,#659,.T.);
#945=EDGE_CURVE('',#765,#766,#418,.T.);
#946=EDGE_CURVE('',#766,#766,#660,.T.);
#947=EDGE_CURVE('',#767,#767,#661,.T.);
#948=EDGE_CURVE('',#767,#768,#419,.T.);
#949=EDGE_CURVE('',#768,#768,#662,.T.);
#950=EDGE_CURVE('',#769,#769,#663,.T.);
#951=EDGE_CURVE('',#769,#670,#420,.T.);
#952=EDGE_CURVE('',#770,#770,#664,.T.);
#953=EDGE_CURVE('',#770,#676,#421,.T.);
#954=EDGE_CURVE('',#753,#761,#422,.T.);
#955=EDGE_CURVE('',#760,#749,#423,.T.);
#956=EDGE_CURVE('',#735,#751,#424,.T.);
#957=EDGE_CURVE('',#750,#731,#425,.T.);
#958=EDGE_CURVE('',#771,#733,#426,.T.);
#959=EDGE_CURVE('',#771,#772,#427,.T.);
#960=EDGE_CURVE('',#773,#772,#428,.T.);
#961=EDGE_CURVE('',#774,#773,#429,.T.);
#962=EDGE_CURVE('',#763,#774,#430,.T.);
#963=EDGE_CURVE('',#774,#775,#431,.T.);
#964=EDGE_CURVE('',#776,#773,#432,.T.);
#965=EDGE_CURVE('',#775,#776,#433,.T.);
#966=EDGE_CURVE('',#775,#777,#434,.T.);
#967=EDGE_CURVE('',#778,#776,#435,.T.);
#968=EDGE_CURVE('',#777,#778,#436,.T.);
#969=EDGE_CURVE('',#777,#771,#437,.T.);
#970=EDGE_CURVE('',#772,#778,#438,.T.);
#971=EDGE_CURVE('',#779,#780,#439,.T.);
#972=EDGE_CURVE('',#779,#781,#440,.T.);
#973=EDGE_CURVE('',#782,#781,#441,.T.);
#974=EDGE_CURVE('',#780,#782,#442,.T.);
#975=EDGE_CURVE('',#780,#783,#443,.T.);
#976=EDGE_CURVE('',#784,#782,#444,.T.);
#977=EDGE_CURVE('',#783,#784,#445,.T.);
#978=EDGE_CURVE('',#783,#759,#446,.T.);
#979=EDGE_CURVE('',#785,#784,#447,.T.);
#980=EDGE_CURVE('',#786,#785,#448,.T.);
#981=EDGE_CURVE('',#732,#786,#449,.T.);
#982=EDGE_CURVE('',#786,#779,#450,.T.);
#983=EDGE_CURVE('',#781,#785,#451,.T.);
#984=EDGE_CURVE('',#787,#788,#452,.T.);
#985=EDGE_CURVE('',#788,#789,#453,.T.);
#986=EDGE_CURVE('',#790,#789,#454,.T.);
#987=EDGE_CURVE('',#787,#790,#455,.T.);
#988=EDGE_CURVE('',#791,#787,#456,.T.);
#989=EDGE_CURVE('',#792,#790,#457,.T.);
#990=EDGE_CURVE('',#791,#792,#458,.T.);
#991=EDGE_CURVE('',#793,#791,#459,.T.);
#992=EDGE_CURVE('',#794,#792,#460,.T.);
#993=EDGE_CURVE('',#793,#794,#461,.T.);
#994=EDGE_CURVE('',#788,#793,#462,.T.);
#995=EDGE_CURVE('',#789,#794,#463,.T.);
#996=ORIENTED_EDGE('',*,*,#795,.F.);
#997=ORIENTED_EDGE('',*,*,#796,.T.);
#998=ORIENTED_EDGE('',*,*,#797,.T.);
#999=ORIENTED_EDGE('',*,*,#796,.F.);
#1000=ORIENTED_EDGE('',*,*,#797,.F.);
#1001=ORIENTED_EDGE('',*,*,#798,.F.);
#1002=ORIENTED_EDGE('',*,*,#799,.F.);
#1003=ORIENTED_EDGE('',*,*,#800,.T.);
#1004=ORIENTED_EDGE('',*,*,#801,.T.);
#1005=ORIENTED_EDGE('',*,*,#800,.F.);
#1006=ORIENTED_EDGE('',*,*,#801,.F.);
#1007=ORIENTED_EDGE('',*,*,#802,.F.);
#1008=ORIENTED_EDGE('',*,*,#803,.F.);
#1009=ORIENTED_EDGE('',*,*,#804,.T.);
#1010=ORIENTED_EDGE('',*,*,#805,.T.);
#1011=ORIENTED_EDGE('',*,*,#804,.F.);
#1012=ORIENTED_EDGE('',*,*,#805,.F.);
#1013=ORIENTED_EDGE('',*,*,#806,.F.);
#1014=ORIENTED_EDGE('',*,*,#807,.F.);
#1015=ORIENTED_EDGE('',*,*,#808,.T.);
#1016=ORIENTED_EDGE('',*,*,#809,.T.);
#1017=ORIENTED_EDGE('',*,*,#808,.F.);
#1018=ORIENTED_EDGE('',*,*,#809,.F.);
#1019=ORIENTED_EDGE('',*,*,#810,.F.);
#1020=ORIENTED_EDGE('',*,*,#811,.F.);
#1021=ORIENTED_EDGE('',*,*,#812,.T.);
#1022=ORIENTED_EDGE('',*,*,#813,.F.);
#1023=ORIENTED_EDGE('',*,*,#814,.F.);
#1024=ORIENTED_EDGE('',*,*,#815,.F.);
#1025=ORIENTED_EDGE('',*,*,#816,.T.);
#1026=ORIENTED_EDGE('',*,*,#817,.F.);
#1027=ORIENTED_EDGE('',*,*,#812,.F.);
#1028=ORIENTED_EDGE('',*,*,#818,.F.);
#1029=ORIENTED_EDGE('',*,*,#819,.T.);
#1030=ORIENTED_EDGE('',*,*,#820,.F.);
#1031=ORIENTED_EDGE('',*,*,#816,.F.);
#1032=ORIENTED_EDGE('',*,*,#821,.F.);
#1033=ORIENTED_EDGE('',*,*,#814,.T.);
#1034=ORIENTED_EDGE('',*,*,#822,.F.);
#1035=ORIENTED_EDGE('',*,*,#819,.F.);
#1036=ORIENTED_EDGE('',*,*,#823,.F.);
#1037=ORIENTED_EDGE('',*,*,#824,.T.);
#1038=ORIENTED_EDGE('',*,*,#825,.F.);
#1039=ORIENTED_EDGE('',*,*,#826,.F.);
#1040=ORIENTED_EDGE('',*,*,#827,.F.);
#1041=ORIENTED_EDGE('',*,*,#828,.T.);
#1042=ORIENTED_EDGE('',*,*,#829,.F.);
#1043=ORIENTED_EDGE('',*,*,#824,.F.);
#1044=ORIENTED_EDGE('',*,*,#830,.F.);
#1045=ORIENTED_EDGE('',*,*,#831,.T.);
#1046=ORIENTED_EDGE('',*,*,#832,.F.);
#1047=ORIENTED_EDGE('',*,*,#828,.F.);
#1048=ORIENTED_EDGE('',*,*,#833,.F.);
#1049=ORIENTED_EDGE('',*,*,#826,.T.);
#1050=ORIENTED_EDGE('',*,*,#834,.F.);
#1051=ORIENTED_EDGE('',*,*,#831,.F.);
#1052=ORIENTED_EDGE('',*,*,#835,.F.);
#1053=ORIENTED_EDGE('',*,*,#836,.T.);
#1054=ORIENTED_EDGE('',*,*,#837,.F.);
#1055=ORIENTED_EDGE('',*,*,#838,.F.);
#1056=ORIENTED_EDGE('',*,*,#839,.F.);
#1057=ORIENTED_EDGE('',*,*,#840,.T.);
#1058=ORIENTED_EDGE('',*,*,#841,.F.);
#1059=ORIENTED_EDGE('',*,*,#836,.F.);
#1060=ORIENTED_EDGE('',*,*,#842,.F.);
#1061=ORIENTED_EDGE('',*,*,#843,.T.);
#1062=ORIENTED_EDGE('',*,*,#844,.F.);
#1063=ORIENTED_EDGE('',*,*,#840,.F.);
#1064=ORIENTED_EDGE('',*,*,#845,.F.);
#1065=ORIENTED_EDGE('',*,*,#838,.T.);
#1066=ORIENTED_EDGE('',*,*,#846,.F.);
#1067=ORIENTED_EDGE('',*,*,#843,.F.);
#1068=ORIENTED_EDGE('',*,*,#847,.F.);
#1069=ORIENTED_EDGE('',*,*,#848,.T.);
#1070=ORIENTED_EDGE('',*,*,#849,.F.);
#1071=ORIENTED_EDGE('',*,*,#850,.F.);
#1072=ORIENTED_EDGE('',*,*,#851,.F.);
#1073=ORIENTED_EDGE('',*,*,#852,.T.);
#1074=ORIENTED_EDGE('',*,*,#853,.F.);
#1075=ORIENTED_EDGE('',*,*,#848,.F.);
#1076=ORIENTED_EDGE('',*,*,#854,.F.);
#1077=ORIENTED_EDGE('',*,*,#855,.T.);
#1078=ORIENTED_EDGE('',*,*,#856,.F.);
#1079=ORIENTED_EDGE('',*,*,#852,.F.);
#1080=ORIENTED_EDGE('',*,*,#857,.F.);
#1081=ORIENTED_EDGE('',*,*,#850,.T.);
#1082=ORIENTED_EDGE('',*,*,#858,.F.);
#1083=ORIENTED_EDGE('',*,*,#855,.F.);
#1084=ORIENTED_EDGE('',*,*,#859,.F.);
#1085=ORIENTED_EDGE('',*,*,#860,.T.);
#1086=ORIENTED_EDGE('',*,*,#861,.F.);
#1087=ORIENTED_EDGE('',*,*,#862,.F.);
#1088=ORIENTED_EDGE('',*,*,#863,.F.);
#1089=ORIENTED_EDGE('',*,*,#864,.T.);
#1090=ORIENTED_EDGE('',*,*,#865,.F.);
#1091=ORIENTED_EDGE('',*,*,#860,.F.);
#1092=ORIENTED_EDGE('',*,*,#866,.F.);
#1093=ORIENTED_EDGE('',*,*,#867,.T.);
#1094=ORIENTED_EDGE('',*,*,#868,.F.);
#1095=ORIENTED_EDGE('',*,*,#864,.F.);
#1096=ORIENTED_EDGE('',*,*,#869,.F.);
#1097=ORIENTED_EDGE('',*,*,#862,.T.);
#1098=ORIENTED_EDGE('',*,*,#870,.F.);
#1099=ORIENTED_EDGE('',*,*,#867,.F.);
#1100=ORIENTED_EDGE('',*,*,#871,.F.);
#1101=ORIENTED_EDGE('',*,*,#872,.T.);
#1102=ORIENTED_EDGE('',*,*,#873,.F.);
#1103=ORIENTED_EDGE('',*,*,#874,.F.);
#1104=ORIENTED_EDGE('',*,*,#875,.F.);
#1105=ORIENTED_EDGE('',*,*,#876,.T.);
#1106=ORIENTED_EDGE('',*,*,#877,.F.);
#1107=ORIENTED_EDGE('',*,*,#872,.F.);
#1108=ORIENTED_EDGE('',*,*,#878,.F.);
#1109=ORIENTED_EDGE('',*,*,#879,.T.);
#1110=ORIENTED_EDGE('',*,*,#880,.F.);
#1111=ORIENTED_EDGE('',*,*,#876,.F.);
#1112=ORIENTED_EDGE('',*,*,#881,.F.);
#1113=ORIENTED_EDGE('',*,*,#874,.T.);
#1114=ORIENTED_EDGE('',*,*,#882,.F.);
#1115=ORIENTED_EDGE('',*,*,#879,.F.);
#1116=ORIENTED_EDGE('',*,*,#883,.F.);
#1117=ORIENTED_EDGE('',*,*,#884,.T.);
#1118=ORIENTED_EDGE('',*,*,#798,.T.);
#1119=ORIENTED_EDGE('',*,*,#884,.F.);
#1120=ORIENTED_EDGE('',*,*,#885,.F.);
#1121=ORIENTED_EDGE('',*,*,#886,.T.);
#1122=ORIENTED_EDGE('',*,*,#806,.T.);
#1123=ORIENTED_EDGE('',*,*,#886,.F.);
#1124=ORIENTED_EDGE('',*,*,#887,.F.);
#1125=ORIENTED_EDGE('',*,*,#888,.T.);
#1126=ORIENTED_EDGE('',*,*,#889,.F.);
#1127=ORIENTED_EDGE('',*,*,#888,.F.);
#1128=ORIENTED_EDGE('',*,*,#890,.F.);
#1129=ORIENTED_EDGE('',*,*,#891,.T.);
#1130=ORIENTED_EDGE('',*,*,#892,.F.);
#1131=ORIENTED_EDGE('',*,*,#891,.F.);
#1132=ORIENTED_EDGE('',*,*,#893,.T.);
#1133=ORIENTED_EDGE('',*,*,#894,.T.);
#1134=ORIENTED_EDGE('',*,*,#895,.F.);
#1135=ORIENTED_EDGE('',*,*,#896,.F.);
#1136=ORIENTED_EDGE('',*,*,#897,.F.);
#1137=ORIENTED_EDGE('',*,*,#894,.F.);
#1138=ORIENTED_EDGE('',*,*,#898,.F.);
#1139=ORIENTED_EDGE('',*,*,#899,.T.);
#1140=ORIENTED_EDGE('',*,*,#900,.F.);
#1141=ORIENTED_EDGE('',*,*,#899,.F.);
#1142=ORIENTED_EDGE('',*,*,#901,.T.);
#1143=ORIENTED_EDGE('',*,*,#896,.T.);
#1144=ORIENTED_EDGE('',*,*,#902,.F.);
#1145=ORIENTED_EDGE('',*,*,#903,.T.);
#1146=ORIENTED_EDGE('',*,*,#904,.F.);
#1147=ORIENTED_EDGE('',*,*,#903,.F.);
#1148=ORIENTED_EDGE('',*,*,#905,.F.);
#1149=ORIENTED_EDGE('',*,*,#906,.T.);
#1150=ORIENTED_EDGE('',*,*,#907,.F.);
#1151=ORIENTED_EDGE('',*,*,#906,.F.);
#1152=ORIENTED_EDGE('',*,*,#908,.F.);
#1153=ORIENTED_EDGE('',*,*,#909,.T.);
#1154=ORIENTED_EDGE('',*,*,#910,.F.);
#1155=ORIENTED_EDGE('',*,*,#909,.F.);
#1156=ORIENTED_EDGE('',*,*,#911,.F.);
#1157=ORIENTED_EDGE('',*,*,#912,.T.);
#1158=ORIENTED_EDGE('',*,*,#913,.F.);
#1159=ORIENTED_EDGE('',*,*,#912,.F.);
#1160=ORIENTED_EDGE('',*,*,#914,.F.);
#1161=ORIENTED_EDGE('',*,*,#915,.T.);
#1162=ORIENTED_EDGE('',*,*,#916,.F.);
#1163=ORIENTED_EDGE('',*,*,#915,.F.);
#1164=ORIENTED_EDGE('',*,*,#917,.F.);
#1165=ORIENTED_EDGE('',*,*,#918,.T.);
#1166=ORIENTED_EDGE('',*,*,#919,.F.);
#1167=ORIENTED_EDGE('',*,*,#918,.F.);
#1168=ORIENTED_EDGE('',*,*,#920,.T.);
#1169=ORIENTED_EDGE('',*,*,#921,.T.);
#1170=ORIENTED_EDGE('',*,*,#922,.F.);
#1171=ORIENTED_EDGE('',*,*,#923,.F.);
#1172=ORIENTED_EDGE('',*,*,#924,.F.);
#1173=ORIENTED_EDGE('',*,*,#921,.F.);
#1174=ORIENTED_EDGE('',*,*,#925,.F.);
#1175=ORIENTED_EDGE('',*,*,#926,.T.);
#1176=ORIENTED_EDGE('',*,*,#927,.F.);
#1177=ORIENTED_EDGE('',*,*,#926,.F.);
#1178=ORIENTED_EDGE('',*,*,#928,.T.);
#1179=ORIENTED_EDGE('',*,*,#923,.T.);
#1180=ORIENTED_EDGE('',*,*,#929,.F.);
#1181=ORIENTED_EDGE('',*,*,#930,.T.);
#1182=ORIENTED_EDGE('',*,*,#931,.F.);
#1183=ORIENTED_EDGE('',*,*,#930,.F.);
#1184=ORIENTED_EDGE('',*,*,#932,.F.);
#1185=ORIENTED_EDGE('',*,*,#933,.T.);
#1186=ORIENTED_EDGE('',*,*,#934,.F.);
#1187=ORIENTED_EDGE('',*,*,#933,.F.);
#1188=ORIENTED_EDGE('',*,*,#935,.T.);
#1189=ORIENTED_EDGE('',*,*,#936,.T.);
#1190=ORIENTED_EDGE('',*,*,#937,.F.);
#1191=ORIENTED_EDGE('',*,*,#938,.F.);
#1192=ORIENTED_EDGE('',*,*,#939,.F.);
#1193=ORIENTED_EDGE('',*,*,#936,.F.);
#1194=ORIENTED_EDGE('',*,*,#940,.F.);
#1195=ORIENTED_EDGE('',*,*,#941,.T.);
#1196=ORIENTED_EDGE('',*,*,#942,.F.);
#1197=ORIENTED_EDGE('',*,*,#941,.F.);
#1198=ORIENTED_EDGE('',*,*,#943,.T.);
#1199=ORIENTED_EDGE('',*,*,#938,.T.);
#1200=ORIENTED_EDGE('',*,*,#944,.F.);
#1201=ORIENTED_EDGE('',*,*,#945,.T.);
#1202=ORIENTED_EDGE('',*,*,#946,.F.);
#1203=ORIENTED_EDGE('',*,*,#945,.F.);
#1204=ORIENTED_EDGE('',*,*,#947,.F.);
#1205=ORIENTED_EDGE('',*,*,#948,.T.);
#1206=ORIENTED_EDGE('',*,*,#949,.F.);
#1207=ORIENTED_EDGE('',*,*,#948,.F.);
#1208=ORIENTED_EDGE('',*,*,#950,.F.);
#1209=ORIENTED_EDGE('',*,*,#951,.T.);
#1210=ORIENTED_EDGE('',*,*,#802,.T.);
#1211=ORIENTED_EDGE('',*,*,#951,.F.);
#1212=ORIENTED_EDGE('',*,*,#952,.F.);
#1213=ORIENTED_EDGE('',*,*,#953,.T.);
#1214=ORIENTED_EDGE('',*,*,#810,.T.);
#1215=ORIENTED_EDGE('',*,*,#953,.F.);
#1216=ORIENTED_EDGE('',*,*,#924,.T.);
#1217=ORIENTED_EDGE('',*,*,#954,.T.);
#1218=ORIENTED_EDGE('',*,*,#937,.T.);
#1219=ORIENTED_EDGE('',*,*,#940,.T.);
#1220=ORIENTED_EDGE('',*,*,#955,.T.);
#1221=ORIENTED_EDGE('',*,*,#847,.T.);
#1222=ORIENTED_EDGE('',*,*,#857,.T.);
#1223=ORIENTED_EDGE('',*,*,#854,.T.);
#1224=ORIENTED_EDGE('',*,*,#851,.T.);
#1225=ORIENTED_EDGE('',*,*,#859,.T.);
#1226=ORIENTED_EDGE('',*,*,#869,.T.);
#1227=ORIENTED_EDGE('',*,*,#866,.T.);
#1228=ORIENTED_EDGE('',*,*,#863,.T.);
#1229=ORIENTED_EDGE('',*,*,#944,.T.);
#1230=ORIENTED_EDGE('',*,*,#932,.T.);
#1231=ORIENTED_EDGE('',*,*,#902,.T.);
#1232=ORIENTED_EDGE('',*,*,#890,.T.);
#1233=ORIENTED_EDGE('',*,*,#897,.T.);
#1234=ORIENTED_EDGE('',*,*,#956,.T.);
#1235=ORIENTED_EDGE('',*,*,#922,.T.);
#1236=ORIENTED_EDGE('',*,*,#925,.T.);
#1237=ORIENTED_EDGE('',*,*,#957,.T.);
#1238=ORIENTED_EDGE('',*,*,#823,.T.);
#1239=ORIENTED_EDGE('',*,*,#833,.T.);
#1240=ORIENTED_EDGE('',*,*,#830,.T.);
#1241=ORIENTED_EDGE('',*,*,#827,.T.);
#1242=ORIENTED_EDGE('',*,*,#835,.T.);
#1243=ORIENTED_EDGE('',*,*,#845,.T.);
#1244=ORIENTED_EDGE('',*,*,#842,.T.);
#1245=ORIENTED_EDGE('',*,*,#839,.T.);
#1246=ORIENTED_EDGE('',*,*,#929,.T.);
#1247=ORIENTED_EDGE('',*,*,#917,.T.);
#1248=ORIENTED_EDGE('',*,*,#908,.T.);
#1249=ORIENTED_EDGE('',*,*,#905,.T.);
#1250=ORIENTED_EDGE('',*,*,#958,.F.);
#1251=ORIENTED_EDGE('',*,*,#959,.T.);
#1252=ORIENTED_EDGE('',*,*,#960,.F.);
#1253=ORIENTED_EDGE('',*,*,#961,.F.);
#1254=ORIENTED_EDGE('',*,*,#962,.F.);
#1255=ORIENTED_EDGE('',*,*,#943,.F.);
#1256=ORIENTED_EDGE('',*,*,#954,.F.);
#1257=ORIENTED_EDGE('',*,*,#928,.F.);
#1258=ORIENTED_EDGE('',*,*,#956,.F.);
#1259=ORIENTED_EDGE('',*,*,#901,.F.);
#1260=ORIENTED_EDGE('',*,*,#963,.F.);
#1261=ORIENTED_EDGE('',*,*,#961,.T.);
#1262=ORIENTED_EDGE('',*,*,#964,.F.);
#1263=ORIENTED_EDGE('',*,*,#965,.F.);
#1264=ORIENTED_EDGE('',*,*,#966,.F.);
#1265=ORIENTED_EDGE('',*,*,#965,.T.);
#1266=ORIENTED_EDGE('',*,*,#967,.F.);
#1267=ORIENTED_EDGE('',*,*,#968,.F.);
#1268=ORIENTED_EDGE('',*,*,#969,.F.);
#1269=ORIENTED_EDGE('',*,*,#968,.T.);
#1270=ORIENTED_EDGE('',*,*,#970,.F.);
#1271=ORIENTED_EDGE('',*,*,#959,.F.);
#1272=ORIENTED_EDGE('',*,*,#970,.T.);
#1273=ORIENTED_EDGE('',*,*,#967,.T.);
#1274=ORIENTED_EDGE('',*,*,#964,.T.);
#1275=ORIENTED_EDGE('',*,*,#960,.T.);
#1276=ORIENTED_EDGE('',*,*,#971,.F.);
#1277=ORIENTED_EDGE('',*,*,#972,.T.);
#1278=ORIENTED_EDGE('',*,*,#973,.F.);
#1279=ORIENTED_EDGE('',*,*,#974,.F.);
#1280=ORIENTED_EDGE('',*,*,#975,.F.);
#1281=ORIENTED_EDGE('',*,*,#974,.T.);
#1282=ORIENTED_EDGE('',*,*,#976,.F.);
#1283=ORIENTED_EDGE('',*,*,#977,.F.);
#1284=ORIENTED_EDGE('',*,*,#978,.F.);
#1285=ORIENTED_EDGE('',*,*,#977,.T.);
#1286=ORIENTED_EDGE('',*,*,#979,.F.);
#1287=ORIENTED_EDGE('',*,*,#980,.F.);
#1288=ORIENTED_EDGE('',*,*,#981,.F.);
#1289=ORIENTED_EDGE('',*,*,#893,.F.);
#1290=ORIENTED_EDGE('',*,*,#957,.F.);
#1291=ORIENTED_EDGE('',*,*,#920,.F.);
#1292=ORIENTED_EDGE('',*,*,#955,.F.);
#1293=ORIENTED_EDGE('',*,*,#935,.F.);
#1294=ORIENTED_EDGE('',*,*,#982,.F.);
#1295=ORIENTED_EDGE('',*,*,#980,.T.);
#1296=ORIENTED_EDGE('',*,*,#983,.F.);
#1297=ORIENTED_EDGE('',*,*,#972,.F.);
#1298=ORIENTED_EDGE('',*,*,#983,.T.);
#1299=ORIENTED_EDGE('',*,*,#979,.T.);
#1300=ORIENTED_EDGE('',*,*,#976,.T.);
#1301=ORIENTED_EDGE('',*,*,#973,.T.);
#1302=ORIENTED_EDGE('',*,*,#984,.T.);
#1303=ORIENTED_EDGE('',*,*,#985,.T.);
#1304=ORIENTED_EDGE('',*,*,#986,.F.);
#1305=ORIENTED_EDGE('',*,*,#987,.F.);
#1306=ORIENTED_EDGE('',*,*,#988,.T.);
#1307=ORIENTED_EDGE('',*,*,#987,.T.);
#1308=ORIENTED_EDGE('',*,*,#989,.F.);
#1309=ORIENTED_EDGE('',*,*,#990,.F.);
#1310=ORIENTED_EDGE('',*,*,#991,.T.);
#1311=ORIENTED_EDGE('',*,*,#990,.T.);
#1312=ORIENTED_EDGE('',*,*,#992,.F.);
#1313=ORIENTED_EDGE('',*,*,#993,.F.);
#1314=ORIENTED_EDGE('',*,*,#994,.T.);
#1315=ORIENTED_EDGE('',*,*,#993,.T.);
#1316=ORIENTED_EDGE('',*,*,#995,.F.);
#1317=ORIENTED_EDGE('',*,*,#985,.F.);
#1318=ORIENTED_EDGE('',*,*,#995,.T.);
#1319=ORIENTED_EDGE('',*,*,#992,.T.);
#1320=ORIENTED_EDGE('',*,*,#989,.T.);
#1321=ORIENTED_EDGE('',*,*,#986,.T.);
#1322=ORIENTED_EDGE('',*,*,#813,.T.);
#1323=ORIENTED_EDGE('',*,*,#817,.T.);
#1324=ORIENTED_EDGE('',*,*,#820,.T.);
#1325=ORIENTED_EDGE('',*,*,#822,.T.);
#1326=ORIENTED_EDGE('',*,*,#825,.T.);
#1327=ORIENTED_EDGE('',*,*,#829,.T.);
#1328=ORIENTED_EDGE('',*,*,#832,.T.);
#1329=ORIENTED_EDGE('',*,*,#834,.T.);
#1330=ORIENTED_EDGE('',*,*,#837,.T.);
#1331=ORIENTED_EDGE('',*,*,#841,.T.);
#1332=ORIENTED_EDGE('',*,*,#844,.T.);
#1333=ORIENTED_EDGE('',*,*,#846,.T.);
#1334=ORIENTED_EDGE('',*,*,#849,.T.);
#1335=ORIENTED_EDGE('',*,*,#853,.T.);
#1336=ORIENTED_EDGE('',*,*,#856,.T.);
#1337=ORIENTED_EDGE('',*,*,#858,.T.);
#1338=ORIENTED_EDGE('',*,*,#861,.T.);
#1339=ORIENTED_EDGE('',*,*,#865,.T.);
#1340=ORIENTED_EDGE('',*,*,#868,.T.);
#1341=ORIENTED_EDGE('',*,*,#870,.T.);
#1342=ORIENTED_EDGE('',*,*,#873,.T.);
#1343=ORIENTED_EDGE('',*,*,#877,.T.);
#1344=ORIENTED_EDGE('',*,*,#880,.T.);
#1345=ORIENTED_EDGE('',*,*,#882,.T.);
#1346=ORIENTED_EDGE('',*,*,#949,.T.);
#1347=ORIENTED_EDGE('',*,*,#946,.T.);
#1348=ORIENTED_EDGE('',*,*,#942,.T.);
#1349=ORIENTED_EDGE('',*,*,#934,.T.);
#1350=ORIENTED_EDGE('',*,*,#931,.T.);
#1351=ORIENTED_EDGE('',*,*,#927,.T.);
#1352=ORIENTED_EDGE('',*,*,#919,.T.);
#1353=ORIENTED_EDGE('',*,*,#916,.T.);
#1354=ORIENTED_EDGE('',*,*,#913,.T.);
#1355=ORIENTED_EDGE('',*,*,#910,.T.);
#1356=ORIENTED_EDGE('',*,*,#907,.T.);
#1357=ORIENTED_EDGE('',*,*,#904,.T.);
#1358=ORIENTED_EDGE('',*,*,#900,.T.);
#1359=ORIENTED_EDGE('',*,*,#892,.T.);
#1360=ORIENTED_EDGE('',*,*,#889,.T.);
#1361=ORIENTED_EDGE('',*,*,#807,.T.);
#1362=ORIENTED_EDGE('',*,*,#803,.T.);
#1363=ORIENTED_EDGE('',*,*,#799,.T.);
#1364=ORIENTED_EDGE('',*,*,#795,.T.);
#1365=ORIENTED_EDGE('',*,*,#994,.F.);
#1366=ORIENTED_EDGE('',*,*,#984,.F.);
#1367=ORIENTED_EDGE('',*,*,#988,.F.);
#1368=ORIENTED_EDGE('',*,*,#991,.F.);
#1369=ORIENTED_EDGE('',*,*,#883,.T.);
#1370=ORIENTED_EDGE('',*,*,#885,.T.);
#1371=ORIENTED_EDGE('',*,*,#887,.T.);
#1372=ORIENTED_EDGE('',*,*,#911,.T.);
#1373=ORIENTED_EDGE('',*,*,#914,.T.);
#1374=ORIENTED_EDGE('',*,*,#947,.T.);
#1375=ORIENTED_EDGE('',*,*,#950,.T.);
#1376=ORIENTED_EDGE('',*,*,#952,.T.);
#1377=ORIENTED_EDGE('',*,*,#895,.T.);
#1378=ORIENTED_EDGE('',*,*,#898,.T.);
#1379=ORIENTED_EDGE('',*,*,#981,.T.);
#1380=ORIENTED_EDGE('',*,*,#982,.T.);
#1381=ORIENTED_EDGE('',*,*,#971,.T.);
#1382=ORIENTED_EDGE('',*,*,#975,.T.);
#1383=ORIENTED_EDGE('',*,*,#978,.T.);
#1384=ORIENTED_EDGE('',*,*,#939,.T.);
#1385=ORIENTED_EDGE('',*,*,#962,.T.);
#1386=ORIENTED_EDGE('',*,*,#963,.T.);
#1387=ORIENTED_EDGE('',*,*,#966,.T.);
#1388=ORIENTED_EDGE('',*,*,#969,.T.);
#1389=ORIENTED_EDGE('',*,*,#958,.T.);
#1390=ORIENTED_EDGE('',*,*,#871,.T.);
#1391=ORIENTED_EDGE('',*,*,#881,.T.);
#1392=ORIENTED_EDGE('',*,*,#878,.T.);
#1393=ORIENTED_EDGE('',*,*,#875,.T.);
#1394=ORIENTED_EDGE('',*,*,#811,.T.);
#1395=ORIENTED_EDGE('',*,*,#821,.T.);
#1396=ORIENTED_EDGE('',*,*,#818,.T.);
#1397=ORIENTED_EDGE('',*,*,#815,.T.);
#1398=CYLINDRICAL_SURFACE('',#1510,3.24999999999999);
#1399=CYLINDRICAL_SURFACE('',#1515,3.24999999999999);
#1400=CYLINDRICAL_SURFACE('',#1520,3.24999999999999);
#1401=CYLINDRICAL_SURFACE('',#1525,3.24999999999999);
#1402=CYLINDRICAL_SURFACE('',#1554,1.7);
#1403=CYLINDRICAL_SURFACE('',#1556,1.7);
#1404=CYLINDRICAL_SURFACE('',#1558,1.8);
#1405=CYLINDRICAL_SURFACE('',#1561,1.8);
#1406=CYLINDRICAL_SURFACE('',#1566,19.5);
#1407=CYLINDRICAL_SURFACE('',#1573,1.8);
#1408=CYLINDRICAL_SURFACE('',#1576,1.8);
#1409=CYLINDRICAL_SURFACE('',#1579,1.8);
#1410=CYLINDRICAL_SURFACE('',#1582,1.8);
#1411=CYLINDRICAL_SURFACE('',#1585,1.8);
#1412=CYLINDRICAL_SURFACE('',#1588,1.8);
#1413=CYLINDRICAL_SURFACE('',#1593,19.5);
#1414=CYLINDRICAL_SURFACE('',#1600,1.8);
#1415=CYLINDRICAL_SURFACE('',#1603,1.8);
#1416=CYLINDRICAL_SURFACE('',#1608,19.5);
#1417=CYLINDRICAL_SURFACE('',#1615,1.8);
#1418=CYLINDRICAL_SURFACE('',#1618,1.8);
#1419=CYLINDRICAL_SURFACE('',#1621,1.7);
#1420=CYLINDRICAL_SURFACE('',#1623,1.7);
#1421=ADVANCED_FACE('',(#119),#1398,.F.);
#1422=ADVANCED_FACE('',(#120,#15),#67,.T.);
#1423=ADVANCED_FACE('',(#121),#1399,.F.);
#1424=ADVANCED_FACE('',(#122,#16),#68,.T.);
#1425=ADVANCED_FACE('',(#123),#1400,.F.);
#1426=ADVANCED_FACE('',(#124,#17),#69,.T.);
#1427=ADVANCED_FACE('',(#125),#1401,.F.);
#1428=ADVANCED_FACE('',(#126,#18),#70,.T.);
#1429=ADVANCED_FACE('',(#127),#71,.F.);
#1430=ADVANCED_FACE('',(#128),#72,.F.);
#1431=ADVANCED_FACE('',(#129),#73,.F.);
#1432=ADVANCED_FACE('',(#130),#74,.F.);
#1433=ADVANCED_FACE('',(#131),#75,.F.);
#1434=ADVANCED_FACE('',(#132),#76,.F.);
#1435=ADVANCED_FACE('',(#133),#77,.F.);
#1436=ADVANCED_FACE('',(#134),#78,.F.);
#1437=ADVANCED_FACE('',(#135),#79,.F.);
#1438=ADVANCED_FACE('',(#136),#80,.F.);
#1439=ADVANCED_FACE('',(#137),#81,.F.);
#1440=ADVANCED_FACE('',(#138),#82,.F.);
#1441=ADVANCED_FACE('',(#139),#83,.F.);
#1442=ADVANCED_FACE('',(#140),#84,.F.);
#1443=ADVANCED_FACE('',(#141),#85,.F.);
#1444=ADVANCED_FACE('',(#142),#86,.F.);
#1445=ADVANCED_FACE('',(#143),#87,.F.);
#1446=ADVANCED_FACE('',(#144),#88,.F.);
#1447=ADVANCED_FACE('',(#145),#89,.F.);
#1448=ADVANCED_FACE('',(#146),#90,.F.);
#1449=ADVANCED_FACE('',(#147),#91,.F.);
#1450=ADVANCED_FACE('',(#148),#92,.F.);
#1451=ADVANCED_FACE('',(#149),#93,.F.);
#1452=ADVANCED_FACE('',(#150),#94,.F.);
#1453=ADVANCED_FACE('',(#151),#1402,.F.);
#1454=ADVANCED_FACE('',(#152),#1403,.F.);
#1455=ADVANCED_FACE('',(#153),#1404,.F.);
#1456=ADVANCED_FACE('',(#154),#1405,.F.);
#1457=ADVANCED_FACE('',(#155),#95,.T.);
#1458=ADVANCED_FACE('',(#156),#1406,.F.);
#1459=ADVANCED_FACE('',(#157),#96,.T.);
#1460=ADVANCED_FACE('',(#158),#1407,.F.);
#1461=ADVANCED_FACE('',(#159),#1408,.F.);
#1462=ADVANCED_FACE('',(#160),#1409,.F.);
#1463=ADVANCED_FACE('',(#161),#1410,.F.);
#1464=ADVANCED_FACE('',(#162),#1411,.F.);
#1465=ADVANCED_FACE('',(#163),#1412,.F.);
#1466=ADVANCED_FACE('',(#164),#97,.T.);
#1467=ADVANCED_FACE('',(#165),#1413,.F.);
#1468=ADVANCED_FACE('',(#166),#98,.T.);
#1469=ADVANCED_FACE('',(#167),#1414,.F.);
#1470=ADVANCED_FACE('',(#168),#1415,.F.);
#1471=ADVANCED_FACE('',(#169),#99,.T.);
#1472=ADVANCED_FACE('',(#170),#1416,.F.);
#1473=ADVANCED_FACE('',(#171),#100,.T.);
#1474=ADVANCED_FACE('',(#172),#1417,.F.);
#1475=ADVANCED_FACE('',(#173),#1418,.F.);
#1476=ADVANCED_FACE('',(#174),#1419,.F.);
#1477=ADVANCED_FACE('',(#175),#1420,.F.);
#1478=ADVANCED_FACE('',(#176,#19,#20,#21,#22,#23,#24),#101,.F.);
#1479=ADVANCED_FACE('',(#177,#25,#26,#27,#28,#29,#30),#102,.F.);
#1480=ADVANCED_FACE('',(#178),#103,.T.);
#1481=ADVANCED_FACE('',(#179),#104,.T.);
#1482=ADVANCED_FACE('',(#180),#105,.T.);
#1483=ADVANCED_FACE('',(#181),#106,.T.);
#1484=ADVANCED_FACE('',(#182),#107,.T.);
#1485=ADVANCED_FACE('',(#183),#108,.T.);
#1486=ADVANCED_FACE('',(#184),#109,.T.);
#1487=ADVANCED_FACE('',(#185),#110,.T.);
#1488=ADVANCED_FACE('',(#186),#111,.T.);
#1489=ADVANCED_FACE('',(#187),#112,.T.);
#1490=ADVANCED_FACE('',(#188),#113,.T.);
#1491=ADVANCED_FACE('',(#189),#114,.T.);
#1492=ADVANCED_FACE('',(#190),#115,.T.);
#1493=ADVANCED_FACE('',(#191),#116,.T.);
#1494=ADVANCED_FACE('',(#192,#31,#32,#33,#34,#35,#36,#37,#38,#39,#40,#41,
#42,#43,#44,#45,#46,#47,#48,#49,#50,#51,#52,#53,#54,#55),#117,.T.);
#1495=ADVANCED_FACE('',(#193,#56,#57,#58,#59,#60,#61,#62,#63,#64,#65,#66),
#118,.F.);
#1496=CLOSED_SHELL('',(#1421,#1422,#1423,#1424,#1425,#1426,#1427,#1428,
#1429,#1430,#1431,#1432,#1433,#1434,#1435,#1436,#1437,#1438,#1439,#1440,
#1441,#1442,#1443,#1444,#1445,#1446,#1447,#1448,#1449,#1450,#1451,#1452,
#1453,#1454,#1455,#1456,#1457,#1458,#1459,#1460,#1461,#1462,#1463,#1464,
#1465,#1466,#1467,#1468,#1469,#1470,#1471,#1472,#1473,#1474,#1475,#1476,
#1477,#1478,#1479,#1480,#1481,#1482,#1483,#1484,#1485,#1486,#1487,#1488,
#1489,#1490,#1491,#1492,#1493,#1494,#1495));
#1497=DERIVED_UNIT_ELEMENT(#1499,1.);
#1498=DERIVED_UNIT_ELEMENT(#2466,-3.);
#1499=(
MASS_UNIT()
NAMED_UNIT(*)
SI_UNIT(.KILO.,.GRAM.)
);
#1500=DERIVED_UNIT((#1497,#1498));
#1501=MEASURE_REPRESENTATION_ITEM('density measure',
POSITIVE_RATIO_MEASURE(7850.),#1500);
#1502=PROPERTY_DEFINITION_REPRESENTATION(#1507,#1504);
#1503=PROPERTY_DEFINITION_REPRESENTATION(#1508,#1505);
#1504=REPRESENTATION('material name',(#1506),#2463);
#1505=REPRESENTATION('density',(#1501),#2463);
#1506=DESCRIPTIVE_REPRESENTATION_ITEM('Steel','Steel');
#1507=PROPERTY_DEFINITION('material property','material name',#2473);
#1508=PROPERTY_DEFINITION('material property','density of part',#2473);
#1509=AXIS2_PLACEMENT_3D('',#2054,#1643,#1644);
#1510=AXIS2_PLACEMENT_3D('',#2055,#1645,#1646);
#1511=AXIS2_PLACEMENT_3D('',#2057,#1647,#1648);
#1512=AXIS2_PLACEMENT_3D('',#2060,#1650,#1651);
#1513=AXIS2_PLACEMENT_3D('',#2061,#1652,#1653);
#1514=AXIS2_PLACEMENT_3D('',#2063,#1654,#1655);
#1515=AXIS2_PLACEMENT_3D('',#2064,#1656,#1657);
#1516=AXIS2_PLACEMENT_3D('',#2066,#1658,#1659);
#1517=AXIS2_PLACEMENT_3D('',#2069,#1661,#1662);
#1518=AXIS2_PLACEMENT_3D('',#2070,#1663,#1664);
#1519=AXIS2_PLACEMENT_3D('',#2072,#1665,#1666);
#1520=AXIS2_PLACEMENT_3D('',#2073,#1667,#1668);
#1521=AXIS2_PLACEMENT_3D('',#2075,#1669,#1670);
#1522=AXIS2_PLACEMENT_3D('',#2078,#1672,#1673);
#1523=AXIS2_PLACEMENT_3D('',#2079,#1674,#1675);
#1524=AXIS2_PLACEMENT_3D('',#2081,#1676,#1677);
#1525=AXIS2_PLACEMENT_3D('',#2082,#1678,#1679);
#1526=AXIS2_PLACEMENT_3D('',#2084,#1680,#1681);
#1527=AXIS2_PLACEMENT_3D('',#2087,#1683,#1684);
#1528=AXIS2_PLACEMENT_3D('',#2088,#1685,#1686);
#1529=AXIS2_PLACEMENT_3D('',#2090,#1687,#1688);
#1530=AXIS2_PLACEMENT_3D('',#2091,#1689,#1690);
#1531=AXIS2_PLACEMENT_3D('',#2100,#1695,#1696);
#1532=AXIS2_PLACEMENT_3D('',#2106,#1700,#1701);
#1533=AXIS2_PLACEMENT_3D('',#2112,#1705,#1706);
#1534=AXIS2_PLACEMENT_3D('',#2115,#1709,#1710);
#1535=AXIS2_PLACEMENT_3D('',#2124,#1715,#1716);
#1536=AXIS2_PLACEMENT_3D('',#2130,#1720,#1721);
#1537=AXIS2_PLACEMENT_3D('',#2136,#1725,#1726);
#1538=AXIS2_PLACEMENT_3D('',#2139,#1729,#1730);
#1539=AXIS2_PLACEMENT_3D('',#2148,#1735,#1736);
#1540=AXIS2_PLACEMENT_3D('',#2154,#1740,#1741);
#1541=AXIS2_PLACEMENT_3D('',#2160,#1745,#1746);
#1542=AXIS2_PLACEMENT_3D('',#2163,#1749,#1750);
#1543=AXIS2_PLACEMENT_3D('',#2172,#1755,#1756);
#1544=AXIS2_PLACEMENT_3D('',#2178,#1760,#1761);
#1545=AXIS2_PLACEMENT_3D('',#2184,#1765,#1766);
#1546=AXIS2_PLACEMENT_3D('',#2187,#1769,#1770);
#1547=AXIS2_PLACEMENT_3D('',#2196,#1775,#1776);
#1548=AXIS2_PLACEMENT_3D('',#2202,#1780,#1781);
#1549=AXIS2_PLACEMENT_3D('',#2208,#1785,#1786);
#1550=AXIS2_PLACEMENT_3D('',#2211,#1789,#1790);
#1551=AXIS2_PLACEMENT_3D('',#2220,#1795,#1796);
#1552=AXIS2_PLACEMENT_3D('',#2226,#1800,#1801);
#1553=AXIS2_PLACEMENT_3D('',#2232,#1805,#1806);
#1554=AXIS2_PLACEMENT_3D('',#2235,#1809,#1810);
#1555=AXIS2_PLACEMENT_3D('',#2237,#1811,#1812);
#1556=AXIS2_PLACEMENT_3D('',#2239,#1814,#1815);
#1557=AXIS2_PLACEMENT_3D('',#2241,#1816,#1817);
#1558=AXIS2_PLACEMENT_3D('',#2243,#1819,#1820);
#1559=AXIS2_PLACEMENT_3D('',#2245,#1821,#1822);
#1560=AXIS2_PLACEMENT_3D('',#2248,#1824,#1825);
#1561=AXIS2_PLACEMENT_3D('',#2249,#1826,#1827);
#1562=AXIS2_PLACEMENT_3D('',#2251,#1828,#1829);
#1563=AXIS2_PLACEMENT_3D('',#2254,#1831,#1832);
#1564=AXIS2_PLACEMENT_3D('',#2255,#1833,#1834);
#1565=AXIS2_PLACEMENT_3D('',#2259,#1836,#1837);
#1566=AXIS2_PLACEMENT_3D('',#2260,#1838,#1839);
#1567=AXIS2_PLACEMENT_3D('',#2263,#1840,#1841);
#1568=AXIS2_PLACEMENT_3D('',#2265,#1842,#1843);
#1569=AXIS2_PLACEMENT_3D('',#2266,#1844,#1845);
#1570=AXIS2_PLACEMENT_3D('',#2267,#1846,#1847);
#1571=AXIS2_PLACEMENT_3D('',#2270,#1849,#1850);
#1572=AXIS2_PLACEMENT_3D('',#2271,#1851,#1852);
#1573=AXIS2_PLACEMENT_3D('',#2273,#1854,#1855);
#1574=AXIS2_PLACEMENT_3D('',#2275,#1856,#1857);
#1575=AXIS2_PLACEMENT_3D('',#2278,#1859,#1860);
#1576=AXIS2_PLACEMENT_3D('',#2279,#1861,#1862);
#1577=AXIS2_PLACEMENT_3D('',#2281,#1863,#1864);
#1578=AXIS2_PLACEMENT_3D('',#2284,#1866,#1867);
#1579=AXIS2_PLACEMENT_3D('',#2285,#1868,#1869);
#1580=AXIS2_PLACEMENT_3D('',#2287,#1870,#1871);
#1581=AXIS2_PLACEMENT_3D('',#2290,#1873,#1874);
#1582=AXIS2_PLACEMENT_3D('',#2291,#1875,#1876);
#1583=AXIS2_PLACEMENT_3D('',#2293,#1877,#1878);
#1584=AXIS2_PLACEMENT_3D('',#2296,#1880,#1881);
#1585=AXIS2_PLACEMENT_3D('',#2297,#1882,#1883);
#1586=AXIS2_PLACEMENT_3D('',#2299,#1884,#1885);
#1587=AXIS2_PLACEMENT_3D('',#2302,#1887,#1888);
#1588=AXIS2_PLACEMENT_3D('',#2303,#1889,#1890);
#1589=AXIS2_PLACEMENT_3D('',#2305,#1891,#1892);
#1590=AXIS2_PLACEMENT_3D('',#2308,#1894,#1895);
#1591=AXIS2_PLACEMENT_3D('',#2309,#1896,#1897);
#1592=AXIS2_PLACEMENT_3D('',#2313,#1899,#1900);
#1593=AXIS2_PLACEMENT_3D('',#2314,#1901,#1902);
#1594=AXIS2_PLACEMENT_3D('',#2317,#1903,#1904);
#1595=AXIS2_PLACEMENT_3D('',#2319,#1905,#1906);
#1596=AXIS2_PLACEMENT_3D('',#2320,#1907,#1908);
#1597=AXIS2_PLACEMENT_3D('',#2321,#1909,#1910);
#1598=AXIS2_PLACEMENT_3D('',#2324,#1912,#1913);
#1599=AXIS2_PLACEMENT_3D('',#2325,#1914,#1915);
#1600=AXIS2_PLACEMENT_3D('',#2327,#1917,#1918);
#1601=AXIS2_PLACEMENT_3D('',#2329,#1919,#1920);
#1602=AXIS2_PLACEMENT_3D('',#2332,#1922,#1923);
#1603=AXIS2_PLACEMENT_3D('',#2333,#1924,#1925);
#1604=AXIS2_PLACEMENT_3D('',#2335,#1926,#1927);
#1605=AXIS2_PLACEMENT_3D('',#2338,#1929,#1930);
#1606=AXIS2_PLACEMENT_3D('',#2339,#1931,#1932);
#1607=AXIS2_PLACEMENT_3D('',#2343,#1934,#1935);
#1608=AXIS2_PLACEMENT_3D('',#2344,#1936,#1937);
#1609=AXIS2_PLACEMENT_3D('',#2347,#1938,#1939);
#1610=AXIS2_PLACEMENT_3D('',#2349,#1940,#1941);
#1611=AXIS2_PLACEMENT_3D('',#2350,#1942,#1943);
#1612=AXIS2_PLACEMENT_3D('',#2351,#1944,#1945);
#1613=AXIS2_PLACEMENT_3D('',#2354,#1947,#1948);
#1614=AXIS2_PLACEMENT_3D('',#2355,#1949,#1950);
#1615=AXIS2_PLACEMENT_3D('',#2357,#1952,#1953);
#1616=AXIS2_PLACEMENT_3D('',#2359,#1954,#1955);
#1617=AXIS2_PLACEMENT_3D('',#2362,#1957,#1958);
#1618=AXIS2_PLACEMENT_3D('',#2363,#1959,#1960);
#1619=AXIS2_PLACEMENT_3D('',#2365,#1961,#1962);
#1620=AXIS2_PLACEMENT_3D('',#2368,#1964,#1965);
#1621=AXIS2_PLACEMENT_3D('',#2369,#1966,#1967);
#1622=AXIS2_PLACEMENT_3D('',#2371,#1968,#1969);
#1623=AXIS2_PLACEMENT_3D('',#2373,#1971,#1972);
#1624=AXIS2_PLACEMENT_3D('',#2375,#1973,#1974);
#1625=AXIS2_PLACEMENT_3D('',#2377,#1976,#1977);
#1626=AXIS2_PLACEMENT_3D('',#2380,#1980,#1981);
#1627=AXIS2_PLACEMENT_3D('',#2383,#1984,#1985);
#1628=AXIS2_PLACEMENT_3D('',#2393,#1991,#1992);
#1629=AXIS2_PLACEMENT_3D('',#2399,#1996,#1997);
#1630=AXIS2_PLACEMENT_3D('',#2405,#2001,#2002);
#1631=AXIS2_PLACEMENT_3D('',#2408,#2005,#2006);
#1632=AXIS2_PLACEMENT_3D('',#2409,#2007,#2008);
#1633=AXIS2_PLACEMENT_3D('',#2418,#2013,#2014);
#1634=AXIS2_PLACEMENT_3D('',#2424,#2018,#2019);
#1635=AXIS2_PLACEMENT_3D('',#2431,#2024,#2025);
#1636=AXIS2_PLACEMENT_3D('',#2434,#2028,#2029);
#1637=AXIS2_PLACEMENT_3D('',#2435,#2030,#2031);
#1638=AXIS2_PLACEMENT_3D('',#2444,#2036,#2037);
#1639=AXIS2_PLACEMENT_3D('',#2450,#2041,#2042);
#1640=AXIS2_PLACEMENT_3D('',#2456,#2046,#2047);
#1641=AXIS2_PLACEMENT_3D('',#2459,#2050,#2051);
#1642=AXIS2_PLACEMENT_3D('',#2460,#2052,#2053);
#1643=DIRECTION('axis',(0.,0.,1.));
#1644=DIRECTION('refdir',(1.,0.,0.));
#1645=DIRECTION('center_axis',(0.,0.,-1.));
#1646=DIRECTION('ref_axis',(1.,0.,0.));
#1647=DIRECTION('center_axis',(0.,0.,-1.));
#1648=DIRECTION('ref_axis',(1.,0.,0.));
#1649=DIRECTION('',(0.,0.,-1.));
#1650=DIRECTION('center_axis',(0.,0.,-1.));
#1651=DIRECTION('ref_axis',(1.,0.,0.));
#1652=DIRECTION('center_axis',(0.,0.,1.));
#1653=DIRECTION('ref_axis',(1.,0.,0.));
#1654=DIRECTION('center_axis',(0.,0.,1.));
#1655=DIRECTION('ref_axis',(1.,0.,0.));
#1656=DIRECTION('center_axis',(0.,0.,-1.));
#1657=DIRECTION('ref_axis',(1.,0.,0.));
#1658=DIRECTION('center_axis',(0.,0.,-1.));
#1659=DIRECTION('ref_axis',(1.,0.,0.));
#1660=DIRECTION('',(0.,0.,-1.));
#1661=DIRECTION('center_axis',(0.,0.,-1.));
#1662=DIRECTION('ref_axis',(1.,0.,0.));
#1663=DIRECTION('center_axis',(0.,0.,1.));
#1664=DIRECTION('ref_axis',(1.,0.,0.));
#1665=DIRECTION('center_axis',(0.,0.,1.));
#1666=DIRECTION('ref_axis',(1.,0.,0.));
#1667=DIRECTION('center_axis',(0.,0.,-1.));
#1668=DIRECTION('ref_axis',(1.,0.,0.));
#1669=DIRECTION('center_axis',(0.,0.,-1.));
#1670=DIRECTION('ref_axis',(1.,0.,0.));
#1671=DIRECTION('',(0.,0.,-1.));
#1672=DIRECTION('center_axis',(0.,0.,-1.));
#1673=DIRECTION('ref_axis',(1.,0.,0.));
#1674=DIRECTION('center_axis',(0.,0.,1.));
#1675=DIRECTION('ref_axis',(1.,0.,0.));
#1676=DIRECTION('center_axis',(0.,0.,1.));
#1677=DIRECTION('ref_axis',(1.,0.,0.));
#1678=DIRECTION('center_axis',(0.,0.,-1.));
#1679=DIRECTION('ref_axis',(1.,0.,0.));
#1680=DIRECTION('center_axis',(0.,0.,-1.));
#1681=DIRECTION('ref_axis',(1.,0.,0.));
#1682=DIRECTION('',(0.,0.,-1.));
#1683=DIRECTION('center_axis',(0.,0.,-1.));
#1684=DIRECTION('ref_axis',(1.,0.,0.));
#1685=DIRECTION('center_axis',(0.,0.,1.));
#1686=DIRECTION('ref_axis',(1.,0.,0.));
#1687=DIRECTION('center_axis',(0.,0.,1.));
#1688=DIRECTION('ref_axis',(1.,0.,0.));
#1689=DIRECTION('center_axis',(0.,1.,0.));
#1690=DIRECTION('ref_axis',(-1.,0.,0.));
#1691=DIRECTION('',(-1.,0.,0.));
#1692=DIRECTION('',(0.,0.,1.));
#1693=DIRECTION('',(1.,0.,0.));
#1694=DIRECTION('',(0.,0.,1.));
#1695=DIRECTION('center_axis',(1.,0.,0.));
#1696=DIRECTION('ref_axis',(0.,1.,0.));
#1697=DIRECTION('',(0.,1.,0.));
#1698=DIRECTION('',(0.,0.,1.));
#1699=DIRECTION('',(0.,-1.,0.));
#1700=DIRECTION('center_axis',(0.,-1.,0.));
#1701=DIRECTION('ref_axis',(1.,0.,0.));
#1702=DIRECTION('',(1.,0.,0.));
#1703=DIRECTION('',(0.,0.,1.));
#1704=DIRECTION('',(-1.,0.,0.));
#1705=DIRECTION('center_axis',(-1.,0.,0.));
#1706=DIRECTION('ref_axis',(0.,-1.,0.));
#1707=DIRECTION('',(0.,-1.,0.));
#1708=DIRECTION('',(0.,1.,0.));
#1709=DIRECTION('center_axis',(0.,1.,0.));
#1710=DIRECTION('ref_axis',(-1.,0.,0.));
#1711=DIRECTION('',(-1.,0.,0.));
#1712=DIRECTION('',(0.,0.,1.));
#1713=DIRECTION('',(1.,0.,0.));
#1714=DIRECTION('',(0.,0.,1.));
#1715=DIRECTION('center_axis',(1.,0.,0.));
#1716=DIRECTION('ref_axis',(0.,1.,0.));
#1717=DIRECTION('',(0.,1.,0.));
#1718=DIRECTION('',(0.,0.,1.));
#1719=DIRECTION('',(0.,-1.,0.));
#1720=DIRECTION('center_axis',(0.,-1.,0.));
#1721=DIRECTION('ref_axis',(1.,0.,0.));
#1722=DIRECTION('',(1.,0.,0.));
#1723=DIRECTION('',(0.,0.,1.));
#1724=DIRECTION('',(-1.,0.,0.));
#1725=DIRECTION('center_axis',(-1.,0.,0.));
#1726=DIRECTION('ref_axis',(0.,-1.,0.));
#1727=DIRECTION('',(0.,-1.,0.));
#1728=DIRECTION('',(0.,1.,0.));
#1729=DIRECTION('center_axis',(0.,1.,0.));
#1730=DIRECTION('ref_axis',(-1.,0.,0.));
#1731=DIRECTION('',(-1.,0.,0.));
#1732=DIRECTION('',(0.,0.,1.));
#1733=DIRECTION('',(1.,0.,0.));
#1734=DIRECTION('',(0.,0.,1.));
#1735=DIRECTION('center_axis',(1.,0.,0.));
#1736=DIRECTION('ref_axis',(0.,1.,0.));
#1737=DIRECTION('',(0.,1.,0.));
#1738=DIRECTION('',(0.,0.,1.));
#1739=DIRECTION('',(0.,-1.,0.));
#1740=DIRECTION('center_axis',(0.,-1.,0.));
#1741=DIRECTION('ref_axis',(1.,0.,0.));
#1742=DIRECTION('',(1.,0.,0.));
#1743=DIRECTION('',(0.,0.,1.));
#1744=DIRECTION('',(-1.,0.,0.));
#1745=DIRECTION('center_axis',(-1.,0.,0.));
#1746=DIRECTION('ref_axis',(0.,-1.,0.));
#1747=DIRECTION('',(0.,-1.,0.));
#1748=DIRECTION('',(0.,1.,0.));
#1749=DIRECTION('center_axis',(0.,1.,0.));
#1750=DIRECTION('ref_axis',(-1.,0.,0.));
#1751=DIRECTION('',(-1.,0.,0.));
#1752=DIRECTION('',(0.,0.,1.));
#1753=DIRECTION('',(1.,0.,0.));
#1754=DIRECTION('',(0.,0.,1.));
#1755=DIRECTION('center_axis',(1.,0.,0.));
#1756=DIRECTION('ref_axis',(0.,1.,0.));
#1757=DIRECTION('',(0.,1.,0.));
#1758=DIRECTION('',(0.,0.,1.));
#1759=DIRECTION('',(0.,-1.,0.));
#1760=DIRECTION('center_axis',(0.,-1.,0.));
#1761=DIRECTION('ref_axis',(1.,0.,0.));
#1762=DIRECTION('',(1.,0.,0.));
#1763=DIRECTION('',(0.,0.,1.));
#1764=DIRECTION('',(-1.,0.,0.));
#1765=DIRECTION('center_axis',(-1.,0.,0.));
#1766=DIRECTION('ref_axis',(0.,-1.,0.));
#1767=DIRECTION('',(0.,-1.,0.));
#1768=DIRECTION('',(0.,1.,0.));
#1769=DIRECTION('center_axis',(0.,1.,0.));
#1770=DIRECTION('ref_axis',(-1.,0.,0.));
#1771=DIRECTION('',(-1.,0.,0.));
#1772=DIRECTION('',(0.,0.,1.));
#1773=DIRECTION('',(1.,0.,0.));
#1774=DIRECTION('',(0.,0.,1.));
#1775=DIRECTION('center_axis',(1.,0.,0.));
#1776=DIRECTION('ref_axis',(0.,1.,0.));
#1777=DIRECTION('',(0.,1.,0.));
#1778=DIRECTION('',(0.,0.,1.));
#1779=DIRECTION('',(0.,-1.,0.));
#1780=DIRECTION('center_axis',(0.,-1.,0.));
#1781=DIRECTION('ref_axis',(1.,0.,0.));
#1782=DIRECTION('',(1.,0.,0.));
#1783=DIRECTION('',(0.,0.,1.));
#1784=DIRECTION('',(-1.,0.,0.));
#1785=DIRECTION('center_axis',(-1.,0.,0.));
#1786=DIRECTION('ref_axis',(0.,-1.,0.));
#1787=DIRECTION('',(0.,-1.,0.));
#1788=DIRECTION('',(0.,1.,0.));
#1789=DIRECTION('center_axis',(0.,1.,0.));
#1790=DIRECTION('ref_axis',(-1.,0.,0.));
#1791=DIRECTION('',(-1.,0.,0.));
#1792=DIRECTION('',(0.,0.,1.));
#1793=DIRECTION('',(1.,0.,0.));
#1794=DIRECTION('',(0.,0.,1.));
#1795=DIRECTION('center_axis',(1.,0.,0.));
#1796=DIRECTION('ref_axis',(0.,1.,0.));
#1797=DIRECTION('',(0.,1.,0.));
#1798=DIRECTION('',(0.,0.,1.));
#1799=DIRECTION('',(0.,-1.,0.));
#1800=DIRECTION('center_axis',(0.,-1.,0.));
#1801=DIRECTION('ref_axis',(1.,0.,0.));
#1802=DIRECTION('',(1.,0.,0.));
#1803=DIRECTION('',(0.,0.,1.));
#1804=DIRECTION('',(-1.,0.,0.));
#1805=DIRECTION('center_axis',(-1.,0.,0.));
#1806=DIRECTION('ref_axis',(0.,-1.,0.));
#1807=DIRECTION('',(0.,-1.,0.));
#1808=DIRECTION('',(0.,1.,0.));
#1809=DIRECTION('center_axis',(0.,0.,1.));
#1810=DIRECTION('ref_axis',(1.,0.,0.));
#1811=DIRECTION('center_axis',(0.,0.,1.));
#1812=DIRECTION('ref_axis',(1.,0.,0.));
#1813=DIRECTION('',(0.,0.,1.));
#1814=DIRECTION('center_axis',(0.,0.,1.));
#1815=DIRECTION('ref_axis',(1.,0.,0.));
#1816=DIRECTION('center_axis',(0.,0.,1.));
#1817=DIRECTION('ref_axis',(1.,0.,0.));
#1818=DIRECTION('',(0.,0.,1.));
#1819=DIRECTION('center_axis',(0.,0.,1.));
#1820=DIRECTION('ref_axis',(1.,0.,0.));
#1821=DIRECTION('center_axis',(0.,0.,1.));
#1822=DIRECTION('ref_axis',(1.,0.,0.));
#1823=DIRECTION('',(0.,0.,1.));
#1824=DIRECTION('center_axis',(0.,0.,-1.));
#1825=DIRECTION('ref_axis',(1.,0.,0.));
#1826=DIRECTION('center_axis',(0.,0.,1.));
#1827=DIRECTION('ref_axis',(1.,0.,0.));
#1828=DIRECTION('center_axis',(0.,0.,1.));
#1829=DIRECTION('ref_axis',(1.,0.,0.));
#1830=DIRECTION('',(0.,0.,1.));
#1831=DIRECTION('center_axis',(0.,0.,-1.));
#1832=DIRECTION('ref_axis',(1.,0.,0.));
#1833=DIRECTION('center_axis',(0.,0.,1.));
#1834=DIRECTION('ref_axis',(1.,0.,0.));
#1835=DIRECTION('',(-1.,0.,0.));
#1836=DIRECTION('center_axis',(0.,0.,1.));
#1837=DIRECTION('ref_axis',(1.,0.,0.));
#1838=DIRECTION('center_axis',(0.,0.,1.));
#1839=DIRECTION('ref_axis',(1.,0.,0.));
#1840=DIRECTION('center_axis',(0.,0.,1.));
#1841=DIRECTION('ref_axis',(1.,0.,0.));
#1842=DIRECTION('center_axis',(0.,0.,1.));
#1843=DIRECTION('ref_axis',(1.,0.,0.));
#1844=DIRECTION('center_axis',(0.,0.,1.));
#1845=DIRECTION('ref_axis',(1.,0.,0.));
#1846=DIRECTION('center_axis',(0.,0.,1.));
#1847=DIRECTION('ref_axis',(1.,0.,0.));
#1848=DIRECTION('',(0.,0.,1.));
#1849=DIRECTION('center_axis',(0.,0.,-1.));
#1850=DIRECTION('ref_axis',(1.,0.,0.));
#1851=DIRECTION('center_axis',(0.,0.,1.));
#1852=DIRECTION('ref_axis',(1.,0.,0.));
#1853=DIRECTION('',(1.,0.,0.));
#1854=DIRECTION('center_axis',(0.,0.,1.));
#1855=DIRECTION('ref_axis',(1.,0.,0.));
#1856=DIRECTION('center_axis',(0.,0.,1.));
#1857=DIRECTION('ref_axis',(1.,0.,0.));
#1858=DIRECTION('',(0.,0.,1.));
#1859=DIRECTION('center_axis',(0.,0.,-1.));
#1860=DIRECTION('ref_axis',(1.,0.,0.));
#1861=DIRECTION('center_axis',(0.,0.,1.));
#1862=DIRECTION('ref_axis',(1.,0.,0.));
#1863=DIRECTION('center_axis',(0.,0.,1.));
#1864=DIRECTION('ref_axis',(1.,0.,0.));
#1865=DIRECTION('',(0.,0.,1.));
#1866=DIRECTION('center_axis',(0.,0.,-1.));
#1867=DIRECTION('ref_axis',(1.,0.,0.));
#1868=DIRECTION('center_axis',(0.,0.,1.));
#1869=DIRECTION('ref_axis',(1.,0.,0.));
#1870=DIRECTION('center_axis',(0.,0.,1.));
#1871=DIRECTION('ref_axis',(1.,0.,0.));
#1872=DIRECTION('',(0.,0.,1.));
#1873=DIRECTION('center_axis',(0.,0.,-1.));
#1874=DIRECTION('ref_axis',(1.,0.,0.));
#1875=DIRECTION('center_axis',(0.,0.,1.));
#1876=DIRECTION('ref_axis',(1.,0.,0.));
#1877=DIRECTION('center_axis',(0.,0.,1.));
#1878=DIRECTION('ref_axis',(1.,0.,0.));
#1879=DIRECTION('',(0.,0.,1.));
#1880=DIRECTION('center_axis',(0.,0.,-1.));
#1881=DIRECTION('ref_axis',(1.,0.,0.));
#1882=DIRECTION('center_axis',(0.,0.,1.));
#1883=DIRECTION('ref_axis',(1.,0.,0.));
#1884=DIRECTION('center_axis',(0.,0.,1.));
#1885=DIRECTION('ref_axis',(1.,0.,0.));
#1886=DIRECTION('',(0.,0.,1.));
#1887=DIRECTION('center_axis',(0.,0.,-1.));
#1888=DIRECTION('ref_axis',(1.,0.,0.));
#1889=DIRECTION('center_axis',(0.,0.,1.));
#1890=DIRECTION('ref_axis',(1.,0.,0.));
#1891=DIRECTION('center_axis',(0.,0.,1.));
#1892=DIRECTION('ref_axis',(1.,0.,0.));
#1893=DIRECTION('',(0.,0.,1.));
#1894=DIRECTION('center_axis',(0.,0.,-1.));
#1895=DIRECTION('ref_axis',(1.,0.,0.));
#1896=DIRECTION('center_axis',(0.,0.,1.));
#1897=DIRECTION('ref_axis',(1.,0.,0.));
#1898=DIRECTION('',(-1.,0.,0.));
#1899=DIRECTION('center_axis',(0.,0.,1.));
#1900=DIRECTION('ref_axis',(1.,0.,0.));
#1901=DIRECTION('center_axis',(0.,0.,1.));
#1902=DIRECTION('ref_axis',(1.,0.,0.));
#1903=DIRECTION('center_axis',(0.,0.,1.));
#1904=DIRECTION('ref_axis',(1.,0.,0.));
#1905=DIRECTION('center_axis',(0.,0.,1.));
#1906=DIRECTION('ref_axis',(1.,0.,0.));
#1907=DIRECTION('center_axis',(0.,0.,1.));
#1908=DIRECTION('ref_axis',(1.,0.,0.));
#1909=DIRECTION('center_axis',(0.,0.,1.));
#1910=DIRECTION('ref_axis',(1.,0.,0.));
#1911=DIRECTION('',(0.,0.,1.));
#1912=DIRECTION('center_axis',(0.,0.,-1.));
#1913=DIRECTION('ref_axis',(1.,0.,0.));
#1914=DIRECTION('center_axis',(0.,0.,1.));
#1915=DIRECTION('ref_axis',(1.,0.,0.));
#1916=DIRECTION('',(1.,0.,0.));
#1917=DIRECTION('center_axis',(0.,0.,1.));
#1918=DIRECTION('ref_axis',(1.,0.,0.));
#1919=DIRECTION('center_axis',(0.,0.,1.));
#1920=DIRECTION('ref_axis',(1.,0.,0.));
#1921=DIRECTION('',(0.,0.,1.));
#1922=DIRECTION('center_axis',(0.,0.,-1.));
#1923=DIRECTION('ref_axis',(1.,0.,0.));
#1924=DIRECTION('center_axis',(0.,0.,1.));
#1925=DIRECTION('ref_axis',(1.,0.,0.));
#1926=DIRECTION('center_axis',(0.,0.,1.));
#1927=DIRECTION('ref_axis',(1.,0.,0.));
#1928=DIRECTION('',(0.,0.,1.));
#1929=DIRECTION('center_axis',(0.,0.,-1.));
#1930=DIRECTION('ref_axis',(1.,0.,0.));
#1931=DIRECTION('center_axis',(0.,0.,1.));
#1932=DIRECTION('ref_axis',(1.,0.,0.));
#1933=DIRECTION('',(-1.,0.,0.));
#1934=DIRECTION('center_axis',(0.,0.,1.));
#1935=DIRECTION('ref_axis',(1.,0.,0.));
#1936=DIRECTION('center_axis',(0.,0.,1.));
#1937=DIRECTION('ref_axis',(1.,0.,0.));
#1938=DIRECTION('center_axis',(0.,0.,1.));
#1939=DIRECTION('ref_axis',(1.,0.,0.));
#1940=DIRECTION('center_axis',(0.,0.,1.));
#1941=DIRECTION('ref_axis',(1.,0.,0.));
#1942=DIRECTION('center_axis',(0.,0.,1.));
#1943=DIRECTION('ref_axis',(1.,0.,0.));
#1944=DIRECTION('center_axis',(0.,0.,1.));
#1945=DIRECTION('ref_axis',(1.,0.,0.));
#1946=DIRECTION('',(0.,0.,1.));
#1947=DIRECTION('center_axis',(0.,0.,-1.));
#1948=DIRECTION('ref_axis',(1.,0.,0.));
#1949=DIRECTION('center_axis',(0.,0.,1.));
#1950=DIRECTION('ref_axis',(1.,0.,0.));
#1951=DIRECTION('',(1.,0.,0.));
#1952=DIRECTION('center_axis',(0.,0.,1.));
#1953=DIRECTION('ref_axis',(1.,0.,0.));
#1954=DIRECTION('center_axis',(0.,0.,1.));
#1955=DIRECTION('ref_axis',(1.,0.,0.));
#1956=DIRECTION('',(0.,0.,1.));
#1957=DIRECTION('center_axis',(0.,0.,-1.));
#1958=DIRECTION('ref_axis',(1.,0.,0.));
#1959=DIRECTION('center_axis',(0.,0.,1.));
#1960=DIRECTION('ref_axis',(1.,0.,0.));
#1961=DIRECTION('center_axis',(0.,0.,1.));
#1962=DIRECTION('ref_axis',(1.,0.,0.));
#1963=DIRECTION('',(0.,0.,1.));
#1964=DIRECTION('center_axis',(0.,0.,-1.));
#1965=DIRECTION('ref_axis',(1.,0.,0.));
#1966=DIRECTION('center_axis',(0.,0.,1.));
#1967=DIRECTION('ref_axis',(1.,0.,0.));
#1968=DIRECTION('center_axis',(0.,0.,1.));
#1969=DIRECTION('ref_axis',(1.,0.,0.));
#1970=DIRECTION('',(0.,0.,1.));
#1971=DIRECTION('center_axis',(0.,0.,1.));
#1972=DIRECTION('ref_axis',(1.,0.,0.));
#1973=DIRECTION('center_axis',(0.,0.,1.));
#1974=DIRECTION('ref_axis',(1.,0.,0.));
#1975=DIRECTION('',(0.,0.,1.));
#1976=DIRECTION('center_axis',(0.,0.,1.));
#1977=DIRECTION('ref_axis',(1.,0.,0.));
#1978=DIRECTION('',(1.,0.,0.));
#1979=DIRECTION('',(-1.,0.,0.));
#1980=DIRECTION('center_axis',(0.,0.,1.));
#1981=DIRECTION('ref_axis',(1.,0.,0.));
#1982=DIRECTION('',(1.,0.,0.));
#1983=DIRECTION('',(-1.,0.,0.));
#1984=DIRECTION('center_axis',(0.,-1.,0.));
#1985=DIRECTION('ref_axis',(-1.,0.,0.));
#1986=DIRECTION('',(1.,0.,0.));
#1987=DIRECTION('',(0.,0.,-1.));
#1988=DIRECTION('',(-1.,0.,0.));
#1989=DIRECTION('',(0.,0.,-1.));
#1990=DIRECTION('',(1.,0.,0.));
#1991=DIRECTION('center_axis',(1.,0.,0.));
#1992=DIRECTION('ref_axis',(0.,-1.,0.));
#1993=DIRECTION('',(0.,1.,0.));
#1994=DIRECTION('',(0.,-1.,0.));
#1995=DIRECTION('',(0.,0.,-1.));
#1996=DIRECTION('center_axis',(0.,1.,0.));
#1997=DIRECTION('ref_axis',(1.,0.,0.));
#1998=DIRECTION('',(-1.,0.,0.));
#1999=DIRECTION('',(1.,0.,0.));
#2000=DIRECTION('',(0.,0.,-1.));
#2001=DIRECTION('center_axis',(-1.,0.,0.));
#2002=DIRECTION('ref_axis',(0.,1.,0.));
#2003=DIRECTION('',(0.,-1.,0.));
#2004=DIRECTION('',(0.,1.,0.));
#2005=DIRECTION('center_axis',(0.,0.,-1.));
#2006=DIRECTION('ref_axis',(-1.,0.,0.));
#2007=DIRECTION('center_axis',(0.,-1.,0.));
#2008=DIRECTION('ref_axis',(-1.,0.,0.));
#2009=DIRECTION('',(1.,0.,0.));
#2010=DIRECTION('',(0.,0.,-1.));
#2011=DIRECTION('',(-1.,0.,0.));
#2012=DIRECTION('',(0.,0.,-1.));
#2013=DIRECTION('center_axis',(1.,0.,0.));
#2014=DIRECTION('ref_axis',(0.,-1.,0.));
#2015=DIRECTION('',(0.,1.,0.));
#2016=DIRECTION('',(0.,-1.,0.));
#2017=DIRECTION('',(0.,0.,-1.));
#2018=DIRECTION('center_axis',(0.,1.,0.));
#2019=DIRECTION('ref_axis',(1.,0.,0.));
#2020=DIRECTION('',(-1.,0.,0.));
#2021=DIRECTION('',(1.,0.,0.));
#2022=DIRECTION('',(0.,0.,-1.));
#2023=DIRECTION('',(-1.,0.,0.));
#2024=DIRECTION('center_axis',(-1.,0.,0.));
#2025=DIRECTION('ref_axis',(0.,1.,0.));
#2026=DIRECTION('',(0.,-1.,0.));
#2027=DIRECTION('',(0.,1.,0.));
#2028=DIRECTION('center_axis',(0.,0.,-1.));
#2029=DIRECTION('ref_axis',(-1.,0.,0.));
#2030=DIRECTION('center_axis',(0.,1.,0.));
#2031=DIRECTION('ref_axis',(-1.,0.,0.));
#2032=DIRECTION('',(-1.,0.,0.));
#2033=DIRECTION('',(0.,0.,1.));
#2034=DIRECTION('',(-1.,0.,0.));
#2035=DIRECTION('',(0.,0.,1.));
#2036=DIRECTION('center_axis',(1.,0.,0.));
#2037=DIRECTION('ref_axis',(0.,1.,0.));
#2038=DIRECTION('',(0.,1.,0.));
#2039=DIRECTION('',(0.,1.,0.));
#2040=DIRECTION('',(0.,0.,1.));
#2041=DIRECTION('center_axis',(0.,-1.,0.));
#2042=DIRECTION('ref_axis',(1.,0.,0.));
#2043=DIRECTION('',(1.,0.,0.));
#2044=DIRECTION('',(1.,0.,0.));
#2045=DIRECTION('',(0.,0.,1.));
#2046=DIRECTION('center_axis',(-1.,0.,0.));
#2047=DIRECTION('ref_axis',(0.,-1.,0.));
#2048=DIRECTION('',(0.,-1.,0.));
#2049=DIRECTION('',(0.,-1.,0.));
#2050=DIRECTION('center_axis',(0.,0.,1.));
#2051=DIRECTION('ref_axis',(1.,0.,0.));
#2052=DIRECTION('center_axis',(0.,0.,1.));
#2053=DIRECTION('ref_axis',(1.,0.,0.));
#2054=CARTESIAN_POINT('',(0.,0.,0.));
#2055=CARTESIAN_POINT('Origin',(102.82,15.,4.));
#2056=CARTESIAN_POINT('',(99.57,15.,4.));
#2057=CARTESIAN_POINT('Origin',(102.82,15.,4.));
#2058=CARTESIAN_POINT('',(99.57,15.,2.));
#2059=CARTESIAN_POINT('',(99.57,15.,4.));
#2060=CARTESIAN_POINT('Origin',(102.82,15.,2.));
#2061=CARTESIAN_POINT('Origin',(102.82,15.,2.));
#2062=CARTESIAN_POINT('',(101.12,15.,2.));
#2063=CARTESIAN_POINT('Origin',(102.82,15.,2.));
#2064=CARTESIAN_POINT('Origin',(-102.82,29.45,4.));
#2065=CARTESIAN_POINT('',(-106.07,29.45,4.));
#2066=CARTESIAN_POINT('Origin',(-102.82,29.45,4.));
#2067=CARTESIAN_POINT('',(-106.07,29.45,2.));
#2068=CARTESIAN_POINT('',(-106.07,29.45,4.));
#2069=CARTESIAN_POINT('Origin',(-102.82,29.45,2.));
#2070=CARTESIAN_POINT('Origin',(-102.82,29.45,2.));
#2071=CARTESIAN_POINT('',(-104.52,29.45,2.));
#2072=CARTESIAN_POINT('Origin',(-102.82,29.45,2.));
#2073=CARTESIAN_POINT('Origin',(-102.82,15.,4.));
#2074=CARTESIAN_POINT('',(-106.07,15.,4.));
#2075=CARTESIAN_POINT('Origin',(-102.82,15.,4.));
#2076=CARTESIAN_POINT('',(-106.07,15.,2.));
#2077=CARTESIAN_POINT('',(-106.07,15.,4.));
#2078=CARTESIAN_POINT('Origin',(-102.82,15.,2.));
#2079=CARTESIAN_POINT('Origin',(-102.82,15.,2.));
#2080=CARTESIAN_POINT('',(-104.52,15.,2.));
#2081=CARTESIAN_POINT('Origin',(-102.82,15.,2.));
#2082=CARTESIAN_POINT('Origin',(102.82,29.45,4.));
#2083=CARTESIAN_POINT('',(99.57,29.45,4.));
#2084=CARTESIAN_POINT('Origin',(102.82,29.45,4.));
#2085=CARTESIAN_POINT('',(99.57,29.45,2.));
#2086=CARTESIAN_POINT('',(99.57,29.45,4.));
#2087=CARTESIAN_POINT('Origin',(102.82,29.45,2.));
#2088=CARTESIAN_POINT('Origin',(102.82,29.45,2.));
#2089=CARTESIAN_POINT('',(101.12,29.45,2.));
#2090=CARTESIAN_POINT('Origin',(102.82,29.45,2.));
#2091=CARTESIAN_POINT('Origin',(90.69,20.,0.));
#2092=CARTESIAN_POINT('',(90.69,20.,0.));
#2093=CARTESIAN_POINT('',(88.19,20.,0.));
#2094=CARTESIAN_POINT('',(45.345,20.,0.));
#2095=CARTESIAN_POINT('',(90.69,20.,4.));
#2096=CARTESIAN_POINT('',(90.69,20.,0.));
#2097=CARTESIAN_POINT('',(88.19,20.,4.));
#2098=CARTESIAN_POINT('',(45.345,20.,4.));
#2099=CARTESIAN_POINT('',(88.19,20.,0.));
#2100=CARTESIAN_POINT('Origin',(90.69,15.,0.));
#2101=CARTESIAN_POINT('',(90.69,15.,0.));
#2102=CARTESIAN_POINT('',(90.69,18.6125,0.));
#2103=CARTESIAN_POINT('',(90.69,15.,4.));
#2104=CARTESIAN_POINT('',(90.69,15.,0.));
#2105=CARTESIAN_POINT('',(90.69,18.6125,4.));
#2106=CARTESIAN_POINT('Origin',(88.19,15.,0.));
#2107=CARTESIAN_POINT('',(88.19,15.,0.));
#2108=CARTESIAN_POINT('',(44.095,15.,0.));
#2109=CARTESIAN_POINT('',(88.19,15.,4.));
#2110=CARTESIAN_POINT('',(88.19,15.,0.));
#2111=CARTESIAN_POINT('',(44.095,15.,4.));
#2112=CARTESIAN_POINT('Origin',(88.19,20.,0.));
#2113=CARTESIAN_POINT('',(88.19,21.1125,0.));
#2114=CARTESIAN_POINT('',(88.19,21.1125,4.));
#2115=CARTESIAN_POINT('Origin',(-30.53,20.,0.));
#2116=CARTESIAN_POINT('',(-30.53,20.,0.));
#2117=CARTESIAN_POINT('',(-33.03,20.,0.));
#2118=CARTESIAN_POINT('',(-15.265,20.,0.));
#2119=CARTESIAN_POINT('',(-30.53,20.,4.));
#2120=CARTESIAN_POINT('',(-30.53,20.,0.));
#2121=CARTESIAN_POINT('',(-33.03,20.,4.));
#2122=CARTESIAN_POINT('',(-15.265,20.,4.));
#2123=CARTESIAN_POINT('',(-33.03,20.,0.));
#2124=CARTESIAN_POINT('Origin',(-30.53,15.,0.));
#2125=CARTESIAN_POINT('',(-30.53,15.,0.));
#2126=CARTESIAN_POINT('',(-30.53,18.6125,0.));
#2127=CARTESIAN_POINT('',(-30.53,15.,4.));
#2128=CARTESIAN_POINT('',(-30.53,15.,0.));
#2129=CARTESIAN_POINT('',(-30.53,18.6125,4.));
#2130=CARTESIAN_POINT('Origin',(-33.03,15.,0.));
#2131=CARTESIAN_POINT('',(-33.03,15.,0.));
#2132=CARTESIAN_POINT('',(-16.515,15.,0.));
#2133=CARTESIAN_POINT('',(-33.03,15.,4.));
#2134=CARTESIAN_POINT('',(-33.03,15.,0.));
#2135=CARTESIAN_POINT('',(-16.515,15.,4.));
#2136=CARTESIAN_POINT('Origin',(-33.03,20.,0.));
#2137=CARTESIAN_POINT('',(-33.03,21.1125,0.));
#2138=CARTESIAN_POINT('',(-33.03,21.1125,4.));
#2139=CARTESIAN_POINT('Origin',(-30.53,29.5,0.));
#2140=CARTESIAN_POINT('',(-30.53,29.5,0.));
#2141=CARTESIAN_POINT('',(-33.03,29.5,0.));
#2142=CARTESIAN_POINT('',(-15.265,29.5,0.));
#2143=CARTESIAN_POINT('',(-30.53,29.5,4.));
#2144=CARTESIAN_POINT('',(-30.53,29.5,0.));
#2145=CARTESIAN_POINT('',(-33.03,29.5,4.));
#2146=CARTESIAN_POINT('',(-15.265,29.5,4.));
#2147=CARTESIAN_POINT('',(-33.03,29.5,0.));
#2148=CARTESIAN_POINT('Origin',(-30.53,24.5,0.));
#2149=CARTESIAN_POINT('',(-30.53,24.5,0.));
#2150=CARTESIAN_POINT('',(-30.53,23.3625,0.));
#2151=CARTESIAN_POINT('',(-30.53,24.5,4.));
#2152=CARTESIAN_POINT('',(-30.53,24.5,0.));
#2153=CARTESIAN_POINT('',(-30.53,23.3625,4.));
#2154=CARTESIAN_POINT('Origin',(-33.03,24.5,0.));
#2155=CARTESIAN_POINT('',(-33.03,24.5,0.));
#2156=CARTESIAN_POINT('',(-16.515,24.5,0.));
#2157=CARTESIAN_POINT('',(-33.03,24.5,4.));
#2158=CARTESIAN_POINT('',(-33.03,24.5,0.));
#2159=CARTESIAN_POINT('',(-16.515,24.5,4.));
#2160=CARTESIAN_POINT('Origin',(-33.03,29.5,0.));
#2161=CARTESIAN_POINT('',(-33.03,25.8625,0.));
#2162=CARTESIAN_POINT('',(-33.03,25.8625,4.));
#2163=CARTESIAN_POINT('Origin',(33.03,20.,0.));
#2164=CARTESIAN_POINT('',(33.03,20.,0.));
#2165=CARTESIAN_POINT('',(30.53,20.,0.));
#2166=CARTESIAN_POINT('',(16.515,20.,0.));
#2167=CARTESIAN_POINT('',(33.03,20.,4.));
#2168=CARTESIAN_POINT('',(33.03,20.,0.));
#2169=CARTESIAN_POINT('',(30.53,20.,4.));
#2170=CARTESIAN_POINT('',(16.515,20.,4.));
#2171=CARTESIAN_POINT('',(30.53,20.,0.));
#2172=CARTESIAN_POINT('Origin',(33.03,15.,0.));
#2173=CARTESIAN_POINT('',(33.03,15.,0.));
#2174=CARTESIAN_POINT('',(33.03,18.6125,0.));
#2175=CARTESIAN_POINT('',(33.03,15.,4.));
#2176=CARTESIAN_POINT('',(33.03,15.,0.));
#2177=CARTESIAN_POINT('',(33.03,18.6125,4.));
#2178=CARTESIAN_POINT('Origin',(30.53,15.,0.));
#2179=CARTESIAN_POINT('',(30.53,15.,0.));
#2180=CARTESIAN_POINT('',(15.265,15.,0.));
#2181=CARTESIAN_POINT('',(30.53,15.,4.));
#2182=CARTESIAN_POINT('',(30.53,15.,0.));
#2183=CARTESIAN_POINT('',(15.265,15.,4.));
#2184=CARTESIAN_POINT('Origin',(30.53,20.,0.));
#2185=CARTESIAN_POINT('',(30.53,21.1125,0.));
#2186=CARTESIAN_POINT('',(30.53,21.1125,4.));
#2187=CARTESIAN_POINT('Origin',(33.03,29.5,0.));
#2188=CARTESIAN_POINT('',(33.03,29.5,0.));
#2189=CARTESIAN_POINT('',(30.53,29.5,0.));
#2190=CARTESIAN_POINT('',(16.515,29.5,0.));
#2191=CARTESIAN_POINT('',(33.03,29.5,4.));
#2192=CARTESIAN_POINT('',(33.03,29.5,0.));
#2193=CARTESIAN_POINT('',(30.53,29.5,4.));
#2194=CARTESIAN_POINT('',(16.515,29.5,4.));
#2195=CARTESIAN_POINT('',(30.53,29.5,0.));
#2196=CARTESIAN_POINT('Origin',(33.03,24.5,0.));
#2197=CARTESIAN_POINT('',(33.03,24.5,0.));
#2198=CARTESIAN_POINT('',(33.03,23.3625,0.));
#2199=CARTESIAN_POINT('',(33.03,24.5,4.));
#2200=CARTESIAN_POINT('',(33.03,24.5,0.));
#2201=CARTESIAN_POINT('',(33.03,23.3625,4.));
#2202=CARTESIAN_POINT('Origin',(30.53,24.5,0.));
#2203=CARTESIAN_POINT('',(30.53,24.5,0.));
#2204=CARTESIAN_POINT('',(15.265,24.5,0.));
#2205=CARTESIAN_POINT('',(30.53,24.5,4.));
#2206=CARTESIAN_POINT('',(30.53,24.5,0.));
#2207=CARTESIAN_POINT('',(15.265,24.5,4.));
#2208=CARTESIAN_POINT('Origin',(30.53,29.5,0.));
#2209=CARTESIAN_POINT('',(30.53,25.8625,0.));
#2210=CARTESIAN_POINT('',(30.53,25.8625,4.));
#2211=CARTESIAN_POINT('Origin',(90.69,29.5,0.));
#2212=CARTESIAN_POINT('',(90.69,29.5,0.));
#2213=CARTESIAN_POINT('',(88.19,29.5,0.));
#2214=CARTESIAN_POINT('',(45.345,29.5,0.));
#2215=CARTESIAN_POINT('',(90.69,29.5,4.));
#2216=CARTESIAN_POINT('',(90.69,29.5,0.));
#2217=CARTESIAN_POINT('',(88.19,29.5,4.));
#2218=CARTESIAN_POINT('',(45.345,29.5,4.));
#2219=CARTESIAN_POINT('',(88.19,29.5,0.));
#2220=CARTESIAN_POINT('Origin',(90.69,24.5,0.));
#2221=CARTESIAN_POINT('',(90.69,24.5,0.));
#2222=CARTESIAN_POINT('',(90.69,23.3625,0.));
#2223=CARTESIAN_POINT('',(90.69,24.5,4.));
#2224=CARTESIAN_POINT('',(90.69,24.5,0.));
#2225=CARTESIAN_POINT('',(90.69,23.3625,4.));
#2226=CARTESIAN_POINT('Origin',(88.19,24.5,0.));
#2227=CARTESIAN_POINT('',(88.19,24.5,0.));
#2228=CARTESIAN_POINT('',(44.095,24.5,0.));
#2229=CARTESIAN_POINT('',(88.19,24.5,4.));
#2230=CARTESIAN_POINT('',(88.19,24.5,0.));
#2231=CARTESIAN_POINT('',(44.095,24.5,4.));
#2232=CARTESIAN_POINT('Origin',(88.19,29.5,0.));
#2233=CARTESIAN_POINT('',(88.19,25.8625,0.));
#2234=CARTESIAN_POINT('',(88.19,25.8625,4.));
#2235=CARTESIAN_POINT('Origin',(102.82,15.,0.));
#2236=CARTESIAN_POINT('',(101.12,15.,0.));
#2237=CARTESIAN_POINT('Origin',(102.82,15.,0.));
#2238=CARTESIAN_POINT('',(101.12,15.,0.));
#2239=CARTESIAN_POINT('Origin',(-102.82,15.,0.));
#2240=CARTESIAN_POINT('',(-104.52,15.,0.));
#2241=CARTESIAN_POINT('Origin',(-102.82,15.,0.));
#2242=CARTESIAN_POINT('',(-104.52,15.,0.));
#2243=CARTESIAN_POINT('Origin',(79.55,6.225,0.));
#2244=CARTESIAN_POINT('',(77.75,6.225,0.));
#2245=CARTESIAN_POINT('Origin',(79.55,6.225,0.));
#2246=CARTESIAN_POINT('',(77.75,6.225,4.));
#2247=CARTESIAN_POINT('',(77.75,6.225,0.));
#2248=CARTESIAN_POINT('Origin',(79.55,6.225,4.));
#2249=CARTESIAN_POINT('Origin',(47.55,6.225,0.));
#2250=CARTESIAN_POINT('',(45.75,6.225,0.));
#2251=CARTESIAN_POINT('Origin',(47.55,6.225,0.));
#2252=CARTESIAN_POINT('',(45.75,6.225,4.));
#2253=CARTESIAN_POINT('',(45.75,6.225,0.));
#2254=CARTESIAN_POINT('Origin',(47.55,6.225,4.));
#2255=CARTESIAN_POINT('Origin',(-63.55,22.225,0.));
#2256=CARTESIAN_POINT('',(-55.8724759850587,4.3,0.));
#2257=CARTESIAN_POINT('',(-71.2275240149413,4.3,0.));
#2258=CARTESIAN_POINT('',(-48.61,4.3,0.));
#2259=CARTESIAN_POINT('Origin',(-63.55,22.225,0.));
#2260=CARTESIAN_POINT('Origin',(-63.55,22.225,0.));
#2261=CARTESIAN_POINT('',(-71.2275240149413,40.15,0.));
#2262=CARTESIAN_POINT('',(-83.05,22.225,0.));
#2263=CARTESIAN_POINT('Origin',(-63.55,22.225,0.));
#2264=CARTESIAN_POINT('',(-55.8724759850587,40.15,0.));
#2265=CARTESIAN_POINT('Origin',(-63.55,22.225,0.));
#2266=CARTESIAN_POINT('Origin',(-63.55,22.225,0.));
#2267=CARTESIAN_POINT('Origin',(-63.55,22.225,0.));
#2268=CARTESIAN_POINT('',(-83.05,22.225,4.));
#2269=CARTESIAN_POINT('',(-83.05,22.225,0.));
#2270=CARTESIAN_POINT('Origin',(-63.55,22.225,4.));
#2271=CARTESIAN_POINT('Origin',(-63.55,22.225,0.));
#2272=CARTESIAN_POINT('',(48.61,40.15,0.));
#2273=CARTESIAN_POINT('Origin',(16.,6.225,0.));
#2274=CARTESIAN_POINT('',(14.2,6.225,0.));
#2275=CARTESIAN_POINT('Origin',(16.,6.225,0.));
#2276=CARTESIAN_POINT('',(14.2,6.225,4.));
#2277=CARTESIAN_POINT('',(14.2,6.225,0.));
#2278=CARTESIAN_POINT('Origin',(16.,6.225,4.));
#2279=CARTESIAN_POINT('Origin',(-16.,6.225,0.));
#2280=CARTESIAN_POINT('',(-17.8,6.225,0.));
#2281=CARTESIAN_POINT('Origin',(-16.,6.225,0.));
#2282=CARTESIAN_POINT('',(-17.8,6.225,4.));
#2283=CARTESIAN_POINT('',(-17.8,6.225,0.));
#2284=CARTESIAN_POINT('Origin',(-16.,6.225,4.));
#2285=CARTESIAN_POINT('Origin',(-47.55,38.225,0.));
#2286=CARTESIAN_POINT('',(-49.35,38.225,0.));
#2287=CARTESIAN_POINT('Origin',(-47.55,38.225,0.));
#2288=CARTESIAN_POINT('',(-49.35,38.225,4.));
#2289=CARTESIAN_POINT('',(-49.35,38.225,0.));
#2290=CARTESIAN_POINT('Origin',(-47.55,38.225,4.));
#2291=CARTESIAN_POINT('Origin',(-79.55,38.225,0.));
#2292=CARTESIAN_POINT('',(-81.35,38.225,0.));
#2293=CARTESIAN_POINT('Origin',(-79.55,38.225,0.));
#2294=CARTESIAN_POINT('',(-81.35,38.225,4.));
#2295=CARTESIAN_POINT('',(-81.35,38.225,0.));
#2296=CARTESIAN_POINT('Origin',(-79.55,38.225,4.));
#2297=CARTESIAN_POINT('Origin',(-79.55,6.225,0.));
#2298=CARTESIAN_POINT('',(-81.35,6.225,0.));
#2299=CARTESIAN_POINT('Origin',(-79.55,6.225,0.));
#2300=CARTESIAN_POINT('',(-81.35,6.225,4.));
#2301=CARTESIAN_POINT('',(-81.35,6.225,0.));
#2302=CARTESIAN_POINT('Origin',(-79.55,6.225,4.));
#2303=CARTESIAN_POINT('Origin',(-47.55,6.225,0.));
#2304=CARTESIAN_POINT('',(-49.35,6.225,0.));
#2305=CARTESIAN_POINT('Origin',(-47.55,6.225,0.));
#2306=CARTESIAN_POINT('',(-49.35,6.225,4.));
#2307=CARTESIAN_POINT('',(-49.35,6.225,0.));
#2308=CARTESIAN_POINT('Origin',(-47.55,6.225,4.));
#2309=CARTESIAN_POINT('Origin',(0.,22.225,0.));
#2310=CARTESIAN_POINT('',(7.67752401494128,4.3,0.));
#2311=CARTESIAN_POINT('',(-7.67752401494128,4.3,0.));
#2312=CARTESIAN_POINT('',(-48.61,4.3,0.));
#2313=CARTESIAN_POINT('Origin',(0.,22.225,0.));
#2314=CARTESIAN_POINT('Origin',(0.,22.225,0.));
#2315=CARTESIAN_POINT('',(-7.67752401494129,40.15,0.));
#2316=CARTESIAN_POINT('',(-19.5,22.225,0.));
#2317=CARTESIAN_POINT('Origin',(0.,22.225,0.));
#2318=CARTESIAN_POINT('',(7.67752401494129,40.15,0.));
#2319=CARTESIAN_POINT('Origin',(0.,22.225,0.));
#2320=CARTESIAN_POINT('Origin',(0.,22.225,0.));
#2321=CARTESIAN_POINT('Origin',(0.,22.225,0.));
#2322=CARTESIAN_POINT('',(-19.5,22.225,4.));
#2323=CARTESIAN_POINT('',(-19.5,22.225,0.));
#2324=CARTESIAN_POINT('Origin',(0.,22.225,4.));
#2325=CARTESIAN_POINT('Origin',(0.,22.225,0.));
#2326=CARTESIAN_POINT('',(48.61,40.15,0.));
#2327=CARTESIAN_POINT('Origin',(-16.,38.225,0.));
#2328=CARTESIAN_POINT('',(-17.8,38.225,0.));
#2329=CARTESIAN_POINT('Origin',(-16.,38.225,0.));
#2330=CARTESIAN_POINT('',(-17.8,38.225,4.));
#2331=CARTESIAN_POINT('',(-17.8,38.225,0.));
#2332=CARTESIAN_POINT('Origin',(-16.,38.225,4.));
#2333=CARTESIAN_POINT('Origin',(16.,38.225,0.));
#2334=CARTESIAN_POINT('',(14.2,38.225,0.));
#2335=CARTESIAN_POINT('Origin',(16.,38.225,0.));
#2336=CARTESIAN_POINT('',(14.2,38.225,4.));
#2337=CARTESIAN_POINT('',(14.2,38.225,0.));
#2338=CARTESIAN_POINT('Origin',(16.,38.225,4.));
#2339=CARTESIAN_POINT('Origin',(63.55,22.225,0.));
#2340=CARTESIAN_POINT('',(71.2275240149413,4.3,0.));
#2341=CARTESIAN_POINT('',(55.8724759850588,4.3,0.));
#2342=CARTESIAN_POINT('',(-48.61,4.3,0.));
#2343=CARTESIAN_POINT('Origin',(63.55,22.225,0.));
#2344=CARTESIAN_POINT('Origin',(63.55,22.225,0.));
#2345=CARTESIAN_POINT('',(55.8724759850587,40.15,0.));
#2346=CARTESIAN_POINT('',(44.05,22.225,0.));
#2347=CARTESIAN_POINT('Origin',(63.55,22.225,0.));
#2348=CARTESIAN_POINT('',(71.2275240149413,40.15,0.));
#2349=CARTESIAN_POINT('Origin',(63.55,22.225,0.));
#2350=CARTESIAN_POINT('Origin',(63.55,22.225,0.));
#2351=CARTESIAN_POINT('Origin',(63.55,22.225,0.));
#2352=CARTESIAN_POINT('',(44.05,22.225,4.));
#2353=CARTESIAN_POINT('',(44.05,22.225,0.));
#2354=CARTESIAN_POINT('Origin',(63.55,22.225,4.));
#2355=CARTESIAN_POINT('Origin',(63.55,22.225,0.));
#2356=CARTESIAN_POINT('',(48.61,40.15,0.));
#2357=CARTESIAN_POINT('Origin',(47.55,38.225,0.));
#2358=CARTESIAN_POINT('',(45.75,38.225,0.));
#2359=CARTESIAN_POINT('Origin',(47.55,38.225,0.));
#2360=CARTESIAN_POINT('',(45.75,38.225,4.));
#2361=CARTESIAN_POINT('',(45.75,38.225,0.));
#2362=CARTESIAN_POINT('Origin',(47.55,38.225,4.));
#2363=CARTESIAN_POINT('Origin',(79.55,38.225,0.));
#2364=CARTESIAN_POINT('',(77.75,38.225,0.));
#2365=CARTESIAN_POINT('Origin',(79.55,38.225,0.));
#2366=CARTESIAN_POINT('',(77.75,38.225,4.));
#2367=CARTESIAN_POINT('',(77.75,38.225,0.));
#2368=CARTESIAN_POINT('Origin',(79.55,38.225,4.));
#2369=CARTESIAN_POINT('Origin',(-102.82,29.45,0.));
#2370=CARTESIAN_POINT('',(-104.52,29.45,0.));
#2371=CARTESIAN_POINT('Origin',(-102.82,29.45,0.));
#2372=CARTESIAN_POINT('',(-104.52,29.45,0.));
#2373=CARTESIAN_POINT('Origin',(102.82,29.45,0.));
#2374=CARTESIAN_POINT('',(101.12,29.45,0.));
#2375=CARTESIAN_POINT('Origin',(102.82,29.45,0.));
#2376=CARTESIAN_POINT('',(101.12,29.45,0.));
#2377=CARTESIAN_POINT('Origin',(0.,22.225,0.));
#2378=CARTESIAN_POINT('',(48.61,40.15,0.));
#2379=CARTESIAN_POINT('',(-48.61,4.3,0.));
#2380=CARTESIAN_POINT('Origin',(0.,22.225,0.));
#2381=CARTESIAN_POINT('',(48.61,40.15,0.));
#2382=CARTESIAN_POINT('',(-48.61,4.3,0.));
#2383=CARTESIAN_POINT('Origin',(97.22,40.15,0.));
#2384=CARTESIAN_POINT('',(-97.22,40.15,0.));
#2385=CARTESIAN_POINT('',(48.61,40.15,0.));
#2386=CARTESIAN_POINT('',(-97.22,40.15,-72.));
#2387=CARTESIAN_POINT('',(-97.22,40.15,0.));
#2388=CARTESIAN_POINT('',(97.22,40.15,-72.));
#2389=CARTESIAN_POINT('',(-97.22,40.15,-72.));
#2390=CARTESIAN_POINT('',(97.22,40.15,0.));
#2391=CARTESIAN_POINT('',(97.22,40.15,0.));
#2392=CARTESIAN_POINT('',(48.61,40.15,0.));
#2393=CARTESIAN_POINT('Origin',(97.22,42.35,0.));
#2394=CARTESIAN_POINT('',(97.22,42.35,0.));
#2395=CARTESIAN_POINT('',(97.22,32.2875,0.));
#2396=CARTESIAN_POINT('',(97.22,42.35,-72.));
#2397=CARTESIAN_POINT('',(97.22,40.15,-72.));
#2398=CARTESIAN_POINT('',(97.22,42.35,0.));
#2399=CARTESIAN_POINT('Origin',(-97.22,42.35,0.));
#2400=CARTESIAN_POINT('',(-97.22,42.35,0.));
#2401=CARTESIAN_POINT('',(-48.61,42.35,0.));
#2402=CARTESIAN_POINT('',(-97.22,42.35,-72.));
#2403=CARTESIAN_POINT('',(97.22,42.35,-72.));
#2404=CARTESIAN_POINT('',(-97.22,42.35,0.));
#2405=CARTESIAN_POINT('Origin',(-97.22,40.15,0.));
#2406=CARTESIAN_POINT('',(-97.22,31.1875,0.));
#2407=CARTESIAN_POINT('',(-97.22,42.35,-72.));
#2408=CARTESIAN_POINT('Origin',(0.,41.25,-72.));
#2409=CARTESIAN_POINT('Origin',(97.22,2.1,0.));
#2410=CARTESIAN_POINT('',(-97.22,2.1,0.));
#2411=CARTESIAN_POINT('',(97.22,2.1,0.));
#2412=CARTESIAN_POINT('',(48.61,2.1,0.));
#2413=CARTESIAN_POINT('',(-97.22,2.1,-72.));
#2414=CARTESIAN_POINT('',(-97.22,2.1,0.));
#2415=CARTESIAN_POINT('',(97.22,2.1,-72.));
#2416=CARTESIAN_POINT('',(-97.22,2.1,-72.));
#2417=CARTESIAN_POINT('',(97.22,2.1,0.));
#2418=CARTESIAN_POINT('Origin',(97.22,4.3,0.));
#2419=CARTESIAN_POINT('',(97.22,4.3,0.));
#2420=CARTESIAN_POINT('',(97.22,13.2625,0.));
#2421=CARTESIAN_POINT('',(97.22,4.3,-72.));
#2422=CARTESIAN_POINT('',(97.22,2.1,-72.));
#2423=CARTESIAN_POINT('',(97.22,4.3,0.));
#2424=CARTESIAN_POINT('Origin',(-97.22,4.3,0.));
#2425=CARTESIAN_POINT('',(-48.61,4.3,0.));
#2426=CARTESIAN_POINT('',(-97.22,4.3,-72.));
#2427=CARTESIAN_POINT('',(97.22,4.3,-72.));
#2428=CARTESIAN_POINT('',(-97.22,4.3,0.));
#2429=CARTESIAN_POINT('',(-97.22,4.3,0.));
#2430=CARTESIAN_POINT('',(-48.61,4.3,0.));
#2431=CARTESIAN_POINT('Origin',(-97.22,2.1,0.));
#2432=CARTESIAN_POINT('',(-97.22,12.1625,0.));
#2433=CARTESIAN_POINT('',(-97.22,4.3,-72.));
#2434=CARTESIAN_POINT('Origin',(0.,3.2,-72.));
#2435=CARTESIAN_POINT('Origin',(111.,44.05,0.));
#2436=CARTESIAN_POINT('',(111.,44.05,0.));
#2437=CARTESIAN_POINT('',(-111.,44.05,0.));
#2438=CARTESIAN_POINT('',(111.,44.05,0.));
#2439=CARTESIAN_POINT('',(-111.,44.05,4.));
#2440=CARTESIAN_POINT('',(-111.,44.05,0.));
#2441=CARTESIAN_POINT('',(111.,44.05,4.));
#2442=CARTESIAN_POINT('',(111.,44.05,4.));
#2443=CARTESIAN_POINT('',(111.,44.05,0.));
#2444=CARTESIAN_POINT('Origin',(111.,0.4,0.));
#2445=CARTESIAN_POINT('',(111.,0.4,0.));
#2446=CARTESIAN_POINT('',(111.,0.4,0.));
#2447=CARTESIAN_POINT('',(111.,0.4,4.));
#2448=CARTESIAN_POINT('',(111.,0.4,4.));
#2449=CARTESIAN_POINT('',(111.,0.4,0.));
#2450=CARTESIAN_POINT('Origin',(-111.,0.4,0.));
#2451=CARTESIAN_POINT('',(-111.,0.4,0.));
#2452=CARTESIAN_POINT('',(-111.,0.4,0.));
#2453=CARTESIAN_POINT('',(-111.,0.4,4.));
#2454=CARTESIAN_POINT('',(-111.,0.4,4.));
#2455=CARTESIAN_POINT('',(-111.,0.4,0.));
#2456=CARTESIAN_POINT('Origin',(-111.,44.05,0.));
#2457=CARTESIAN_POINT('',(-111.,44.05,0.));
#2458=CARTESIAN_POINT('',(-111.,44.05,4.));
#2459=CARTESIAN_POINT('Origin',(0.,22.225,4.));
#2460=CARTESIAN_POINT('Origin',(0.,22.225,0.));
#2461=UNCERTAINTY_MEASURE_WITH_UNIT(LENGTH_MEASURE(0.01),#2465,
'DISTANCE_ACCURACY_VALUE',
'Maximum model space distance between geometric entities at asserted c
onnectivities');
#2462=UNCERTAINTY_MEASURE_WITH_UNIT(LENGTH_MEASURE(0.01),#2465,
'DISTANCE_ACCURACY_VALUE',
'Maximum model space distance between geometric entities at asserted c
onnectivities');
#2463=(
GEOMETRIC_REPRESENTATION_CONTEXT(3)
GLOBAL_UNCERTAINTY_ASSIGNED_CONTEXT((#2461))
GLOBAL_UNIT_ASSIGNED_CONTEXT((#2465,#2467,#2468))
REPRESENTATION_CONTEXT('','3D')
);
#2464=(
GEOMETRIC_REPRESENTATION_CONTEXT(3)
GLOBAL_UNCERTAINTY_ASSIGNED_CONTEXT((#2462))
GLOBAL_UNIT_ASSIGNED_CONTEXT((#2465,#2467,#2468))
REPRESENTATION_CONTEXT('','3D')
);
#2465=(
LENGTH_UNIT()
NAMED_UNIT(*)
SI_UNIT(.MILLI.,.METRE.)
);
#2466=(
LENGTH_UNIT()
NAMED_UNIT(*)
SI_UNIT($,.METRE.)
);
#2467=(
NAMED_UNIT(*)
PLANE_ANGLE_UNIT()
SI_UNIT($,.RADIAN.)
);
#2468=(
NAMED_UNIT(*)
SI_UNIT($,.STERADIAN.)
SOLID_ANGLE_UNIT()
);
#2469=SHAPE_DEFINITION_REPRESENTATION(#2470,#2471);
#2470=PRODUCT_DEFINITION_SHAPE('',$,#2473);
#2471=SHAPE_REPRESENTATION('',(#1509),#2463);
#2472=PRODUCT_DEFINITION_CONTEXT('part definition',#2477,'design');
#2473=PRODUCT_DEFINITION('2026-08-26-09-02-40-057','(Unsaved)',#2474,#2472);
#2474=PRODUCT_DEFINITION_FORMATION('',$,#2479);
#2475=PRODUCT_RELATED_PRODUCT_CATEGORY('(Unsaved)','(Unsaved)',(#2479));
#2476=APPLICATION_PROTOCOL_DEFINITION('international standard',
'automotive_design',2009,#2477);
#2477=APPLICATION_CONTEXT(
'Core Data for Automotive Mechanical Design Process');
#2478=PRODUCT_CONTEXT('part definition',#2477,'mechanical');
#2479=PRODUCT('2026-08-26-09-02-40-057','(Unsaved)',$,(#2478));
#2480=PRESENTATION_STYLE_ASSIGNMENT((#2481));
#2481=SURFACE_STYLE_USAGE(.BOTH.,#2482);
#2482=SURFACE_SIDE_STYLE('',(#2483));
#2483=SURFACE_STYLE_FILL_AREA(#2484);
#2484=FILL_AREA_STYLE('Steel - Satin',(#2485));
#2485=FILL_AREA_STYLE_COLOUR('Steel - Satin',#2486);
#2486=COLOUR_RGB('Steel - Satin',0.627450980392157,0.627450980392157,0.627450980392157);
ENDSEC;
END-ISO-10303-21;
