ISO-10303-21;
HEADER;
/* Generated by software containing ST-Developer
 * from STEP Tools, Inc. (www.steptools.com) 
 */

FILE_DESCRIPTION(
/* description */ (''),
/* implementation_level */ '2;1');

FILE_NAME(
/* name */ 'front_ear.step',
/* time_stamp */ '2026-08-22T19:03:53-05:00',
/* author */ (''),
/* organization */ (''),
/* preprocessor_version */ 'ST-DEVELOPER v20.1',
/* originating_system */ 'Autodesk Translation Framework v15.8.0.0',
/* authorisation */ '');

FILE_SCHEMA (('AUTOMOTIVE_DESIGN { 1 0 10303 214 3 1 1 }'));
ENDSEC;

DATA;
#10=MECHANICAL_DESIGN_GEOMETRIC_PRESENTATION_REPRESENTATION('',(#13),#2085);
#11=SHAPE_REPRESENTATION_RELATIONSHIP('SRR','None',#2092,#12);
#12=ADVANCED_BREP_SHAPE_REPRESENTATION('',(#14),#2084);
#13=STYLED_ITEM('',(#2101),#14);
#14=MANIFOLD_SOLID_BREP('Front Ear',#1185);
#15=SPHERICAL_SURFACE('',#1258,0.499999999999998);
#16=SPHERICAL_SURFACE('',#1263,0.5);
#17=SPHERICAL_SURFACE('',#1268,0.5);
#18=SPHERICAL_SURFACE('',#1274,0.5);
#19=SPHERICAL_SURFACE('',#1289,0.499999999999998);
#20=SPHERICAL_SURFACE('',#1297,0.5);
#21=SPHERICAL_SURFACE('',#1301,0.499999999999998);
#22=SPHERICAL_SURFACE('',#1305,0.5);
#23=ELLIPSE('',#1256,0.707106781186546,0.5);
#24=ELLIPSE('',#1257,0.707106781186546,0.5);
#25=ELLIPSE('',#1273,0.707106781186548,0.5);
#26=ELLIPSE('',#1294,0.707106781186549,0.5);
#27=ELLIPSE('',#1296,0.707106781186548,0.5);
#28=ELLIPSE('',#1310,0.707106781186547,0.5);
#29=ELLIPSE('',#1322,0.707106781186548,0.5);
#30=ELLIPSE('',#1332,0.707106781186546,0.5);
#31=FACE_BOUND('',#166,.T.);
#32=FACE_BOUND('',#167,.T.);
#33=FACE_BOUND('',#170,.T.);
#34=FACE_BOUND('',#171,.T.);
#35=TOROIDAL_SURFACE('',#1225,2.65,0.25);
#36=TOROIDAL_SURFACE('',#1239,2.65,0.25);
#37=TOROIDAL_SURFACE('',#1246,2.65,0.25);
#38=TOROIDAL_SURFACE('',#1253,2.65,0.25);
#39=TOROIDAL_SURFACE('',#1280,4.5,0.5);
#40=TOROIDAL_SURFACE('',#1285,4.5,0.5);
#41=TOROIDAL_SURFACE('',#1313,4.5,0.5);
#42=TOROIDAL_SURFACE('',#1318,4.5,0.5);
#43=CYLINDRICAL_SURFACE('',#1216,4.);
#44=CYLINDRICAL_SURFACE('',#1224,4.);
#45=CYLINDRICAL_SURFACE('',#1230,2.4);
#46=CYLINDRICAL_SURFACE('',#1250,2.4);
#47=CYLINDRICAL_SURFACE('',#1255,0.5);
#48=CYLINDRICAL_SURFACE('',#1262,0.5);
#49=CYLINDRICAL_SURFACE('',#1267,0.5);
#50=CYLINDRICAL_SURFACE('',#1272,0.5);
#51=CYLINDRICAL_SURFACE('',#1278,0.5);
#52=CYLINDRICAL_SURFACE('',#1283,0.5);
#53=CYLINDRICAL_SURFACE('',#1288,0.5);
#54=CYLINDRICAL_SURFACE('',#1293,0.5);
#55=CYLINDRICAL_SURFACE('',#1295,0.5);
#56=CYLINDRICAL_SURFACE('',#1309,0.5);
#57=CYLINDRICAL_SURFACE('',#1311,0.5);
#58=CYLINDRICAL_SURFACE('',#1316,0.5);
#59=CYLINDRICAL_SURFACE('',#1321,0.5);
#60=CYLINDRICAL_SURFACE('',#1323,0.5);
#61=CYLINDRICAL_SURFACE('',#1324,0.5);
#62=CYLINDRICAL_SURFACE('',#1325,0.5);
#63=CYLINDRICAL_SURFACE('',#1326,0.5);
#64=CYLINDRICAL_SURFACE('',#1327,0.5);
#65=CYLINDRICAL_SURFACE('',#1328,0.5);
#66=CYLINDRICAL_SURFACE('',#1329,0.5);
#67=CYLINDRICAL_SURFACE('',#1330,0.5);
#68=CYLINDRICAL_SURFACE('',#1331,0.5);
#69=CYLINDRICAL_SURFACE('',#1333,0.5);
#70=CYLINDRICAL_SURFACE('',#1334,0.5);
#71=CYLINDRICAL_SURFACE('',#1335,0.5);
#72=CYLINDRICAL_SURFACE('',#1340,0.5);
#73=CYLINDRICAL_SURFACE('',#1342,5.);
#74=CYLINDRICAL_SURFACE('',#1343,5.);
#75=FACE_OUTER_BOUND('',#147,.T.);
#76=FACE_OUTER_BOUND('',#148,.T.);
#77=FACE_OUTER_BOUND('',#149,.T.);
#78=FACE_OUTER_BOUND('',#150,.T.);
#79=FACE_OUTER_BOUND('',#151,.T.);
#80=FACE_OUTER_BOUND('',#152,.T.);
#81=FACE_OUTER_BOUND('',#153,.T.);
#82=FACE_OUTER_BOUND('',#154,.T.);
#83=FACE_OUTER_BOUND('',#155,.T.);
#84=FACE_OUTER_BOUND('',#156,.T.);
#85=FACE_OUTER_BOUND('',#157,.T.);
#86=FACE_OUTER_BOUND('',#158,.T.);
#87=FACE_OUTER_BOUND('',#159,.T.);
#88=FACE_OUTER_BOUND('',#160,.T.);
#89=FACE_OUTER_BOUND('',#161,.T.);
#90=FACE_OUTER_BOUND('',#162,.T.);
#91=FACE_OUTER_BOUND('',#163,.T.);
#92=FACE_OUTER_BOUND('',#164,.T.);
#93=FACE_OUTER_BOUND('',#165,.T.);
#94=FACE_OUTER_BOUND('',#168,.T.);
#95=FACE_OUTER_BOUND('',#169,.T.);
#96=FACE_OUTER_BOUND('',#172,.T.);
#97=FACE_OUTER_BOUND('',#173,.T.);
#98=FACE_OUTER_BOUND('',#174,.T.);
#99=FACE_OUTER_BOUND('',#175,.T.);
#100=FACE_OUTER_BOUND('',#176,.T.);
#101=FACE_OUTER_BOUND('',#177,.T.);
#102=FACE_OUTER_BOUND('',#178,.T.);
#103=FACE_OUTER_BOUND('',#179,.T.);
#104=FACE_OUTER_BOUND('',#180,.T.);
#105=FACE_OUTER_BOUND('',#181,.T.);
#106=FACE_OUTER_BOUND('',#182,.T.);
#107=FACE_OUTER_BOUND('',#183,.T.);
#108=FACE_OUTER_BOUND('',#184,.T.);
#109=FACE_OUTER_BOUND('',#185,.T.);
#110=FACE_OUTER_BOUND('',#186,.T.);
#111=FACE_OUTER_BOUND('',#187,.T.);
#112=FACE_OUTER_BOUND('',#188,.T.);
#113=FACE_OUTER_BOUND('',#189,.T.);
#114=FACE_OUTER_BOUND('',#190,.T.);
#115=FACE_OUTER_BOUND('',#191,.T.);
#116=FACE_OUTER_BOUND('',#192,.T.);
#117=FACE_OUTER_BOUND('',#193,.T.);
#118=FACE_OUTER_BOUND('',#194,.T.);
#119=FACE_OUTER_BOUND('',#195,.T.);
#120=FACE_OUTER_BOUND('',#196,.T.);
#121=FACE_OUTER_BOUND('',#197,.T.);
#122=FACE_OUTER_BOUND('',#198,.T.);
#123=FACE_OUTER_BOUND('',#199,.T.);
#124=FACE_OUTER_BOUND('',#200,.T.);
#125=FACE_OUTER_BOUND('',#201,.T.);
#126=FACE_OUTER_BOUND('',#202,.T.);
#127=FACE_OUTER_BOUND('',#203,.T.);
#128=FACE_OUTER_BOUND('',#204,.T.);
#129=FACE_OUTER_BOUND('',#205,.T.);
#130=FACE_OUTER_BOUND('',#206,.T.);
#131=FACE_OUTER_BOUND('',#207,.T.);
#132=FACE_OUTER_BOUND('',#208,.T.);
#133=FACE_OUTER_BOUND('',#209,.T.);
#134=FACE_OUTER_BOUND('',#210,.T.);
#135=FACE_OUTER_BOUND('',#211,.T.);
#136=FACE_OUTER_BOUND('',#212,.T.);
#137=FACE_OUTER_BOUND('',#213,.T.);
#138=FACE_OUTER_BOUND('',#214,.T.);
#139=FACE_OUTER_BOUND('',#215,.T.);
#140=FACE_OUTER_BOUND('',#216,.T.);
#141=FACE_OUTER_BOUND('',#217,.T.);
#142=FACE_OUTER_BOUND('',#218,.T.);
#143=FACE_OUTER_BOUND('',#219,.T.);
#144=FACE_OUTER_BOUND('',#220,.T.);
#145=FACE_OUTER_BOUND('',#221,.T.);
#146=FACE_OUTER_BOUND('',#222,.T.);
#147=EDGE_LOOP('',(#749,#750,#751,#752));
#148=EDGE_LOOP('',(#753,#754,#755,#756));
#149=EDGE_LOOP('',(#757,#758,#759,#760));
#150=EDGE_LOOP('',(#761,#762,#763,#764,#765,#766,#767,#768));
#151=EDGE_LOOP('',(#769,#770,#771,#772));
#152=EDGE_LOOP('',(#773,#774,#775,#776,#777,#778,#779,#780));
#153=EDGE_LOOP('',(#781,#782,#783,#784));
#154=EDGE_LOOP('',(#785,#786,#787,#788,#789,#790,#791));
#155=EDGE_LOOP('',(#792,#793,#794,#795,#796,#797,#798,#799,#800,#801));
#156=EDGE_LOOP('',(#802,#803));
#157=EDGE_LOOP('',(#804,#805,#806,#807));
#158=EDGE_LOOP('',(#808,#809,#810,#811,#812,#813,#814));
#159=EDGE_LOOP('',(#815,#816,#817,#818));
#160=EDGE_LOOP('',(#819,#820));
#161=EDGE_LOOP('',(#821,#822,#823,#824,#825,#826,#827,#828,#829,#830));
#162=EDGE_LOOP('',(#831,#832,#833,#834));
#163=EDGE_LOOP('',(#835,#836,#837,#838,#839));
#164=EDGE_LOOP('',(#840,#841,#842,#843,#844,#845));
#165=EDGE_LOOP('',(#846,#847,#848,#849,#850,#851,#852,#853,#854,#855,#856,
#857));
#166=EDGE_LOOP('',(#858));
#167=EDGE_LOOP('',(#859));
#168=EDGE_LOOP('',(#860,#861,#862,#863,#864));
#169=EDGE_LOOP('',(#865,#866,#867,#868,#869,#870,#871,#872,#873,#874));
#170=EDGE_LOOP('',(#875));
#171=EDGE_LOOP('',(#876));
#172=EDGE_LOOP('',(#877,#878,#879,#880,#881));
#173=EDGE_LOOP('',(#882,#883,#884,#885,#886,#887));
#174=EDGE_LOOP('',(#888,#889,#890,#891,#892));
#175=EDGE_LOOP('',(#893,#894,#895,#896));
#176=EDGE_LOOP('',(#897,#898,#899));
#177=EDGE_LOOP('',(#900,#901,#902,#903,#904,#905,#906,#907));
#178=EDGE_LOOP('',(#908,#909,#910));
#179=EDGE_LOOP('',(#911,#912,#913,#914,#915,#916,#917,#918));
#180=EDGE_LOOP('',(#919,#920,#921));
#181=EDGE_LOOP('',(#922,#923,#924,#925));
#182=EDGE_LOOP('',(#926,#927,#928));
#183=EDGE_LOOP('',(#929,#930,#931,#932));
#184=EDGE_LOOP('',(#933,#934,#935,#936));
#185=EDGE_LOOP('',(#937,#938,#939,#940));
#186=EDGE_LOOP('',(#941,#942,#943,#944));
#187=EDGE_LOOP('',(#945,#946,#947,#948));
#188=EDGE_LOOP('',(#949,#950,#951));
#189=EDGE_LOOP('',(#952,#953,#954,#955));
#190=EDGE_LOOP('',(#956,#957,#958,#959));
#191=EDGE_LOOP('',(#960,#961,#962));
#192=EDGE_LOOP('',(#963,#964,#965));
#193=EDGE_LOOP('',(#966,#967,#968));
#194=EDGE_LOOP('',(#969,#970,#971,#972));
#195=EDGE_LOOP('',(#973,#974,#975,#976));
#196=EDGE_LOOP('',(#977,#978,#979,#980));
#197=EDGE_LOOP('',(#981,#982,#983,#984));
#198=EDGE_LOOP('',(#985,#986,#987,#988));
#199=EDGE_LOOP('',(#989,#990,#991,#992));
#200=EDGE_LOOP('',(#993,#994,#995,#996));
#201=EDGE_LOOP('',(#997,#998,#999,#1000));
#202=EDGE_LOOP('',(#1001,#1002,#1003,#1004));
#203=EDGE_LOOP('',(#1005,#1006,#1007,#1008));
#204=EDGE_LOOP('',(#1009,#1010,#1011,#1012));
#205=EDGE_LOOP('',(#1013,#1014,#1015,#1016));
#206=EDGE_LOOP('',(#1017,#1018,#1019,#1020));
#207=EDGE_LOOP('',(#1021,#1022,#1023,#1024));
#208=EDGE_LOOP('',(#1025,#1026,#1027,#1028));
#209=EDGE_LOOP('',(#1029,#1030,#1031,#1032));
#210=EDGE_LOOP('',(#1033,#1034,#1035,#1036));
#211=EDGE_LOOP('',(#1037,#1038,#1039,#1040));
#212=EDGE_LOOP('',(#1041,#1042,#1043,#1044,#1045,#1046));
#213=EDGE_LOOP('',(#1047,#1048,#1049,#1050));
#214=EDGE_LOOP('',(#1051,#1052,#1053,#1054));
#215=EDGE_LOOP('',(#1055,#1056,#1057,#1058));
#216=EDGE_LOOP('',(#1059,#1060,#1061,#1062));
#217=EDGE_LOOP('',(#1063,#1064,#1065,#1066));
#218=EDGE_LOOP('',(#1067,#1068,#1069,#1070));
#219=EDGE_LOOP('',(#1071,#1072,#1073,#1074));
#220=EDGE_LOOP('',(#1075,#1076,#1077,#1078,#1079,#1080));
#221=EDGE_LOOP('',(#1081,#1082,#1083,#1084));
#222=EDGE_LOOP('',(#1085,#1086,#1087,#1088));
#223=LINE('',#1745,#317);
#224=LINE('',#1747,#318);
#225=LINE('',#1748,#319);
#226=LINE('',#1754,#320);
#227=LINE('',#1756,#321);
#228=LINE('',#1757,#322);
#229=LINE('',#1763,#323);
#230=LINE('',#1765,#324);
#231=LINE('',#1766,#325);
#232=LINE('',#1769,#326);
#233=LINE('',#1771,#327);
#234=LINE('',#1773,#328);
#235=LINE('',#1775,#329);
#236=LINE('',#1777,#330);
#237=LINE('',#1779,#331);
#238=LINE('',#1780,#332);
#239=LINE('',#1785,#333);
#240=LINE('',#1786,#334);
#241=LINE('',#1788,#335);
#242=LINE('',#1790,#336);
#243=LINE('',#1792,#337);
#244=LINE('',#1794,#338);
#245=LINE('',#1796,#339);
#246=LINE('',#1797,#340);
#247=LINE('',#1800,#341);
#248=LINE('',#1802,#342);
#249=LINE('',#1803,#343);
#250=LINE('',#1806,#344);
#251=LINE('',#1808,#345);
#252=LINE('',#1810,#346);
#253=LINE('',#1814,#347);
#254=LINE('',#1815,#348);
#255=LINE('',#1819,#349);
#256=LINE('',#1821,#350);
#257=LINE('',#1822,#351);
#258=LINE('',#1828,#352);
#259=LINE('',#1830,#353);
#260=LINE('',#1834,#354);
#261=LINE('',#1836,#355);
#262=LINE('',#1837,#356);
#263=LINE('',#1840,#357);
#264=LINE('',#1842,#358);
#265=LINE('',#1843,#359);
#266=LINE('',#1849,#360);
#267=LINE('',#1851,#361);
#268=LINE('',#1852,#362);
#269=LINE('',#1864,#363);
#270=LINE('',#1871,#364);
#271=LINE('',#1875,#365);
#272=LINE('',#1879,#366);
#273=LINE('',#1881,#367);
#274=LINE('',#1883,#368);
#275=LINE('',#1886,#369);
#276=LINE('',#1896,#370);
#277=LINE('',#1900,#371);
#278=LINE('',#1904,#372);
#279=LINE('',#1906,#373);
#280=LINE('',#1908,#374);
#281=LINE('',#1910,#375);
#282=LINE('',#1912,#376);
#283=LINE('',#1913,#377);
#284=LINE('',#1924,#378);
#285=LINE('',#1931,#379);
#286=LINE('',#1954,#380);
#287=LINE('',#1965,#381);
#288=LINE('',#1973,#382);
#289=LINE('',#1979,#383);
#290=LINE('',#1988,#384);
#291=LINE('',#1992,#385);
#292=LINE('',#2013,#386);
#293=LINE('',#2015,#387);
#294=LINE('',#2019,#388);
#295=LINE('',#2028,#389);
#296=LINE('',#2035,#390);
#297=LINE('',#2038,#391);
#298=LINE('',#2039,#392);
#299=LINE('',#2041,#393);
#300=LINE('',#2043,#394);
#301=LINE('',#2045,#395);
#302=LINE('',#2047,#396);
#303=LINE('',#2049,#397);
#304=LINE('',#2051,#398);
#305=LINE('',#2052,#399);
#306=LINE('',#2054,#400);
#307=LINE('',#2055,#401);
#308=LINE('',#2058,#402);
#309=LINE('',#2061,#403);
#310=LINE('',#2063,#404);
#311=LINE('',#2065,#405);
#312=LINE('',#2067,#406);
#313=LINE('',#2072,#407);
#314=LINE('',#2075,#408);
#315=LINE('',#2077,#409);
#316=LINE('',#2078,#410);
#317=VECTOR('',#1353,10.);
#318=VECTOR('',#1354,10.);
#319=VECTOR('',#1355,10.);
#320=VECTOR('',#1360,10.);
#321=VECTOR('',#1361,10.);
#322=VECTOR('',#1362,10.);
#323=VECTOR('',#1367,10.);
#324=VECTOR('',#1368,10.);
#325=VECTOR('',#1369,10.);
#326=VECTOR('',#1372,10.);
#327=VECTOR('',#1373,10.);
#328=VECTOR('',#1374,10.);
#329=VECTOR('',#1375,10.);
#330=VECTOR('',#1376,10.);
#331=VECTOR('',#1377,10.);
#332=VECTOR('',#1378,10.);
#333=VECTOR('',#1383,10.);
#334=VECTOR('',#1384,10.);
#335=VECTOR('',#1387,10.);
#336=VECTOR('',#1388,10.);
#337=VECTOR('',#1389,10.);
#338=VECTOR('',#1390,10.);
#339=VECTOR('',#1391,10.);
#340=VECTOR('',#1392,10.);
#341=VECTOR('',#1395,10.);
#342=VECTOR('',#1396,10.);
#343=VECTOR('',#1397,10.);
#344=VECTOR('',#1400,10.);
#345=VECTOR('',#1401,10.);
#346=VECTOR('',#1402,10.);
#347=VECTOR('',#1405,10.);
#348=VECTOR('',#1406,10.);
#349=VECTOR('',#1411,10.);
#350=VECTOR('',#1412,10.);
#351=VECTOR('',#1413,10.);
#352=VECTOR('',#1422,10.);
#353=VECTOR('',#1423,10.);
#354=VECTOR('',#1426,10.);
#355=VECTOR('',#1427,10.);
#356=VECTOR('',#1428,10.);
#357=VECTOR('',#1431,10.);
#358=VECTOR('',#1432,10.);
#359=VECTOR('',#1433,10.);
#360=VECTOR('',#1442,10.);
#361=VECTOR('',#1443,10.);
#362=VECTOR('',#1444,10.);
#363=VECTOR('',#1459,2.4);
#364=VECTOR('',#1466,10.);
#365=VECTOR('',#1469,10.);
#366=VECTOR('',#1472,10.);
#367=VECTOR('',#1473,10.);
#368=VECTOR('',#1476,10.);
#369=VECTOR('',#1479,10.);
#370=VECTOR('',#1490,10.);
#371=VECTOR('',#1493,10.);
#372=VECTOR('',#1496,10.);
#373=VECTOR('',#1497,10.);
#374=VECTOR('',#1498,10.);
#375=VECTOR('',#1499,10.);
#376=VECTOR('',#1500,10.);
#377=VECTOR('',#1501,10.);
#378=VECTOR('',#1514,2.4);
#379=VECTOR('',#1525,10.);
#380=VECTOR('',#1560,10.);
#381=VECTOR('',#1575,10.);
#382=VECTOR('',#1586,10.);
#383=VECTOR('',#1595,10.);
#384=VECTOR('',#1606,10.);
#385=VECTOR('',#1611,10.);
#386=VECTOR('',#1640,10.);
#387=VECTOR('',#1641,10.);
#388=VECTOR('',#1646,10.);
#389=VECTOR('',#1659,10.);
#390=VECTOR('',#1668,10.);
#391=VECTOR('',#1673,10.);
#392=VECTOR('',#1674,10.);
#393=VECTOR('',#1677,10.);
#394=VECTOR('',#1680,10.);
#395=VECTOR('',#1683,10.);
#396=VECTOR('',#1686,10.);
#397=VECTOR('',#1689,10.);
#398=VECTOR('',#1692,10.);
#399=VECTOR('',#1693,10.);
#400=VECTOR('',#1696,10.);
#401=VECTOR('',#1697,10.);
#402=VECTOR('',#1700,10.);
#403=VECTOR('',#1705,10.);
#404=VECTOR('',#1708,10.);
#405=VECTOR('',#1711,10.);
#406=VECTOR('',#1714,10.);
#407=VECTOR('',#1723,10.);
#408=VECTOR('',#1728,10.);
#409=VECTOR('',#1731,10.);
#410=VECTOR('',#1732,10.);
#411=CIRCLE('',#1200,0.5);
#412=CIRCLE('',#1202,0.5);
#413=CIRCLE('',#1204,0.5);
#414=CIRCLE('',#1207,0.5);
#415=CIRCLE('',#1211,0.5);
#416=CIRCLE('',#1213,4.);
#417=CIRCLE('',#1215,4.);
#418=CIRCLE('',#1218,0.5);
#419=CIRCLE('',#1221,4.);
#420=CIRCLE('',#1223,4.);
#421=CIRCLE('',#1226,2.65);
#422=CIRCLE('',#1227,0.25);
#423=CIRCLE('',#1228,2.4);
#424=CIRCLE('',#1229,2.4);
#425=CIRCLE('',#1231,2.4);
#426=CIRCLE('',#1232,2.4);
#427=CIRCLE('',#1234,4.5);
#428=CIRCLE('',#1235,4.5);
#429=CIRCLE('',#1236,0.5);
#430=CIRCLE('',#1237,0.5);
#431=CIRCLE('',#1238,2.65);
#432=CIRCLE('',#1240,0.25);
#433=CIRCLE('',#1241,2.65);
#434=CIRCLE('',#1243,4.5);
#435=CIRCLE('',#1244,4.5);
#436=CIRCLE('',#1245,2.65);
#437=CIRCLE('',#1247,0.25);
#438=CIRCLE('',#1248,2.4);
#439=CIRCLE('',#1249,2.4);
#440=CIRCLE('',#1251,2.4);
#441=CIRCLE('',#1252,2.4);
#442=CIRCLE('',#1254,0.25);
#443=CIRCLE('',#1259,0.5);
#444=CIRCLE('',#1260,0.499999999999998);
#445=CIRCLE('',#1261,0.5);
#446=CIRCLE('',#1264,0.5);
#447=CIRCLE('',#1265,0.5);
#448=CIRCLE('',#1266,0.5);
#449=CIRCLE('',#1269,0.499999999999998);
#450=CIRCLE('',#1270,0.5);
#451=CIRCLE('',#1271,0.5);
#452=CIRCLE('',#1275,0.5);
#453=CIRCLE('',#1276,0.5);
#454=CIRCLE('',#1277,0.5);
#455=CIRCLE('',#1279,0.499999999999998);
#456=CIRCLE('',#1281,0.5);
#457=CIRCLE('',#1282,5.);
#458=CIRCLE('',#1284,0.5);
#459=CIRCLE('',#1286,0.5);
#460=CIRCLE('',#1287,5.);
#461=CIRCLE('',#1290,0.5);
#462=CIRCLE('',#1291,0.499999999999998);
#463=CIRCLE('',#1292,0.5);
#464=CIRCLE('',#1298,0.5);
#465=CIRCLE('',#1299,0.5);
#466=CIRCLE('',#1300,0.5);
#467=CIRCLE('',#1302,0.5);
#468=CIRCLE('',#1303,0.499999999999998);
#469=CIRCLE('',#1304,0.5);
#470=CIRCLE('',#1306,0.5);
#471=CIRCLE('',#1307,0.5);
#472=CIRCLE('',#1308,0.5);
#473=CIRCLE('',#1312,0.5);
#474=CIRCLE('',#1314,0.499999999999998);
#475=CIRCLE('',#1315,5.);
#476=CIRCLE('',#1317,0.5);
#477=CIRCLE('',#1319,0.499999999999998);
#478=CIRCLE('',#1320,5.);
#479=VERTEX_POINT('',#1741);
#480=VERTEX_POINT('',#1742);
#481=VERTEX_POINT('',#1744);
#482=VERTEX_POINT('',#1746);
#483=VERTEX_POINT('',#1750);
#484=VERTEX_POINT('',#1751);
#485=VERTEX_POINT('',#1753);
#486=VERTEX_POINT('',#1755);
#487=VERTEX_POINT('',#1759);
#488=VERTEX_POINT('',#1760);
#489=VERTEX_POINT('',#1762);
#490=VERTEX_POINT('',#1764);
#491=VERTEX_POINT('',#1768);
#492=VERTEX_POINT('',#1770);
#493=VERTEX_POINT('',#1772);
#494=VERTEX_POINT('',#1774);
#495=VERTEX_POINT('',#1776);
#496=VERTEX_POINT('',#1778);
#497=VERTEX_POINT('',#1782);
#498=VERTEX_POINT('',#1784);
#499=VERTEX_POINT('',#1789);
#500=VERTEX_POINT('',#1791);
#501=VERTEX_POINT('',#1793);
#502=VERTEX_POINT('',#1795);
#503=VERTEX_POINT('',#1799);
#504=VERTEX_POINT('',#1801);
#505=VERTEX_POINT('',#1805);
#506=VERTEX_POINT('',#1807);
#507=VERTEX_POINT('',#1809);
#508=VERTEX_POINT('',#1811);
#509=VERTEX_POINT('',#1813);
#510=VERTEX_POINT('',#1818);
#511=VERTEX_POINT('',#1820);
#512=VERTEX_POINT('',#1827);
#513=VERTEX_POINT('',#1829);
#514=VERTEX_POINT('',#1831);
#515=VERTEX_POINT('',#1833);
#516=VERTEX_POINT('',#1835);
#517=VERTEX_POINT('',#1839);
#518=VERTEX_POINT('',#1841);
#519=VERTEX_POINT('',#1848);
#520=VERTEX_POINT('',#1850);
#521=VERTEX_POINT('',#1855);
#522=VERTEX_POINT('',#1857);
#523=VERTEX_POINT('',#1859);
#524=VERTEX_POINT('',#1863);
#525=VERTEX_POINT('',#1865);
#526=VERTEX_POINT('',#1869);
#527=VERTEX_POINT('',#1870);
#528=VERTEX_POINT('',#1872);
#529=VERTEX_POINT('',#1874);
#530=VERTEX_POINT('',#1876);
#531=VERTEX_POINT('',#1878);
#532=VERTEX_POINT('',#1880);
#533=VERTEX_POINT('',#1884);
#534=VERTEX_POINT('',#1887);
#535=VERTEX_POINT('',#1890);
#536=VERTEX_POINT('',#1894);
#537=VERTEX_POINT('',#1895);
#538=VERTEX_POINT('',#1897);
#539=VERTEX_POINT('',#1899);
#540=VERTEX_POINT('',#1901);
#541=VERTEX_POINT('',#1903);
#542=VERTEX_POINT('',#1905);
#543=VERTEX_POINT('',#1907);
#544=VERTEX_POINT('',#1909);
#545=VERTEX_POINT('',#1911);
#546=VERTEX_POINT('',#1914);
#547=VERTEX_POINT('',#1917);
#548=VERTEX_POINT('',#1919);
#549=VERTEX_POINT('',#1923);
#550=VERTEX_POINT('',#1925);
#551=VERTEX_POINT('',#1935);
#552=VERTEX_POINT('',#1941);
#553=VERTEX_POINT('',#1947);
#554=VERTEX_POINT('',#1948);
#555=VERTEX_POINT('',#1953);
#556=VERTEX_POINT('',#1957);
#557=VERTEX_POINT('',#1959);
#558=VERTEX_POINT('',#1963);
#559=VERTEX_POINT('',#1967);
#560=VERTEX_POINT('',#1971);
#561=VERTEX_POINT('',#1975);
#562=VERTEX_POINT('',#1981);
#563=VERTEX_POINT('',#1983);
#564=VERTEX_POINT('',#1987);
#565=VERTEX_POINT('',#1991);
#566=VERTEX_POINT('',#1995);
#567=VERTEX_POINT('',#1996);
#568=VERTEX_POINT('',#2001);
#569=VERTEX_POINT('',#2003);
#570=VERTEX_POINT('',#2007);
#571=VERTEX_POINT('',#2009);
#572=VERTEX_POINT('',#2014);
#573=VERTEX_POINT('',#2018);
#574=VERTEX_POINT('',#2022);
#575=VERTEX_POINT('',#2026);
#576=VERTEX_POINT('',#2030);
#577=VERTEX_POINT('',#2034);
#578=VERTEX_POINT('',#2057);
#579=EDGE_CURVE('',#479,#480,#411,.T.);
#580=EDGE_CURVE('',#481,#479,#223,.T.);
#581=EDGE_CURVE('',#482,#481,#224,.T.);
#582=EDGE_CURVE('',#480,#482,#225,.T.);
#583=EDGE_CURVE('',#483,#484,#412,.T.);
#584=EDGE_CURVE('',#485,#483,#226,.T.);
#585=EDGE_CURVE('',#486,#485,#227,.T.);
#586=EDGE_CURVE('',#486,#484,#228,.T.);
#587=EDGE_CURVE('',#487,#488,#413,.T.);
#588=EDGE_CURVE('',#489,#487,#229,.T.);
#589=EDGE_CURVE('',#490,#489,#230,.T.);
#590=EDGE_CURVE('',#488,#490,#231,.T.);
#591=EDGE_CURVE('',#491,#487,#232,.T.);
#592=EDGE_CURVE('',#492,#491,#233,.T.);
#593=EDGE_CURVE('',#493,#492,#234,.T.);
#594=EDGE_CURVE('',#494,#493,#235,.T.);
#595=EDGE_CURVE('',#495,#494,#236,.T.);
#596=EDGE_CURVE('',#496,#495,#237,.T.);
#597=EDGE_CURVE('',#489,#496,#238,.T.);
#598=EDGE_CURVE('',#497,#491,#414,.T.);
#599=EDGE_CURVE('',#498,#497,#239,.T.);
#600=EDGE_CURVE('',#492,#498,#240,.T.);
#601=EDGE_CURVE('',#484,#479,#241,.T.);
#602=EDGE_CURVE('',#499,#486,#242,.T.);
#603=EDGE_CURVE('',#500,#499,#243,.T.);
#604=EDGE_CURVE('',#501,#500,#244,.T.);
#605=EDGE_CURVE('',#502,#501,#245,.T.);
#606=EDGE_CURVE('',#481,#502,#246,.T.);
#607=EDGE_CURVE('',#503,#497,#247,.T.);
#608=EDGE_CURVE('',#504,#503,#248,.T.);
#609=EDGE_CURVE('',#498,#504,#249,.T.);
#610=EDGE_CURVE('',#505,#490,#250,.T.);
#611=EDGE_CURVE('',#506,#505,#251,.T.);
#612=EDGE_CURVE('',#506,#507,#252,.T.);
#613=EDGE_CURVE('',#507,#508,#415,.T.);
#614=EDGE_CURVE('',#509,#508,#253,.T.);
#615=EDGE_CURVE('',#488,#509,#254,.T.);
#616=EDGE_CURVE('',#496,#493,#416,.T.);
#617=EDGE_CURVE('',#510,#504,#255,.T.);
#618=EDGE_CURVE('',#511,#510,#256,.T.);
#619=EDGE_CURVE('',#505,#511,#257,.T.);
#620=EDGE_CURVE('',#495,#494,#417,.T.);
#621=EDGE_CURVE('',#512,#483,#258,.T.);
#622=EDGE_CURVE('',#513,#512,#259,.T.);
#623=EDGE_CURVE('',#514,#513,#418,.F.);
#624=EDGE_CURVE('',#514,#515,#260,.T.);
#625=EDGE_CURVE('',#516,#515,#261,.T.);
#626=EDGE_CURVE('',#516,#485,#262,.T.);
#627=EDGE_CURVE('',#482,#517,#263,.T.);
#628=EDGE_CURVE('',#518,#517,#264,.T.);
#629=EDGE_CURVE('',#480,#518,#265,.T.);
#630=EDGE_CURVE('',#501,#500,#419,.T.);
#631=EDGE_CURVE('',#502,#499,#420,.T.);
#632=EDGE_CURVE('',#519,#516,#266,.T.);
#633=EDGE_CURVE('',#520,#519,#267,.T.);
#634=EDGE_CURVE('',#517,#520,#268,.T.);
#635=EDGE_CURVE('',#521,#521,#421,.T.);
#636=EDGE_CURVE('',#521,#522,#422,.T.);
#637=EDGE_CURVE('',#522,#523,#423,.T.);
#638=EDGE_CURVE('',#523,#522,#424,.T.);
#639=EDGE_CURVE('',#523,#524,#269,.T.);
#640=EDGE_CURVE('',#525,#524,#425,.T.);
#641=EDGE_CURVE('',#524,#525,#426,.T.);
#642=EDGE_CURVE('',#526,#527,#270,.T.);
#643=EDGE_CURVE('',#528,#526,#427,.T.);
#644=EDGE_CURVE('',#529,#528,#271,.T.);
#645=EDGE_CURVE('',#530,#529,#428,.T.);
#646=EDGE_CURVE('',#531,#530,#272,.T.);
#647=EDGE_CURVE('',#531,#532,#273,.T.);
#648=EDGE_CURVE('',#515,#532,#429,.F.);
#649=EDGE_CURVE('',#507,#514,#274,.T.);
#650=EDGE_CURVE('',#533,#506,#430,.F.);
#651=EDGE_CURVE('',#533,#527,#275,.T.);
#652=EDGE_CURVE('',#534,#534,#431,.T.);
#653=EDGE_CURVE('',#525,#535,#432,.T.);
#654=EDGE_CURVE('',#535,#535,#433,.T.);
#655=EDGE_CURVE('',#536,#537,#276,.T.);
#656=EDGE_CURVE('',#538,#536,#434,.T.);
#657=EDGE_CURVE('',#539,#538,#277,.T.);
#658=EDGE_CURVE('',#540,#539,#435,.T.);
#659=EDGE_CURVE('',#541,#540,#278,.T.);
#660=EDGE_CURVE('',#542,#541,#279,.T.);
#661=EDGE_CURVE('',#543,#542,#280,.T.);
#662=EDGE_CURVE('',#544,#543,#281,.T.);
#663=EDGE_CURVE('',#545,#544,#282,.T.);
#664=EDGE_CURVE('',#537,#545,#283,.T.);
#665=EDGE_CURVE('',#546,#546,#436,.T.);
#666=EDGE_CURVE('',#534,#547,#437,.T.);
#667=EDGE_CURVE('',#547,#548,#438,.T.);
#668=EDGE_CURVE('',#548,#547,#439,.T.);
#669=EDGE_CURVE('',#548,#549,#284,.T.);
#670=EDGE_CURVE('',#550,#549,#440,.T.);
#671=EDGE_CURVE('',#549,#550,#441,.T.);
#672=EDGE_CURVE('',#550,#546,#442,.T.);
#673=EDGE_CURVE('',#509,#512,#285,.T.);
#674=EDGE_CURVE('',#512,#544,#23,.T.);
#675=EDGE_CURVE('',#543,#509,#24,.T.);
#676=EDGE_CURVE('',#545,#551,#443,.F.);
#677=EDGE_CURVE('',#518,#545,#444,.F.);
#678=EDGE_CURVE('',#551,#518,#445,.F.);
#679=EDGE_CURVE('',#503,#552,#446,.F.);
#680=EDGE_CURVE('',#542,#503,#447,.F.);
#681=EDGE_CURVE('',#552,#542,#448,.F.);
#682=EDGE_CURVE('',#553,#554,#449,.F.);
#683=EDGE_CURVE('',#537,#553,#450,.F.);
#684=EDGE_CURVE('',#554,#537,#451,.F.);
#685=EDGE_CURVE('',#552,#555,#286,.T.);
#686=EDGE_CURVE('',#555,#504,#25,.T.);
#687=EDGE_CURVE('',#541,#556,#452,.F.);
#688=EDGE_CURVE('',#557,#541,#453,.F.);
#689=EDGE_CURVE('',#556,#557,#454,.F.);
#690=EDGE_CURVE('',#558,#536,#455,.T.);
#691=EDGE_CURVE('',#553,#558,#287,.T.);
#692=EDGE_CURVE('',#559,#538,#456,.T.);
#693=EDGE_CURVE('',#558,#559,#457,.T.);
#694=EDGE_CURVE('',#560,#539,#458,.T.);
#695=EDGE_CURVE('',#559,#560,#288,.T.);
#696=EDGE_CURVE('',#561,#540,#459,.T.);
#697=EDGE_CURVE('',#560,#561,#460,.T.);
#698=EDGE_CURVE('',#561,#557,#289,.T.);
#699=EDGE_CURVE('',#520,#562,#461,.F.);
#700=EDGE_CURVE('',#563,#520,#462,.F.);
#701=EDGE_CURVE('',#562,#563,#463,.F.);
#702=EDGE_CURVE('',#532,#564,#290,.T.);
#703=EDGE_CURVE('',#564,#516,#26,.T.);
#704=EDGE_CURVE('',#565,#533,#291,.T.);
#705=EDGE_CURVE('',#505,#565,#27,.T.);
#706=EDGE_CURVE('',#566,#567,#464,.F.);
#707=EDGE_CURVE('',#510,#566,#465,.F.);
#708=EDGE_CURVE('',#567,#510,#466,.F.);
#709=EDGE_CURVE('',#568,#519,#467,.F.);
#710=EDGE_CURVE('',#569,#568,#468,.F.);
#711=EDGE_CURVE('',#519,#569,#469,.F.);
#712=EDGE_CURVE('',#570,#511,#470,.F.);
#713=EDGE_CURVE('',#571,#570,#471,.F.);
#714=EDGE_CURVE('',#511,#571,#472,.F.);
#715=EDGE_CURVE('',#527,#571,#292,.T.);
#716=EDGE_CURVE('',#570,#572,#293,.T.);
#717=EDGE_CURVE('',#572,#527,#28,.T.);
#718=EDGE_CURVE('',#572,#573,#294,.T.);
#719=EDGE_CURVE('',#573,#526,#473,.T.);
#720=EDGE_CURVE('',#574,#528,#474,.T.);
#721=EDGE_CURVE('',#573,#574,#475,.T.);
#722=EDGE_CURVE('',#575,#529,#476,.T.);
#723=EDGE_CURVE('',#574,#575,#295,.T.);
#724=EDGE_CURVE('',#576,#530,#477,.T.);
#725=EDGE_CURVE('',#575,#576,#478,.T.);
#726=EDGE_CURVE('',#576,#577,#296,.T.);
#727=EDGE_CURVE('',#577,#531,#29,.T.);
#728=EDGE_CURVE('',#577,#569,#297,.T.);
#729=EDGE_CURVE('',#568,#531,#298,.T.);
#730=EDGE_CURVE('',#571,#565,#299,.T.);
#731=EDGE_CURVE('',#566,#570,#300,.T.);
#732=EDGE_CURVE('',#569,#563,#301,.T.);
#733=EDGE_CURVE('',#564,#568,#302,.T.);
#734=EDGE_CURVE('',#555,#567,#303,.T.);
#735=EDGE_CURVE('',#567,#556,#304,.T.);
#736=EDGE_CURVE('',#557,#566,#305,.T.);
#737=EDGE_CURVE('',#554,#562,#306,.T.);
#738=EDGE_CURVE('',#563,#553,#307,.T.);
#739=EDGE_CURVE('',#562,#578,#308,.T.);
#740=EDGE_CURVE('',#578,#517,#30,.T.);
#741=EDGE_CURVE('',#556,#552,#309,.T.);
#742=EDGE_CURVE('',#578,#551,#310,.T.);
#743=EDGE_CURVE('',#551,#554,#311,.T.);
#744=EDGE_CURVE('',#558,#576,#312,.T.);
#745=EDGE_CURVE('',#513,#508,#313,.T.);
#746=EDGE_CURVE('',#575,#559,#314,.T.);
#747=EDGE_CURVE('',#560,#574,#315,.T.);
#748=EDGE_CURVE('',#573,#561,#316,.T.);
#749=ORIENTED_EDGE('',*,*,#579,.F.);
#750=ORIENTED_EDGE('',*,*,#580,.F.);
#751=ORIENTED_EDGE('',*,*,#581,.F.);
#752=ORIENTED_EDGE('',*,*,#582,.F.);
#753=ORIENTED_EDGE('',*,*,#583,.F.);
#754=ORIENTED_EDGE('',*,*,#584,.F.);
#755=ORIENTED_EDGE('',*,*,#585,.F.);
#756=ORIENTED_EDGE('',*,*,#586,.T.);
#757=ORIENTED_EDGE('',*,*,#587,.F.);
#758=ORIENTED_EDGE('',*,*,#588,.F.);
#759=ORIENTED_EDGE('',*,*,#589,.F.);
#760=ORIENTED_EDGE('',*,*,#590,.F.);
#761=ORIENTED_EDGE('',*,*,#591,.F.);
#762=ORIENTED_EDGE('',*,*,#592,.F.);
#763=ORIENTED_EDGE('',*,*,#593,.F.);
#764=ORIENTED_EDGE('',*,*,#594,.F.);
#765=ORIENTED_EDGE('',*,*,#595,.F.);
#766=ORIENTED_EDGE('',*,*,#596,.F.);
#767=ORIENTED_EDGE('',*,*,#597,.F.);
#768=ORIENTED_EDGE('',*,*,#588,.T.);
#769=ORIENTED_EDGE('',*,*,#598,.F.);
#770=ORIENTED_EDGE('',*,*,#599,.F.);
#771=ORIENTED_EDGE('',*,*,#600,.F.);
#772=ORIENTED_EDGE('',*,*,#592,.T.);
#773=ORIENTED_EDGE('',*,*,#601,.F.);
#774=ORIENTED_EDGE('',*,*,#586,.F.);
#775=ORIENTED_EDGE('',*,*,#602,.F.);
#776=ORIENTED_EDGE('',*,*,#603,.F.);
#777=ORIENTED_EDGE('',*,*,#604,.F.);
#778=ORIENTED_EDGE('',*,*,#605,.F.);
#779=ORIENTED_EDGE('',*,*,#606,.F.);
#780=ORIENTED_EDGE('',*,*,#580,.T.);
#781=ORIENTED_EDGE('',*,*,#599,.T.);
#782=ORIENTED_EDGE('',*,*,#607,.F.);
#783=ORIENTED_EDGE('',*,*,#608,.F.);
#784=ORIENTED_EDGE('',*,*,#609,.F.);
#785=ORIENTED_EDGE('',*,*,#590,.T.);
#786=ORIENTED_EDGE('',*,*,#610,.F.);
#787=ORIENTED_EDGE('',*,*,#611,.F.);
#788=ORIENTED_EDGE('',*,*,#612,.T.);
#789=ORIENTED_EDGE('',*,*,#613,.T.);
#790=ORIENTED_EDGE('',*,*,#614,.F.);
#791=ORIENTED_EDGE('',*,*,#615,.F.);
#792=ORIENTED_EDGE('',*,*,#589,.T.);
#793=ORIENTED_EDGE('',*,*,#597,.T.);
#794=ORIENTED_EDGE('',*,*,#616,.T.);
#795=ORIENTED_EDGE('',*,*,#593,.T.);
#796=ORIENTED_EDGE('',*,*,#600,.T.);
#797=ORIENTED_EDGE('',*,*,#609,.T.);
#798=ORIENTED_EDGE('',*,*,#617,.F.);
#799=ORIENTED_EDGE('',*,*,#618,.F.);
#800=ORIENTED_EDGE('',*,*,#619,.F.);
#801=ORIENTED_EDGE('',*,*,#610,.T.);
#802=ORIENTED_EDGE('',*,*,#595,.T.);
#803=ORIENTED_EDGE('',*,*,#620,.F.);
#804=ORIENTED_EDGE('',*,*,#596,.T.);
#805=ORIENTED_EDGE('',*,*,#620,.T.);
#806=ORIENTED_EDGE('',*,*,#594,.T.);
#807=ORIENTED_EDGE('',*,*,#616,.F.);
#808=ORIENTED_EDGE('',*,*,#584,.T.);
#809=ORIENTED_EDGE('',*,*,#621,.F.);
#810=ORIENTED_EDGE('',*,*,#622,.F.);
#811=ORIENTED_EDGE('',*,*,#623,.F.);
#812=ORIENTED_EDGE('',*,*,#624,.T.);
#813=ORIENTED_EDGE('',*,*,#625,.F.);
#814=ORIENTED_EDGE('',*,*,#626,.T.);
#815=ORIENTED_EDGE('',*,*,#582,.T.);
#816=ORIENTED_EDGE('',*,*,#627,.T.);
#817=ORIENTED_EDGE('',*,*,#628,.F.);
#818=ORIENTED_EDGE('',*,*,#629,.F.);
#819=ORIENTED_EDGE('',*,*,#604,.T.);
#820=ORIENTED_EDGE('',*,*,#630,.F.);
#821=ORIENTED_EDGE('',*,*,#581,.T.);
#822=ORIENTED_EDGE('',*,*,#606,.T.);
#823=ORIENTED_EDGE('',*,*,#631,.T.);
#824=ORIENTED_EDGE('',*,*,#602,.T.);
#825=ORIENTED_EDGE('',*,*,#585,.T.);
#826=ORIENTED_EDGE('',*,*,#626,.F.);
#827=ORIENTED_EDGE('',*,*,#632,.F.);
#828=ORIENTED_EDGE('',*,*,#633,.F.);
#829=ORIENTED_EDGE('',*,*,#634,.F.);
#830=ORIENTED_EDGE('',*,*,#627,.F.);
#831=ORIENTED_EDGE('',*,*,#605,.T.);
#832=ORIENTED_EDGE('',*,*,#630,.T.);
#833=ORIENTED_EDGE('',*,*,#603,.T.);
#834=ORIENTED_EDGE('',*,*,#631,.F.);
#835=ORIENTED_EDGE('',*,*,#635,.T.);
#836=ORIENTED_EDGE('',*,*,#636,.T.);
#837=ORIENTED_EDGE('',*,*,#637,.T.);
#838=ORIENTED_EDGE('',*,*,#638,.T.);
#839=ORIENTED_EDGE('',*,*,#636,.F.);
#840=ORIENTED_EDGE('',*,*,#638,.F.);
#841=ORIENTED_EDGE('',*,*,#639,.T.);
#842=ORIENTED_EDGE('',*,*,#640,.F.);
#843=ORIENTED_EDGE('',*,*,#641,.F.);
#844=ORIENTED_EDGE('',*,*,#639,.F.);
#845=ORIENTED_EDGE('',*,*,#637,.F.);
#846=ORIENTED_EDGE('',*,*,#642,.F.);
#847=ORIENTED_EDGE('',*,*,#643,.F.);
#848=ORIENTED_EDGE('',*,*,#644,.F.);
#849=ORIENTED_EDGE('',*,*,#645,.F.);
#850=ORIENTED_EDGE('',*,*,#646,.F.);
#851=ORIENTED_EDGE('',*,*,#647,.T.);
#852=ORIENTED_EDGE('',*,*,#648,.F.);
#853=ORIENTED_EDGE('',*,*,#624,.F.);
#854=ORIENTED_EDGE('',*,*,#649,.F.);
#855=ORIENTED_EDGE('',*,*,#612,.F.);
#856=ORIENTED_EDGE('',*,*,#650,.F.);
#857=ORIENTED_EDGE('',*,*,#651,.T.);
#858=ORIENTED_EDGE('',*,*,#652,.F.);
#859=ORIENTED_EDGE('',*,*,#635,.F.);
#860=ORIENTED_EDGE('',*,*,#641,.T.);
#861=ORIENTED_EDGE('',*,*,#653,.T.);
#862=ORIENTED_EDGE('',*,*,#654,.T.);
#863=ORIENTED_EDGE('',*,*,#653,.F.);
#864=ORIENTED_EDGE('',*,*,#640,.T.);
#865=ORIENTED_EDGE('',*,*,#655,.F.);
#866=ORIENTED_EDGE('',*,*,#656,.F.);
#867=ORIENTED_EDGE('',*,*,#657,.F.);
#868=ORIENTED_EDGE('',*,*,#658,.F.);
#869=ORIENTED_EDGE('',*,*,#659,.F.);
#870=ORIENTED_EDGE('',*,*,#660,.F.);
#871=ORIENTED_EDGE('',*,*,#661,.F.);
#872=ORIENTED_EDGE('',*,*,#662,.F.);
#873=ORIENTED_EDGE('',*,*,#663,.F.);
#874=ORIENTED_EDGE('',*,*,#664,.F.);
#875=ORIENTED_EDGE('',*,*,#665,.F.);
#876=ORIENTED_EDGE('',*,*,#654,.F.);
#877=ORIENTED_EDGE('',*,*,#652,.T.);
#878=ORIENTED_EDGE('',*,*,#666,.T.);
#879=ORIENTED_EDGE('',*,*,#667,.T.);
#880=ORIENTED_EDGE('',*,*,#668,.T.);
#881=ORIENTED_EDGE('',*,*,#666,.F.);
#882=ORIENTED_EDGE('',*,*,#668,.F.);
#883=ORIENTED_EDGE('',*,*,#669,.T.);
#884=ORIENTED_EDGE('',*,*,#670,.F.);
#885=ORIENTED_EDGE('',*,*,#671,.F.);
#886=ORIENTED_EDGE('',*,*,#669,.F.);
#887=ORIENTED_EDGE('',*,*,#667,.F.);
#888=ORIENTED_EDGE('',*,*,#671,.T.);
#889=ORIENTED_EDGE('',*,*,#672,.T.);
#890=ORIENTED_EDGE('',*,*,#665,.T.);
#891=ORIENTED_EDGE('',*,*,#672,.F.);
#892=ORIENTED_EDGE('',*,*,#670,.T.);
#893=ORIENTED_EDGE('',*,*,#673,.T.);
#894=ORIENTED_EDGE('',*,*,#674,.T.);
#895=ORIENTED_EDGE('',*,*,#662,.T.);
#896=ORIENTED_EDGE('',*,*,#675,.T.);
#897=ORIENTED_EDGE('',*,*,#676,.F.);
#898=ORIENTED_EDGE('',*,*,#677,.F.);
#899=ORIENTED_EDGE('',*,*,#678,.F.);
#900=ORIENTED_EDGE('',*,*,#579,.T.);
#901=ORIENTED_EDGE('',*,*,#629,.T.);
#902=ORIENTED_EDGE('',*,*,#677,.T.);
#903=ORIENTED_EDGE('',*,*,#663,.T.);
#904=ORIENTED_EDGE('',*,*,#674,.F.);
#905=ORIENTED_EDGE('',*,*,#621,.T.);
#906=ORIENTED_EDGE('',*,*,#583,.T.);
#907=ORIENTED_EDGE('',*,*,#601,.T.);
#908=ORIENTED_EDGE('',*,*,#679,.F.);
#909=ORIENTED_EDGE('',*,*,#680,.F.);
#910=ORIENTED_EDGE('',*,*,#681,.F.);
#911=ORIENTED_EDGE('',*,*,#587,.T.);
#912=ORIENTED_EDGE('',*,*,#615,.T.);
#913=ORIENTED_EDGE('',*,*,#675,.F.);
#914=ORIENTED_EDGE('',*,*,#661,.T.);
#915=ORIENTED_EDGE('',*,*,#680,.T.);
#916=ORIENTED_EDGE('',*,*,#607,.T.);
#917=ORIENTED_EDGE('',*,*,#598,.T.);
#918=ORIENTED_EDGE('',*,*,#591,.T.);
#919=ORIENTED_EDGE('',*,*,#682,.F.);
#920=ORIENTED_EDGE('',*,*,#683,.F.);
#921=ORIENTED_EDGE('',*,*,#684,.F.);
#922=ORIENTED_EDGE('',*,*,#608,.T.);
#923=ORIENTED_EDGE('',*,*,#679,.T.);
#924=ORIENTED_EDGE('',*,*,#685,.T.);
#925=ORIENTED_EDGE('',*,*,#686,.T.);
#926=ORIENTED_EDGE('',*,*,#687,.F.);
#927=ORIENTED_EDGE('',*,*,#688,.F.);
#928=ORIENTED_EDGE('',*,*,#689,.F.);
#929=ORIENTED_EDGE('',*,*,#690,.T.);
#930=ORIENTED_EDGE('',*,*,#655,.T.);
#931=ORIENTED_EDGE('',*,*,#683,.T.);
#932=ORIENTED_EDGE('',*,*,#691,.T.);
#933=ORIENTED_EDGE('',*,*,#692,.T.);
#934=ORIENTED_EDGE('',*,*,#656,.T.);
#935=ORIENTED_EDGE('',*,*,#690,.F.);
#936=ORIENTED_EDGE('',*,*,#693,.T.);
#937=ORIENTED_EDGE('',*,*,#694,.T.);
#938=ORIENTED_EDGE('',*,*,#657,.T.);
#939=ORIENTED_EDGE('',*,*,#692,.F.);
#940=ORIENTED_EDGE('',*,*,#695,.T.);
#941=ORIENTED_EDGE('',*,*,#696,.T.);
#942=ORIENTED_EDGE('',*,*,#658,.T.);
#943=ORIENTED_EDGE('',*,*,#694,.F.);
#944=ORIENTED_EDGE('',*,*,#697,.T.);
#945=ORIENTED_EDGE('',*,*,#688,.T.);
#946=ORIENTED_EDGE('',*,*,#659,.T.);
#947=ORIENTED_EDGE('',*,*,#696,.F.);
#948=ORIENTED_EDGE('',*,*,#698,.T.);
#949=ORIENTED_EDGE('',*,*,#699,.F.);
#950=ORIENTED_EDGE('',*,*,#700,.F.);
#951=ORIENTED_EDGE('',*,*,#701,.F.);
#952=ORIENTED_EDGE('',*,*,#625,.T.);
#953=ORIENTED_EDGE('',*,*,#648,.T.);
#954=ORIENTED_EDGE('',*,*,#702,.T.);
#955=ORIENTED_EDGE('',*,*,#703,.T.);
#956=ORIENTED_EDGE('',*,*,#704,.T.);
#957=ORIENTED_EDGE('',*,*,#650,.T.);
#958=ORIENTED_EDGE('',*,*,#611,.T.);
#959=ORIENTED_EDGE('',*,*,#705,.T.);
#960=ORIENTED_EDGE('',*,*,#706,.F.);
#961=ORIENTED_EDGE('',*,*,#707,.F.);
#962=ORIENTED_EDGE('',*,*,#708,.F.);
#963=ORIENTED_EDGE('',*,*,#709,.F.);
#964=ORIENTED_EDGE('',*,*,#710,.F.);
#965=ORIENTED_EDGE('',*,*,#711,.F.);
#966=ORIENTED_EDGE('',*,*,#712,.F.);
#967=ORIENTED_EDGE('',*,*,#713,.F.);
#968=ORIENTED_EDGE('',*,*,#714,.F.);
#969=ORIENTED_EDGE('',*,*,#715,.T.);
#970=ORIENTED_EDGE('',*,*,#713,.T.);
#971=ORIENTED_EDGE('',*,*,#716,.T.);
#972=ORIENTED_EDGE('',*,*,#717,.T.);
#973=ORIENTED_EDGE('',*,*,#718,.T.);
#974=ORIENTED_EDGE('',*,*,#719,.T.);
#975=ORIENTED_EDGE('',*,*,#642,.T.);
#976=ORIENTED_EDGE('',*,*,#717,.F.);
#977=ORIENTED_EDGE('',*,*,#720,.T.);
#978=ORIENTED_EDGE('',*,*,#643,.T.);
#979=ORIENTED_EDGE('',*,*,#719,.F.);
#980=ORIENTED_EDGE('',*,*,#721,.T.);
#981=ORIENTED_EDGE('',*,*,#722,.T.);
#982=ORIENTED_EDGE('',*,*,#644,.T.);
#983=ORIENTED_EDGE('',*,*,#720,.F.);
#984=ORIENTED_EDGE('',*,*,#723,.T.);
#985=ORIENTED_EDGE('',*,*,#724,.T.);
#986=ORIENTED_EDGE('',*,*,#645,.T.);
#987=ORIENTED_EDGE('',*,*,#722,.F.);
#988=ORIENTED_EDGE('',*,*,#725,.T.);
#989=ORIENTED_EDGE('',*,*,#646,.T.);
#990=ORIENTED_EDGE('',*,*,#724,.F.);
#991=ORIENTED_EDGE('',*,*,#726,.T.);
#992=ORIENTED_EDGE('',*,*,#727,.T.);
#993=ORIENTED_EDGE('',*,*,#728,.T.);
#994=ORIENTED_EDGE('',*,*,#710,.T.);
#995=ORIENTED_EDGE('',*,*,#729,.T.);
#996=ORIENTED_EDGE('',*,*,#727,.F.);
#997=ORIENTED_EDGE('',*,*,#619,.T.);
#998=ORIENTED_EDGE('',*,*,#714,.T.);
#999=ORIENTED_EDGE('',*,*,#730,.T.);
#1000=ORIENTED_EDGE('',*,*,#705,.F.);
#1001=ORIENTED_EDGE('',*,*,#707,.T.);
#1002=ORIENTED_EDGE('',*,*,#731,.T.);
#1003=ORIENTED_EDGE('',*,*,#712,.T.);
#1004=ORIENTED_EDGE('',*,*,#618,.T.);
#1005=ORIENTED_EDGE('',*,*,#700,.T.);
#1006=ORIENTED_EDGE('',*,*,#633,.T.);
#1007=ORIENTED_EDGE('',*,*,#711,.T.);
#1008=ORIENTED_EDGE('',*,*,#732,.T.);
#1009=ORIENTED_EDGE('',*,*,#733,.T.);
#1010=ORIENTED_EDGE('',*,*,#709,.T.);
#1011=ORIENTED_EDGE('',*,*,#632,.T.);
#1012=ORIENTED_EDGE('',*,*,#703,.F.);
#1013=ORIENTED_EDGE('',*,*,#734,.T.);
#1014=ORIENTED_EDGE('',*,*,#708,.T.);
#1015=ORIENTED_EDGE('',*,*,#617,.T.);
#1016=ORIENTED_EDGE('',*,*,#686,.F.);
#1017=ORIENTED_EDGE('',*,*,#706,.T.);
#1018=ORIENTED_EDGE('',*,*,#735,.T.);
#1019=ORIENTED_EDGE('',*,*,#689,.T.);
#1020=ORIENTED_EDGE('',*,*,#736,.T.);
#1021=ORIENTED_EDGE('',*,*,#682,.T.);
#1022=ORIENTED_EDGE('',*,*,#737,.T.);
#1023=ORIENTED_EDGE('',*,*,#701,.T.);
#1024=ORIENTED_EDGE('',*,*,#738,.T.);
#1025=ORIENTED_EDGE('',*,*,#634,.T.);
#1026=ORIENTED_EDGE('',*,*,#699,.T.);
#1027=ORIENTED_EDGE('',*,*,#739,.T.);
#1028=ORIENTED_EDGE('',*,*,#740,.T.);
#1029=ORIENTED_EDGE('',*,*,#687,.T.);
#1030=ORIENTED_EDGE('',*,*,#741,.T.);
#1031=ORIENTED_EDGE('',*,*,#681,.T.);
#1032=ORIENTED_EDGE('',*,*,#660,.T.);
#1033=ORIENTED_EDGE('',*,*,#742,.T.);
#1034=ORIENTED_EDGE('',*,*,#678,.T.);
#1035=ORIENTED_EDGE('',*,*,#628,.T.);
#1036=ORIENTED_EDGE('',*,*,#740,.F.);
#1037=ORIENTED_EDGE('',*,*,#676,.T.);
#1038=ORIENTED_EDGE('',*,*,#743,.T.);
#1039=ORIENTED_EDGE('',*,*,#684,.T.);
#1040=ORIENTED_EDGE('',*,*,#664,.T.);
#1041=ORIENTED_EDGE('',*,*,#691,.F.);
#1042=ORIENTED_EDGE('',*,*,#738,.F.);
#1043=ORIENTED_EDGE('',*,*,#732,.F.);
#1044=ORIENTED_EDGE('',*,*,#728,.F.);
#1045=ORIENTED_EDGE('',*,*,#726,.F.);
#1046=ORIENTED_EDGE('',*,*,#744,.F.);
#1047=ORIENTED_EDGE('',*,*,#729,.F.);
#1048=ORIENTED_EDGE('',*,*,#733,.F.);
#1049=ORIENTED_EDGE('',*,*,#702,.F.);
#1050=ORIENTED_EDGE('',*,*,#647,.F.);
#1051=ORIENTED_EDGE('',*,*,#685,.F.);
#1052=ORIENTED_EDGE('',*,*,#741,.F.);
#1053=ORIENTED_EDGE('',*,*,#735,.F.);
#1054=ORIENTED_EDGE('',*,*,#734,.F.);
#1055=ORIENTED_EDGE('',*,*,#737,.F.);
#1056=ORIENTED_EDGE('',*,*,#743,.F.);
#1057=ORIENTED_EDGE('',*,*,#742,.F.);
#1058=ORIENTED_EDGE('',*,*,#739,.F.);
#1059=ORIENTED_EDGE('',*,*,#613,.F.);
#1060=ORIENTED_EDGE('',*,*,#649,.T.);
#1061=ORIENTED_EDGE('',*,*,#623,.T.);
#1062=ORIENTED_EDGE('',*,*,#745,.T.);
#1063=ORIENTED_EDGE('',*,*,#673,.F.);
#1064=ORIENTED_EDGE('',*,*,#614,.T.);
#1065=ORIENTED_EDGE('',*,*,#745,.F.);
#1066=ORIENTED_EDGE('',*,*,#622,.T.);
#1067=ORIENTED_EDGE('',*,*,#693,.F.);
#1068=ORIENTED_EDGE('',*,*,#744,.T.);
#1069=ORIENTED_EDGE('',*,*,#725,.F.);
#1070=ORIENTED_EDGE('',*,*,#746,.T.);
#1071=ORIENTED_EDGE('',*,*,#697,.F.);
#1072=ORIENTED_EDGE('',*,*,#747,.T.);
#1073=ORIENTED_EDGE('',*,*,#721,.F.);
#1074=ORIENTED_EDGE('',*,*,#748,.T.);
#1075=ORIENTED_EDGE('',*,*,#698,.F.);
#1076=ORIENTED_EDGE('',*,*,#748,.F.);
#1077=ORIENTED_EDGE('',*,*,#718,.F.);
#1078=ORIENTED_EDGE('',*,*,#716,.F.);
#1079=ORIENTED_EDGE('',*,*,#731,.F.);
#1080=ORIENTED_EDGE('',*,*,#736,.F.);
#1081=ORIENTED_EDGE('',*,*,#715,.F.);
#1082=ORIENTED_EDGE('',*,*,#651,.F.);
#1083=ORIENTED_EDGE('',*,*,#704,.F.);
#1084=ORIENTED_EDGE('',*,*,#730,.F.);
#1085=ORIENTED_EDGE('',*,*,#695,.F.);
#1086=ORIENTED_EDGE('',*,*,#746,.F.);
#1087=ORIENTED_EDGE('',*,*,#723,.F.);
#1088=ORIENTED_EDGE('',*,*,#747,.F.);
#1089=PLANE('',#1199);
#1090=PLANE('',#1201);
#1091=PLANE('',#1203);
#1092=PLANE('',#1205);
#1093=PLANE('',#1206);
#1094=PLANE('',#1208);
#1095=PLANE('',#1209);
#1096=PLANE('',#1210);
#1097=PLANE('',#1212);
#1098=PLANE('',#1214);
#1099=PLANE('',#1217);
#1100=PLANE('',#1219);
#1101=PLANE('',#1220);
#1102=PLANE('',#1222);
#1103=PLANE('',#1233);
#1104=PLANE('',#1242);
#1105=PLANE('',#1336);
#1106=PLANE('',#1337);
#1107=PLANE('',#1338);
#1108=PLANE('',#1339);
#1109=PLANE('',#1341);
#1110=PLANE('',#1344);
#1111=PLANE('',#1345);
#1112=PLANE('',#1346);
#1113=ADVANCED_FACE('',(#75),#1089,.T.);
#1114=ADVANCED_FACE('',(#76),#1090,.T.);
#1115=ADVANCED_FACE('',(#77),#1091,.T.);
#1116=ADVANCED_FACE('',(#78),#1092,.T.);
#1117=ADVANCED_FACE('',(#79),#1093,.T.);
#1118=ADVANCED_FACE('',(#80),#1094,.T.);
#1119=ADVANCED_FACE('',(#81),#1095,.T.);
#1120=ADVANCED_FACE('',(#82),#1096,.T.);
#1121=ADVANCED_FACE('',(#83),#1097,.T.);
#1122=ADVANCED_FACE('',(#84),#1098,.T.);
#1123=ADVANCED_FACE('',(#85),#43,.F.);
#1124=ADVANCED_FACE('',(#86),#1099,.T.);
#1125=ADVANCED_FACE('',(#87),#1100,.T.);
#1126=ADVANCED_FACE('',(#88),#1101,.T.);
#1127=ADVANCED_FACE('',(#89),#1102,.T.);
#1128=ADVANCED_FACE('',(#90),#44,.F.);
#1129=ADVANCED_FACE('',(#91),#35,.T.);
#1130=ADVANCED_FACE('',(#92),#45,.F.);
#1131=ADVANCED_FACE('',(#93,#31,#32),#1103,.T.);
#1132=ADVANCED_FACE('',(#94),#36,.T.);
#1133=ADVANCED_FACE('',(#95,#33,#34),#1104,.F.);
#1134=ADVANCED_FACE('',(#96),#37,.T.);
#1135=ADVANCED_FACE('',(#97),#46,.F.);
#1136=ADVANCED_FACE('',(#98),#38,.T.);
#1137=ADVANCED_FACE('',(#99),#47,.T.);
#1138=ADVANCED_FACE('',(#100),#15,.T.);
#1139=ADVANCED_FACE('',(#101),#48,.T.);
#1140=ADVANCED_FACE('',(#102),#16,.T.);
#1141=ADVANCED_FACE('',(#103),#49,.T.);
#1142=ADVANCED_FACE('',(#104),#17,.T.);
#1143=ADVANCED_FACE('',(#105),#50,.T.);
#1144=ADVANCED_FACE('',(#106),#18,.T.);
#1145=ADVANCED_FACE('',(#107),#51,.T.);
#1146=ADVANCED_FACE('',(#108),#39,.T.);
#1147=ADVANCED_FACE('',(#109),#52,.T.);
#1148=ADVANCED_FACE('',(#110),#40,.T.);
#1149=ADVANCED_FACE('',(#111),#53,.T.);
#1150=ADVANCED_FACE('',(#112),#19,.T.);
#1151=ADVANCED_FACE('',(#113),#54,.T.);
#1152=ADVANCED_FACE('',(#114),#55,.T.);
#1153=ADVANCED_FACE('',(#115),#20,.T.);
#1154=ADVANCED_FACE('',(#116),#21,.T.);
#1155=ADVANCED_FACE('',(#117),#22,.T.);
#1156=ADVANCED_FACE('',(#118),#56,.T.);
#1157=ADVANCED_FACE('',(#119),#57,.T.);
#1158=ADVANCED_FACE('',(#120),#41,.T.);
#1159=ADVANCED_FACE('',(#121),#58,.T.);
#1160=ADVANCED_FACE('',(#122),#42,.T.);
#1161=ADVANCED_FACE('',(#123),#59,.T.);
#1162=ADVANCED_FACE('',(#124),#60,.T.);
#1163=ADVANCED_FACE('',(#125),#61,.T.);
#1164=ADVANCED_FACE('',(#126),#62,.T.);
#1165=ADVANCED_FACE('',(#127),#63,.T.);
#1166=ADVANCED_FACE('',(#128),#64,.T.);
#1167=ADVANCED_FACE('',(#129),#65,.T.);
#1168=ADVANCED_FACE('',(#130),#66,.T.);
#1169=ADVANCED_FACE('',(#131),#67,.T.);
#1170=ADVANCED_FACE('',(#132),#68,.T.);
#1171=ADVANCED_FACE('',(#133),#69,.T.);
#1172=ADVANCED_FACE('',(#134),#70,.T.);
#1173=ADVANCED_FACE('',(#135),#71,.T.);
#1174=ADVANCED_FACE('',(#136),#1105,.T.);
#1175=ADVANCED_FACE('',(#137),#1106,.F.);
#1176=ADVANCED_FACE('',(#138),#1107,.T.);
#1177=ADVANCED_FACE('',(#139),#1108,.T.);
#1178=ADVANCED_FACE('',(#140),#72,.T.);
#1179=ADVANCED_FACE('',(#141),#1109,.T.);
#1180=ADVANCED_FACE('',(#142),#73,.T.);
#1181=ADVANCED_FACE('',(#143),#74,.T.);
#1182=ADVANCED_FACE('',(#144),#1110,.T.);
#1183=ADVANCED_FACE('',(#145),#1111,.F.);
#1184=ADVANCED_FACE('',(#146),#1112,.T.);
#1185=CLOSED_SHELL('',(#1113,#1114,#1115,#1116,#1117,#1118,#1119,#1120,
#1121,#1122,#1123,#1124,#1125,#1126,#1127,#1128,#1129,#1130,#1131,#1132,
#1133,#1134,#1135,#1136,#1137,#1138,#1139,#1140,#1141,#1142,#1143,#1144,
#1145,#1146,#1147,#1148,#1149,#1150,#1151,#1152,#1153,#1154,#1155,#1156,
#1157,#1158,#1159,#1160,#1161,#1162,#1163,#1164,#1165,#1166,#1167,#1168,
#1169,#1170,#1171,#1172,#1173,#1174,#1175,#1176,#1177,#1178,#1179,#1180,
#1181,#1182,#1183,#1184));
#1186=DERIVED_UNIT_ELEMENT(#1188,1.);
#1187=DERIVED_UNIT_ELEMENT(#2087,-3.);
#1188=(
MASS_UNIT()
NAMED_UNIT(*)
SI_UNIT(.KILO.,.GRAM.)
);
#1189=DERIVED_UNIT((#1186,#1187));
#1190=MEASURE_REPRESENTATION_ITEM('density measure',
POSITIVE_RATIO_MEASURE(7850.),#1189);
#1191=PROPERTY_DEFINITION_REPRESENTATION(#1196,#1193);
#1192=PROPERTY_DEFINITION_REPRESENTATION(#1197,#1194);
#1193=REPRESENTATION('material name',(#1195),#2084);
#1194=REPRESENTATION('density',(#1190),#2084);
#1195=DESCRIPTIVE_REPRESENTATION_ITEM('Steel','Steel');
#1196=PROPERTY_DEFINITION('material property','material name',#2094);
#1197=PROPERTY_DEFINITION('material property','density of part',#2094);
#1198=AXIS2_PLACEMENT_3D('',#1739,#1347,#1348);
#1199=AXIS2_PLACEMENT_3D('',#1740,#1349,#1350);
#1200=AXIS2_PLACEMENT_3D('',#1743,#1351,#1352);
#1201=AXIS2_PLACEMENT_3D('',#1749,#1356,#1357);
#1202=AXIS2_PLACEMENT_3D('',#1752,#1358,#1359);
#1203=AXIS2_PLACEMENT_3D('',#1758,#1363,#1364);
#1204=AXIS2_PLACEMENT_3D('',#1761,#1365,#1366);
#1205=AXIS2_PLACEMENT_3D('',#1767,#1370,#1371);
#1206=AXIS2_PLACEMENT_3D('',#1781,#1379,#1380);
#1207=AXIS2_PLACEMENT_3D('',#1783,#1381,#1382);
#1208=AXIS2_PLACEMENT_3D('',#1787,#1385,#1386);
#1209=AXIS2_PLACEMENT_3D('',#1798,#1393,#1394);
#1210=AXIS2_PLACEMENT_3D('',#1804,#1398,#1399);
#1211=AXIS2_PLACEMENT_3D('',#1812,#1403,#1404);
#1212=AXIS2_PLACEMENT_3D('',#1816,#1407,#1408);
#1213=AXIS2_PLACEMENT_3D('',#1817,#1409,#1410);
#1214=AXIS2_PLACEMENT_3D('',#1823,#1414,#1415);
#1215=AXIS2_PLACEMENT_3D('',#1824,#1416,#1417);
#1216=AXIS2_PLACEMENT_3D('',#1825,#1418,#1419);
#1217=AXIS2_PLACEMENT_3D('',#1826,#1420,#1421);
#1218=AXIS2_PLACEMENT_3D('',#1832,#1424,#1425);
#1219=AXIS2_PLACEMENT_3D('',#1838,#1429,#1430);
#1220=AXIS2_PLACEMENT_3D('',#1844,#1434,#1435);
#1221=AXIS2_PLACEMENT_3D('',#1845,#1436,#1437);
#1222=AXIS2_PLACEMENT_3D('',#1846,#1438,#1439);
#1223=AXIS2_PLACEMENT_3D('',#1847,#1440,#1441);
#1224=AXIS2_PLACEMENT_3D('',#1853,#1445,#1446);
#1225=AXIS2_PLACEMENT_3D('',#1854,#1447,#1448);
#1226=AXIS2_PLACEMENT_3D('',#1856,#1449,#1450);
#1227=AXIS2_PLACEMENT_3D('',#1858,#1451,#1452);
#1228=AXIS2_PLACEMENT_3D('',#1860,#1453,#1454);
#1229=AXIS2_PLACEMENT_3D('',#1861,#1455,#1456);
#1230=AXIS2_PLACEMENT_3D('',#1862,#1457,#1458);
#1231=AXIS2_PLACEMENT_3D('',#1866,#1460,#1461);
#1232=AXIS2_PLACEMENT_3D('',#1867,#1462,#1463);
#1233=AXIS2_PLACEMENT_3D('',#1868,#1464,#1465);
#1234=AXIS2_PLACEMENT_3D('',#1873,#1467,#1468);
#1235=AXIS2_PLACEMENT_3D('',#1877,#1470,#1471);
#1236=AXIS2_PLACEMENT_3D('',#1882,#1474,#1475);
#1237=AXIS2_PLACEMENT_3D('',#1885,#1477,#1478);
#1238=AXIS2_PLACEMENT_3D('',#1888,#1480,#1481);
#1239=AXIS2_PLACEMENT_3D('',#1889,#1482,#1483);
#1240=AXIS2_PLACEMENT_3D('',#1891,#1484,#1485);
#1241=AXIS2_PLACEMENT_3D('',#1892,#1486,#1487);
#1242=AXIS2_PLACEMENT_3D('',#1893,#1488,#1489);
#1243=AXIS2_PLACEMENT_3D('',#1898,#1491,#1492);
#1244=AXIS2_PLACEMENT_3D('',#1902,#1494,#1495);
#1245=AXIS2_PLACEMENT_3D('',#1915,#1502,#1503);
#1246=AXIS2_PLACEMENT_3D('',#1916,#1504,#1505);
#1247=AXIS2_PLACEMENT_3D('',#1918,#1506,#1507);
#1248=AXIS2_PLACEMENT_3D('',#1920,#1508,#1509);
#1249=AXIS2_PLACEMENT_3D('',#1921,#1510,#1511);
#1250=AXIS2_PLACEMENT_3D('',#1922,#1512,#1513);
#1251=AXIS2_PLACEMENT_3D('',#1926,#1515,#1516);
#1252=AXIS2_PLACEMENT_3D('',#1927,#1517,#1518);
#1253=AXIS2_PLACEMENT_3D('',#1928,#1519,#1520);
#1254=AXIS2_PLACEMENT_3D('',#1929,#1521,#1522);
#1255=AXIS2_PLACEMENT_3D('',#1930,#1523,#1524);
#1256=AXIS2_PLACEMENT_3D('',#1932,#1526,#1527);
#1257=AXIS2_PLACEMENT_3D('',#1933,#1528,#1529);
#1258=AXIS2_PLACEMENT_3D('',#1934,#1530,#1531);
#1259=AXIS2_PLACEMENT_3D('',#1936,#1532,#1533);
#1260=AXIS2_PLACEMENT_3D('',#1937,#1534,#1535);
#1261=AXIS2_PLACEMENT_3D('',#1938,#1536,#1537);
#1262=AXIS2_PLACEMENT_3D('',#1939,#1538,#1539);
#1263=AXIS2_PLACEMENT_3D('',#1940,#1540,#1541);
#1264=AXIS2_PLACEMENT_3D('',#1942,#1542,#1543);
#1265=AXIS2_PLACEMENT_3D('',#1943,#1544,#1545);
#1266=AXIS2_PLACEMENT_3D('',#1944,#1546,#1547);
#1267=AXIS2_PLACEMENT_3D('',#1945,#1548,#1549);
#1268=AXIS2_PLACEMENT_3D('',#1946,#1550,#1551);
#1269=AXIS2_PLACEMENT_3D('',#1949,#1552,#1553);
#1270=AXIS2_PLACEMENT_3D('',#1950,#1554,#1555);
#1271=AXIS2_PLACEMENT_3D('',#1951,#1556,#1557);
#1272=AXIS2_PLACEMENT_3D('',#1952,#1558,#1559);
#1273=AXIS2_PLACEMENT_3D('',#1955,#1561,#1562);
#1274=AXIS2_PLACEMENT_3D('',#1956,#1563,#1564);
#1275=AXIS2_PLACEMENT_3D('',#1958,#1565,#1566);
#1276=AXIS2_PLACEMENT_3D('',#1960,#1567,#1568);
#1277=AXIS2_PLACEMENT_3D('',#1961,#1569,#1570);
#1278=AXIS2_PLACEMENT_3D('',#1962,#1571,#1572);
#1279=AXIS2_PLACEMENT_3D('',#1964,#1573,#1574);
#1280=AXIS2_PLACEMENT_3D('',#1966,#1576,#1577);
#1281=AXIS2_PLACEMENT_3D('',#1968,#1578,#1579);
#1282=AXIS2_PLACEMENT_3D('',#1969,#1580,#1581);
#1283=AXIS2_PLACEMENT_3D('',#1970,#1582,#1583);
#1284=AXIS2_PLACEMENT_3D('',#1972,#1584,#1585);
#1285=AXIS2_PLACEMENT_3D('',#1974,#1587,#1588);
#1286=AXIS2_PLACEMENT_3D('',#1976,#1589,#1590);
#1287=AXIS2_PLACEMENT_3D('',#1977,#1591,#1592);
#1288=AXIS2_PLACEMENT_3D('',#1978,#1593,#1594);
#1289=AXIS2_PLACEMENT_3D('',#1980,#1596,#1597);
#1290=AXIS2_PLACEMENT_3D('',#1982,#1598,#1599);
#1291=AXIS2_PLACEMENT_3D('',#1984,#1600,#1601);
#1292=AXIS2_PLACEMENT_3D('',#1985,#1602,#1603);
#1293=AXIS2_PLACEMENT_3D('',#1986,#1604,#1605);
#1294=AXIS2_PLACEMENT_3D('',#1989,#1607,#1608);
#1295=AXIS2_PLACEMENT_3D('',#1990,#1609,#1610);
#1296=AXIS2_PLACEMENT_3D('',#1993,#1612,#1613);
#1297=AXIS2_PLACEMENT_3D('',#1994,#1614,#1615);
#1298=AXIS2_PLACEMENT_3D('',#1997,#1616,#1617);
#1299=AXIS2_PLACEMENT_3D('',#1998,#1618,#1619);
#1300=AXIS2_PLACEMENT_3D('',#1999,#1620,#1621);
#1301=AXIS2_PLACEMENT_3D('',#2000,#1622,#1623);
#1302=AXIS2_PLACEMENT_3D('',#2002,#1624,#1625);
#1303=AXIS2_PLACEMENT_3D('',#2004,#1626,#1627);
#1304=AXIS2_PLACEMENT_3D('',#2005,#1628,#1629);
#1305=AXIS2_PLACEMENT_3D('',#2006,#1630,#1631);
#1306=AXIS2_PLACEMENT_3D('',#2008,#1632,#1633);
#1307=AXIS2_PLACEMENT_3D('',#2010,#1634,#1635);
#1308=AXIS2_PLACEMENT_3D('',#2011,#1636,#1637);
#1309=AXIS2_PLACEMENT_3D('',#2012,#1638,#1639);
#1310=AXIS2_PLACEMENT_3D('',#2016,#1642,#1643);
#1311=AXIS2_PLACEMENT_3D('',#2017,#1644,#1645);
#1312=AXIS2_PLACEMENT_3D('',#2020,#1647,#1648);
#1313=AXIS2_PLACEMENT_3D('',#2021,#1649,#1650);
#1314=AXIS2_PLACEMENT_3D('',#2023,#1651,#1652);
#1315=AXIS2_PLACEMENT_3D('',#2024,#1653,#1654);
#1316=AXIS2_PLACEMENT_3D('',#2025,#1655,#1656);
#1317=AXIS2_PLACEMENT_3D('',#2027,#1657,#1658);
#1318=AXIS2_PLACEMENT_3D('',#2029,#1660,#1661);
#1319=AXIS2_PLACEMENT_3D('',#2031,#1662,#1663);
#1320=AXIS2_PLACEMENT_3D('',#2032,#1664,#1665);
#1321=AXIS2_PLACEMENT_3D('',#2033,#1666,#1667);
#1322=AXIS2_PLACEMENT_3D('',#2036,#1669,#1670);
#1323=AXIS2_PLACEMENT_3D('',#2037,#1671,#1672);
#1324=AXIS2_PLACEMENT_3D('',#2040,#1675,#1676);
#1325=AXIS2_PLACEMENT_3D('',#2042,#1678,#1679);
#1326=AXIS2_PLACEMENT_3D('',#2044,#1681,#1682);
#1327=AXIS2_PLACEMENT_3D('',#2046,#1684,#1685);
#1328=AXIS2_PLACEMENT_3D('',#2048,#1687,#1688);
#1329=AXIS2_PLACEMENT_3D('',#2050,#1690,#1691);
#1330=AXIS2_PLACEMENT_3D('',#2053,#1694,#1695);
#1331=AXIS2_PLACEMENT_3D('',#2056,#1698,#1699);
#1332=AXIS2_PLACEMENT_3D('',#2059,#1701,#1702);
#1333=AXIS2_PLACEMENT_3D('',#2060,#1703,#1704);
#1334=AXIS2_PLACEMENT_3D('',#2062,#1706,#1707);
#1335=AXIS2_PLACEMENT_3D('',#2064,#1709,#1710);
#1336=AXIS2_PLACEMENT_3D('',#2066,#1712,#1713);
#1337=AXIS2_PLACEMENT_3D('',#2068,#1715,#1716);
#1338=AXIS2_PLACEMENT_3D('',#2069,#1717,#1718);
#1339=AXIS2_PLACEMENT_3D('',#2070,#1719,#1720);
#1340=AXIS2_PLACEMENT_3D('',#2071,#1721,#1722);
#1341=AXIS2_PLACEMENT_3D('',#2073,#1724,#1725);
#1342=AXIS2_PLACEMENT_3D('',#2074,#1726,#1727);
#1343=AXIS2_PLACEMENT_3D('',#2076,#1729,#1730);
#1344=AXIS2_PLACEMENT_3D('',#2079,#1733,#1734);
#1345=AXIS2_PLACEMENT_3D('',#2080,#1735,#1736);
#1346=AXIS2_PLACEMENT_3D('',#2081,#1737,#1738);
#1347=DIRECTION('axis',(0.,0.,1.));
#1348=DIRECTION('refdir',(1.,0.,0.));
#1349=DIRECTION('center_axis',(1.,0.,0.));
#1350=DIRECTION('ref_axis',(0.,0.,-1.));
#1351=DIRECTION('center_axis',(-1.,0.,0.));
#1352=DIRECTION('ref_axis',(0.,-0.707106781186546,-0.707106781186549));
#1353=DIRECTION('',(0.,0.,-1.));
#1354=DIRECTION('',(0.,1.,0.));
#1355=DIRECTION('',(0.,0.,1.));
#1356=DIRECTION('center_axis',(-1.,0.,0.));
#1357=DIRECTION('ref_axis',(0.,0.,1.));
#1358=DIRECTION('center_axis',(1.,0.,0.));
#1359=DIRECTION('ref_axis',(0.,-0.707106781186546,-0.707106781186549));
#1360=DIRECTION('',(0.,0.,-1.));
#1361=DIRECTION('',(0.,-1.,0.));
#1362=DIRECTION('',(0.,0.,-1.));
#1363=DIRECTION('center_axis',(-1.,0.,0.));
#1364=DIRECTION('ref_axis',(0.,0.,1.));
#1365=DIRECTION('center_axis',(1.,0.,0.));
#1366=DIRECTION('ref_axis',(0.,0.707106781186548,-0.707106781186547));
#1367=DIRECTION('',(0.,0.,-1.));
#1368=DIRECTION('',(0.,-1.,0.));
#1369=DIRECTION('',(0.,0.,1.));
#1370=DIRECTION('center_axis',(0.,1.,0.));
#1371=DIRECTION('ref_axis',(0.,0.,1.));
#1372=DIRECTION('',(1.,0.,0.));
#1373=DIRECTION('',(0.,0.,-1.));
#1374=DIRECTION('',(-1.,0.,0.));
#1375=DIRECTION('',(0.,0.,1.));
#1376=DIRECTION('',(-1.,0.,0.));
#1377=DIRECTION('',(0.,0.,-1.));
#1378=DIRECTION('',(-1.,0.,0.));
#1379=DIRECTION('center_axis',(1.,0.,0.));
#1380=DIRECTION('ref_axis',(0.,0.,-1.));
#1381=DIRECTION('center_axis',(-1.,0.,0.));
#1382=DIRECTION('ref_axis',(0.,0.707106781186548,-0.707106781186547));
#1383=DIRECTION('',(0.,0.,-1.));
#1384=DIRECTION('',(0.,1.,0.));
#1385=DIRECTION('center_axis',(0.,-1.,0.));
#1386=DIRECTION('ref_axis',(0.,0.,-1.));
#1387=DIRECTION('',(-1.,0.,0.));
#1388=DIRECTION('',(1.,0.,0.));
#1389=DIRECTION('',(0.,0.,1.));
#1390=DIRECTION('',(1.,0.,0.));
#1391=DIRECTION('',(0.,0.,-1.));
#1392=DIRECTION('',(1.,0.,0.));
#1393=DIRECTION('center_axis',(0.,1.,0.));
#1394=DIRECTION('ref_axis',(0.,0.,-1.));
#1395=DIRECTION('',(1.,0.,0.));
#1396=DIRECTION('',(0.,0.,-1.));
#1397=DIRECTION('',(-1.,0.,0.));
#1398=DIRECTION('center_axis',(0.,1.,0.));
#1399=DIRECTION('ref_axis',(0.,0.,-1.));
#1400=DIRECTION('',(-1.,0.,0.));
#1401=DIRECTION('',(0.,0.,1.));
#1402=DIRECTION('',(1.,0.,0.));
#1403=DIRECTION('center_axis',(0.,-1.,0.));
#1404=DIRECTION('ref_axis',(-0.707106781186548,0.,0.707106781186548));
#1405=DIRECTION('',(0.,0.,1.));
#1406=DIRECTION('',(1.,0.,0.));
#1407=DIRECTION('center_axis',(0.,0.,1.));
#1408=DIRECTION('ref_axis',(0.,1.,0.));
#1409=DIRECTION('center_axis',(0.,0.,-1.));
#1410=DIRECTION('ref_axis',(-1.,0.,0.));
#1411=DIRECTION('',(0.,1.,0.));
#1412=DIRECTION('',(-1.,9.70547373549473E-34,0.));
#1413=DIRECTION('',(0.,-1.,0.));
#1414=DIRECTION('center_axis',(0.,0.,1.));
#1415=DIRECTION('ref_axis',(-1.,0.,0.));
#1416=DIRECTION('center_axis',(0.,0.,-1.));
#1417=DIRECTION('ref_axis',(-1.,0.,0.));
#1418=DIRECTION('center_axis',(0.,0.,-1.));
#1419=DIRECTION('ref_axis',(1.83697019872103E-16,-1.,0.));
#1420=DIRECTION('center_axis',(0.,-1.,0.));
#1421=DIRECTION('ref_axis',(0.,0.,1.));
#1422=DIRECTION('',(-1.,0.,0.));
#1423=DIRECTION('',(0.,0.,-1.));
#1424=DIRECTION('center_axis',(0.,1.,0.));
#1425=DIRECTION('ref_axis',(-0.707106781186548,0.,0.707106781186548));
#1426=DIRECTION('',(-1.,0.,0.));
#1427=DIRECTION('',(0.,0.,-1.));
#1428=DIRECTION('',(-1.,0.,0.));
#1429=DIRECTION('center_axis',(0.,-1.,0.));
#1430=DIRECTION('ref_axis',(0.,0.,1.));
#1431=DIRECTION('',(-1.,0.,0.));
#1432=DIRECTION('',(0.,0.,1.));
#1433=DIRECTION('',(-1.,0.,0.));
#1434=DIRECTION('center_axis',(0.,0.,1.));
#1435=DIRECTION('ref_axis',(-1.,0.,0.));
#1436=DIRECTION('center_axis',(0.,0.,-1.));
#1437=DIRECTION('ref_axis',(-1.,0.,0.));
#1438=DIRECTION('center_axis',(0.,0.,1.));
#1439=DIRECTION('ref_axis',(0.,1.,0.));
#1440=DIRECTION('center_axis',(0.,0.,-1.));
#1441=DIRECTION('ref_axis',(-1.,0.,0.));
#1442=DIRECTION('',(0.,-1.,0.));
#1443=DIRECTION('',(1.,0.,0.));
#1444=DIRECTION('',(0.,1.,0.));
#1445=DIRECTION('center_axis',(0.,0.,-1.));
#1446=DIRECTION('ref_axis',(-6.12323399573677E-17,1.,0.));
#1447=DIRECTION('center_axis',(0.,0.,-1.));
#1448=DIRECTION('ref_axis',(-1.,0.,0.));
#1449=DIRECTION('center_axis',(0.,0.,1.));
#1450=DIRECTION('ref_axis',(1.,0.,0.));
#1451=DIRECTION('center_axis',(0.,-1.,0.));
#1452=DIRECTION('ref_axis',(1.,0.,0.));
#1453=DIRECTION('center_axis',(0.,0.,-1.));
#1454=DIRECTION('ref_axis',(1.,0.,0.));
#1455=DIRECTION('center_axis',(0.,0.,-1.));
#1456=DIRECTION('ref_axis',(1.,0.,0.));
#1457=DIRECTION('center_axis',(0.,0.,1.));
#1458=DIRECTION('ref_axis',(1.,0.,0.));
#1459=DIRECTION('',(0.,0.,-1.));
#1460=DIRECTION('center_axis',(0.,0.,1.));
#1461=DIRECTION('ref_axis',(1.,0.,0.));
#1462=DIRECTION('center_axis',(0.,0.,1.));
#1463=DIRECTION('ref_axis',(1.,0.,0.));
#1464=DIRECTION('center_axis',(0.,0.,1.));
#1465=DIRECTION('ref_axis',(1.,0.,0.));
#1466=DIRECTION('',(-1.,9.70547373549473E-34,0.));
#1467=DIRECTION('center_axis',(0.,0.,-1.));
#1468=DIRECTION('ref_axis',(0.707106781186548,-0.707106781186548,0.));
#1469=DIRECTION('',(0.,-1.,0.));
#1470=DIRECTION('center_axis',(0.,0.,-1.));
#1471=DIRECTION('ref_axis',(0.707106781186547,0.707106781186548,0.));
#1472=DIRECTION('',(1.,0.,0.));
#1473=DIRECTION('',(0.,-1.,0.));
#1474=DIRECTION('center_axis',(0.,0.,-1.));
#1475=DIRECTION('ref_axis',(0.707106781186549,-0.707106781186546,0.));
#1476=DIRECTION('',(0.,1.,0.));
#1477=DIRECTION('center_axis',(0.,0.,-1.));
#1478=DIRECTION('ref_axis',(0.707106781186547,0.707106781186548,0.));
#1479=DIRECTION('',(0.,-1.,0.));
#1480=DIRECTION('center_axis',(0.,0.,1.));
#1481=DIRECTION('ref_axis',(1.,0.,0.));
#1482=DIRECTION('center_axis',(0.,0.,-1.));
#1483=DIRECTION('ref_axis',(-1.,0.,0.));
#1484=DIRECTION('center_axis',(0.,-1.,0.));
#1485=DIRECTION('ref_axis',(1.,0.,0.));
#1486=DIRECTION('center_axis',(0.,0.,-1.));
#1487=DIRECTION('ref_axis',(1.,0.,0.));
#1488=DIRECTION('center_axis',(0.,0.,1.));
#1489=DIRECTION('ref_axis',(1.,0.,0.));
#1490=DIRECTION('',(-1.,0.,0.));
#1491=DIRECTION('center_axis',(0.,0.,1.));
#1492=DIRECTION('ref_axis',(0.707106781186547,0.707106781186548,0.));
#1493=DIRECTION('',(0.,1.,0.));
#1494=DIRECTION('center_axis',(0.,0.,1.));
#1495=DIRECTION('ref_axis',(0.707106781186548,-0.707106781186548,0.));
#1496=DIRECTION('',(1.,-9.70547373549473E-34,0.));
#1497=DIRECTION('',(0.,-1.,0.));
#1498=DIRECTION('',(-1.,0.,0.));
#1499=DIRECTION('',(0.,-1.,0.));
#1500=DIRECTION('',(1.,0.,0.));
#1501=DIRECTION('',(0.,-1.,0.));
#1502=DIRECTION('center_axis',(0.,0.,-1.));
#1503=DIRECTION('ref_axis',(1.,0.,0.));
#1504=DIRECTION('center_axis',(0.,0.,-1.));
#1505=DIRECTION('ref_axis',(-1.,0.,0.));
#1506=DIRECTION('center_axis',(0.,-1.,0.));
#1507=DIRECTION('ref_axis',(1.,0.,0.));
#1508=DIRECTION('center_axis',(0.,0.,-1.));
#1509=DIRECTION('ref_axis',(1.,0.,0.));
#1510=DIRECTION('center_axis',(0.,0.,-1.));
#1511=DIRECTION('ref_axis',(1.,0.,0.));
#1512=DIRECTION('center_axis',(0.,0.,1.));
#1513=DIRECTION('ref_axis',(1.,0.,0.));
#1514=DIRECTION('',(0.,0.,-1.));
#1515=DIRECTION('center_axis',(0.,0.,1.));
#1516=DIRECTION('ref_axis',(1.,0.,0.));
#1517=DIRECTION('center_axis',(0.,0.,1.));
#1518=DIRECTION('ref_axis',(1.,0.,0.));
#1519=DIRECTION('center_axis',(0.,0.,-1.));
#1520=DIRECTION('ref_axis',(-1.,0.,0.));
#1521=DIRECTION('center_axis',(0.,-1.,0.));
#1522=DIRECTION('ref_axis',(1.,0.,0.));
#1523=DIRECTION('center_axis',(0.,-1.,0.));
#1524=DIRECTION('ref_axis',(-0.707106781186548,0.,-0.707106781186547));
#1525=DIRECTION('',(0.,1.,0.));
#1526=DIRECTION('center_axis',(0.707106781186546,-0.707106781186549,0.));
#1527=DIRECTION('ref_axis',(0.707106781186549,0.707106781186546,0.));
#1528=DIRECTION('center_axis',(0.707106781186546,0.707106781186549,-1.57009245868378E-15));
#1529=DIRECTION('ref_axis',(-0.707106781186549,0.707106781186546,1.57009245868379E-15));
#1530=DIRECTION('center_axis',(0.408248290463865,0.408248290463861,-0.816496580927726));
#1531=DIRECTION('ref_axis',(-0.577350269189628,-0.577350269189624,-0.577350269189626));
#1532=DIRECTION('center_axis',(0.,-1.,0.));
#1533=DIRECTION('ref_axis',(0.,0.,-1.));
#1534=DIRECTION('center_axis',(-1.,0.,0.));
#1535=DIRECTION('ref_axis',(0.,-1.,0.));
#1536=DIRECTION('center_axis',(0.,5.5511151231258E-16,-1.));
#1537=DIRECTION('ref_axis',(-1.,0.,0.));
#1538=DIRECTION('center_axis',(-1.,0.,0.));
#1539=DIRECTION('ref_axis',(0.,-0.707106781186546,-0.707106781186549));
#1540=DIRECTION('center_axis',(0.408248290463863,-0.408248290463863,-0.816496580927726));
#1541=DIRECTION('ref_axis',(-0.577350269189626,0.577350269189626,-0.577350269189626));
#1542=DIRECTION('center_axis',(0.,0.,-1.));
#1543=DIRECTION('ref_axis',(0.,1.,0.));
#1544=DIRECTION('center_axis',(-1.,0.,0.));
#1545=DIRECTION('ref_axis',(0.,0.,-1.));
#1546=DIRECTION('center_axis',(0.,1.,2.22044604925031E-15));
#1547=DIRECTION('ref_axis',(-1.,0.,0.));
#1548=DIRECTION('center_axis',(-1.,0.,0.));
#1549=DIRECTION('ref_axis',(0.,0.707106781186548,-0.707106781186547));
#1550=DIRECTION('center_axis',(0.408248290463864,-0.40824829046386,-0.816496580927727));
#1551=DIRECTION('ref_axis',(-0.577350269189627,0.577350269189623,-0.577350269189627));
#1552=DIRECTION('center_axis',(-5.55111512312578E-16,0.,-1.));
#1553=DIRECTION('ref_axis',(0.,1.,0.));
#1554=DIRECTION('center_axis',(-1.,0.,0.));
#1555=DIRECTION('ref_axis',(0.,0.,-1.));
#1556=DIRECTION('center_axis',(0.,1.,0.));
#1557=DIRECTION('ref_axis',(-1.,0.,0.));
#1558=DIRECTION('center_axis',(0.,0.,-1.));
#1559=DIRECTION('ref_axis',(-0.707106781186549,0.707106781186546,0.));
#1560=DIRECTION('',(0.,0.,1.));
#1561=DIRECTION('center_axis',(0.,0.707106781186548,-0.707106781186548));
#1562=DIRECTION('ref_axis',(0.,0.707106781186548,0.707106781186548));
#1563=DIRECTION('center_axis',(-0.816496580927726,0.408248290463863,0.408248290463863));
#1564=DIRECTION('ref_axis',(-0.577350269189626,-0.577350269189626,-0.577350269189626));
#1565=DIRECTION('center_axis',(0.,-1.,0.));
#1566=DIRECTION('ref_axis',(0.,0.,-1.));
#1567=DIRECTION('center_axis',(-1.,0.,0.));
#1568=DIRECTION('ref_axis',(0.,-1.,0.));
#1569=DIRECTION('center_axis',(0.,5.55111512312578E-16,-1.));
#1570=DIRECTION('ref_axis',(-1.,0.,0.));
#1571=DIRECTION('center_axis',(-1.,0.,0.));
#1572=DIRECTION('ref_axis',(0.,0.70710678118654,-0.707106781186555));
#1573=DIRECTION('center_axis',(-1.,0.,0.));
#1574=DIRECTION('ref_axis',(0.,1.,0.));
#1575=DIRECTION('',(1.,0.,0.));
#1576=DIRECTION('center_axis',(0.,0.,1.));
#1577=DIRECTION('ref_axis',(1.,0.,0.));
#1578=DIRECTION('center_axis',(-8.88178419700124E-15,1.,0.));
#1579=DIRECTION('ref_axis',(1.,8.88178419700124E-15,0.));
#1580=DIRECTION('center_axis',(0.,0.,-1.));
#1581=DIRECTION('ref_axis',(0.707106781186547,0.707106781186548,0.));
#1582=DIRECTION('center_axis',(0.,1.,0.));
#1583=DIRECTION('ref_axis',(0.707106781186546,0.,-0.707106781186549));
#1584=DIRECTION('center_axis',(0.,1.,0.));
#1585=DIRECTION('ref_axis',(1.,0.,0.));
#1586=DIRECTION('',(0.,-1.,0.));
#1587=DIRECTION('center_axis',(0.,0.,1.));
#1588=DIRECTION('ref_axis',(1.,0.,0.));
#1589=DIRECTION('center_axis',(1.,0.,0.));
#1590=DIRECTION('ref_axis',(0.,-1.,0.));
#1591=DIRECTION('center_axis',(0.,0.,-1.));
#1592=DIRECTION('ref_axis',(0.707106781186547,-0.707106781186547,0.));
#1593=DIRECTION('center_axis',(-1.,9.70547373549473E-34,0.));
#1594=DIRECTION('ref_axis',(0.,-0.707106781186548,-0.707106781186547));
#1595=DIRECTION('',(-1.,9.70547373549473E-34,0.));
#1596=DIRECTION('center_axis',(-0.408248290463864,0.408248290463861,-0.816496580927727));
#1597=DIRECTION('ref_axis',(-0.577350269189631,0.577350269189623,0.577350269189623));
#1598=DIRECTION('center_axis',(0.,1.,0.));
#1599=DIRECTION('ref_axis',(0.,0.,1.));
#1600=DIRECTION('center_axis',(-1.,0.,0.));
#1601=DIRECTION('ref_axis',(0.,1.,0.));
#1602=DIRECTION('center_axis',(0.,0.,1.));
#1603=DIRECTION('ref_axis',(-1.,0.,0.));
#1604=DIRECTION('center_axis',(0.,0.,-1.));
#1605=DIRECTION('ref_axis',(0.707106781186549,-0.707106781186546,0.));
#1606=DIRECTION('',(0.,0.,1.));
#1607=DIRECTION('center_axis',(0.,-0.707106781186549,-0.707106781186546));
#1608=DIRECTION('ref_axis',(0.,-0.707106781186546,0.707106781186549));
#1609=DIRECTION('center_axis',(0.,0.,-1.));
#1610=DIRECTION('ref_axis',(0.707106781186547,0.707106781186548,0.));
#1611=DIRECTION('',(0.,0.,-1.));
#1612=DIRECTION('center_axis',(0.,0.707106781186548,-0.707106781186548));
#1613=DIRECTION('ref_axis',(0.,0.707106781186548,0.707106781186548));
#1614=DIRECTION('center_axis',(0.408248290463863,-0.816496580927726,-0.408248290463863));
#1615=DIRECTION('ref_axis',(-0.577350269189626,-0.577350269189626,0.577350269189626));
#1616=DIRECTION('center_axis',(0.,0.,1.));
#1617=DIRECTION('ref_axis',(0.,-1.,0.));
#1618=DIRECTION('center_axis',(-1.,0.,0.));
#1619=DIRECTION('ref_axis',(0.,0.,1.));
#1620=DIRECTION('center_axis',(0.,-1.,0.));
#1621=DIRECTION('ref_axis',(-1.,0.,0.));
#1622=DIRECTION('center_axis',(0.408248290463865,0.408248290463861,-0.816496580927726));
#1623=DIRECTION('ref_axis',(0.577350269189627,0.577350269189624,0.577350269189626));
#1624=DIRECTION('center_axis',(0.,1.,0.));
#1625=DIRECTION('ref_axis',(1.,0.,0.));
#1626=DIRECTION('center_axis',(0.,0.,1.));
#1627=DIRECTION('ref_axis',(0.,1.,0.));
#1628=DIRECTION('center_axis',(1.,0.,0.));
#1629=DIRECTION('ref_axis',(0.,0.,1.));
#1630=DIRECTION('center_axis',(-0.408248290463863,-0.816496580927726,-0.408248290463863));
#1631=DIRECTION('ref_axis',(0.577350269189626,-0.577350269189626,0.577350269189626));
#1632=DIRECTION('center_axis',(1.,0.,0.));
#1633=DIRECTION('ref_axis',(0.,-1.,0.));
#1634=DIRECTION('center_axis',(0.,0.,1.));
#1635=DIRECTION('ref_axis',(1.,0.,0.));
#1636=DIRECTION('center_axis',(5.55111512312578E-16,-1.,0.));
#1637=DIRECTION('ref_axis',(0.,0.,1.));
#1638=DIRECTION('center_axis',(0.,0.,1.));
#1639=DIRECTION('ref_axis',(0.707106781186547,-0.707106781186548,0.));
#1640=DIRECTION('',(0.,0.,1.));
#1641=DIRECTION('',(0.,0.,-1.));
#1642=DIRECTION('center_axis',(-0.707106781186547,-1.96261557335472E-16,
0.707106781186548));
#1643=DIRECTION('ref_axis',(-0.707106781186548,-1.96261557335472E-16,-0.707106781186547));
#1644=DIRECTION('center_axis',(1.,-9.70547373549473E-34,0.));
#1645=DIRECTION('ref_axis',(0.,-0.707106781186548,0.707106781186547));
#1646=DIRECTION('',(1.,-9.70547373549473E-34,0.));
#1647=DIRECTION('center_axis',(-1.,0.,0.));
#1648=DIRECTION('ref_axis',(0.,-1.,0.));
#1649=DIRECTION('center_axis',(0.,0.,-1.));
#1650=DIRECTION('ref_axis',(-1.,0.,0.));
#1651=DIRECTION('center_axis',(0.,-1.,0.));
#1652=DIRECTION('ref_axis',(1.,0.,0.));
#1653=DIRECTION('center_axis',(0.,0.,1.));
#1654=DIRECTION('ref_axis',(0.707106781186547,-0.707106781186547,0.));
#1655=DIRECTION('center_axis',(0.,1.,0.));
#1656=DIRECTION('ref_axis',(0.707106781186546,0.,0.707106781186549));
#1657=DIRECTION('center_axis',(0.,-1.,0.));
#1658=DIRECTION('ref_axis',(1.,0.,0.));
#1659=DIRECTION('',(0.,1.,0.));
#1660=DIRECTION('center_axis',(0.,0.,-1.));
#1661=DIRECTION('ref_axis',(-1.,0.,0.));
#1662=DIRECTION('center_axis',(1.,0.,0.));
#1663=DIRECTION('ref_axis',(0.,1.,0.));
#1664=DIRECTION('center_axis',(0.,0.,1.));
#1665=DIRECTION('ref_axis',(0.707106781186547,0.707106781186548,0.));
#1666=DIRECTION('center_axis',(-1.,0.,0.));
#1667=DIRECTION('ref_axis',(0.,0.70710678118654,0.707106781186555));
#1668=DIRECTION('',(-1.,0.,0.));
#1669=DIRECTION('center_axis',(0.707106781186547,0.,-0.707106781186548));
#1670=DIRECTION('ref_axis',(0.707106781186548,0.,0.707106781186547));
#1671=DIRECTION('center_axis',(0.,0.,-1.));
#1672=DIRECTION('ref_axis',(0.707106781186555,0.70710678118654,0.));
#1673=DIRECTION('',(0.,0.,1.));
#1674=DIRECTION('',(0.,0.,-1.));
#1675=DIRECTION('center_axis',(0.,1.,0.));
#1676=DIRECTION('ref_axis',(0.707106781186547,0.,0.707106781186548));
#1677=DIRECTION('',(0.,1.,0.));
#1678=DIRECTION('center_axis',(-1.,9.70547373549473E-34,0.));
#1679=DIRECTION('ref_axis',(-6.86280629299625E-34,-0.707106781186547,0.707106781186548));
#1680=DIRECTION('',(1.,-9.70547373549473E-34,0.));
#1681=DIRECTION('center_axis',(-1.,0.,0.));
#1682=DIRECTION('ref_axis',(0.,0.70710678118654,0.707106781186555));
#1683=DIRECTION('',(-1.,0.,0.));
#1684=DIRECTION('center_axis',(0.,1.,0.));
#1685=DIRECTION('ref_axis',(0.707106781186547,0.,0.707106781186548));
#1686=DIRECTION('',(0.,1.,0.));
#1687=DIRECTION('center_axis',(0.,1.,0.));
#1688=DIRECTION('ref_axis',(-0.707106781186549,0.,0.707106781186546));
#1689=DIRECTION('',(0.,-1.,0.));
#1690=DIRECTION('center_axis',(0.,0.,1.));
#1691=DIRECTION('ref_axis',(-0.707106781186549,-0.707106781186546,0.));
#1692=DIRECTION('',(0.,0.,-1.));
#1693=DIRECTION('',(0.,0.,1.));
#1694=DIRECTION('center_axis',(0.,0.,-1.));
#1695=DIRECTION('ref_axis',(-0.707106781186557,0.707106781186538,0.));
#1696=DIRECTION('',(0.,0.,1.));
#1697=DIRECTION('',(0.,0.,-1.));
#1698=DIRECTION('center_axis',(0.,1.,0.));
#1699=DIRECTION('ref_axis',(-0.707106781186549,0.,0.707106781186546));
#1700=DIRECTION('',(0.,-1.,0.));
#1701=DIRECTION('center_axis',(0.,0.707106781186549,0.707106781186546));
#1702=DIRECTION('ref_axis',(0.,-0.707106781186546,0.707106781186549));
#1703=DIRECTION('center_axis',(0.,-1.,0.));
#1704=DIRECTION('ref_axis',(-0.707106781186549,0.,-0.707106781186546));
#1705=DIRECTION('',(0.,1.,0.));
#1706=DIRECTION('center_axis',(0.,0.,1.));
#1707=DIRECTION('ref_axis',(-0.707106781186551,-0.707106781186544,0.));
#1708=DIRECTION('',(0.,0.,-1.));
#1709=DIRECTION('center_axis',(0.,-1.,0.));
#1710=DIRECTION('ref_axis',(-0.707106781186549,0.,-0.707106781186546));
#1711=DIRECTION('',(0.,1.,0.));
#1712=DIRECTION('center_axis',(0.,1.,0.));
#1713=DIRECTION('ref_axis',(-1.,0.,0.));
#1714=DIRECTION('',(0.,0.,1.));
#1715=DIRECTION('center_axis',(-1.,0.,0.));
#1716=DIRECTION('ref_axis',(0.,-1.,0.));
#1717=DIRECTION('center_axis',(-1.,0.,0.));
#1718=DIRECTION('ref_axis',(0.,0.,1.));
#1719=DIRECTION('center_axis',(-1.,0.,0.));
#1720=DIRECTION('ref_axis',(0.,0.,1.));
#1721=DIRECTION('center_axis',(0.,-1.,0.));
#1722=DIRECTION('ref_axis',(-0.707106781186548,0.,0.707106781186548));
#1723=DIRECTION('',(0.,-1.,0.));
#1724=DIRECTION('center_axis',(-1.,0.,0.));
#1725=DIRECTION('ref_axis',(0.,-1.,0.));
#1726=DIRECTION('center_axis',(0.,0.,1.));
#1727=DIRECTION('ref_axis',(0.707106781186547,0.707106781186547,0.));
#1728=DIRECTION('',(0.,0.,-1.));
#1729=DIRECTION('center_axis',(0.,0.,1.));
#1730=DIRECTION('ref_axis',(0.707106781186547,-0.707106781186547,0.));
#1731=DIRECTION('',(0.,0.,1.));
#1732=DIRECTION('',(0.,0.,-1.));
#1733=DIRECTION('center_axis',(-9.70547373549473E-34,-1.,0.));
#1734=DIRECTION('ref_axis',(1.,-9.70547373549473E-34,0.));
#1735=DIRECTION('center_axis',(-1.,0.,0.));
#1736=DIRECTION('ref_axis',(0.,-1.,0.));
#1737=DIRECTION('center_axis',(1.,0.,0.));
#1738=DIRECTION('ref_axis',(0.,1.,0.));
#1739=CARTESIAN_POINT('',(0.,0.,0.));
#1740=CARTESIAN_POINT('Origin',(-12.5,22.225,4.));
#1741=CARTESIAN_POINT('',(-12.5,34.35,0.169281086116922));
#1742=CARTESIAN_POINT('',(-12.5,34.225,0.5));
#1743=CARTESIAN_POINT('Origin',(-12.5,34.725,0.5));
#1744=CARTESIAN_POINT('',(-12.5,34.35,8.));
#1745=CARTESIAN_POINT('',(-12.5,34.35,4.));
#1746=CARTESIAN_POINT('',(-12.5,34.225,8.));
#1747=CARTESIAN_POINT('',(-12.5,28.225,8.));
#1748=CARTESIAN_POINT('',(-12.5,34.225,2.));
#1749=CARTESIAN_POINT('Origin',(-2.5,22.225,4.));
#1750=CARTESIAN_POINT('',(-2.5,34.225,0.5));
#1751=CARTESIAN_POINT('',(-2.5,34.35,0.169281086116922));
#1752=CARTESIAN_POINT('Origin',(-2.5,34.725,0.5));
#1753=CARTESIAN_POINT('',(-2.5,34.225,8.));
#1754=CARTESIAN_POINT('',(-2.5,34.225,2.));
#1755=CARTESIAN_POINT('',(-2.5,34.35,8.));
#1756=CARTESIAN_POINT('',(-2.5,28.225,8.));
#1757=CARTESIAN_POINT('',(-2.5,34.35,4.));
#1758=CARTESIAN_POINT('Origin',(-2.5,22.225,4.));
#1759=CARTESIAN_POINT('',(-2.5,10.1,0.169281086116926));
#1760=CARTESIAN_POINT('',(-2.5,10.225,0.5));
#1761=CARTESIAN_POINT('Origin',(-2.5,9.725,0.5));
#1762=CARTESIAN_POINT('',(-2.5,10.1,8.));
#1763=CARTESIAN_POINT('',(-2.5,10.1,4.));
#1764=CARTESIAN_POINT('',(-2.5,10.225,8.));
#1765=CARTESIAN_POINT('',(-2.5,11.1125,8.));
#1766=CARTESIAN_POINT('',(-2.5,10.225,6.));
#1767=CARTESIAN_POINT('Origin',(-7.5,10.1,4.));
#1768=CARTESIAN_POINT('',(-12.5,10.1,0.169281086116926));
#1769=CARTESIAN_POINT('',(3.96875,10.1,0.169281086116926));
#1770=CARTESIAN_POINT('',(-12.5,10.1,8.));
#1771=CARTESIAN_POINT('',(-12.5,10.1,4.));
#1772=CARTESIAN_POINT('',(-8.49215674164922,10.1,8.));
#1773=CARTESIAN_POINT('',(-3.75,10.1,8.));
#1774=CARTESIAN_POINT('',(-8.49215674164922,10.1,2.));
#1775=CARTESIAN_POINT('',(-8.49215674164922,10.1,8.));
#1776=CARTESIAN_POINT('',(-6.50784325835078,10.1,2.));
#1777=CARTESIAN_POINT('',(-7.5,10.1,2.));
#1778=CARTESIAN_POINT('',(-6.50784325835078,10.1,8.));
#1779=CARTESIAN_POINT('',(-6.50784325835078,10.1,8.));
#1780=CARTESIAN_POINT('',(-3.75,10.1,8.));
#1781=CARTESIAN_POINT('Origin',(-12.5,22.225,4.));
#1782=CARTESIAN_POINT('',(-12.5,10.225,0.5));
#1783=CARTESIAN_POINT('Origin',(-12.5,9.725,0.5));
#1784=CARTESIAN_POINT('',(-12.5,10.225,8.));
#1785=CARTESIAN_POINT('',(-12.5,10.225,6.));
#1786=CARTESIAN_POINT('',(-12.5,11.1125,8.));
#1787=CARTESIAN_POINT('Origin',(-7.5,34.35,4.));
#1788=CARTESIAN_POINT('',(3.96875,34.35,0.169281086116922));
#1789=CARTESIAN_POINT('',(-6.50784325835077,34.35,8.));
#1790=CARTESIAN_POINT('',(-3.75,34.35,8.));
#1791=CARTESIAN_POINT('',(-6.50784325835077,34.35,2.));
#1792=CARTESIAN_POINT('',(-6.50784325835077,34.35,8.));
#1793=CARTESIAN_POINT('',(-8.49215674164923,34.35,2.));
#1794=CARTESIAN_POINT('',(-7.5,34.35,2.));
#1795=CARTESIAN_POINT('',(-8.49215674164923,34.35,8.));
#1796=CARTESIAN_POINT('',(-8.49215674164923,34.35,8.));
#1797=CARTESIAN_POINT('',(-3.75,34.35,8.));
#1798=CARTESIAN_POINT('Origin',(0.,10.225,8.));
#1799=CARTESIAN_POINT('',(-14.5,10.225,0.5));
#1800=CARTESIAN_POINT('',(3.96875,10.225,0.5));
#1801=CARTESIAN_POINT('',(-14.5,10.225,8.));
#1802=CARTESIAN_POINT('',(-14.5,10.225,6.));
#1803=CARTESIAN_POINT('',(0.,10.225,8.));
#1804=CARTESIAN_POINT('Origin',(0.,10.225,8.));
#1805=CARTESIAN_POINT('',(-0.5,10.225,8.));
#1806=CARTESIAN_POINT('',(0.,10.225,8.));
#1807=CARTESIAN_POINT('',(-0.5,10.225,2.));
#1808=CARTESIAN_POINT('',(-0.5,10.225,6.));
#1809=CARTESIAN_POINT('',(0.5,10.225,2.));
#1810=CARTESIAN_POINT('',(3.96875,10.225,2.));
#1811=CARTESIAN_POINT('',(0.,10.225,1.5));
#1812=CARTESIAN_POINT('Origin',(0.5,10.225,1.5));
#1813=CARTESIAN_POINT('',(0.,10.225,0.5));
#1814=CARTESIAN_POINT('',(0.,10.225,4.));
#1815=CARTESIAN_POINT('',(3.96875,10.225,0.5));
#1816=CARTESIAN_POINT('Origin',(0.,0.,8.));
#1817=CARTESIAN_POINT('Origin',(-7.5,6.225,8.));
#1818=CARTESIAN_POINT('',(-14.5,0.5,8.));
#1819=CARTESIAN_POINT('',(-14.5,2.55625,8.));
#1820=CARTESIAN_POINT('',(-0.5,0.5,8.));
#1821=CARTESIAN_POINT('',(4.85273686774737E-34,0.5,8.));
#1822=CARTESIAN_POINT('',(-0.5,2.55625,8.));
#1823=CARTESIAN_POINT('Origin',(-7.5,6.225,2.));
#1824=CARTESIAN_POINT('Origin',(-7.5,6.225,2.));
#1825=CARTESIAN_POINT('Origin',(-7.5,6.225,8.));
#1826=CARTESIAN_POINT('Origin',(0.,34.225,0.));
#1827=CARTESIAN_POINT('',(0.,34.225,0.5));
#1828=CARTESIAN_POINT('',(3.96875,34.225,0.5));
#1829=CARTESIAN_POINT('',(0.,34.225,1.5));
#1830=CARTESIAN_POINT('',(0.,34.225,0.));
#1831=CARTESIAN_POINT('',(0.5,34.225,2.));
#1832=CARTESIAN_POINT('Origin',(0.5,34.225,1.5));
#1833=CARTESIAN_POINT('',(-0.5,34.225,2.));
#1834=CARTESIAN_POINT('',(3.96875,34.225,2.));
#1835=CARTESIAN_POINT('',(-0.5,34.225,8.));
#1836=CARTESIAN_POINT('',(-0.5,34.225,2.));
#1837=CARTESIAN_POINT('',(0.,34.225,8.));
#1838=CARTESIAN_POINT('Origin',(0.,34.225,0.));
#1839=CARTESIAN_POINT('',(-14.5,34.225,8.));
#1840=CARTESIAN_POINT('',(0.,34.225,8.));
#1841=CARTESIAN_POINT('',(-14.5,34.225,0.5));
#1842=CARTESIAN_POINT('',(-14.5,34.225,2.));
#1843=CARTESIAN_POINT('',(3.96875,34.225,0.5));
#1844=CARTESIAN_POINT('Origin',(-7.5,38.225,2.));
#1845=CARTESIAN_POINT('Origin',(-7.5,38.225,2.));
#1846=CARTESIAN_POINT('Origin',(0.,34.225,8.));
#1847=CARTESIAN_POINT('Origin',(-7.5,38.225,8.));
#1848=CARTESIAN_POINT('',(-0.5,43.95,8.));
#1849=CARTESIAN_POINT('',(-0.5,36.78125,8.));
#1850=CARTESIAN_POINT('',(-14.5,43.95,8.));
#1851=CARTESIAN_POINT('',(7.9375,43.95,8.));
#1852=CARTESIAN_POINT('',(-14.5,36.78125,8.));
#1853=CARTESIAN_POINT('Origin',(-7.5,38.225,8.));
#1854=CARTESIAN_POINT('Origin',(7.9375,38.1,1.75));
#1855=CARTESIAN_POINT('',(10.5875,38.1,2.));
#1856=CARTESIAN_POINT('Origin',(7.9375,38.1,2.));
#1857=CARTESIAN_POINT('',(10.3375,38.1,1.75));
#1858=CARTESIAN_POINT('Origin',(10.5875,38.1,1.75));
#1859=CARTESIAN_POINT('',(5.5375,38.1,1.75));
#1860=CARTESIAN_POINT('Origin',(7.9375,38.1,1.75));
#1861=CARTESIAN_POINT('Origin',(7.9375,38.1,1.75));
#1862=CARTESIAN_POINT('Origin',(7.9375,38.1,0.));
#1863=CARTESIAN_POINT('',(5.5375,38.1,0.25));
#1864=CARTESIAN_POINT('',(5.5375,38.1,0.));
#1865=CARTESIAN_POINT('',(10.3375,38.1,0.25));
#1866=CARTESIAN_POINT('Origin',(7.9375,38.1,0.25));
#1867=CARTESIAN_POINT('Origin',(7.9375,38.1,0.25));
#1868=CARTESIAN_POINT('Origin',(7.9375,22.225,2.));
#1869=CARTESIAN_POINT('',(10.875,0.5,2.));
#1870=CARTESIAN_POINT('',(0.,0.499999999999998,2.));
#1871=CARTESIAN_POINT('',(3.96875,0.5,2.));
#1872=CARTESIAN_POINT('',(15.375,5.,2.));
#1873=CARTESIAN_POINT('Origin',(10.875,5.,2.));
#1874=CARTESIAN_POINT('',(15.375,39.45,2.));
#1875=CARTESIAN_POINT('',(15.375,11.1125,2.));
#1876=CARTESIAN_POINT('',(10.875,43.95,2.));
#1877=CARTESIAN_POINT('Origin',(10.875,39.45,2.));
#1878=CARTESIAN_POINT('',(0.,43.95,2.));
#1879=CARTESIAN_POINT('',(11.90625,43.95,2.));
#1880=CARTESIAN_POINT('',(0.,34.725,2.));
#1881=CARTESIAN_POINT('',(0.,44.45,2.));
#1882=CARTESIAN_POINT('Origin',(-0.5,34.725,2.));
#1883=CARTESIAN_POINT('',(0.5,33.3375,2.));
#1884=CARTESIAN_POINT('',(0.,9.725,2.));
#1885=CARTESIAN_POINT('Origin',(-0.5,9.725,2.));
#1886=CARTESIAN_POINT('',(0.,44.45,2.));
#1887=CARTESIAN_POINT('',(10.5875,6.35,2.));
#1888=CARTESIAN_POINT('Origin',(7.93749999999999,6.35,2.));
#1889=CARTESIAN_POINT('Origin',(7.9375,38.1,0.25));
#1890=CARTESIAN_POINT('',(10.5875,38.1,0.));
#1891=CARTESIAN_POINT('Origin',(10.5875,38.1,0.25));
#1892=CARTESIAN_POINT('Origin',(7.9375,38.1,0.));
#1893=CARTESIAN_POINT('Origin',(7.9375,22.225,0.));
#1894=CARTESIAN_POINT('',(10.875,43.95,0.));
#1895=CARTESIAN_POINT('',(-14.5,43.95,0.));
#1896=CARTESIAN_POINT('',(11.90625,43.95,0.));
#1897=CARTESIAN_POINT('',(15.375,39.45,0.));
#1898=CARTESIAN_POINT('Origin',(10.875,39.45,0.));
#1899=CARTESIAN_POINT('',(15.375,5.,0.));
#1900=CARTESIAN_POINT('',(15.375,11.1125,0.));
#1901=CARTESIAN_POINT('',(10.875,0.5,0.));
#1902=CARTESIAN_POINT('Origin',(10.875,5.,0.));
#1903=CARTESIAN_POINT('',(-14.5,0.5,0.));
#1904=CARTESIAN_POINT('',(3.96875,0.5,0.));
#1905=CARTESIAN_POINT('',(-14.5,9.725,0.));
#1906=CARTESIAN_POINT('',(-14.5,13.66875,0.));
#1907=CARTESIAN_POINT('',(0.5,9.725,0.));
#1908=CARTESIAN_POINT('',(3.96875,9.725,0.));
#1909=CARTESIAN_POINT('',(0.5,34.725,0.));
#1910=CARTESIAN_POINT('',(0.5,33.3375,0.));
#1911=CARTESIAN_POINT('',(-14.5,34.725,0.));
#1912=CARTESIAN_POINT('',(3.96875,34.725,0.));
#1913=CARTESIAN_POINT('',(-14.5,30.78125,0.));
#1914=CARTESIAN_POINT('',(10.5875,6.35,0.));
#1915=CARTESIAN_POINT('Origin',(7.93749999999999,6.35,0.));
#1916=CARTESIAN_POINT('Origin',(7.93749999999999,6.35,1.75));
#1917=CARTESIAN_POINT('',(10.3375,6.35,1.75));
#1918=CARTESIAN_POINT('Origin',(10.5875,6.35,1.75));
#1919=CARTESIAN_POINT('',(5.53749999999999,6.35,1.75));
#1920=CARTESIAN_POINT('Origin',(7.93749999999999,6.35,1.75));
#1921=CARTESIAN_POINT('Origin',(7.93749999999999,6.35,1.75));
#1922=CARTESIAN_POINT('Origin',(7.93749999999999,6.35,0.));
#1923=CARTESIAN_POINT('',(5.53749999999999,6.35,0.25));
#1924=CARTESIAN_POINT('',(5.53749999999999,6.35,0.));
#1925=CARTESIAN_POINT('',(10.3375,6.35,0.25));
#1926=CARTESIAN_POINT('Origin',(7.93749999999999,6.35,0.25));
#1927=CARTESIAN_POINT('Origin',(7.93749999999999,6.35,0.25));
#1928=CARTESIAN_POINT('Origin',(7.93749999999999,6.35,0.25));
#1929=CARTESIAN_POINT('Origin',(10.5875,6.35,0.25));
#1930=CARTESIAN_POINT('Origin',(0.5,33.3375,0.5));
#1931=CARTESIAN_POINT('',(0.,33.3375,0.5));
#1932=CARTESIAN_POINT('Origin',(0.5,34.725,0.5));
#1933=CARTESIAN_POINT('Origin',(0.5,9.725,0.5));
#1934=CARTESIAN_POINT('Origin',(-14.5,34.725,0.5));
#1935=CARTESIAN_POINT('',(-15.,34.725,0.5));
#1936=CARTESIAN_POINT('Origin',(-14.5,34.725,0.5));
#1937=CARTESIAN_POINT('Origin',(-14.5,34.725,0.5));
#1938=CARTESIAN_POINT('Origin',(-14.5,34.725,0.5));
#1939=CARTESIAN_POINT('Origin',(3.96875,34.725,0.5));
#1940=CARTESIAN_POINT('Origin',(-14.5,9.725,0.5));
#1941=CARTESIAN_POINT('',(-15.,9.725,0.5));
#1942=CARTESIAN_POINT('Origin',(-14.5,9.725,0.5));
#1943=CARTESIAN_POINT('Origin',(-14.5,9.725,0.5));
#1944=CARTESIAN_POINT('Origin',(-14.5,9.725,0.5));
#1945=CARTESIAN_POINT('Origin',(3.96875,9.725,0.5));
#1946=CARTESIAN_POINT('Origin',(-14.5,43.95,0.5));
#1947=CARTESIAN_POINT('',(-14.5,44.45,0.5));
#1948=CARTESIAN_POINT('',(-15.,43.95,0.5));
#1949=CARTESIAN_POINT('Origin',(-14.5,43.95,0.5));
#1950=CARTESIAN_POINT('Origin',(-14.5,43.95,0.5));
#1951=CARTESIAN_POINT('Origin',(-14.5,43.95,0.5));
#1952=CARTESIAN_POINT('Origin',(-14.5,9.725,6.));
#1953=CARTESIAN_POINT('',(-15.,9.725,7.5));
#1954=CARTESIAN_POINT('',(-15.,9.725,6.));
#1955=CARTESIAN_POINT('Origin',(-14.5,9.725,7.5));
#1956=CARTESIAN_POINT('Origin',(-14.5,0.5,0.5));
#1957=CARTESIAN_POINT('',(-15.,0.5,0.5));
#1958=CARTESIAN_POINT('Origin',(-14.5,0.5,0.5));
#1959=CARTESIAN_POINT('',(-14.5,0.,0.5));
#1960=CARTESIAN_POINT('Origin',(-14.5,0.5,0.5));
#1961=CARTESIAN_POINT('Origin',(-14.5,0.5,0.5));
#1962=CARTESIAN_POINT('Origin',(11.90625,43.95,0.5));
#1963=CARTESIAN_POINT('',(10.875,44.45,0.5));
#1964=CARTESIAN_POINT('Origin',(10.875,43.95,0.5));
#1965=CARTESIAN_POINT('',(11.90625,44.45,0.5));
#1966=CARTESIAN_POINT('Origin',(10.875,39.45,0.5));
#1967=CARTESIAN_POINT('',(15.875,39.45,0.5));
#1968=CARTESIAN_POINT('Origin',(15.375,39.45,0.5));
#1969=CARTESIAN_POINT('Origin',(10.875,39.45,0.5));
#1970=CARTESIAN_POINT('Origin',(15.375,11.1125,0.5));
#1971=CARTESIAN_POINT('',(15.875,5.,0.5));
#1972=CARTESIAN_POINT('Origin',(15.375,5.,0.5));
#1973=CARTESIAN_POINT('',(15.875,11.1125,0.5));
#1974=CARTESIAN_POINT('Origin',(10.875,5.,0.5));
#1975=CARTESIAN_POINT('',(10.875,0.,0.5));
#1976=CARTESIAN_POINT('Origin',(10.875,0.5,0.5));
#1977=CARTESIAN_POINT('Origin',(10.875,5.,0.5));
#1978=CARTESIAN_POINT('Origin',(3.96875,0.5,0.5));
#1979=CARTESIAN_POINT('',(3.96875,0.,0.5));
#1980=CARTESIAN_POINT('Origin',(-14.5,43.95,7.5));
#1981=CARTESIAN_POINT('',(-15.,43.95,7.5));
#1982=CARTESIAN_POINT('Origin',(-14.5,43.95,7.5));
#1983=CARTESIAN_POINT('',(-14.5,44.45,7.5));
#1984=CARTESIAN_POINT('Origin',(-14.5,43.95,7.5));
#1985=CARTESIAN_POINT('Origin',(-14.5,43.95,7.5));
#1986=CARTESIAN_POINT('Origin',(-0.5,34.725,2.));
#1987=CARTESIAN_POINT('',(0.,34.725,7.5));
#1988=CARTESIAN_POINT('',(0.,34.725,2.));
#1989=CARTESIAN_POINT('Origin',(-0.5,34.725,7.5));
#1990=CARTESIAN_POINT('Origin',(-0.5,9.725,6.));
#1991=CARTESIAN_POINT('',(0.,9.725,7.5));
#1992=CARTESIAN_POINT('',(0.,9.725,6.));
#1993=CARTESIAN_POINT('Origin',(-0.5,9.725,7.5));
#1994=CARTESIAN_POINT('Origin',(-14.5,0.5,7.5));
#1995=CARTESIAN_POINT('',(-14.5,1.40729369164674E-32,7.5));
#1996=CARTESIAN_POINT('',(-15.,0.5,7.5));
#1997=CARTESIAN_POINT('Origin',(-14.5,0.5,7.5));
#1998=CARTESIAN_POINT('Origin',(-14.5,0.5,7.5));
#1999=CARTESIAN_POINT('Origin',(-14.5,0.5,7.5));
#2000=CARTESIAN_POINT('Origin',(-0.5,43.95,7.5));
#2001=CARTESIAN_POINT('',(0.,43.95,7.5));
#2002=CARTESIAN_POINT('Origin',(-0.5,43.95,7.5));
#2003=CARTESIAN_POINT('',(-0.5,44.45,7.5));
#2004=CARTESIAN_POINT('Origin',(-0.5,43.95,7.5));
#2005=CARTESIAN_POINT('Origin',(-0.5,43.95,7.5));
#2006=CARTESIAN_POINT('Origin',(-0.5,0.5,7.5));
#2007=CARTESIAN_POINT('',(-0.5,0.,7.5));
#2008=CARTESIAN_POINT('Origin',(-0.5,0.5,7.5));
#2009=CARTESIAN_POINT('',(0.,0.5,7.5));
#2010=CARTESIAN_POINT('Origin',(-0.5,0.5,7.5));
#2011=CARTESIAN_POINT('Origin',(-0.5,0.5,7.5));
#2012=CARTESIAN_POINT('Origin',(-0.5,0.5,2.));
#2013=CARTESIAN_POINT('',(0.,0.5,2.));
#2014=CARTESIAN_POINT('',(-0.5,4.33713357554921E-33,1.5));
#2015=CARTESIAN_POINT('',(-0.5,0.,2.));
#2016=CARTESIAN_POINT('Origin',(-0.5,0.5,1.5));
#2017=CARTESIAN_POINT('Origin',(3.96875,0.5,1.5));
#2018=CARTESIAN_POINT('',(10.875,0.,1.5));
#2019=CARTESIAN_POINT('',(3.96875,0.,1.5));
#2020=CARTESIAN_POINT('Origin',(10.875,0.5,1.5));
#2021=CARTESIAN_POINT('Origin',(10.875,5.,1.5));
#2022=CARTESIAN_POINT('',(15.875,5.,1.5));
#2023=CARTESIAN_POINT('Origin',(15.375,5.,1.5));
#2024=CARTESIAN_POINT('Origin',(10.875,5.,1.5));
#2025=CARTESIAN_POINT('Origin',(15.375,11.1125,1.5));
#2026=CARTESIAN_POINT('',(15.875,39.45,1.5));
#2027=CARTESIAN_POINT('Origin',(15.375,39.45,1.5));
#2028=CARTESIAN_POINT('',(15.875,11.1125,1.5));
#2029=CARTESIAN_POINT('Origin',(10.875,39.45,1.5));
#2030=CARTESIAN_POINT('',(10.875,44.45,1.5));
#2031=CARTESIAN_POINT('Origin',(10.875,43.95,1.5));
#2032=CARTESIAN_POINT('Origin',(10.875,39.45,1.5));
#2033=CARTESIAN_POINT('Origin',(11.90625,43.95,1.5));
#2034=CARTESIAN_POINT('',(-0.5,44.45,1.5));
#2035=CARTESIAN_POINT('',(11.90625,44.45,1.5));
#2036=CARTESIAN_POINT('Origin',(-0.5,43.95,1.5));
#2037=CARTESIAN_POINT('Origin',(-0.5,43.95,2.));
#2038=CARTESIAN_POINT('',(-0.5,44.45,2.));
#2039=CARTESIAN_POINT('',(0.,43.95,2.));
#2040=CARTESIAN_POINT('Origin',(-0.5,2.55625,7.5));
#2041=CARTESIAN_POINT('',(0.,2.55625,7.5));
#2042=CARTESIAN_POINT('Origin',(4.85273686774737E-34,0.5,7.5));
#2043=CARTESIAN_POINT('',(0.,0.,7.5));
#2044=CARTESIAN_POINT('Origin',(7.9375,43.95,7.5));
#2045=CARTESIAN_POINT('',(7.9375,44.45,7.5));
#2046=CARTESIAN_POINT('Origin',(-0.5,36.78125,7.5));
#2047=CARTESIAN_POINT('',(0.,36.78125,7.5));
#2048=CARTESIAN_POINT('Origin',(-14.5,2.55625,7.5));
#2049=CARTESIAN_POINT('',(-15.,2.55625,7.5));
#2050=CARTESIAN_POINT('Origin',(-14.5,0.5,2.));
#2051=CARTESIAN_POINT('',(-15.,0.5,2.));
#2052=CARTESIAN_POINT('',(-14.5,0.,2.));
#2053=CARTESIAN_POINT('Origin',(-14.5,43.95,2.));
#2054=CARTESIAN_POINT('',(-15.,43.95,2.));
#2055=CARTESIAN_POINT('',(-14.5,44.45,2.));
#2056=CARTESIAN_POINT('Origin',(-14.5,36.78125,7.5));
#2057=CARTESIAN_POINT('',(-15.,34.725,7.5));
#2058=CARTESIAN_POINT('',(-15.,36.78125,7.5));
#2059=CARTESIAN_POINT('Origin',(-14.5,34.725,7.5));
#2060=CARTESIAN_POINT('Origin',(-14.5,13.66875,0.5));
#2061=CARTESIAN_POINT('',(-15.,13.66875,0.5));
#2062=CARTESIAN_POINT('Origin',(-14.5,34.725,2.));
#2063=CARTESIAN_POINT('',(-15.,34.725,2.));
#2064=CARTESIAN_POINT('Origin',(-14.5,30.78125,0.5));
#2065=CARTESIAN_POINT('',(-15.,30.78125,0.5));
#2066=CARTESIAN_POINT('Origin',(15.875,44.45,0.));
#2067=CARTESIAN_POINT('',(10.875,44.45,0.));
#2068=CARTESIAN_POINT('Origin',(0.,39.3375,4.));
#2069=CARTESIAN_POINT('Origin',(-15.,5.1125,4.));
#2070=CARTESIAN_POINT('Origin',(-15.,39.3375,4.));
#2071=CARTESIAN_POINT('Origin',(0.5,33.3375,1.5));
#2072=CARTESIAN_POINT('',(0.,33.3375,1.5));
#2073=CARTESIAN_POINT('Origin',(0.,44.45,0.));
#2074=CARTESIAN_POINT('Origin',(10.875,39.45,0.));
#2075=CARTESIAN_POINT('',(15.875,39.45,0.));
#2076=CARTESIAN_POINT('Origin',(10.875,5.,0.));
#2077=CARTESIAN_POINT('',(15.875,5.,0.));
#2078=CARTESIAN_POINT('',(10.875,0.,0.));
#2079=CARTESIAN_POINT('Origin',(0.,0.,0.));
#2080=CARTESIAN_POINT('Origin',(0.,5.1125,4.));
#2081=CARTESIAN_POINT('Origin',(15.875,-1.54074395550979E-32,0.));
#2082=UNCERTAINTY_MEASURE_WITH_UNIT(LENGTH_MEASURE(0.01),#2086,
'DISTANCE_ACCURACY_VALUE',
'Maximum model space distance between geometric entities at asserted c
onnectivities');
#2083=UNCERTAINTY_MEASURE_WITH_UNIT(LENGTH_MEASURE(0.01),#2086,
'DISTANCE_ACCURACY_VALUE',
'Maximum model space distance between geometric entities at asserted c
onnectivities');
#2084=(
GEOMETRIC_REPRESENTATION_CONTEXT(3)
GLOBAL_UNCERTAINTY_ASSIGNED_CONTEXT((#2082))
GLOBAL_UNIT_ASSIGNED_CONTEXT((#2086,#2088,#2089))
REPRESENTATION_CONTEXT('','3D')
);
#2085=(
GEOMETRIC_REPRESENTATION_CONTEXT(3)
GLOBAL_UNCERTAINTY_ASSIGNED_CONTEXT((#2083))
GLOBAL_UNIT_ASSIGNED_CONTEXT((#2086,#2088,#2089))
REPRESENTATION_CONTEXT('','3D')
);
#2086=(
LENGTH_UNIT()
NAMED_UNIT(*)
SI_UNIT(.MILLI.,.METRE.)
);
#2087=(
LENGTH_UNIT()
NAMED_UNIT(*)
SI_UNIT($,.METRE.)
);
#2088=(
NAMED_UNIT(*)
PLANE_ANGLE_UNIT()
SI_UNIT($,.RADIAN.)
);
#2089=(
NAMED_UNIT(*)
SI_UNIT($,.STERADIAN.)
SOLID_ANGLE_UNIT()
);
#2090=SHAPE_DEFINITION_REPRESENTATION(#2091,#2092);
#2091=PRODUCT_DEFINITION_SHAPE('',$,#2094);
#2092=SHAPE_REPRESENTATION('',(#1198),#2084);
#2093=PRODUCT_DEFINITION_CONTEXT('part definition',#2098,'design');
#2094=PRODUCT_DEFINITION('2026-08-22-19-03-53-141','(Unsaved)',#2095,#2093);
#2095=PRODUCT_DEFINITION_FORMATION('',$,#2100);
#2096=PRODUCT_RELATED_PRODUCT_CATEGORY('(Unsaved)','(Unsaved)',(#2100));
#2097=APPLICATION_PROTOCOL_DEFINITION('international standard',
'automotive_design',2009,#2098);
#2098=APPLICATION_CONTEXT(
'Core Data for Automotive Mechanical Design Process');
#2099=PRODUCT_CONTEXT('part definition',#2098,'mechanical');
#2100=PRODUCT('2026-08-22-19-03-53-141','(Unsaved)',$,(#2099));
#2101=PRESENTATION_STYLE_ASSIGNMENT((#2102));
#2102=SURFACE_STYLE_USAGE(.BOTH.,#2103);
#2103=SURFACE_SIDE_STYLE('',(#2104));
#2104=SURFACE_STYLE_FILL_AREA(#2105);
#2105=FILL_AREA_STYLE('Steel - Satin',(#2106));
#2106=FILL_AREA_STYLE_COLOUR('Steel - Satin',#2107);
#2107=COLOUR_RGB('Steel - Satin',0.627450980392157,0.627450980392157,0.627450980392157);
ENDSEC;
END-ISO-10303-21;
