ISO-10303-21;
HEADER;
/* Generated by software containing ST-Developer
 * from STEP Tools, Inc. (www.steptools.com) 
 */

FILE_DESCRIPTION(
/* description */ (''),
/* implementation_level */ '2;1');

FILE_NAME(
/* name */ 'rear_ear_v2_nuttrap.step',
/* time_stamp */ '2026-08-26T07:13:47-05:00',
/* author */ (''),
/* organization */ (''),
/* preprocessor_version */ 'ST-DEVELOPER v20.1',
/* originating_system */ 'Autodesk Translation Framework v15.8.0.0',
/* authorisation */ '');

FILE_SCHEMA (('AUTOMOTIVE_DESIGN { 1 0 10303 214 3 1 1 }'));
ENDSEC;

DATA;
#10=MECHANICAL_DESIGN_GEOMETRIC_PRESENTATION_REPRESENTATION('',(#13),#2177);
#11=SHAPE_REPRESENTATION_RELATIONSHIP('SRR','None',#2184,#12);
#12=ADVANCED_BREP_SHAPE_REPRESENTATION('',(#14),#2176);
#13=STYLED_ITEM('',(#2193),#14);
#14=MANIFOLD_SOLID_BREP('Rear Ear v2',#1341);
#15=CYLINDRICAL_SURFACE('',#1362,1.7);
#16=CYLINDRICAL_SURFACE('',#1364,1.7);
#17=CYLINDRICAL_SURFACE('',#1374,1.7);
#18=CYLINDRICAL_SURFACE('',#1376,1.7);
#19=CYLINDRICAL_SURFACE('',#1423,4.);
#20=CYLINDRICAL_SURFACE('',#1434,4.);
#21=CYLINDRICAL_SURFACE('',#1435,5.);
#22=CYLINDRICAL_SURFACE('',#1437,5.);
#23=CYLINDRICAL_SURFACE('',#1441,2.4);
#24=CYLINDRICAL_SURFACE('',#1443,2.4);
#25=FACE_BOUND('',#131,.T.);
#26=FACE_BOUND('',#133,.T.);
#27=FACE_BOUND('',#141,.T.);
#28=FACE_BOUND('',#143,.T.);
#29=FACE_BOUND('',#154,.T.);
#30=FACE_BOUND('',#155,.T.);
#31=FACE_BOUND('',#168,.T.);
#32=FACE_BOUND('',#169,.T.);
#33=FACE_BOUND('',#195,.T.);
#34=FACE_BOUND('',#196,.T.);
#35=FACE_BOUND('',#207,.T.);
#36=FACE_BOUND('',#208,.T.);
#37=CIRCLE('',#1357,1.7);
#38=CIRCLE('',#1359,1.7);
#39=CIRCLE('',#1363,1.7);
#40=CIRCLE('',#1365,1.7);
#41=CIRCLE('',#1369,1.7);
#42=CIRCLE('',#1371,1.7);
#43=CIRCLE('',#1375,1.7);
#44=CIRCLE('',#1377,1.7);
#45=CIRCLE('',#1384,5.);
#46=CIRCLE('',#1385,5.);
#47=CIRCLE('',#1386,4.);
#48=CIRCLE('',#1387,4.);
#49=CIRCLE('',#1388,4.);
#50=CIRCLE('',#1389,4.);
#51=CIRCLE('',#1390,2.4);
#52=CIRCLE('',#1391,2.4);
#53=CIRCLE('',#1424,4.);
#54=CIRCLE('',#1425,4.);
#55=CIRCLE('',#1429,4.);
#56=CIRCLE('',#1433,4.);
#57=CIRCLE('',#1436,5.);
#58=CIRCLE('',#1438,5.);
#59=CIRCLE('',#1442,2.4);
#60=CIRCLE('',#1444,2.4);
#61=FACE_OUTER_BOUND('',#129,.T.);
#62=FACE_OUTER_BOUND('',#130,.T.);
#63=FACE_OUTER_BOUND('',#132,.T.);
#64=FACE_OUTER_BOUND('',#134,.T.);
#65=FACE_OUTER_BOUND('',#135,.T.);
#66=FACE_OUTER_BOUND('',#136,.T.);
#67=FACE_OUTER_BOUND('',#137,.T.);
#68=FACE_OUTER_BOUND('',#138,.T.);
#69=FACE_OUTER_BOUND('',#139,.T.);
#70=FACE_OUTER_BOUND('',#140,.T.);
#71=FACE_OUTER_BOUND('',#142,.T.);
#72=FACE_OUTER_BOUND('',#144,.T.);
#73=FACE_OUTER_BOUND('',#145,.T.);
#74=FACE_OUTER_BOUND('',#146,.T.);
#75=FACE_OUTER_BOUND('',#147,.T.);
#76=FACE_OUTER_BOUND('',#148,.T.);
#77=FACE_OUTER_BOUND('',#149,.T.);
#78=FACE_OUTER_BOUND('',#150,.T.);
#79=FACE_OUTER_BOUND('',#151,.T.);
#80=FACE_OUTER_BOUND('',#152,.T.);
#81=FACE_OUTER_BOUND('',#153,.T.);
#82=FACE_OUTER_BOUND('',#156,.T.);
#83=FACE_OUTER_BOUND('',#157,.T.);
#84=FACE_OUTER_BOUND('',#158,.T.);
#85=FACE_OUTER_BOUND('',#159,.T.);
#86=FACE_OUTER_BOUND('',#160,.T.);
#87=FACE_OUTER_BOUND('',#161,.T.);
#88=FACE_OUTER_BOUND('',#162,.T.);
#89=FACE_OUTER_BOUND('',#163,.T.);
#90=FACE_OUTER_BOUND('',#164,.T.);
#91=FACE_OUTER_BOUND('',#165,.T.);
#92=FACE_OUTER_BOUND('',#166,.T.);
#93=FACE_OUTER_BOUND('',#167,.T.);
#94=FACE_OUTER_BOUND('',#170,.T.);
#95=FACE_OUTER_BOUND('',#171,.T.);
#96=FACE_OUTER_BOUND('',#172,.T.);
#97=FACE_OUTER_BOUND('',#173,.T.);
#98=FACE_OUTER_BOUND('',#174,.T.);
#99=FACE_OUTER_BOUND('',#175,.T.);
#100=FACE_OUTER_BOUND('',#176,.T.);
#101=FACE_OUTER_BOUND('',#177,.T.);
#102=FACE_OUTER_BOUND('',#178,.T.);
#103=FACE_OUTER_BOUND('',#179,.T.);
#104=FACE_OUTER_BOUND('',#180,.T.);
#105=FACE_OUTER_BOUND('',#181,.T.);
#106=FACE_OUTER_BOUND('',#182,.T.);
#107=FACE_OUTER_BOUND('',#183,.T.);
#108=FACE_OUTER_BOUND('',#184,.T.);
#109=FACE_OUTER_BOUND('',#185,.T.);
#110=FACE_OUTER_BOUND('',#186,.T.);
#111=FACE_OUTER_BOUND('',#187,.T.);
#112=FACE_OUTER_BOUND('',#188,.T.);
#113=FACE_OUTER_BOUND('',#189,.T.);
#114=FACE_OUTER_BOUND('',#190,.T.);
#115=FACE_OUTER_BOUND('',#191,.T.);
#116=FACE_OUTER_BOUND('',#192,.T.);
#117=FACE_OUTER_BOUND('',#193,.T.);
#118=FACE_OUTER_BOUND('',#194,.T.);
#119=FACE_OUTER_BOUND('',#197,.T.);
#120=FACE_OUTER_BOUND('',#198,.T.);
#121=FACE_OUTER_BOUND('',#199,.T.);
#122=FACE_OUTER_BOUND('',#200,.T.);
#123=FACE_OUTER_BOUND('',#201,.T.);
#124=FACE_OUTER_BOUND('',#202,.T.);
#125=FACE_OUTER_BOUND('',#203,.T.);
#126=FACE_OUTER_BOUND('',#204,.T.);
#127=FACE_OUTER_BOUND('',#205,.T.);
#128=FACE_OUTER_BOUND('',#206,.T.);
#129=EDGE_LOOP('',(#843,#844,#845,#846));
#130=EDGE_LOOP('',(#847,#848,#849,#850));
#131=EDGE_LOOP('',(#851));
#132=EDGE_LOOP('',(#852,#853,#854,#855));
#133=EDGE_LOOP('',(#856));
#134=EDGE_LOOP('',(#857,#858,#859,#860));
#135=EDGE_LOOP('',(#861,#862,#863,#864));
#136=EDGE_LOOP('',(#865,#866,#867,#868));
#137=EDGE_LOOP('',(#869,#870,#871,#872));
#138=EDGE_LOOP('',(#873));
#139=EDGE_LOOP('',(#874,#875,#876,#877));
#140=EDGE_LOOP('',(#878,#879,#880,#881));
#141=EDGE_LOOP('',(#882));
#142=EDGE_LOOP('',(#883,#884,#885,#886));
#143=EDGE_LOOP('',(#887));
#144=EDGE_LOOP('',(#888,#889,#890,#891));
#145=EDGE_LOOP('',(#892,#893,#894,#895));
#146=EDGE_LOOP('',(#896,#897,#898,#899));
#147=EDGE_LOOP('',(#900,#901,#902,#903));
#148=EDGE_LOOP('',(#904));
#149=EDGE_LOOP('',(#905,#906,#907,#908));
#150=EDGE_LOOP('',(#909,#910,#911,#912,#913,#914));
#151=EDGE_LOOP('',(#915,#916,#917,#918));
#152=EDGE_LOOP('',(#919,#920,#921,#922,#923,#924));
#153=EDGE_LOOP('',(#925,#926,#927,#928,#929,#930,#931,#932,#933,#934,#935,
#936,#937,#938,#939,#940,#941,#942,#943,#944,#945,#946,#947,#948,#949,#950,
#951,#952,#953,#954,#955,#956,#957,#958,#959,#960,#961,#962,#963,#964));
#154=EDGE_LOOP('',(#965));
#155=EDGE_LOOP('',(#966));
#156=EDGE_LOOP('',(#967,#968,#969,#970));
#157=EDGE_LOOP('',(#971,#972,#973,#974));
#158=EDGE_LOOP('',(#975,#976,#977,#978));
#159=EDGE_LOOP('',(#979,#980,#981,#982));
#160=EDGE_LOOP('',(#983,#984,#985,#986,#987,#988));
#161=EDGE_LOOP('',(#989,#990,#991,#992));
#162=EDGE_LOOP('',(#993,#994,#995,#996,#997,#998));
#163=EDGE_LOOP('',(#999,#1000,#1001,#1002));
#164=EDGE_LOOP('',(#1003,#1004,#1005,#1006));
#165=EDGE_LOOP('',(#1007,#1008,#1009,#1010));
#166=EDGE_LOOP('',(#1011,#1012,#1013,#1014));
#167=EDGE_LOOP('',(#1015,#1016,#1017,#1018,#1019,#1020,#1021,#1022,#1023,
#1024,#1025,#1026,#1027,#1028,#1029,#1030,#1031,#1032,#1033,#1034));
#168=EDGE_LOOP('',(#1035,#1036,#1037,#1038));
#169=EDGE_LOOP('',(#1039,#1040,#1041,#1042));
#170=EDGE_LOOP('',(#1043,#1044,#1045,#1046));
#171=EDGE_LOOP('',(#1047,#1048,#1049,#1050));
#172=EDGE_LOOP('',(#1051,#1052,#1053,#1054));
#173=EDGE_LOOP('',(#1055,#1056,#1057,#1058));
#174=EDGE_LOOP('',(#1059,#1060,#1061,#1062));
#175=EDGE_LOOP('',(#1063,#1064,#1065,#1066));
#176=EDGE_LOOP('',(#1067,#1068,#1069,#1070));
#177=EDGE_LOOP('',(#1071,#1072,#1073,#1074,#1075,#1076,#1077,#1078));
#178=EDGE_LOOP('',(#1079,#1080,#1081,#1082));
#179=EDGE_LOOP('',(#1083,#1084,#1085,#1086,#1087,#1088,#1089,#1090));
#180=EDGE_LOOP('',(#1091,#1092,#1093,#1094,#1095,#1096,#1097,#1098));
#181=EDGE_LOOP('',(#1099,#1100,#1101,#1102));
#182=EDGE_LOOP('',(#1103,#1104,#1105,#1106));
#183=EDGE_LOOP('',(#1107,#1108,#1109,#1110));
#184=EDGE_LOOP('',(#1111,#1112,#1113,#1114));
#185=EDGE_LOOP('',(#1115,#1116,#1117,#1118));
#186=EDGE_LOOP('',(#1119,#1120,#1121,#1122));
#187=EDGE_LOOP('',(#1123,#1124,#1125,#1126));
#188=EDGE_LOOP('',(#1127,#1128,#1129,#1130));
#189=EDGE_LOOP('',(#1131,#1132,#1133,#1134,#1135,#1136,#1137,#1138));
#190=EDGE_LOOP('',(#1139,#1140,#1141,#1142));
#191=EDGE_LOOP('',(#1143,#1144,#1145,#1146));
#192=EDGE_LOOP('',(#1147));
#193=EDGE_LOOP('',(#1148));
#194=EDGE_LOOP('',(#1149,#1150,#1151,#1152));
#195=EDGE_LOOP('',(#1153));
#196=EDGE_LOOP('',(#1154));
#197=EDGE_LOOP('',(#1155,#1156,#1157,#1158,#1159,#1160,#1161,#1162,#1163,
#1164,#1165,#1166,#1167,#1168,#1169,#1170));
#198=EDGE_LOOP('',(#1171,#1172,#1173,#1174,#1175,#1176,#1177,#1178));
#199=EDGE_LOOP('',(#1179,#1180,#1181,#1182));
#200=EDGE_LOOP('',(#1183,#1184,#1185,#1186));
#201=EDGE_LOOP('',(#1187,#1188,#1189,#1190));
#202=EDGE_LOOP('',(#1191,#1192,#1193,#1194));
#203=EDGE_LOOP('',(#1195,#1196,#1197,#1198));
#204=EDGE_LOOP('',(#1199,#1200,#1201,#1202));
#205=EDGE_LOOP('',(#1203,#1204,#1205,#1206));
#206=EDGE_LOOP('',(#1207,#1208,#1209,#1210,#1211,#1212));
#207=EDGE_LOOP('',(#1213));
#208=EDGE_LOOP('',(#1214));
#209=LINE('',#1799,#371);
#210=LINE('',#1801,#372);
#211=LINE('',#1803,#373);
#212=LINE('',#1804,#374);
#213=LINE('',#1807,#375);
#214=LINE('',#1809,#376);
#215=LINE('',#1810,#377);
#216=LINE('',#1815,#378);
#217=LINE('',#1817,#379);
#218=LINE('',#1818,#380);
#219=LINE('',#1822,#381);
#220=LINE('',#1823,#382);
#221=LINE('',#1828,#383);
#222=LINE('',#1831,#384);
#223=LINE('',#1837,#385);
#224=LINE('',#1839,#386);
#225=LINE('',#1841,#387);
#226=LINE('',#1842,#388);
#227=LINE('',#1845,#389);
#228=LINE('',#1847,#390);
#229=LINE('',#1848,#391);
#230=LINE('',#1853,#392);
#231=LINE('',#1855,#393);
#232=LINE('',#1856,#394);
#233=LINE('',#1860,#395);
#234=LINE('',#1861,#396);
#235=LINE('',#1866,#397);
#236=LINE('',#1869,#398);
#237=LINE('',#1875,#399);
#238=LINE('',#1877,#400);
#239=LINE('',#1879,#401);
#240=LINE('',#1880,#402);
#241=LINE('',#1883,#403);
#242=LINE('',#1885,#404);
#243=LINE('',#1887,#405);
#244=LINE('',#1889,#406);
#245=LINE('',#1890,#407);
#246=LINE('',#1893,#408);
#247=LINE('',#1894,#409);
#248=LINE('',#1897,#410);
#249=LINE('',#1899,#411);
#250=LINE('',#1901,#412);
#251=LINE('',#1902,#413);
#252=LINE('',#1905,#414);
#253=LINE('',#1907,#415);
#254=LINE('',#1911,#416);
#255=LINE('',#1915,#417);
#256=LINE('',#1917,#418);
#257=LINE('',#1919,#419);
#258=LINE('',#1921,#420);
#259=LINE('',#1923,#421);
#260=LINE('',#1925,#422);
#261=LINE('',#1927,#423);
#262=LINE('',#1929,#424);
#263=LINE('',#1931,#425);
#264=LINE('',#1933,#426);
#265=LINE('',#1935,#427);
#266=LINE('',#1941,#428);
#267=LINE('',#1943,#429);
#268=LINE('',#1945,#430);
#269=LINE('',#1947,#431);
#270=LINE('',#1949,#432);
#271=LINE('',#1951,#433);
#272=LINE('',#1953,#434);
#273=LINE('',#1955,#435);
#274=LINE('',#1957,#436);
#275=LINE('',#1959,#437);
#276=LINE('',#1961,#438);
#277=LINE('',#1967,#439);
#278=LINE('',#1969,#440);
#279=LINE('',#1971,#441);
#280=LINE('',#1973,#442);
#281=LINE('',#1975,#443);
#282=LINE('',#1976,#444);
#283=LINE('',#1983,#445);
#284=LINE('',#1984,#446);
#285=LINE('',#1987,#447);
#286=LINE('',#1988,#448);
#287=LINE('',#1991,#449);
#288=LINE('',#1992,#450);
#289=LINE('',#1995,#451);
#290=LINE('',#1997,#452);
#291=LINE('',#1998,#453);
#292=LINE('',#2001,#454);
#293=LINE('',#2003,#455);
#294=LINE('',#2005,#456);
#295=LINE('',#2006,#457);
#296=LINE('',#2009,#458);
#297=LINE('',#2010,#459);
#298=LINE('',#2013,#460);
#299=LINE('',#2015,#461);
#300=LINE('',#2016,#462);
#301=LINE('',#2019,#463);
#302=LINE('',#2020,#464);
#303=LINE('',#2023,#465);
#304=LINE('',#2024,#466);
#305=LINE('',#2027,#467);
#306=LINE('',#2028,#468);
#307=LINE('',#2030,#469);
#308=LINE('',#2033,#470);
#309=LINE('',#2035,#471);
#310=LINE('',#2036,#472);
#311=LINE('',#2037,#473);
#312=LINE('',#2039,#474);
#313=LINE('',#2041,#475);
#314=LINE('',#2043,#476);
#315=LINE('',#2044,#477);
#316=LINE('',#2047,#478);
#317=LINE('',#2048,#479);
#318=LINE('',#2050,#480);
#319=LINE('',#2054,#481);
#320=LINE('',#2056,#482);
#321=LINE('',#2057,#483);
#322=LINE('',#2060,#484);
#323=LINE('',#2061,#485);
#324=LINE('',#2064,#486);
#325=LINE('',#2065,#487);
#326=LINE('',#2067,#488);
#327=LINE('',#2070,#489);
#328=LINE('',#2072,#490);
#329=LINE('',#2073,#491);
#330=LINE('',#2077,#492);
#331=LINE('',#2079,#493);
#332=LINE('',#2081,#494);
#333=LINE('',#2082,#495);
#334=LINE('',#2085,#496);
#335=LINE('',#2086,#497);
#336=LINE('',#2087,#498);
#337=LINE('',#2090,#499);
#338=LINE('',#2091,#500);
#339=LINE('',#2092,#501);
#340=LINE('',#2095,#502);
#341=LINE('',#2097,#503);
#342=LINE('',#2098,#504);
#343=LINE('',#2101,#505);
#344=LINE('',#2103,#506);
#345=LINE('',#2104,#507);
#346=LINE('',#2107,#508);
#347=LINE('',#2109,#509);
#348=LINE('',#2110,#510);
#349=LINE('',#2113,#511);
#350=LINE('',#2115,#512);
#351=LINE('',#2116,#513);
#352=LINE('',#2119,#514);
#353=LINE('',#2120,#515);
#354=LINE('',#2123,#516);
#355=LINE('',#2124,#517);
#356=LINE('',#2127,#518);
#357=LINE('',#2128,#519);
#358=LINE('',#2131,#520);
#359=LINE('',#2132,#521);
#360=LINE('',#2136,#522);
#361=LINE('',#2139,#523);
#362=LINE('',#2141,#524);
#363=LINE('',#2148,#525);
#364=LINE('',#2150,#526);
#365=LINE('',#2152,#527);
#366=LINE('',#2156,#528);
#367=LINE('',#2160,#529);
#368=LINE('',#2166,#530);
#369=LINE('',#2170,#531);
#370=LINE('',#2172,#532);
#371=VECTOR('',#1451,10.);
#372=VECTOR('',#1452,10.);
#373=VECTOR('',#1453,10.);
#374=VECTOR('',#1454,10.);
#375=VECTOR('',#1457,10.);
#376=VECTOR('',#1458,10.);
#377=VECTOR('',#1459,10.);
#378=VECTOR('',#1464,10.);
#379=VECTOR('',#1465,10.);
#380=VECTOR('',#1466,10.);
#381=VECTOR('',#1471,10.);
#382=VECTOR('',#1472,10.);
#383=VECTOR('',#1479,1.7);
#384=VECTOR('',#1482,1.7);
#385=VECTOR('',#1489,10.);
#386=VECTOR('',#1490,10.);
#387=VECTOR('',#1491,10.);
#388=VECTOR('',#1492,10.);
#389=VECTOR('',#1495,10.);
#390=VECTOR('',#1496,10.);
#391=VECTOR('',#1497,10.);
#392=VECTOR('',#1502,10.);
#393=VECTOR('',#1503,10.);
#394=VECTOR('',#1504,10.);
#395=VECTOR('',#1509,10.);
#396=VECTOR('',#1510,10.);
#397=VECTOR('',#1517,1.7);
#398=VECTOR('',#1520,1.7);
#399=VECTOR('',#1527,10.);
#400=VECTOR('',#1528,10.);
#401=VECTOR('',#1529,10.);
#402=VECTOR('',#1530,10.);
#403=VECTOR('',#1533,10.);
#404=VECTOR('',#1534,10.);
#405=VECTOR('',#1535,10.);
#406=VECTOR('',#1536,10.);
#407=VECTOR('',#1537,10.);
#408=VECTOR('',#1540,10.);
#409=VECTOR('',#1541,10.);
#410=VECTOR('',#1544,10.);
#411=VECTOR('',#1545,10.);
#412=VECTOR('',#1546,10.);
#413=VECTOR('',#1547,10.);
#414=VECTOR('',#1550,10.);
#415=VECTOR('',#1551,10.);
#416=VECTOR('',#1554,10.);
#417=VECTOR('',#1557,10.);
#418=VECTOR('',#1558,10.);
#419=VECTOR('',#1559,10.);
#420=VECTOR('',#1560,10.);
#421=VECTOR('',#1561,10.);
#422=VECTOR('',#1562,10.);
#423=VECTOR('',#1563,10.);
#424=VECTOR('',#1564,10.);
#425=VECTOR('',#1565,10.);
#426=VECTOR('',#1566,10.);
#427=VECTOR('',#1567,10.);
#428=VECTOR('',#1572,10.);
#429=VECTOR('',#1573,10.);
#430=VECTOR('',#1574,10.);
#431=VECTOR('',#1575,10.);
#432=VECTOR('',#1576,10.);
#433=VECTOR('',#1577,10.);
#434=VECTOR('',#1578,10.);
#435=VECTOR('',#1579,10.);
#436=VECTOR('',#1580,10.);
#437=VECTOR('',#1581,10.);
#438=VECTOR('',#1582,10.);
#439=VECTOR('',#1587,10.);
#440=VECTOR('',#1588,10.);
#441=VECTOR('',#1589,10.);
#442=VECTOR('',#1590,10.);
#443=VECTOR('',#1591,10.);
#444=VECTOR('',#1592,10.);
#445=VECTOR('',#1599,10.);
#446=VECTOR('',#1600,10.);
#447=VECTOR('',#1603,10.);
#448=VECTOR('',#1604,10.);
#449=VECTOR('',#1607,10.);
#450=VECTOR('',#1608,10.);
#451=VECTOR('',#1611,10.);
#452=VECTOR('',#1612,10.);
#453=VECTOR('',#1613,10.);
#454=VECTOR('',#1616,10.);
#455=VECTOR('',#1617,10.);
#456=VECTOR('',#1618,10.);
#457=VECTOR('',#1619,10.);
#458=VECTOR('',#1622,10.);
#459=VECTOR('',#1623,10.);
#460=VECTOR('',#1626,10.);
#461=VECTOR('',#1627,10.);
#462=VECTOR('',#1628,10.);
#463=VECTOR('',#1631,10.);
#464=VECTOR('',#1632,10.);
#465=VECTOR('',#1635,10.);
#466=VECTOR('',#1636,10.);
#467=VECTOR('',#1639,10.);
#468=VECTOR('',#1640,10.);
#469=VECTOR('',#1643,10.);
#470=VECTOR('',#1646,10.);
#471=VECTOR('',#1647,10.);
#472=VECTOR('',#1648,10.);
#473=VECTOR('',#1649,10.);
#474=VECTOR('',#1650,10.);
#475=VECTOR('',#1651,10.);
#476=VECTOR('',#1652,10.);
#477=VECTOR('',#1653,10.);
#478=VECTOR('',#1656,10.);
#479=VECTOR('',#1657,10.);
#480=VECTOR('',#1660,10.);
#481=VECTOR('',#1665,10.);
#482=VECTOR('',#1666,10.);
#483=VECTOR('',#1667,10.);
#484=VECTOR('',#1670,10.);
#485=VECTOR('',#1671,10.);
#486=VECTOR('',#1674,10.);
#487=VECTOR('',#1675,10.);
#488=VECTOR('',#1678,10.);
#489=VECTOR('',#1681,10.);
#490=VECTOR('',#1682,10.);
#491=VECTOR('',#1683,10.);
#492=VECTOR('',#1686,10.);
#493=VECTOR('',#1687,10.);
#494=VECTOR('',#1688,10.);
#495=VECTOR('',#1689,10.);
#496=VECTOR('',#1692,10.);
#497=VECTOR('',#1693,10.);
#498=VECTOR('',#1694,10.);
#499=VECTOR('',#1697,10.);
#500=VECTOR('',#1698,10.);
#501=VECTOR('',#1699,10.);
#502=VECTOR('',#1702,10.);
#503=VECTOR('',#1703,10.);
#504=VECTOR('',#1704,10.);
#505=VECTOR('',#1707,10.);
#506=VECTOR('',#1708,10.);
#507=VECTOR('',#1709,10.);
#508=VECTOR('',#1712,10.);
#509=VECTOR('',#1713,10.);
#510=VECTOR('',#1714,10.);
#511=VECTOR('',#1717,10.);
#512=VECTOR('',#1718,10.);
#513=VECTOR('',#1719,10.);
#514=VECTOR('',#1722,10.);
#515=VECTOR('',#1723,10.);
#516=VECTOR('',#1726,10.);
#517=VECTOR('',#1727,10.);
#518=VECTOR('',#1730,10.);
#519=VECTOR('',#1731,10.);
#520=VECTOR('',#1734,10.);
#521=VECTOR('',#1735,10.);
#522=VECTOR('',#1740,4.);
#523=VECTOR('',#1745,10.);
#524=VECTOR('',#1748,10.);
#525=VECTOR('',#1759,10.);
#526=VECTOR('',#1762,10.);
#527=VECTOR('',#1765,4.);
#528=VECTOR('',#1770,10.);
#529=VECTOR('',#1775,10.);
#530=VECTOR('',#1784,2.4);
#531=VECTOR('',#1789,2.4);
#532=VECTOR('',#1792,10.);
#533=VERTEX_POINT('',#1797);
#534=VERTEX_POINT('',#1798);
#535=VERTEX_POINT('',#1800);
#536=VERTEX_POINT('',#1802);
#537=VERTEX_POINT('',#1806);
#538=VERTEX_POINT('',#1808);
#539=VERTEX_POINT('',#1811);
#540=VERTEX_POINT('',#1814);
#541=VERTEX_POINT('',#1816);
#542=VERTEX_POINT('',#1819);
#543=VERTEX_POINT('',#1826);
#544=VERTEX_POINT('',#1830);
#545=VERTEX_POINT('',#1835);
#546=VERTEX_POINT('',#1836);
#547=VERTEX_POINT('',#1838);
#548=VERTEX_POINT('',#1840);
#549=VERTEX_POINT('',#1844);
#550=VERTEX_POINT('',#1846);
#551=VERTEX_POINT('',#1849);
#552=VERTEX_POINT('',#1852);
#553=VERTEX_POINT('',#1854);
#554=VERTEX_POINT('',#1857);
#555=VERTEX_POINT('',#1864);
#556=VERTEX_POINT('',#1868);
#557=VERTEX_POINT('',#1873);
#558=VERTEX_POINT('',#1874);
#559=VERTEX_POINT('',#1876);
#560=VERTEX_POINT('',#1878);
#561=VERTEX_POINT('',#1882);
#562=VERTEX_POINT('',#1884);
#563=VERTEX_POINT('',#1886);
#564=VERTEX_POINT('',#1888);
#565=VERTEX_POINT('',#1892);
#566=VERTEX_POINT('',#1896);
#567=VERTEX_POINT('',#1898);
#568=VERTEX_POINT('',#1900);
#569=VERTEX_POINT('',#1904);
#570=VERTEX_POINT('',#1906);
#571=VERTEX_POINT('',#1908);
#572=VERTEX_POINT('',#1910);
#573=VERTEX_POINT('',#1912);
#574=VERTEX_POINT('',#1914);
#575=VERTEX_POINT('',#1916);
#576=VERTEX_POINT('',#1918);
#577=VERTEX_POINT('',#1920);
#578=VERTEX_POINT('',#1922);
#579=VERTEX_POINT('',#1924);
#580=VERTEX_POINT('',#1926);
#581=VERTEX_POINT('',#1928);
#582=VERTEX_POINT('',#1930);
#583=VERTEX_POINT('',#1932);
#584=VERTEX_POINT('',#1934);
#585=VERTEX_POINT('',#1936);
#586=VERTEX_POINT('',#1938);
#587=VERTEX_POINT('',#1940);
#588=VERTEX_POINT('',#1942);
#589=VERTEX_POINT('',#1944);
#590=VERTEX_POINT('',#1946);
#591=VERTEX_POINT('',#1948);
#592=VERTEX_POINT('',#1950);
#593=VERTEX_POINT('',#1952);
#594=VERTEX_POINT('',#1954);
#595=VERTEX_POINT('',#1956);
#596=VERTEX_POINT('',#1958);
#597=VERTEX_POINT('',#1960);
#598=VERTEX_POINT('',#1962);
#599=VERTEX_POINT('',#1964);
#600=VERTEX_POINT('',#1966);
#601=VERTEX_POINT('',#1968);
#602=VERTEX_POINT('',#1970);
#603=VERTEX_POINT('',#1972);
#604=VERTEX_POINT('',#1974);
#605=VERTEX_POINT('',#1977);
#606=VERTEX_POINT('',#1979);
#607=VERTEX_POINT('',#1982);
#608=VERTEX_POINT('',#1986);
#609=VERTEX_POINT('',#1990);
#610=VERTEX_POINT('',#1994);
#611=VERTEX_POINT('',#1996);
#612=VERTEX_POINT('',#2000);
#613=VERTEX_POINT('',#2002);
#614=VERTEX_POINT('',#2004);
#615=VERTEX_POINT('',#2008);
#616=VERTEX_POINT('',#2012);
#617=VERTEX_POINT('',#2014);
#618=VERTEX_POINT('',#2018);
#619=VERTEX_POINT('',#2022);
#620=VERTEX_POINT('',#2026);
#621=VERTEX_POINT('',#2032);
#622=VERTEX_POINT('',#2034);
#623=VERTEX_POINT('',#2038);
#624=VERTEX_POINT('',#2040);
#625=VERTEX_POINT('',#2042);
#626=VERTEX_POINT('',#2046);
#627=VERTEX_POINT('',#2053);
#628=VERTEX_POINT('',#2055);
#629=VERTEX_POINT('',#2059);
#630=VERTEX_POINT('',#2063);
#631=VERTEX_POINT('',#2069);
#632=VERTEX_POINT('',#2071);
#633=VERTEX_POINT('',#2075);
#634=VERTEX_POINT('',#2076);
#635=VERTEX_POINT('',#2078);
#636=VERTEX_POINT('',#2080);
#637=VERTEX_POINT('',#2084);
#638=VERTEX_POINT('',#2089);
#639=VERTEX_POINT('',#2094);
#640=VERTEX_POINT('',#2096);
#641=VERTEX_POINT('',#2100);
#642=VERTEX_POINT('',#2102);
#643=VERTEX_POINT('',#2106);
#644=VERTEX_POINT('',#2108);
#645=VERTEX_POINT('',#2112);
#646=VERTEX_POINT('',#2114);
#647=VERTEX_POINT('',#2118);
#648=VERTEX_POINT('',#2122);
#649=VERTEX_POINT('',#2126);
#650=VERTEX_POINT('',#2130);
#651=VERTEX_POINT('',#2135);
#652=VERTEX_POINT('',#2143);
#653=VERTEX_POINT('',#2154);
#654=VERTEX_POINT('',#2158);
#655=VERTEX_POINT('',#2164);
#656=VERTEX_POINT('',#2168);
#657=EDGE_CURVE('',#533,#534,#209,.T.);
#658=EDGE_CURVE('',#533,#535,#210,.T.);
#659=EDGE_CURVE('',#535,#536,#211,.T.);
#660=EDGE_CURVE('',#536,#534,#212,.T.);
#661=EDGE_CURVE('',#537,#533,#213,.T.);
#662=EDGE_CURVE('',#538,#537,#214,.T.);
#663=EDGE_CURVE('',#535,#538,#215,.T.);
#664=EDGE_CURVE('',#539,#539,#37,.T.);
#665=EDGE_CURVE('',#534,#540,#216,.T.);
#666=EDGE_CURVE('',#541,#536,#217,.T.);
#667=EDGE_CURVE('',#540,#541,#218,.T.);
#668=EDGE_CURVE('',#542,#542,#38,.T.);
#669=EDGE_CURVE('',#540,#537,#219,.T.);
#670=EDGE_CURVE('',#538,#541,#220,.T.);
#671=EDGE_CURVE('',#543,#543,#39,.T.);
#672=EDGE_CURVE('',#543,#542,#221,.T.);
#673=EDGE_CURVE('',#539,#544,#222,.T.);
#674=EDGE_CURVE('',#544,#544,#40,.T.);
#675=EDGE_CURVE('',#545,#546,#223,.T.);
#676=EDGE_CURVE('',#545,#547,#224,.T.);
#677=EDGE_CURVE('',#547,#548,#225,.T.);
#678=EDGE_CURVE('',#548,#546,#226,.T.);
#679=EDGE_CURVE('',#549,#545,#227,.T.);
#680=EDGE_CURVE('',#550,#549,#228,.T.);
#681=EDGE_CURVE('',#547,#550,#229,.T.);
#682=EDGE_CURVE('',#551,#551,#41,.T.);
#683=EDGE_CURVE('',#546,#552,#230,.T.);
#684=EDGE_CURVE('',#553,#548,#231,.T.);
#685=EDGE_CURVE('',#552,#553,#232,.T.);
#686=EDGE_CURVE('',#554,#554,#42,.T.);
#687=EDGE_CURVE('',#552,#549,#233,.T.);
#688=EDGE_CURVE('',#550,#553,#234,.T.);
#689=EDGE_CURVE('',#555,#555,#43,.T.);
#690=EDGE_CURVE('',#555,#554,#235,.T.);
#691=EDGE_CURVE('',#551,#556,#236,.T.);
#692=EDGE_CURVE('',#556,#556,#44,.T.);
#693=EDGE_CURVE('',#557,#558,#237,.T.);
#694=EDGE_CURVE('',#559,#557,#238,.T.);
#695=EDGE_CURVE('',#559,#560,#239,.T.);
#696=EDGE_CURVE('',#560,#558,#240,.T.);
#697=EDGE_CURVE('',#558,#561,#241,.T.);
#698=EDGE_CURVE('',#560,#562,#242,.T.);
#699=EDGE_CURVE('',#563,#562,#243,.T.);
#700=EDGE_CURVE('',#564,#563,#244,.T.);
#701=EDGE_CURVE('',#561,#564,#245,.T.);
#702=EDGE_CURVE('',#562,#565,#246,.T.);
#703=EDGE_CURVE('',#565,#559,#247,.T.);
#704=EDGE_CURVE('',#566,#557,#248,.T.);
#705=EDGE_CURVE('',#567,#566,#249,.T.);
#706=EDGE_CURVE('',#568,#567,#250,.T.);
#707=EDGE_CURVE('',#565,#568,#251,.T.);
#708=EDGE_CURVE('',#561,#569,#252,.T.);
#709=EDGE_CURVE('',#570,#569,#253,.T.);
#710=EDGE_CURVE('',#571,#570,#45,.T.);
#711=EDGE_CURVE('',#572,#571,#254,.T.);
#712=EDGE_CURVE('',#573,#572,#46,.T.);
#713=EDGE_CURVE('',#573,#574,#255,.T.);
#714=EDGE_CURVE('',#574,#575,#256,.T.);
#715=EDGE_CURVE('',#575,#576,#257,.T.);
#716=EDGE_CURVE('',#576,#577,#258,.T.);
#717=EDGE_CURVE('',#577,#578,#259,.T.);
#718=EDGE_CURVE('',#578,#579,#260,.T.);
#719=EDGE_CURVE('',#579,#580,#261,.T.);
#720=EDGE_CURVE('',#581,#580,#262,.T.);
#721=EDGE_CURVE('',#582,#581,#263,.T.);
#722=EDGE_CURVE('',#582,#583,#264,.T.);
#723=EDGE_CURVE('',#583,#584,#265,.T.);
#724=EDGE_CURVE('',#584,#585,#47,.T.);
#725=EDGE_CURVE('',#585,#586,#48,.T.);
#726=EDGE_CURVE('',#586,#587,#266,.T.);
#727=EDGE_CURVE('',#587,#588,#267,.T.);
#728=EDGE_CURVE('',#589,#588,#268,.T.);
#729=EDGE_CURVE('',#589,#590,#269,.T.);
#730=EDGE_CURVE('',#590,#591,#270,.T.);
#731=EDGE_CURVE('',#591,#592,#271,.T.);
#732=EDGE_CURVE('',#592,#593,#272,.T.);
#733=EDGE_CURVE('',#593,#594,#273,.T.);
#734=EDGE_CURVE('',#594,#595,#274,.T.);
#735=EDGE_CURVE('',#595,#596,#275,.T.);
#736=EDGE_CURVE('',#596,#597,#276,.T.);
#737=EDGE_CURVE('',#597,#598,#49,.T.);
#738=EDGE_CURVE('',#598,#599,#50,.T.);
#739=EDGE_CURVE('',#599,#600,#277,.T.);
#740=EDGE_CURVE('',#600,#601,#278,.T.);
#741=EDGE_CURVE('',#601,#602,#279,.T.);
#742=EDGE_CURVE('',#603,#602,#280,.T.);
#743=EDGE_CURVE('',#603,#604,#281,.T.);
#744=EDGE_CURVE('',#604,#566,#282,.T.);
#745=EDGE_CURVE('',#605,#605,#51,.T.);
#746=EDGE_CURVE('',#606,#606,#52,.T.);
#747=EDGE_CURVE('',#607,#564,#283,.T.);
#748=EDGE_CURVE('',#607,#569,#284,.T.);
#749=EDGE_CURVE('',#608,#604,#285,.T.);
#750=EDGE_CURVE('',#567,#608,#286,.T.);
#751=EDGE_CURVE('',#609,#563,#287,.T.);
#752=EDGE_CURVE('',#609,#607,#288,.T.);
#753=EDGE_CURVE('',#610,#576,#289,.T.);
#754=EDGE_CURVE('',#610,#611,#290,.T.);
#755=EDGE_CURVE('',#611,#577,#291,.T.);
#756=EDGE_CURVE('',#611,#612,#292,.T.);
#757=EDGE_CURVE('',#613,#612,#293,.T.);
#758=EDGE_CURVE('',#614,#613,#294,.T.);
#759=EDGE_CURVE('',#578,#614,#295,.T.);
#760=EDGE_CURVE('',#612,#615,#296,.T.);
#761=EDGE_CURVE('',#615,#610,#297,.T.);
#762=EDGE_CURVE('',#616,#575,#298,.T.);
#763=EDGE_CURVE('',#617,#616,#299,.T.);
#764=EDGE_CURVE('',#615,#617,#300,.T.);
#765=EDGE_CURVE('',#618,#614,#301,.T.);
#766=EDGE_CURVE('',#618,#579,#302,.T.);
#767=EDGE_CURVE('',#619,#613,#303,.T.);
#768=EDGE_CURVE('',#619,#618,#304,.T.);
#769=EDGE_CURVE('',#608,#620,#305,.T.);
#770=EDGE_CURVE('',#568,#620,#306,.T.);
#771=EDGE_CURVE('',#620,#603,#307,.T.);
#772=EDGE_CURVE('',#602,#621,#308,.T.);
#773=EDGE_CURVE('',#622,#621,#309,.T.);
#774=EDGE_CURVE('',#622,#581,#310,.T.);
#775=EDGE_CURVE('',#580,#619,#311,.T.);
#776=EDGE_CURVE('',#617,#623,#312,.T.);
#777=EDGE_CURVE('',#623,#624,#313,.T.);
#778=EDGE_CURVE('',#625,#624,#314,.T.);
#779=EDGE_CURVE('',#609,#625,#315,.T.);
#780=EDGE_CURVE('',#616,#626,#316,.T.);
#781=EDGE_CURVE('',#626,#623,#317,.T.);
#782=EDGE_CURVE('',#626,#574,#318,.T.);
#783=EDGE_CURVE('',#627,#590,#319,.T.);
#784=EDGE_CURVE('',#627,#628,#320,.T.);
#785=EDGE_CURVE('',#628,#591,#321,.T.);
#786=EDGE_CURVE('',#628,#629,#322,.T.);
#787=EDGE_CURVE('',#629,#592,#323,.T.);
#788=EDGE_CURVE('',#629,#630,#324,.T.);
#789=EDGE_CURVE('',#630,#593,#325,.T.);
#790=EDGE_CURVE('',#630,#627,#326,.T.);
#791=EDGE_CURVE('',#631,#589,#327,.T.);
#792=EDGE_CURVE('',#632,#631,#328,.T.);
#793=EDGE_CURVE('',#594,#632,#329,.T.);
#794=EDGE_CURVE('',#633,#634,#330,.T.);
#795=EDGE_CURVE('',#635,#633,#331,.T.);
#796=EDGE_CURVE('',#636,#635,#332,.T.);
#797=EDGE_CURVE('',#636,#634,#333,.T.);
#798=EDGE_CURVE('',#637,#633,#334,.T.);
#799=EDGE_CURVE('',#570,#637,#335,.T.);
#800=EDGE_CURVE('',#635,#625,#336,.T.);
#801=EDGE_CURVE('',#638,#573,#337,.T.);
#802=EDGE_CURVE('',#634,#638,#338,.T.);
#803=EDGE_CURVE('',#624,#636,#339,.T.);
#804=EDGE_CURVE('',#639,#586,#340,.T.);
#805=EDGE_CURVE('',#639,#640,#341,.T.);
#806=EDGE_CURVE('',#640,#587,#342,.T.);
#807=EDGE_CURVE('',#641,#583,#343,.T.);
#808=EDGE_CURVE('',#641,#642,#344,.T.);
#809=EDGE_CURVE('',#584,#642,#345,.T.);
#810=EDGE_CURVE('',#643,#600,#346,.T.);
#811=EDGE_CURVE('',#643,#644,#347,.T.);
#812=EDGE_CURVE('',#601,#644,#348,.T.);
#813=EDGE_CURVE('',#645,#595,#349,.T.);
#814=EDGE_CURVE('',#645,#646,#350,.T.);
#815=EDGE_CURVE('',#646,#596,#351,.T.);
#816=EDGE_CURVE('',#640,#647,#352,.T.);
#817=EDGE_CURVE('',#588,#647,#353,.T.);
#818=EDGE_CURVE('',#646,#648,#354,.T.);
#819=EDGE_CURVE('',#597,#648,#355,.T.);
#820=EDGE_CURVE('',#649,#582,#356,.T.);
#821=EDGE_CURVE('',#649,#641,#357,.T.);
#822=EDGE_CURVE('',#650,#599,#358,.T.);
#823=EDGE_CURVE('',#650,#643,#359,.T.);
#824=EDGE_CURVE('',#642,#639,#53,.T.);
#825=EDGE_CURVE('',#585,#651,#360,.T.);
#826=EDGE_CURVE('',#651,#651,#54,.T.);
#827=EDGE_CURVE('',#644,#621,#361,.T.);
#828=EDGE_CURVE('',#631,#647,#362,.T.);
#829=EDGE_CURVE('',#652,#652,#55,.T.);
#830=EDGE_CURVE('',#649,#622,#363,.T.);
#831=EDGE_CURVE('',#648,#650,#56,.T.);
#832=EDGE_CURVE('',#632,#645,#364,.T.);
#833=EDGE_CURVE('',#598,#652,#365,.T.);
#834=EDGE_CURVE('',#637,#653,#57,.T.);
#835=EDGE_CURVE('',#653,#571,#366,.T.);
#836=EDGE_CURVE('',#654,#638,#58,.T.);
#837=EDGE_CURVE('',#572,#654,#367,.T.);
#838=EDGE_CURVE('',#655,#655,#59,.T.);
#839=EDGE_CURVE('',#655,#606,#368,.T.);
#840=EDGE_CURVE('',#656,#656,#60,.T.);
#841=EDGE_CURVE('',#656,#605,#369,.T.);
#842=EDGE_CURVE('',#654,#653,#370,.T.);
#843=ORIENTED_EDGE('',*,*,#657,.F.);
#844=ORIENTED_EDGE('',*,*,#658,.T.);
#845=ORIENTED_EDGE('',*,*,#659,.T.);
#846=ORIENTED_EDGE('',*,*,#660,.T.);
#847=ORIENTED_EDGE('',*,*,#661,.F.);
#848=ORIENTED_EDGE('',*,*,#662,.F.);
#849=ORIENTED_EDGE('',*,*,#663,.F.);
#850=ORIENTED_EDGE('',*,*,#658,.F.);
#851=ORIENTED_EDGE('',*,*,#664,.F.);
#852=ORIENTED_EDGE('',*,*,#665,.F.);
#853=ORIENTED_EDGE('',*,*,#660,.F.);
#854=ORIENTED_EDGE('',*,*,#666,.F.);
#855=ORIENTED_EDGE('',*,*,#667,.F.);
#856=ORIENTED_EDGE('',*,*,#668,.F.);
#857=ORIENTED_EDGE('',*,*,#669,.F.);
#858=ORIENTED_EDGE('',*,*,#667,.T.);
#859=ORIENTED_EDGE('',*,*,#670,.F.);
#860=ORIENTED_EDGE('',*,*,#662,.T.);
#861=ORIENTED_EDGE('',*,*,#659,.F.);
#862=ORIENTED_EDGE('',*,*,#663,.T.);
#863=ORIENTED_EDGE('',*,*,#670,.T.);
#864=ORIENTED_EDGE('',*,*,#666,.T.);
#865=ORIENTED_EDGE('',*,*,#671,.T.);
#866=ORIENTED_EDGE('',*,*,#672,.T.);
#867=ORIENTED_EDGE('',*,*,#668,.T.);
#868=ORIENTED_EDGE('',*,*,#672,.F.);
#869=ORIENTED_EDGE('',*,*,#664,.T.);
#870=ORIENTED_EDGE('',*,*,#673,.T.);
#871=ORIENTED_EDGE('',*,*,#674,.F.);
#872=ORIENTED_EDGE('',*,*,#673,.F.);
#873=ORIENTED_EDGE('',*,*,#671,.F.);
#874=ORIENTED_EDGE('',*,*,#675,.F.);
#875=ORIENTED_EDGE('',*,*,#676,.T.);
#876=ORIENTED_EDGE('',*,*,#677,.T.);
#877=ORIENTED_EDGE('',*,*,#678,.T.);
#878=ORIENTED_EDGE('',*,*,#679,.F.);
#879=ORIENTED_EDGE('',*,*,#680,.F.);
#880=ORIENTED_EDGE('',*,*,#681,.F.);
#881=ORIENTED_EDGE('',*,*,#676,.F.);
#882=ORIENTED_EDGE('',*,*,#682,.F.);
#883=ORIENTED_EDGE('',*,*,#683,.F.);
#884=ORIENTED_EDGE('',*,*,#678,.F.);
#885=ORIENTED_EDGE('',*,*,#684,.F.);
#886=ORIENTED_EDGE('',*,*,#685,.F.);
#887=ORIENTED_EDGE('',*,*,#686,.F.);
#888=ORIENTED_EDGE('',*,*,#687,.F.);
#889=ORIENTED_EDGE('',*,*,#685,.T.);
#890=ORIENTED_EDGE('',*,*,#688,.F.);
#891=ORIENTED_EDGE('',*,*,#680,.T.);
#892=ORIENTED_EDGE('',*,*,#677,.F.);
#893=ORIENTED_EDGE('',*,*,#681,.T.);
#894=ORIENTED_EDGE('',*,*,#688,.T.);
#895=ORIENTED_EDGE('',*,*,#684,.T.);
#896=ORIENTED_EDGE('',*,*,#689,.T.);
#897=ORIENTED_EDGE('',*,*,#690,.T.);
#898=ORIENTED_EDGE('',*,*,#686,.T.);
#899=ORIENTED_EDGE('',*,*,#690,.F.);
#900=ORIENTED_EDGE('',*,*,#682,.T.);
#901=ORIENTED_EDGE('',*,*,#691,.T.);
#902=ORIENTED_EDGE('',*,*,#692,.F.);
#903=ORIENTED_EDGE('',*,*,#691,.F.);
#904=ORIENTED_EDGE('',*,*,#689,.F.);
#905=ORIENTED_EDGE('',*,*,#693,.F.);
#906=ORIENTED_EDGE('',*,*,#694,.F.);
#907=ORIENTED_EDGE('',*,*,#695,.T.);
#908=ORIENTED_EDGE('',*,*,#696,.T.);
#909=ORIENTED_EDGE('',*,*,#697,.F.);
#910=ORIENTED_EDGE('',*,*,#696,.F.);
#911=ORIENTED_EDGE('',*,*,#698,.T.);
#912=ORIENTED_EDGE('',*,*,#699,.F.);
#913=ORIENTED_EDGE('',*,*,#700,.F.);
#914=ORIENTED_EDGE('',*,*,#701,.F.);
#915=ORIENTED_EDGE('',*,*,#702,.F.);
#916=ORIENTED_EDGE('',*,*,#698,.F.);
#917=ORIENTED_EDGE('',*,*,#695,.F.);
#918=ORIENTED_EDGE('',*,*,#703,.F.);
#919=ORIENTED_EDGE('',*,*,#704,.F.);
#920=ORIENTED_EDGE('',*,*,#705,.F.);
#921=ORIENTED_EDGE('',*,*,#706,.F.);
#922=ORIENTED_EDGE('',*,*,#707,.F.);
#923=ORIENTED_EDGE('',*,*,#703,.T.);
#924=ORIENTED_EDGE('',*,*,#694,.T.);
#925=ORIENTED_EDGE('',*,*,#704,.T.);
#926=ORIENTED_EDGE('',*,*,#693,.T.);
#927=ORIENTED_EDGE('',*,*,#697,.T.);
#928=ORIENTED_EDGE('',*,*,#708,.T.);
#929=ORIENTED_EDGE('',*,*,#709,.F.);
#930=ORIENTED_EDGE('',*,*,#710,.F.);
#931=ORIENTED_EDGE('',*,*,#711,.F.);
#932=ORIENTED_EDGE('',*,*,#712,.F.);
#933=ORIENTED_EDGE('',*,*,#713,.T.);
#934=ORIENTED_EDGE('',*,*,#714,.T.);
#935=ORIENTED_EDGE('',*,*,#715,.T.);
#936=ORIENTED_EDGE('',*,*,#716,.T.);
#937=ORIENTED_EDGE('',*,*,#717,.T.);
#938=ORIENTED_EDGE('',*,*,#718,.T.);
#939=ORIENTED_EDGE('',*,*,#719,.T.);
#940=ORIENTED_EDGE('',*,*,#720,.F.);
#941=ORIENTED_EDGE('',*,*,#721,.F.);
#942=ORIENTED_EDGE('',*,*,#722,.T.);
#943=ORIENTED_EDGE('',*,*,#723,.T.);
#944=ORIENTED_EDGE('',*,*,#724,.T.);
#945=ORIENTED_EDGE('',*,*,#725,.T.);
#946=ORIENTED_EDGE('',*,*,#726,.T.);
#947=ORIENTED_EDGE('',*,*,#727,.T.);
#948=ORIENTED_EDGE('',*,*,#728,.F.);
#949=ORIENTED_EDGE('',*,*,#729,.T.);
#950=ORIENTED_EDGE('',*,*,#730,.T.);
#951=ORIENTED_EDGE('',*,*,#731,.T.);
#952=ORIENTED_EDGE('',*,*,#732,.T.);
#953=ORIENTED_EDGE('',*,*,#733,.T.);
#954=ORIENTED_EDGE('',*,*,#734,.T.);
#955=ORIENTED_EDGE('',*,*,#735,.T.);
#956=ORIENTED_EDGE('',*,*,#736,.T.);
#957=ORIENTED_EDGE('',*,*,#737,.T.);
#958=ORIENTED_EDGE('',*,*,#738,.T.);
#959=ORIENTED_EDGE('',*,*,#739,.T.);
#960=ORIENTED_EDGE('',*,*,#740,.T.);
#961=ORIENTED_EDGE('',*,*,#741,.T.);
#962=ORIENTED_EDGE('',*,*,#742,.F.);
#963=ORIENTED_EDGE('',*,*,#743,.T.);
#964=ORIENTED_EDGE('',*,*,#744,.T.);
#965=ORIENTED_EDGE('',*,*,#745,.F.);
#966=ORIENTED_EDGE('',*,*,#746,.F.);
#967=ORIENTED_EDGE('',*,*,#701,.T.);
#968=ORIENTED_EDGE('',*,*,#747,.F.);
#969=ORIENTED_EDGE('',*,*,#748,.T.);
#970=ORIENTED_EDGE('',*,*,#708,.F.);
#971=ORIENTED_EDGE('',*,*,#705,.T.);
#972=ORIENTED_EDGE('',*,*,#744,.F.);
#973=ORIENTED_EDGE('',*,*,#749,.F.);
#974=ORIENTED_EDGE('',*,*,#750,.F.);
#975=ORIENTED_EDGE('',*,*,#700,.T.);
#976=ORIENTED_EDGE('',*,*,#751,.F.);
#977=ORIENTED_EDGE('',*,*,#752,.T.);
#978=ORIENTED_EDGE('',*,*,#747,.T.);
#979=ORIENTED_EDGE('',*,*,#716,.F.);
#980=ORIENTED_EDGE('',*,*,#753,.F.);
#981=ORIENTED_EDGE('',*,*,#754,.T.);
#982=ORIENTED_EDGE('',*,*,#755,.T.);
#983=ORIENTED_EDGE('',*,*,#717,.F.);
#984=ORIENTED_EDGE('',*,*,#755,.F.);
#985=ORIENTED_EDGE('',*,*,#756,.T.);
#986=ORIENTED_EDGE('',*,*,#757,.F.);
#987=ORIENTED_EDGE('',*,*,#758,.F.);
#988=ORIENTED_EDGE('',*,*,#759,.F.);
#989=ORIENTED_EDGE('',*,*,#760,.F.);
#990=ORIENTED_EDGE('',*,*,#756,.F.);
#991=ORIENTED_EDGE('',*,*,#754,.F.);
#992=ORIENTED_EDGE('',*,*,#761,.F.);
#993=ORIENTED_EDGE('',*,*,#715,.F.);
#994=ORIENTED_EDGE('',*,*,#762,.F.);
#995=ORIENTED_EDGE('',*,*,#763,.F.);
#996=ORIENTED_EDGE('',*,*,#764,.F.);
#997=ORIENTED_EDGE('',*,*,#761,.T.);
#998=ORIENTED_EDGE('',*,*,#753,.T.);
#999=ORIENTED_EDGE('',*,*,#759,.T.);
#1000=ORIENTED_EDGE('',*,*,#765,.F.);
#1001=ORIENTED_EDGE('',*,*,#766,.T.);
#1002=ORIENTED_EDGE('',*,*,#718,.F.);
#1003=ORIENTED_EDGE('',*,*,#758,.T.);
#1004=ORIENTED_EDGE('',*,*,#767,.F.);
#1005=ORIENTED_EDGE('',*,*,#768,.T.);
#1006=ORIENTED_EDGE('',*,*,#765,.T.);
#1007=ORIENTED_EDGE('',*,*,#706,.T.);
#1008=ORIENTED_EDGE('',*,*,#750,.T.);
#1009=ORIENTED_EDGE('',*,*,#769,.T.);
#1010=ORIENTED_EDGE('',*,*,#770,.F.);
#1011=ORIENTED_EDGE('',*,*,#749,.T.);
#1012=ORIENTED_EDGE('',*,*,#743,.F.);
#1013=ORIENTED_EDGE('',*,*,#771,.F.);
#1014=ORIENTED_EDGE('',*,*,#769,.F.);
#1015=ORIENTED_EDGE('',*,*,#707,.T.);
#1016=ORIENTED_EDGE('',*,*,#770,.T.);
#1017=ORIENTED_EDGE('',*,*,#771,.T.);
#1018=ORIENTED_EDGE('',*,*,#742,.T.);
#1019=ORIENTED_EDGE('',*,*,#772,.T.);
#1020=ORIENTED_EDGE('',*,*,#773,.F.);
#1021=ORIENTED_EDGE('',*,*,#774,.T.);
#1022=ORIENTED_EDGE('',*,*,#720,.T.);
#1023=ORIENTED_EDGE('',*,*,#775,.T.);
#1024=ORIENTED_EDGE('',*,*,#767,.T.);
#1025=ORIENTED_EDGE('',*,*,#757,.T.);
#1026=ORIENTED_EDGE('',*,*,#760,.T.);
#1027=ORIENTED_EDGE('',*,*,#764,.T.);
#1028=ORIENTED_EDGE('',*,*,#776,.T.);
#1029=ORIENTED_EDGE('',*,*,#777,.T.);
#1030=ORIENTED_EDGE('',*,*,#778,.F.);
#1031=ORIENTED_EDGE('',*,*,#779,.F.);
#1032=ORIENTED_EDGE('',*,*,#751,.T.);
#1033=ORIENTED_EDGE('',*,*,#699,.T.);
#1034=ORIENTED_EDGE('',*,*,#702,.T.);
#1035=ORIENTED_EDGE('',*,*,#665,.T.);
#1036=ORIENTED_EDGE('',*,*,#669,.T.);
#1037=ORIENTED_EDGE('',*,*,#661,.T.);
#1038=ORIENTED_EDGE('',*,*,#657,.T.);
#1039=ORIENTED_EDGE('',*,*,#683,.T.);
#1040=ORIENTED_EDGE('',*,*,#687,.T.);
#1041=ORIENTED_EDGE('',*,*,#679,.T.);
#1042=ORIENTED_EDGE('',*,*,#675,.T.);
#1043=ORIENTED_EDGE('',*,*,#763,.T.);
#1044=ORIENTED_EDGE('',*,*,#780,.T.);
#1045=ORIENTED_EDGE('',*,*,#781,.T.);
#1046=ORIENTED_EDGE('',*,*,#776,.F.);
#1047=ORIENTED_EDGE('',*,*,#762,.T.);
#1048=ORIENTED_EDGE('',*,*,#714,.F.);
#1049=ORIENTED_EDGE('',*,*,#782,.F.);
#1050=ORIENTED_EDGE('',*,*,#780,.F.);
#1051=ORIENTED_EDGE('',*,*,#775,.F.);
#1052=ORIENTED_EDGE('',*,*,#719,.F.);
#1053=ORIENTED_EDGE('',*,*,#766,.F.);
#1054=ORIENTED_EDGE('',*,*,#768,.F.);
#1055=ORIENTED_EDGE('',*,*,#730,.F.);
#1056=ORIENTED_EDGE('',*,*,#783,.F.);
#1057=ORIENTED_EDGE('',*,*,#784,.T.);
#1058=ORIENTED_EDGE('',*,*,#785,.T.);
#1059=ORIENTED_EDGE('',*,*,#731,.F.);
#1060=ORIENTED_EDGE('',*,*,#785,.F.);
#1061=ORIENTED_EDGE('',*,*,#786,.T.);
#1062=ORIENTED_EDGE('',*,*,#787,.T.);
#1063=ORIENTED_EDGE('',*,*,#732,.F.);
#1064=ORIENTED_EDGE('',*,*,#787,.F.);
#1065=ORIENTED_EDGE('',*,*,#788,.T.);
#1066=ORIENTED_EDGE('',*,*,#789,.T.);
#1067=ORIENTED_EDGE('',*,*,#786,.F.);
#1068=ORIENTED_EDGE('',*,*,#784,.F.);
#1069=ORIENTED_EDGE('',*,*,#790,.F.);
#1070=ORIENTED_EDGE('',*,*,#788,.F.);
#1071=ORIENTED_EDGE('',*,*,#729,.F.);
#1072=ORIENTED_EDGE('',*,*,#791,.F.);
#1073=ORIENTED_EDGE('',*,*,#792,.F.);
#1074=ORIENTED_EDGE('',*,*,#793,.F.);
#1075=ORIENTED_EDGE('',*,*,#733,.F.);
#1076=ORIENTED_EDGE('',*,*,#789,.F.);
#1077=ORIENTED_EDGE('',*,*,#790,.T.);
#1078=ORIENTED_EDGE('',*,*,#783,.T.);
#1079=ORIENTED_EDGE('',*,*,#794,.F.);
#1080=ORIENTED_EDGE('',*,*,#795,.F.);
#1081=ORIENTED_EDGE('',*,*,#796,.F.);
#1082=ORIENTED_EDGE('',*,*,#797,.T.);
#1083=ORIENTED_EDGE('',*,*,#798,.F.);
#1084=ORIENTED_EDGE('',*,*,#799,.F.);
#1085=ORIENTED_EDGE('',*,*,#709,.T.);
#1086=ORIENTED_EDGE('',*,*,#748,.F.);
#1087=ORIENTED_EDGE('',*,*,#752,.F.);
#1088=ORIENTED_EDGE('',*,*,#779,.T.);
#1089=ORIENTED_EDGE('',*,*,#800,.F.);
#1090=ORIENTED_EDGE('',*,*,#795,.T.);
#1091=ORIENTED_EDGE('',*,*,#713,.F.);
#1092=ORIENTED_EDGE('',*,*,#801,.F.);
#1093=ORIENTED_EDGE('',*,*,#802,.F.);
#1094=ORIENTED_EDGE('',*,*,#797,.F.);
#1095=ORIENTED_EDGE('',*,*,#803,.F.);
#1096=ORIENTED_EDGE('',*,*,#777,.F.);
#1097=ORIENTED_EDGE('',*,*,#781,.F.);
#1098=ORIENTED_EDGE('',*,*,#782,.T.);
#1099=ORIENTED_EDGE('',*,*,#804,.F.);
#1100=ORIENTED_EDGE('',*,*,#805,.T.);
#1101=ORIENTED_EDGE('',*,*,#806,.T.);
#1102=ORIENTED_EDGE('',*,*,#726,.F.);
#1103=ORIENTED_EDGE('',*,*,#723,.F.);
#1104=ORIENTED_EDGE('',*,*,#807,.F.);
#1105=ORIENTED_EDGE('',*,*,#808,.T.);
#1106=ORIENTED_EDGE('',*,*,#809,.F.);
#1107=ORIENTED_EDGE('',*,*,#740,.F.);
#1108=ORIENTED_EDGE('',*,*,#810,.F.);
#1109=ORIENTED_EDGE('',*,*,#811,.T.);
#1110=ORIENTED_EDGE('',*,*,#812,.F.);
#1111=ORIENTED_EDGE('',*,*,#735,.F.);
#1112=ORIENTED_EDGE('',*,*,#813,.F.);
#1113=ORIENTED_EDGE('',*,*,#814,.T.);
#1114=ORIENTED_EDGE('',*,*,#815,.T.);
#1115=ORIENTED_EDGE('',*,*,#727,.F.);
#1116=ORIENTED_EDGE('',*,*,#806,.F.);
#1117=ORIENTED_EDGE('',*,*,#816,.T.);
#1118=ORIENTED_EDGE('',*,*,#817,.F.);
#1119=ORIENTED_EDGE('',*,*,#736,.F.);
#1120=ORIENTED_EDGE('',*,*,#815,.F.);
#1121=ORIENTED_EDGE('',*,*,#818,.T.);
#1122=ORIENTED_EDGE('',*,*,#819,.F.);
#1123=ORIENTED_EDGE('',*,*,#722,.F.);
#1124=ORIENTED_EDGE('',*,*,#820,.F.);
#1125=ORIENTED_EDGE('',*,*,#821,.T.);
#1126=ORIENTED_EDGE('',*,*,#807,.T.);
#1127=ORIENTED_EDGE('',*,*,#739,.F.);
#1128=ORIENTED_EDGE('',*,*,#822,.F.);
#1129=ORIENTED_EDGE('',*,*,#823,.T.);
#1130=ORIENTED_EDGE('',*,*,#810,.T.);
#1131=ORIENTED_EDGE('',*,*,#809,.T.);
#1132=ORIENTED_EDGE('',*,*,#824,.T.);
#1133=ORIENTED_EDGE('',*,*,#804,.T.);
#1134=ORIENTED_EDGE('',*,*,#725,.F.);
#1135=ORIENTED_EDGE('',*,*,#825,.T.);
#1136=ORIENTED_EDGE('',*,*,#826,.F.);
#1137=ORIENTED_EDGE('',*,*,#825,.F.);
#1138=ORIENTED_EDGE('',*,*,#724,.F.);
#1139=ORIENTED_EDGE('',*,*,#812,.T.);
#1140=ORIENTED_EDGE('',*,*,#827,.T.);
#1141=ORIENTED_EDGE('',*,*,#772,.F.);
#1142=ORIENTED_EDGE('',*,*,#741,.F.);
#1143=ORIENTED_EDGE('',*,*,#791,.T.);
#1144=ORIENTED_EDGE('',*,*,#728,.T.);
#1145=ORIENTED_EDGE('',*,*,#817,.T.);
#1146=ORIENTED_EDGE('',*,*,#828,.F.);
#1147=ORIENTED_EDGE('',*,*,#829,.T.);
#1148=ORIENTED_EDGE('',*,*,#826,.T.);
#1149=ORIENTED_EDGE('',*,*,#800,.T.);
#1150=ORIENTED_EDGE('',*,*,#778,.T.);
#1151=ORIENTED_EDGE('',*,*,#803,.T.);
#1152=ORIENTED_EDGE('',*,*,#796,.T.);
#1153=ORIENTED_EDGE('',*,*,#674,.T.);
#1154=ORIENTED_EDGE('',*,*,#692,.T.);
#1155=ORIENTED_EDGE('',*,*,#792,.T.);
#1156=ORIENTED_EDGE('',*,*,#828,.T.);
#1157=ORIENTED_EDGE('',*,*,#816,.F.);
#1158=ORIENTED_EDGE('',*,*,#805,.F.);
#1159=ORIENTED_EDGE('',*,*,#824,.F.);
#1160=ORIENTED_EDGE('',*,*,#808,.F.);
#1161=ORIENTED_EDGE('',*,*,#821,.F.);
#1162=ORIENTED_EDGE('',*,*,#830,.T.);
#1163=ORIENTED_EDGE('',*,*,#773,.T.);
#1164=ORIENTED_EDGE('',*,*,#827,.F.);
#1165=ORIENTED_EDGE('',*,*,#811,.F.);
#1166=ORIENTED_EDGE('',*,*,#823,.F.);
#1167=ORIENTED_EDGE('',*,*,#831,.F.);
#1168=ORIENTED_EDGE('',*,*,#818,.F.);
#1169=ORIENTED_EDGE('',*,*,#814,.F.);
#1170=ORIENTED_EDGE('',*,*,#832,.F.);
#1171=ORIENTED_EDGE('',*,*,#822,.T.);
#1172=ORIENTED_EDGE('',*,*,#738,.F.);
#1173=ORIENTED_EDGE('',*,*,#833,.T.);
#1174=ORIENTED_EDGE('',*,*,#829,.F.);
#1175=ORIENTED_EDGE('',*,*,#833,.F.);
#1176=ORIENTED_EDGE('',*,*,#737,.F.);
#1177=ORIENTED_EDGE('',*,*,#819,.T.);
#1178=ORIENTED_EDGE('',*,*,#831,.T.);
#1179=ORIENTED_EDGE('',*,*,#834,.T.);
#1180=ORIENTED_EDGE('',*,*,#835,.T.);
#1181=ORIENTED_EDGE('',*,*,#710,.T.);
#1182=ORIENTED_EDGE('',*,*,#799,.T.);
#1183=ORIENTED_EDGE('',*,*,#836,.T.);
#1184=ORIENTED_EDGE('',*,*,#801,.T.);
#1185=ORIENTED_EDGE('',*,*,#712,.T.);
#1186=ORIENTED_EDGE('',*,*,#837,.T.);
#1187=ORIENTED_EDGE('',*,*,#820,.T.);
#1188=ORIENTED_EDGE('',*,*,#721,.T.);
#1189=ORIENTED_EDGE('',*,*,#774,.F.);
#1190=ORIENTED_EDGE('',*,*,#830,.F.);
#1191=ORIENTED_EDGE('',*,*,#793,.T.);
#1192=ORIENTED_EDGE('',*,*,#832,.T.);
#1193=ORIENTED_EDGE('',*,*,#813,.T.);
#1194=ORIENTED_EDGE('',*,*,#734,.F.);
#1195=ORIENTED_EDGE('',*,*,#838,.F.);
#1196=ORIENTED_EDGE('',*,*,#839,.T.);
#1197=ORIENTED_EDGE('',*,*,#746,.T.);
#1198=ORIENTED_EDGE('',*,*,#839,.F.);
#1199=ORIENTED_EDGE('',*,*,#840,.F.);
#1200=ORIENTED_EDGE('',*,*,#841,.T.);
#1201=ORIENTED_EDGE('',*,*,#745,.T.);
#1202=ORIENTED_EDGE('',*,*,#841,.F.);
#1203=ORIENTED_EDGE('',*,*,#835,.F.);
#1204=ORIENTED_EDGE('',*,*,#842,.F.);
#1205=ORIENTED_EDGE('',*,*,#837,.F.);
#1206=ORIENTED_EDGE('',*,*,#711,.T.);
#1207=ORIENTED_EDGE('',*,*,#794,.T.);
#1208=ORIENTED_EDGE('',*,*,#802,.T.);
#1209=ORIENTED_EDGE('',*,*,#836,.F.);
#1210=ORIENTED_EDGE('',*,*,#842,.T.);
#1211=ORIENTED_EDGE('',*,*,#834,.F.);
#1212=ORIENTED_EDGE('',*,*,#798,.T.);
#1213=ORIENTED_EDGE('',*,*,#840,.T.);
#1214=ORIENTED_EDGE('',*,*,#838,.T.);
#1215=PLANE('',#1355);
#1216=PLANE('',#1356);
#1217=PLANE('',#1358);
#1218=PLANE('',#1360);
#1219=PLANE('',#1361);
#1220=PLANE('',#1366);
#1221=PLANE('',#1367);
#1222=PLANE('',#1368);
#1223=PLANE('',#1370);
#1224=PLANE('',#1372);
#1225=PLANE('',#1373);
#1226=PLANE('',#1378);
#1227=PLANE('',#1379);
#1228=PLANE('',#1380);
#1229=PLANE('',#1381);
#1230=PLANE('',#1382);
#1231=PLANE('',#1383);
#1232=PLANE('',#1392);
#1233=PLANE('',#1393);
#1234=PLANE('',#1394);
#1235=PLANE('',#1395);
#1236=PLANE('',#1396);
#1237=PLANE('',#1397);
#1238=PLANE('',#1398);
#1239=PLANE('',#1399);
#1240=PLANE('',#1400);
#1241=PLANE('',#1401);
#1242=PLANE('',#1402);
#1243=PLANE('',#1403);
#1244=PLANE('',#1404);
#1245=PLANE('',#1405);
#1246=PLANE('',#1406);
#1247=PLANE('',#1407);
#1248=PLANE('',#1408);
#1249=PLANE('',#1409);
#1250=PLANE('',#1410);
#1251=PLANE('',#1411);
#1252=PLANE('',#1412);
#1253=PLANE('',#1413);
#1254=PLANE('',#1414);
#1255=PLANE('',#1415);
#1256=PLANE('',#1416);
#1257=PLANE('',#1417);
#1258=PLANE('',#1418);
#1259=PLANE('',#1419);
#1260=PLANE('',#1420);
#1261=PLANE('',#1421);
#1262=PLANE('',#1422);
#1263=PLANE('',#1426);
#1264=PLANE('',#1427);
#1265=PLANE('',#1428);
#1266=PLANE('',#1430);
#1267=PLANE('',#1431);
#1268=PLANE('',#1432);
#1269=PLANE('',#1439);
#1270=PLANE('',#1440);
#1271=PLANE('',#1445);
#1272=PLANE('',#1446);
#1273=ADVANCED_FACE('',(#61),#1215,.T.);
#1274=ADVANCED_FACE('',(#62,#25),#1216,.F.);
#1275=ADVANCED_FACE('',(#63,#26),#1217,.T.);
#1276=ADVANCED_FACE('',(#64),#1218,.T.);
#1277=ADVANCED_FACE('',(#65),#1219,.T.);
#1278=ADVANCED_FACE('',(#66),#15,.F.);
#1279=ADVANCED_FACE('',(#67),#16,.F.);
#1280=ADVANCED_FACE('',(#68),#1220,.F.);
#1281=ADVANCED_FACE('',(#69),#1221,.T.);
#1282=ADVANCED_FACE('',(#70,#27),#1222,.F.);
#1283=ADVANCED_FACE('',(#71,#28),#1223,.T.);
#1284=ADVANCED_FACE('',(#72),#1224,.T.);
#1285=ADVANCED_FACE('',(#73),#1225,.T.);
#1286=ADVANCED_FACE('',(#74),#17,.F.);
#1287=ADVANCED_FACE('',(#75),#18,.F.);
#1288=ADVANCED_FACE('',(#76),#1226,.F.);
#1289=ADVANCED_FACE('',(#77),#1227,.T.);
#1290=ADVANCED_FACE('',(#78),#1228,.T.);
#1291=ADVANCED_FACE('',(#79),#1229,.F.);
#1292=ADVANCED_FACE('',(#80),#1230,.T.);
#1293=ADVANCED_FACE('',(#81,#29,#30),#1231,.F.);
#1294=ADVANCED_FACE('',(#82),#1232,.F.);
#1295=ADVANCED_FACE('',(#83),#1233,.F.);
#1296=ADVANCED_FACE('',(#84),#1234,.T.);
#1297=ADVANCED_FACE('',(#85),#1235,.T.);
#1298=ADVANCED_FACE('',(#86),#1236,.T.);
#1299=ADVANCED_FACE('',(#87),#1237,.F.);
#1300=ADVANCED_FACE('',(#88),#1238,.T.);
#1301=ADVANCED_FACE('',(#89),#1239,.F.);
#1302=ADVANCED_FACE('',(#90),#1240,.T.);
#1303=ADVANCED_FACE('',(#91),#1241,.T.);
#1304=ADVANCED_FACE('',(#92),#1242,.F.);
#1305=ADVANCED_FACE('',(#93,#31,#32),#1243,.T.);
#1306=ADVANCED_FACE('',(#94),#1244,.T.);
#1307=ADVANCED_FACE('',(#95),#1245,.F.);
#1308=ADVANCED_FACE('',(#96),#1246,.F.);
#1309=ADVANCED_FACE('',(#97),#1247,.T.);
#1310=ADVANCED_FACE('',(#98),#1248,.T.);
#1311=ADVANCED_FACE('',(#99),#1249,.T.);
#1312=ADVANCED_FACE('',(#100),#1250,.F.);
#1313=ADVANCED_FACE('',(#101),#1251,.T.);
#1314=ADVANCED_FACE('',(#102),#1252,.F.);
#1315=ADVANCED_FACE('',(#103),#1253,.T.);
#1316=ADVANCED_FACE('',(#104),#1254,.T.);
#1317=ADVANCED_FACE('',(#105),#1255,.T.);
#1318=ADVANCED_FACE('',(#106),#1256,.T.);
#1319=ADVANCED_FACE('',(#107),#1257,.T.);
#1320=ADVANCED_FACE('',(#108),#1258,.T.);
#1321=ADVANCED_FACE('',(#109),#1259,.T.);
#1322=ADVANCED_FACE('',(#110),#1260,.T.);
#1323=ADVANCED_FACE('',(#111),#1261,.T.);
#1324=ADVANCED_FACE('',(#112),#1262,.T.);
#1325=ADVANCED_FACE('',(#113),#19,.F.);
#1326=ADVANCED_FACE('',(#114),#1263,.T.);
#1327=ADVANCED_FACE('',(#115),#1264,.T.);
#1328=ADVANCED_FACE('',(#116),#1265,.F.);
#1329=ADVANCED_FACE('',(#117),#1266,.F.);
#1330=ADVANCED_FACE('',(#118,#33,#34),#1267,.T.);
#1331=ADVANCED_FACE('',(#119),#1268,.F.);
#1332=ADVANCED_FACE('',(#120),#20,.F.);
#1333=ADVANCED_FACE('',(#121),#21,.T.);
#1334=ADVANCED_FACE('',(#122),#22,.T.);
#1335=ADVANCED_FACE('',(#123),#1269,.T.);
#1336=ADVANCED_FACE('',(#124),#1270,.T.);
#1337=ADVANCED_FACE('',(#125),#23,.F.);
#1338=ADVANCED_FACE('',(#126),#24,.F.);
#1339=ADVANCED_FACE('',(#127),#1271,.T.);
#1340=ADVANCED_FACE('',(#128,#35,#36),#1272,.T.);
#1341=CLOSED_SHELL('',(#1273,#1274,#1275,#1276,#1277,#1278,#1279,#1280,
#1281,#1282,#1283,#1284,#1285,#1286,#1287,#1288,#1289,#1290,#1291,#1292,
#1293,#1294,#1295,#1296,#1297,#1298,#1299,#1300,#1301,#1302,#1303,#1304,
#1305,#1306,#1307,#1308,#1309,#1310,#1311,#1312,#1313,#1314,#1315,#1316,
#1317,#1318,#1319,#1320,#1321,#1322,#1323,#1324,#1325,#1326,#1327,#1328,
#1329,#1330,#1331,#1332,#1333,#1334,#1335,#1336,#1337,#1338,#1339,#1340));
#1342=DERIVED_UNIT_ELEMENT(#1344,1.);
#1343=DERIVED_UNIT_ELEMENT(#2179,-3.);
#1344=(
MASS_UNIT()
NAMED_UNIT(*)
SI_UNIT(.KILO.,.GRAM.)
);
#1345=DERIVED_UNIT((#1342,#1343));
#1346=MEASURE_REPRESENTATION_ITEM('density measure',
POSITIVE_RATIO_MEASURE(7850.),#1345);
#1347=PROPERTY_DEFINITION_REPRESENTATION(#1352,#1349);
#1348=PROPERTY_DEFINITION_REPRESENTATION(#1353,#1350);
#1349=REPRESENTATION('material name',(#1351),#2176);
#1350=REPRESENTATION('density',(#1346),#2176);
#1351=DESCRIPTIVE_REPRESENTATION_ITEM('Steel','Steel');
#1352=PROPERTY_DEFINITION('material property','material name',#2186);
#1353=PROPERTY_DEFINITION('material property','density of part',#2186);
#1354=AXIS2_PLACEMENT_3D('',#1795,#1447,#1448);
#1355=AXIS2_PLACEMENT_3D('',#1796,#1449,#1450);
#1356=AXIS2_PLACEMENT_3D('',#1805,#1455,#1456);
#1357=AXIS2_PLACEMENT_3D('',#1812,#1460,#1461);
#1358=AXIS2_PLACEMENT_3D('',#1813,#1462,#1463);
#1359=AXIS2_PLACEMENT_3D('',#1820,#1467,#1468);
#1360=AXIS2_PLACEMENT_3D('',#1821,#1469,#1470);
#1361=AXIS2_PLACEMENT_3D('',#1824,#1473,#1474);
#1362=AXIS2_PLACEMENT_3D('',#1825,#1475,#1476);
#1363=AXIS2_PLACEMENT_3D('',#1827,#1477,#1478);
#1364=AXIS2_PLACEMENT_3D('',#1829,#1480,#1481);
#1365=AXIS2_PLACEMENT_3D('',#1832,#1483,#1484);
#1366=AXIS2_PLACEMENT_3D('',#1833,#1485,#1486);
#1367=AXIS2_PLACEMENT_3D('',#1834,#1487,#1488);
#1368=AXIS2_PLACEMENT_3D('',#1843,#1493,#1494);
#1369=AXIS2_PLACEMENT_3D('',#1850,#1498,#1499);
#1370=AXIS2_PLACEMENT_3D('',#1851,#1500,#1501);
#1371=AXIS2_PLACEMENT_3D('',#1858,#1505,#1506);
#1372=AXIS2_PLACEMENT_3D('',#1859,#1507,#1508);
#1373=AXIS2_PLACEMENT_3D('',#1862,#1511,#1512);
#1374=AXIS2_PLACEMENT_3D('',#1863,#1513,#1514);
#1375=AXIS2_PLACEMENT_3D('',#1865,#1515,#1516);
#1376=AXIS2_PLACEMENT_3D('',#1867,#1518,#1519);
#1377=AXIS2_PLACEMENT_3D('',#1870,#1521,#1522);
#1378=AXIS2_PLACEMENT_3D('',#1871,#1523,#1524);
#1379=AXIS2_PLACEMENT_3D('',#1872,#1525,#1526);
#1380=AXIS2_PLACEMENT_3D('',#1881,#1531,#1532);
#1381=AXIS2_PLACEMENT_3D('',#1891,#1538,#1539);
#1382=AXIS2_PLACEMENT_3D('',#1895,#1542,#1543);
#1383=AXIS2_PLACEMENT_3D('',#1903,#1548,#1549);
#1384=AXIS2_PLACEMENT_3D('',#1909,#1552,#1553);
#1385=AXIS2_PLACEMENT_3D('',#1913,#1555,#1556);
#1386=AXIS2_PLACEMENT_3D('',#1937,#1568,#1569);
#1387=AXIS2_PLACEMENT_3D('',#1939,#1570,#1571);
#1388=AXIS2_PLACEMENT_3D('',#1963,#1583,#1584);
#1389=AXIS2_PLACEMENT_3D('',#1965,#1585,#1586);
#1390=AXIS2_PLACEMENT_3D('',#1978,#1593,#1594);
#1391=AXIS2_PLACEMENT_3D('',#1980,#1595,#1596);
#1392=AXIS2_PLACEMENT_3D('',#1981,#1597,#1598);
#1393=AXIS2_PLACEMENT_3D('',#1985,#1601,#1602);
#1394=AXIS2_PLACEMENT_3D('',#1989,#1605,#1606);
#1395=AXIS2_PLACEMENT_3D('',#1993,#1609,#1610);
#1396=AXIS2_PLACEMENT_3D('',#1999,#1614,#1615);
#1397=AXIS2_PLACEMENT_3D('',#2007,#1620,#1621);
#1398=AXIS2_PLACEMENT_3D('',#2011,#1624,#1625);
#1399=AXIS2_PLACEMENT_3D('',#2017,#1629,#1630);
#1400=AXIS2_PLACEMENT_3D('',#2021,#1633,#1634);
#1401=AXIS2_PLACEMENT_3D('',#2025,#1637,#1638);
#1402=AXIS2_PLACEMENT_3D('',#2029,#1641,#1642);
#1403=AXIS2_PLACEMENT_3D('',#2031,#1644,#1645);
#1404=AXIS2_PLACEMENT_3D('',#2045,#1654,#1655);
#1405=AXIS2_PLACEMENT_3D('',#2049,#1658,#1659);
#1406=AXIS2_PLACEMENT_3D('',#2051,#1661,#1662);
#1407=AXIS2_PLACEMENT_3D('',#2052,#1663,#1664);
#1408=AXIS2_PLACEMENT_3D('',#2058,#1668,#1669);
#1409=AXIS2_PLACEMENT_3D('',#2062,#1672,#1673);
#1410=AXIS2_PLACEMENT_3D('',#2066,#1676,#1677);
#1411=AXIS2_PLACEMENT_3D('',#2068,#1679,#1680);
#1412=AXIS2_PLACEMENT_3D('',#2074,#1684,#1685);
#1413=AXIS2_PLACEMENT_3D('',#2083,#1690,#1691);
#1414=AXIS2_PLACEMENT_3D('',#2088,#1695,#1696);
#1415=AXIS2_PLACEMENT_3D('',#2093,#1700,#1701);
#1416=AXIS2_PLACEMENT_3D('',#2099,#1705,#1706);
#1417=AXIS2_PLACEMENT_3D('',#2105,#1710,#1711);
#1418=AXIS2_PLACEMENT_3D('',#2111,#1715,#1716);
#1419=AXIS2_PLACEMENT_3D('',#2117,#1720,#1721);
#1420=AXIS2_PLACEMENT_3D('',#2121,#1724,#1725);
#1421=AXIS2_PLACEMENT_3D('',#2125,#1728,#1729);
#1422=AXIS2_PLACEMENT_3D('',#2129,#1732,#1733);
#1423=AXIS2_PLACEMENT_3D('',#2133,#1736,#1737);
#1424=AXIS2_PLACEMENT_3D('',#2134,#1738,#1739);
#1425=AXIS2_PLACEMENT_3D('',#2137,#1741,#1742);
#1426=AXIS2_PLACEMENT_3D('',#2138,#1743,#1744);
#1427=AXIS2_PLACEMENT_3D('',#2140,#1746,#1747);
#1428=AXIS2_PLACEMENT_3D('',#2142,#1749,#1750);
#1429=AXIS2_PLACEMENT_3D('',#2144,#1751,#1752);
#1430=AXIS2_PLACEMENT_3D('',#2145,#1753,#1754);
#1431=AXIS2_PLACEMENT_3D('',#2146,#1755,#1756);
#1432=AXIS2_PLACEMENT_3D('',#2147,#1757,#1758);
#1433=AXIS2_PLACEMENT_3D('',#2149,#1760,#1761);
#1434=AXIS2_PLACEMENT_3D('',#2151,#1763,#1764);
#1435=AXIS2_PLACEMENT_3D('',#2153,#1766,#1767);
#1436=AXIS2_PLACEMENT_3D('',#2155,#1768,#1769);
#1437=AXIS2_PLACEMENT_3D('',#2157,#1771,#1772);
#1438=AXIS2_PLACEMENT_3D('',#2159,#1773,#1774);
#1439=AXIS2_PLACEMENT_3D('',#2161,#1776,#1777);
#1440=AXIS2_PLACEMENT_3D('',#2162,#1778,#1779);
#1441=AXIS2_PLACEMENT_3D('',#2163,#1780,#1781);
#1442=AXIS2_PLACEMENT_3D('',#2165,#1782,#1783);
#1443=AXIS2_PLACEMENT_3D('',#2167,#1785,#1786);
#1444=AXIS2_PLACEMENT_3D('',#2169,#1787,#1788);
#1445=AXIS2_PLACEMENT_3D('',#2171,#1790,#1791);
#1446=AXIS2_PLACEMENT_3D('',#2173,#1793,#1794);
#1447=DIRECTION('axis',(0.,0.,1.));
#1448=DIRECTION('refdir',(1.,0.,0.));
#1449=DIRECTION('center_axis',(0.,1.,0.));
#1450=DIRECTION('ref_axis',(0.,0.,1.));
#1451=DIRECTION('',(0.,0.,-1.));
#1452=DIRECTION('',(1.,0.,0.));
#1453=DIRECTION('',(0.,0.,-1.));
#1454=DIRECTION('',(-1.,0.,0.));
#1455=DIRECTION('center_axis',(0.,0.,1.));
#1456=DIRECTION('ref_axis',(1.,0.,0.));
#1457=DIRECTION('',(0.,-1.,0.));
#1458=DIRECTION('',(-1.,0.,0.));
#1459=DIRECTION('',(0.,1.,0.));
#1460=DIRECTION('center_axis',(0.,0.,-1.));
#1461=DIRECTION('ref_axis',(1.,0.,0.));
#1462=DIRECTION('center_axis',(0.,0.,1.));
#1463=DIRECTION('ref_axis',(1.,0.,0.));
#1464=DIRECTION('',(0.,1.,0.));
#1465=DIRECTION('',(0.,-1.,0.));
#1466=DIRECTION('',(1.,0.,0.));
#1467=DIRECTION('center_axis',(0.,0.,1.));
#1468=DIRECTION('ref_axis',(1.,0.,0.));
#1469=DIRECTION('center_axis',(0.,-1.,0.));
#1470=DIRECTION('ref_axis',(0.,0.,-1.));
#1471=DIRECTION('',(0.,0.,1.));
#1472=DIRECTION('',(0.,0.,-1.));
#1473=DIRECTION('center_axis',(-1.,0.,0.));
#1474=DIRECTION('ref_axis',(0.,0.,1.));
#1475=DIRECTION('center_axis',(0.,0.,1.));
#1476=DIRECTION('ref_axis',(1.,0.,0.));
#1477=DIRECTION('center_axis',(0.,0.,-1.));
#1478=DIRECTION('ref_axis',(1.,0.,0.));
#1479=DIRECTION('',(0.,0.,1.));
#1480=DIRECTION('center_axis',(0.,0.,1.));
#1481=DIRECTION('ref_axis',(1.,0.,0.));
#1482=DIRECTION('',(0.,0.,1.));
#1483=DIRECTION('center_axis',(0.,0.,-1.));
#1484=DIRECTION('ref_axis',(1.,0.,0.));
#1485=DIRECTION('center_axis',(0.,0.,-1.));
#1486=DIRECTION('ref_axis',(-1.,0.,0.));
#1487=DIRECTION('center_axis',(0.,1.,0.));
#1488=DIRECTION('ref_axis',(0.,0.,1.));
#1489=DIRECTION('',(0.,0.,-1.));
#1490=DIRECTION('',(1.,0.,0.));
#1491=DIRECTION('',(0.,0.,-1.));
#1492=DIRECTION('',(-1.,0.,0.));
#1493=DIRECTION('center_axis',(0.,0.,1.));
#1494=DIRECTION('ref_axis',(1.,0.,0.));
#1495=DIRECTION('',(0.,-1.,0.));
#1496=DIRECTION('',(-1.,0.,0.));
#1497=DIRECTION('',(0.,1.,0.));
#1498=DIRECTION('center_axis',(0.,0.,-1.));
#1499=DIRECTION('ref_axis',(1.,0.,0.));
#1500=DIRECTION('center_axis',(0.,0.,1.));
#1501=DIRECTION('ref_axis',(1.,0.,0.));
#1502=DIRECTION('',(0.,1.,0.));
#1503=DIRECTION('',(0.,-1.,0.));
#1504=DIRECTION('',(1.,0.,0.));
#1505=DIRECTION('center_axis',(0.,0.,1.));
#1506=DIRECTION('ref_axis',(1.,0.,0.));
#1507=DIRECTION('center_axis',(0.,-1.,0.));
#1508=DIRECTION('ref_axis',(0.,0.,-1.));
#1509=DIRECTION('',(0.,0.,1.));
#1510=DIRECTION('',(0.,0.,-1.));
#1511=DIRECTION('center_axis',(-1.,0.,0.));
#1512=DIRECTION('ref_axis',(0.,0.,1.));
#1513=DIRECTION('center_axis',(0.,0.,1.));
#1514=DIRECTION('ref_axis',(1.,0.,0.));
#1515=DIRECTION('center_axis',(0.,0.,-1.));
#1516=DIRECTION('ref_axis',(1.,0.,0.));
#1517=DIRECTION('',(0.,0.,1.));
#1518=DIRECTION('center_axis',(0.,0.,1.));
#1519=DIRECTION('ref_axis',(1.,0.,0.));
#1520=DIRECTION('',(0.,0.,1.));
#1521=DIRECTION('center_axis',(0.,0.,-1.));
#1522=DIRECTION('ref_axis',(1.,0.,0.));
#1523=DIRECTION('center_axis',(0.,0.,-1.));
#1524=DIRECTION('ref_axis',(-1.,0.,0.));
#1525=DIRECTION('center_axis',(-1.,0.,0.));
#1526=DIRECTION('ref_axis',(0.,0.,1.));
#1527=DIRECTION('',(0.,1.,0.));
#1528=DIRECTION('',(0.,0.,-1.));
#1529=DIRECTION('',(0.,1.,0.));
#1530=DIRECTION('',(0.,0.,-1.));
#1531=DIRECTION('center_axis',(0.,-1.,0.));
#1532=DIRECTION('ref_axis',(0.,0.,-1.));
#1533=DIRECTION('',(-1.,0.,0.));
#1534=DIRECTION('',(-1.,0.,0.));
#1535=DIRECTION('',(0.,0.,1.));
#1536=DIRECTION('',(1.,0.,0.));
#1537=DIRECTION('',(0.,0.,1.));
#1538=DIRECTION('center_axis',(0.,0.,1.));
#1539=DIRECTION('ref_axis',(1.,0.,0.));
#1540=DIRECTION('',(0.,-1.,0.));
#1541=DIRECTION('',(1.,0.,0.));
#1542=DIRECTION('center_axis',(0.,1.,0.));
#1543=DIRECTION('ref_axis',(0.,0.,1.));
#1544=DIRECTION('',(1.,0.,0.));
#1545=DIRECTION('',(0.,0.,-1.));
#1546=DIRECTION('',(-1.,0.,0.));
#1547=DIRECTION('',(0.,0.,-1.));
#1548=DIRECTION('center_axis',(0.,0.,1.));
#1549=DIRECTION('ref_axis',(1.,0.,0.));
#1550=DIRECTION('',(0.,1.,0.));
#1551=DIRECTION('',(-1.,0.,0.));
#1552=DIRECTION('center_axis',(0.,0.,1.));
#1553=DIRECTION('ref_axis',(0.707106781186547,0.707106781186547,0.));
#1554=DIRECTION('',(0.,1.,0.));
#1555=DIRECTION('center_axis',(0.,0.,1.));
#1556=DIRECTION('ref_axis',(0.707106781186547,-0.707106781186547,0.));
#1557=DIRECTION('',(-1.,0.,0.));
#1558=DIRECTION('',(0.,1.,0.));
#1559=DIRECTION('',(1.,0.,0.));
#1560=DIRECTION('',(0.,1.,0.));
#1561=DIRECTION('',(-1.,0.,0.));
#1562=DIRECTION('',(0.,1.,0.));
#1563=DIRECTION('',(1.,0.,0.));
#1564=DIRECTION('',(0.,-1.,0.));
#1565=DIRECTION('',(-1.,0.,0.));
#1566=DIRECTION('',(0.,-1.,0.));
#1567=DIRECTION('',(1.,0.,0.));
#1568=DIRECTION('center_axis',(0.,0.,1.));
#1569=DIRECTION('ref_axis',(-1.,0.,0.));
#1570=DIRECTION('center_axis',(0.,0.,1.));
#1571=DIRECTION('ref_axis',(-1.,0.,0.));
#1572=DIRECTION('',(1.,0.,0.));
#1573=DIRECTION('',(0.,1.,0.));
#1574=DIRECTION('',(-1.,0.,0.));
#1575=DIRECTION('',(0.,-1.,0.));
#1576=DIRECTION('',(1.,0.,0.));
#1577=DIRECTION('',(0.,1.,0.));
#1578=DIRECTION('',(-1.,0.,0.));
#1579=DIRECTION('',(0.,-1.,0.));
#1580=DIRECTION('',(-1.,0.,0.));
#1581=DIRECTION('',(0.,1.,0.));
#1582=DIRECTION('',(-1.,0.,0.));
#1583=DIRECTION('center_axis',(0.,0.,1.));
#1584=DIRECTION('ref_axis',(-1.,0.,0.));
#1585=DIRECTION('center_axis',(0.,0.,1.));
#1586=DIRECTION('ref_axis',(-1.,0.,0.));
#1587=DIRECTION('',(-1.,0.,0.));
#1588=DIRECTION('',(0.,-1.,0.));
#1589=DIRECTION('',(-1.,0.,0.));
#1590=DIRECTION('',(0.,-1.,0.));
#1591=DIRECTION('',(-1.,0.,0.));
#1592=DIRECTION('',(0.,1.,0.));
#1593=DIRECTION('center_axis',(0.,0.,-1.));
#1594=DIRECTION('ref_axis',(1.,0.,0.));
#1595=DIRECTION('center_axis',(0.,0.,-1.));
#1596=DIRECTION('ref_axis',(1.,0.,0.));
#1597=DIRECTION('center_axis',(1.,0.,0.));
#1598=DIRECTION('ref_axis',(0.,0.,-1.));
#1599=DIRECTION('',(0.,-1.,0.));
#1600=DIRECTION('',(0.,0.,-1.));
#1601=DIRECTION('center_axis',(1.,0.,0.));
#1602=DIRECTION('ref_axis',(0.,0.,-1.));
#1603=DIRECTION('',(0.,0.,-1.));
#1604=DIRECTION('',(0.,-1.,0.));
#1605=DIRECTION('center_axis',(0.,0.,1.));
#1606=DIRECTION('ref_axis',(1.,0.,0.));
#1607=DIRECTION('',(0.,-1.,0.));
#1608=DIRECTION('',(-1.,0.,0.));
#1609=DIRECTION('center_axis',(-1.,0.,0.));
#1610=DIRECTION('ref_axis',(0.,0.,1.));
#1611=DIRECTION('',(0.,0.,-1.));
#1612=DIRECTION('',(0.,1.,0.));
#1613=DIRECTION('',(0.,0.,-1.));
#1614=DIRECTION('center_axis',(0.,-1.,0.));
#1615=DIRECTION('ref_axis',(0.,0.,-1.));
#1616=DIRECTION('',(-1.,0.,0.));
#1617=DIRECTION('',(0.,0.,1.));
#1618=DIRECTION('',(1.,0.,0.));
#1619=DIRECTION('',(0.,0.,1.));
#1620=DIRECTION('center_axis',(0.,0.,1.));
#1621=DIRECTION('ref_axis',(1.,0.,0.));
#1622=DIRECTION('',(0.,-1.,0.));
#1623=DIRECTION('',(1.,0.,0.));
#1624=DIRECTION('center_axis',(0.,1.,0.));
#1625=DIRECTION('ref_axis',(0.,0.,1.));
#1626=DIRECTION('',(0.,0.,-1.));
#1627=DIRECTION('',(-1.,0.,0.));
#1628=DIRECTION('',(0.,0.,-1.));
#1629=DIRECTION('center_axis',(1.,0.,0.));
#1630=DIRECTION('ref_axis',(0.,0.,-1.));
#1631=DIRECTION('',(0.,-1.,0.));
#1632=DIRECTION('',(0.,0.,-1.));
#1633=DIRECTION('center_axis',(0.,0.,1.));
#1634=DIRECTION('ref_axis',(1.,0.,0.));
#1635=DIRECTION('',(0.,-1.,0.));
#1636=DIRECTION('',(-1.,0.,0.));
#1637=DIRECTION('center_axis',(0.,0.,1.));
#1638=DIRECTION('ref_axis',(1.,0.,0.));
#1639=DIRECTION('',(1.,0.,0.));
#1640=DIRECTION('',(0.,-1.,0.));
#1641=DIRECTION('center_axis',(0.,1.,0.));
#1642=DIRECTION('ref_axis',(0.,0.,1.));
#1643=DIRECTION('',(0.,0.,-1.));
#1644=DIRECTION('center_axis',(-1.,0.,0.));
#1645=DIRECTION('ref_axis',(0.,0.,1.));
#1646=DIRECTION('',(0.,1.32563943238825E-16,1.));
#1647=DIRECTION('',(0.,1.,0.));
#1648=DIRECTION('',(0.,-9.94229574291185E-17,-1.));
#1649=DIRECTION('',(0.,0.,1.));
#1650=DIRECTION('',(0.,-1.,0.));
#1651=DIRECTION('',(0.,0.,1.));
#1652=DIRECTION('',(0.,-1.,0.));
#1653=DIRECTION('',(0.,0.,1.));
#1654=DIRECTION('center_axis',(0.,0.,1.));
#1655=DIRECTION('ref_axis',(1.,0.,0.));
#1656=DIRECTION('',(0.,-1.,0.));
#1657=DIRECTION('',(1.,0.,0.));
#1658=DIRECTION('center_axis',(1.,0.,0.));
#1659=DIRECTION('ref_axis',(0.,0.,-1.));
#1660=DIRECTION('',(0.,0.,-1.));
#1661=DIRECTION('center_axis',(0.,-1.,0.));
#1662=DIRECTION('ref_axis',(0.,0.,-1.));
#1663=DIRECTION('center_axis',(0.,1.,0.));
#1664=DIRECTION('ref_axis',(0.,0.,1.));
#1665=DIRECTION('',(0.,0.,-1.));
#1666=DIRECTION('',(1.,0.,0.));
#1667=DIRECTION('',(0.,0.,-1.));
#1668=DIRECTION('center_axis',(-1.,0.,0.));
#1669=DIRECTION('ref_axis',(0.,0.,1.));
#1670=DIRECTION('',(0.,1.,0.));
#1671=DIRECTION('',(0.,0.,-1.));
#1672=DIRECTION('center_axis',(0.,-1.,0.));
#1673=DIRECTION('ref_axis',(0.,0.,-1.));
#1674=DIRECTION('',(-1.,0.,0.));
#1675=DIRECTION('',(0.,0.,-1.));
#1676=DIRECTION('center_axis',(0.,0.,1.));
#1677=DIRECTION('ref_axis',(1.,0.,0.));
#1678=DIRECTION('',(0.,-1.,0.));
#1679=DIRECTION('center_axis',(1.,0.,0.));
#1680=DIRECTION('ref_axis',(0.,0.,-1.));
#1681=DIRECTION('',(0.,-9.94229574291185E-17,-1.));
#1682=DIRECTION('',(0.,-1.,0.));
#1683=DIRECTION('',(0.,1.32563943238825E-16,1.));
#1684=DIRECTION('center_axis',(-1.,0.,0.));
#1685=DIRECTION('ref_axis',(0.,0.,1.));
#1686=DIRECTION('',(0.,-1.,0.));
#1687=DIRECTION('',(0.,0.,-1.));
#1688=DIRECTION('',(0.,1.,0.));
#1689=DIRECTION('',(0.,0.,-1.));
#1690=DIRECTION('center_axis',(0.,1.,0.));
#1691=DIRECTION('ref_axis',(-1.,0.,0.));
#1692=DIRECTION('',(-1.,0.,0.));
#1693=DIRECTION('',(0.,0.,1.));
#1694=DIRECTION('',(-1.,0.,0.));
#1695=DIRECTION('center_axis',(-9.70547373549473E-34,-1.,0.));
#1696=DIRECTION('ref_axis',(1.,-9.70547373549473E-34,0.));
#1697=DIRECTION('',(0.,0.,-1.));
#1698=DIRECTION('',(1.,-9.70547373549473E-34,0.));
#1699=DIRECTION('',(1.,0.,0.));
#1700=DIRECTION('center_axis',(0.,1.,0.));
#1701=DIRECTION('ref_axis',(0.,0.,1.));
#1702=DIRECTION('',(0.,0.,-1.));
#1703=DIRECTION('',(1.,0.,0.));
#1704=DIRECTION('',(0.,0.,-1.));
#1705=DIRECTION('center_axis',(0.,1.,0.));
#1706=DIRECTION('ref_axis',(0.,0.,1.));
#1707=DIRECTION('',(0.,0.,-1.));
#1708=DIRECTION('',(1.,0.,0.));
#1709=DIRECTION('',(0.,0.,1.));
#1710=DIRECTION('center_axis',(1.,0.,0.));
#1711=DIRECTION('ref_axis',(0.,0.,-1.));
#1712=DIRECTION('',(0.,0.,-1.));
#1713=DIRECTION('',(0.,-1.,0.));
#1714=DIRECTION('',(0.,1.32563943238825E-16,1.));
#1715=DIRECTION('center_axis',(-1.,0.,0.));
#1716=DIRECTION('ref_axis',(0.,0.,1.));
#1717=DIRECTION('',(0.,-1.32563943238825E-16,-1.));
#1718=DIRECTION('',(0.,1.,0.));
#1719=DIRECTION('',(0.,0.,-1.));
#1720=DIRECTION('center_axis',(-1.,0.,0.));
#1721=DIRECTION('ref_axis',(0.,0.,1.));
#1722=DIRECTION('',(0.,1.,0.));
#1723=DIRECTION('',(0.,9.94229574291185E-17,1.));
#1724=DIRECTION('center_axis',(0.,-1.,0.));
#1725=DIRECTION('ref_axis',(0.,0.,-1.));
#1726=DIRECTION('',(-1.,0.,0.));
#1727=DIRECTION('',(0.,0.,1.));
#1728=DIRECTION('center_axis',(1.,0.,0.));
#1729=DIRECTION('ref_axis',(0.,0.,-1.));
#1730=DIRECTION('',(0.,-9.94229574291185E-17,-1.));
#1731=DIRECTION('',(0.,-1.,0.));
#1732=DIRECTION('center_axis',(0.,-1.,0.));
#1733=DIRECTION('ref_axis',(0.,0.,-1.));
#1734=DIRECTION('',(0.,0.,-1.));
#1735=DIRECTION('',(-1.,0.,0.));
#1736=DIRECTION('center_axis',(0.,0.,1.));
#1737=DIRECTION('ref_axis',(-1.,0.,0.));
#1738=DIRECTION('center_axis',(0.,0.,-1.));
#1739=DIRECTION('ref_axis',(-1.,0.,0.));
#1740=DIRECTION('',(0.,0.,1.));
#1741=DIRECTION('center_axis',(0.,0.,-1.));
#1742=DIRECTION('ref_axis',(-1.,0.,0.));
#1743=DIRECTION('center_axis',(0.,-1.,1.32563943238825E-16));
#1744=DIRECTION('ref_axis',(0.,1.32563943238825E-16,1.));
#1745=DIRECTION('',(-1.,0.,0.));
#1746=DIRECTION('center_axis',(0.,1.,-9.94229574291185E-17));
#1747=DIRECTION('ref_axis',(0.,-9.94229574291185E-17,-1.));
#1748=DIRECTION('',(-1.,0.,0.));
#1749=DIRECTION('center_axis',(0.,0.,1.));
#1750=DIRECTION('ref_axis',(1.,0.,0.));
#1751=DIRECTION('center_axis',(0.,0.,-1.));
#1752=DIRECTION('ref_axis',(-1.,0.,0.));
#1753=DIRECTION('center_axis',(0.,0.,1.));
#1754=DIRECTION('ref_axis',(1.,0.,0.));
#1755=DIRECTION('center_axis',(0.,0.,1.));
#1756=DIRECTION('ref_axis',(1.,0.,0.));
#1757=DIRECTION('center_axis',(0.,0.,1.));
#1758=DIRECTION('ref_axis',(-1.,0.,0.));
#1759=DIRECTION('',(-1.,0.,0.));
#1760=DIRECTION('center_axis',(0.,0.,-1.));
#1761=DIRECTION('ref_axis',(-1.,0.,0.));
#1762=DIRECTION('',(-1.,0.,0.));
#1763=DIRECTION('center_axis',(0.,0.,1.));
#1764=DIRECTION('ref_axis',(-1.,0.,0.));
#1765=DIRECTION('',(0.,0.,1.));
#1766=DIRECTION('center_axis',(0.,0.,1.));
#1767=DIRECTION('ref_axis',(0.707106781186547,0.707106781186547,0.));
#1768=DIRECTION('center_axis',(0.,0.,-1.));
#1769=DIRECTION('ref_axis',(0.707106781186547,0.707106781186547,0.));
#1770=DIRECTION('',(0.,0.,-1.));
#1771=DIRECTION('center_axis',(0.,0.,1.));
#1772=DIRECTION('ref_axis',(0.707106781186547,-0.707106781186547,0.));
#1773=DIRECTION('center_axis',(0.,0.,-1.));
#1774=DIRECTION('ref_axis',(0.707106781186547,-0.707106781186547,0.));
#1775=DIRECTION('',(0.,0.,1.));
#1776=DIRECTION('center_axis',(0.,1.,-9.94229574291185E-17));
#1777=DIRECTION('ref_axis',(0.,-9.94229574291185E-17,-1.));
#1778=DIRECTION('center_axis',(0.,-1.,1.32563943238825E-16));
#1779=DIRECTION('ref_axis',(0.,1.32563943238825E-16,1.));
#1780=DIRECTION('center_axis',(0.,0.,1.));
#1781=DIRECTION('ref_axis',(1.,0.,0.));
#1782=DIRECTION('center_axis',(0.,0.,-1.));
#1783=DIRECTION('ref_axis',(1.,0.,0.));
#1784=DIRECTION('',(0.,0.,-1.));
#1785=DIRECTION('center_axis',(0.,0.,1.));
#1786=DIRECTION('ref_axis',(1.,0.,0.));
#1787=DIRECTION('center_axis',(0.,0.,-1.));
#1788=DIRECTION('ref_axis',(1.,0.,0.));
#1789=DIRECTION('',(0.,0.,-1.));
#1790=DIRECTION('center_axis',(1.,0.,0.));
#1791=DIRECTION('ref_axis',(0.,1.,0.));
#1792=DIRECTION('',(0.,1.,0.));
#1793=DIRECTION('center_axis',(0.,0.,1.));
#1794=DIRECTION('ref_axis',(1.,0.,0.));
#1795=CARTESIAN_POINT('',(0.,0.,0.));
#1796=CARTESIAN_POINT('Origin',(-9.85,26.6,70.75));
#1797=CARTESIAN_POINT('',(-15.,26.6,72.1));
#1798=CARTESIAN_POINT('',(-15.,26.6,69.4));
#1799=CARTESIAN_POINT('',(-15.,26.6,52.125));
#1800=CARTESIAN_POINT('',(-4.6,26.6,72.1));
#1801=CARTESIAN_POINT('',(-9.85,26.6,72.1));
#1802=CARTESIAN_POINT('',(-4.6,26.6,69.4));
#1803=CARTESIAN_POINT('',(-4.6,26.6,70.75));
#1804=CARTESIAN_POINT('',(-9.85,26.6,69.4));
#1805=CARTESIAN_POINT('Origin',(-9.85,29.45,72.1));
#1806=CARTESIAN_POINT('',(-15.,32.3,72.1));
#1807=CARTESIAN_POINT('',(-15.,17.28125,72.1));
#1808=CARTESIAN_POINT('',(-4.6,32.3,72.1));
#1809=CARTESIAN_POINT('',(-9.85,32.3,72.1));
#1810=CARTESIAN_POINT('',(-4.6,29.45,72.1));
#1811=CARTESIAN_POINT('',(-9.2,29.45,72.1));
#1812=CARTESIAN_POINT('Origin',(-7.5,29.45,72.1));
#1813=CARTESIAN_POINT('Origin',(-9.85,29.45,69.4));
#1814=CARTESIAN_POINT('',(-15.,32.3,69.4));
#1815=CARTESIAN_POINT('',(-15.,17.28125,69.4));
#1816=CARTESIAN_POINT('',(-4.6,32.3,69.4));
#1817=CARTESIAN_POINT('',(-4.6,29.45,69.4));
#1818=CARTESIAN_POINT('',(-9.85,32.3,69.4));
#1819=CARTESIAN_POINT('',(-9.2,29.45,69.4));
#1820=CARTESIAN_POINT('Origin',(-7.5,29.45,69.4));
#1821=CARTESIAN_POINT('Origin',(-9.85,32.3,70.75));
#1822=CARTESIAN_POINT('',(-15.,32.3,52.125));
#1823=CARTESIAN_POINT('',(-4.6,32.3,70.75));
#1824=CARTESIAN_POINT('Origin',(-4.6,29.45,70.75));
#1825=CARTESIAN_POINT('Origin',(-7.5,29.45,71.3));
#1826=CARTESIAN_POINT('',(-9.2,29.45,68.5));
#1827=CARTESIAN_POINT('Origin',(-7.5,29.45,68.5));
#1828=CARTESIAN_POINT('',(-9.2,29.45,71.3));
#1829=CARTESIAN_POINT('Origin',(-7.5,29.45,71.3));
#1830=CARTESIAN_POINT('',(-9.2,29.45,74.));
#1831=CARTESIAN_POINT('',(-9.2,29.45,71.3));
#1832=CARTESIAN_POINT('Origin',(-7.5,29.45,74.));
#1833=CARTESIAN_POINT('Origin',(-7.5,29.45,68.5));
#1834=CARTESIAN_POINT('Origin',(-9.85,12.15,70.75));
#1835=CARTESIAN_POINT('',(-15.,12.15,72.1));
#1836=CARTESIAN_POINT('',(-15.,12.15,69.4));
#1837=CARTESIAN_POINT('',(-15.,12.15,52.125));
#1838=CARTESIAN_POINT('',(-4.6,12.15,72.1));
#1839=CARTESIAN_POINT('',(-9.85,12.15,72.1));
#1840=CARTESIAN_POINT('',(-4.6,12.15,69.4));
#1841=CARTESIAN_POINT('',(-4.6,12.15,70.75));
#1842=CARTESIAN_POINT('',(-9.85,12.15,69.4));
#1843=CARTESIAN_POINT('Origin',(-9.85,15.,72.1));
#1844=CARTESIAN_POINT('',(-15.,17.85,72.1));
#1845=CARTESIAN_POINT('',(-15.,10.05625,72.1));
#1846=CARTESIAN_POINT('',(-4.6,17.85,72.1));
#1847=CARTESIAN_POINT('',(-9.85,17.85,72.1));
#1848=CARTESIAN_POINT('',(-4.6,15.,72.1));
#1849=CARTESIAN_POINT('',(-9.2,15.,72.1));
#1850=CARTESIAN_POINT('Origin',(-7.5,15.,72.1));
#1851=CARTESIAN_POINT('Origin',(-9.85,15.,69.4));
#1852=CARTESIAN_POINT('',(-15.,17.85,69.4));
#1853=CARTESIAN_POINT('',(-15.,10.05625,69.4));
#1854=CARTESIAN_POINT('',(-4.6,17.85,69.4));
#1855=CARTESIAN_POINT('',(-4.6,15.,69.4));
#1856=CARTESIAN_POINT('',(-9.85,17.85,69.4));
#1857=CARTESIAN_POINT('',(-9.2,15.,69.4));
#1858=CARTESIAN_POINT('Origin',(-7.5,15.,69.4));
#1859=CARTESIAN_POINT('Origin',(-9.85,17.85,70.75));
#1860=CARTESIAN_POINT('',(-15.,17.85,52.125));
#1861=CARTESIAN_POINT('',(-4.6,17.85,70.75));
#1862=CARTESIAN_POINT('Origin',(-4.6,15.,70.75));
#1863=CARTESIAN_POINT('Origin',(-7.5,15.,71.3));
#1864=CARTESIAN_POINT('',(-9.2,15.,68.5));
#1865=CARTESIAN_POINT('Origin',(-7.5,15.,68.5));
#1866=CARTESIAN_POINT('',(-9.2,15.,71.3));
#1867=CARTESIAN_POINT('Origin',(-7.5,15.,71.3));
#1868=CARTESIAN_POINT('',(-9.2,15.,74.));
#1869=CARTESIAN_POINT('',(-9.2,15.,71.3));
#1870=CARTESIAN_POINT('Origin',(-7.5,15.,74.));
#1871=CARTESIAN_POINT('Origin',(-7.5,15.,68.5));
#1872=CARTESIAN_POINT('Origin',(-13.,41.25,36.));
#1873=CARTESIAN_POINT('',(-13.,40.05,0.));
#1874=CARTESIAN_POINT('',(-13.,42.45,0.));
#1875=CARTESIAN_POINT('',(-13.,31.7375,0.));
#1876=CARTESIAN_POINT('',(-13.,40.05,72.1));
#1877=CARTESIAN_POINT('',(-13.,40.05,36.));
#1878=CARTESIAN_POINT('',(-13.,42.45,72.1));
#1879=CARTESIAN_POINT('',(-13.,41.25,72.1));
#1880=CARTESIAN_POINT('',(-13.,42.45,36.));
#1881=CARTESIAN_POINT('Origin',(-19.05,42.45,36.));
#1882=CARTESIAN_POINT('',(-25.,42.45,0.));
#1883=CARTESIAN_POINT('',(-5.55625,42.45,0.));
#1884=CARTESIAN_POINT('',(-15.,42.45,72.1));
#1885=CARTESIAN_POINT('',(-19.05,42.45,72.1));
#1886=CARTESIAN_POINT('',(-15.,42.45,72.));
#1887=CARTESIAN_POINT('',(-15.,42.45,34.75));
#1888=CARTESIAN_POINT('',(-25.,42.45,72.));
#1889=CARTESIAN_POINT('',(-19.525,42.45,72.));
#1890=CARTESIAN_POINT('',(-25.,42.45,36.));
#1891=CARTESIAN_POINT('Origin',(-19.05,41.25,72.1));
#1892=CARTESIAN_POINT('',(-15.,40.05,72.1));
#1893=CARTESIAN_POINT('',(-15.,23.18125,72.1));
#1894=CARTESIAN_POINT('',(-19.05,40.05,72.1));
#1895=CARTESIAN_POINT('Origin',(-19.05,40.05,36.));
#1896=CARTESIAN_POINT('',(-25.,40.05,0.));
#1897=CARTESIAN_POINT('',(-5.55625,40.05,0.));
#1898=CARTESIAN_POINT('',(-25.,40.05,72.));
#1899=CARTESIAN_POINT('',(-25.,40.05,36.));
#1900=CARTESIAN_POINT('',(-15.,40.05,72.));
#1901=CARTESIAN_POINT('',(-19.525,40.05,72.));
#1902=CARTESIAN_POINT('',(-15.,40.05,34.75));
#1903=CARTESIAN_POINT('Origin',(7.9375,22.225,0.));
#1904=CARTESIAN_POINT('',(-25.,44.45,0.));
#1905=CARTESIAN_POINT('',(-25.,41.25,0.));
#1906=CARTESIAN_POINT('',(10.875,44.45,0.));
#1907=CARTESIAN_POINT('',(15.875,44.45,0.));
#1908=CARTESIAN_POINT('',(15.875,39.45,0.));
#1909=CARTESIAN_POINT('Origin',(10.875,39.45,0.));
#1910=CARTESIAN_POINT('',(15.875,5.,0.));
#1911=CARTESIAN_POINT('',(15.875,-1.54074395550979E-32,0.));
#1912=CARTESIAN_POINT('',(10.875,0.,0.));
#1913=CARTESIAN_POINT('Origin',(10.875,5.,0.));
#1914=CARTESIAN_POINT('',(-25.,0.,0.));
#1915=CARTESIAN_POINT('',(0.,0.,0.));
#1916=CARTESIAN_POINT('',(-25.,2.,0.));
#1917=CARTESIAN_POINT('',(-25.,3.2,0.));
#1918=CARTESIAN_POINT('',(-13.,2.,0.));
#1919=CARTESIAN_POINT('',(-5.55625,2.,0.));
#1920=CARTESIAN_POINT('',(-13.,4.4,0.));
#1921=CARTESIAN_POINT('',(-13.,12.7125,0.));
#1922=CARTESIAN_POINT('',(-25.,4.4,0.));
#1923=CARTESIAN_POINT('',(-5.55625,4.4,0.));
#1924=CARTESIAN_POINT('',(-25.,6.4,0.));
#1925=CARTESIAN_POINT('',(-25.,3.2,0.));
#1926=CARTESIAN_POINT('',(-15.,6.4,0.));
#1927=CARTESIAN_POINT('',(-20.,6.4,0.));
#1928=CARTESIAN_POINT('',(-15.,10.225,0.));
#1929=CARTESIAN_POINT('',(-15.,44.45,0.));
#1930=CARTESIAN_POINT('',(-12.5,10.225,0.));
#1931=CARTESIAN_POINT('',(0.,10.225,0.));
#1932=CARTESIAN_POINT('',(-12.5,10.1,0.));
#1933=CARTESIAN_POINT('',(-12.5,22.225,0.));
#1934=CARTESIAN_POINT('',(-8.49215674164922,10.1,0.));
#1935=CARTESIAN_POINT('',(0.21875,10.1,0.));
#1936=CARTESIAN_POINT('',(-3.5,6.225,-8.88178419700125E-15));
#1937=CARTESIAN_POINT('Origin',(-7.5,6.225,0.));
#1938=CARTESIAN_POINT('',(-6.50784325835078,10.1,0.));
#1939=CARTESIAN_POINT('Origin',(-7.5,6.225,0.));
#1940=CARTESIAN_POINT('',(-2.5,10.1,0.));
#1941=CARTESIAN_POINT('',(0.21875,10.1,0.));
#1942=CARTESIAN_POINT('',(-2.5,10.225,0.));
#1943=CARTESIAN_POINT('',(-2.5,22.225,0.));
#1944=CARTESIAN_POINT('',(-0.05,10.225,0.));
#1945=CARTESIAN_POINT('',(0.,10.225,0.));
#1946=CARTESIAN_POINT('',(-0.05,9.7,0.));
#1947=CARTESIAN_POINT('',(-0.05,22.2125,0.));
#1948=CARTESIAN_POINT('',(0.65,9.7,0.));
#1949=CARTESIAN_POINT('',(4.11875,9.7,0.));
#1950=CARTESIAN_POINT('',(0.65,34.7,0.));
#1951=CARTESIAN_POINT('',(0.650000000000001,22.2125,0.));
#1952=CARTESIAN_POINT('',(-0.05,34.7,0.));
#1953=CARTESIAN_POINT('',(4.11875,34.7,0.));
#1954=CARTESIAN_POINT('',(-0.05,34.225,0.));
#1955=CARTESIAN_POINT('',(-0.05,22.2125,0.));
#1956=CARTESIAN_POINT('',(-2.5,34.225,0.));
#1957=CARTESIAN_POINT('',(0.,34.225,0.));
#1958=CARTESIAN_POINT('',(-2.5,34.35,0.));
#1959=CARTESIAN_POINT('',(-2.5,22.225,0.));
#1960=CARTESIAN_POINT('',(-6.50784325835077,34.35,0.));
#1961=CARTESIAN_POINT('',(0.21875,34.35,0.));
#1962=CARTESIAN_POINT('',(-3.5,38.225,0.));
#1963=CARTESIAN_POINT('Origin',(-7.5,38.225,0.));
#1964=CARTESIAN_POINT('',(-8.49215674164923,34.35,0.));
#1965=CARTESIAN_POINT('Origin',(-7.5,38.225,0.));
#1966=CARTESIAN_POINT('',(-12.5,34.35,0.));
#1967=CARTESIAN_POINT('',(0.21875,34.35,0.));
#1968=CARTESIAN_POINT('',(-12.5,34.225,0.));
#1969=CARTESIAN_POINT('',(-12.5,22.225,0.));
#1970=CARTESIAN_POINT('',(-15.,34.225,0.));
#1971=CARTESIAN_POINT('',(0.,34.225,0.));
#1972=CARTESIAN_POINT('',(-15.,38.05,0.));
#1973=CARTESIAN_POINT('',(-15.,44.45,0.));
#1974=CARTESIAN_POINT('',(-25.,38.05,0.));
#1975=CARTESIAN_POINT('',(-20.,38.05,0.));
#1976=CARTESIAN_POINT('',(-25.,41.25,0.));
#1977=CARTESIAN_POINT('',(5.53749999999999,6.35,0.));
#1978=CARTESIAN_POINT('Origin',(7.93749999999999,6.35,0.));
#1979=CARTESIAN_POINT('',(5.5375,38.1,0.));
#1980=CARTESIAN_POINT('Origin',(7.9375,38.1,0.));
#1981=CARTESIAN_POINT('Origin',(-25.,41.25,36.));
#1982=CARTESIAN_POINT('',(-25.,44.45,72.));
#1983=CARTESIAN_POINT('',(-25.,41.25,72.));
#1984=CARTESIAN_POINT('',(-25.,44.45,36.));
#1985=CARTESIAN_POINT('Origin',(-25.,41.25,36.));
#1986=CARTESIAN_POINT('',(-25.,38.05,72.));
#1987=CARTESIAN_POINT('',(-25.,38.05,36.));
#1988=CARTESIAN_POINT('',(-25.,41.25,72.));
#1989=CARTESIAN_POINT('Origin',(-20.,41.25,72.));
#1990=CARTESIAN_POINT('',(-15.,44.45,72.));
#1991=CARTESIAN_POINT('',(-15.,23.18125,72.));
#1992=CARTESIAN_POINT('',(-20.,44.45,72.));
#1993=CARTESIAN_POINT('Origin',(-13.,3.2,36.));
#1994=CARTESIAN_POINT('',(-13.,2.,72.1));
#1995=CARTESIAN_POINT('',(-13.,2.,36.));
#1996=CARTESIAN_POINT('',(-13.,4.4,72.1));
#1997=CARTESIAN_POINT('',(-13.,3.2,72.1));
#1998=CARTESIAN_POINT('',(-13.,4.4,36.));
#1999=CARTESIAN_POINT('Origin',(-19.05,4.4,36.));
#2000=CARTESIAN_POINT('',(-15.,4.4,72.1));
#2001=CARTESIAN_POINT('',(-19.05,4.4,72.1));
#2002=CARTESIAN_POINT('',(-15.,4.4,72.));
#2003=CARTESIAN_POINT('',(-15.,4.4,34.75));
#2004=CARTESIAN_POINT('',(-25.,4.4,72.));
#2005=CARTESIAN_POINT('',(-19.525,4.4,72.));
#2006=CARTESIAN_POINT('',(-25.,4.4,36.));
#2007=CARTESIAN_POINT('Origin',(-19.05,3.2,72.1));
#2008=CARTESIAN_POINT('',(-15.,2.,72.1));
#2009=CARTESIAN_POINT('',(-15.,4.15625,72.1));
#2010=CARTESIAN_POINT('',(-19.05,2.,72.1));
#2011=CARTESIAN_POINT('Origin',(-19.05,2.,36.));
#2012=CARTESIAN_POINT('',(-25.,2.,72.));
#2013=CARTESIAN_POINT('',(-25.,2.,36.));
#2014=CARTESIAN_POINT('',(-15.,2.,72.));
#2015=CARTESIAN_POINT('',(-19.525,2.,72.));
#2016=CARTESIAN_POINT('',(-15.,2.,34.75));
#2017=CARTESIAN_POINT('Origin',(-25.,3.2,36.));
#2018=CARTESIAN_POINT('',(-25.,6.4,72.));
#2019=CARTESIAN_POINT('',(-25.,3.2,72.));
#2020=CARTESIAN_POINT('',(-25.,6.4,36.));
#2021=CARTESIAN_POINT('Origin',(-20.,3.2,72.));
#2022=CARTESIAN_POINT('',(-15.,6.4,72.));
#2023=CARTESIAN_POINT('',(-15.,4.15625,72.));
#2024=CARTESIAN_POINT('',(-20.,6.4,72.));
#2025=CARTESIAN_POINT('Origin',(-20.,41.25,72.));
#2026=CARTESIAN_POINT('',(-15.,38.05,72.));
#2027=CARTESIAN_POINT('',(-20.,38.05,72.));
#2028=CARTESIAN_POINT('',(-15.,23.18125,72.));
#2029=CARTESIAN_POINT('Origin',(-20.,38.05,36.));
#2030=CARTESIAN_POINT('',(-15.,38.05,34.75));
#2031=CARTESIAN_POINT('Origin',(-15.,5.1125,33.5));
#2032=CARTESIAN_POINT('',(-15.,34.225,67.));
#2033=CARTESIAN_POINT('',(-15.,34.225,67.));
#2034=CARTESIAN_POINT('',(-15.,10.225,67.));
#2035=CARTESIAN_POINT('',(-15.,0.,67.));
#2036=CARTESIAN_POINT('',(-15.,10.225,67.));
#2037=CARTESIAN_POINT('',(-15.,6.4,34.75));
#2038=CARTESIAN_POINT('',(-15.,0.,72.));
#2039=CARTESIAN_POINT('',(-15.,4.15625,72.));
#2040=CARTESIAN_POINT('',(-15.,0.,74.));
#2041=CARTESIAN_POINT('',(-15.,0.,0.));
#2042=CARTESIAN_POINT('',(-15.,44.45,74.));
#2043=CARTESIAN_POINT('',(-15.,22.225,74.));
#2044=CARTESIAN_POINT('',(-15.,44.45,67.));
#2045=CARTESIAN_POINT('Origin',(-20.,3.2,72.));
#2046=CARTESIAN_POINT('',(-25.,0.,72.));
#2047=CARTESIAN_POINT('',(-25.,3.2,72.));
#2048=CARTESIAN_POINT('',(-20.,0.,72.));
#2049=CARTESIAN_POINT('Origin',(-25.,3.2,36.));
#2050=CARTESIAN_POINT('',(-25.,0.,36.));
#2051=CARTESIAN_POINT('Origin',(-20.,6.4,36.));
#2052=CARTESIAN_POINT('Origin',(0.3,9.7,33.5));
#2053=CARTESIAN_POINT('',(-0.05,9.7,67.1));
#2054=CARTESIAN_POINT('',(-0.05,9.7,33.5));
#2055=CARTESIAN_POINT('',(0.65,9.7,67.1));
#2056=CARTESIAN_POINT('',(0.3,9.7,67.1));
#2057=CARTESIAN_POINT('',(0.65,9.7,33.5));
#2058=CARTESIAN_POINT('Origin',(0.65,22.2,33.5));
#2059=CARTESIAN_POINT('',(0.65,34.7,67.1));
#2060=CARTESIAN_POINT('',(0.65,22.2,67.1));
#2061=CARTESIAN_POINT('',(0.65,34.7,33.5));
#2062=CARTESIAN_POINT('Origin',(0.3,34.7,33.5));
#2063=CARTESIAN_POINT('',(-0.05,34.7,67.1));
#2064=CARTESIAN_POINT('',(0.3,34.7,67.1));
#2065=CARTESIAN_POINT('',(-0.05,34.7,33.5));
#2066=CARTESIAN_POINT('Origin',(0.3,22.2,67.1));
#2067=CARTESIAN_POINT('',(-0.05,22.2,67.1));
#2068=CARTESIAN_POINT('Origin',(-0.05,22.2,33.5));
#2069=CARTESIAN_POINT('',(-0.05,10.225,67.));
#2070=CARTESIAN_POINT('',(-0.05,10.225,50.25));
#2071=CARTESIAN_POINT('',(-0.05,34.225,67.));
#2072=CARTESIAN_POINT('',(-0.05,22.2125,67.));
#2073=CARTESIAN_POINT('',(-0.05,34.225,16.75));
#2074=CARTESIAN_POINT('Origin',(2.,22.225,37.));
#2075=CARTESIAN_POINT('',(2.,44.45,2.));
#2076=CARTESIAN_POINT('',(2.,0.,2.));
#2077=CARTESIAN_POINT('',(2.,22.225,2.));
#2078=CARTESIAN_POINT('',(2.,44.45,74.));
#2079=CARTESIAN_POINT('',(2.,44.45,37.));
#2080=CARTESIAN_POINT('',(2.,0.,74.));
#2081=CARTESIAN_POINT('',(2.,22.225,74.));
#2082=CARTESIAN_POINT('',(2.,0.,37.));
#2083=CARTESIAN_POINT('Origin',(15.875,44.45,0.));
#2084=CARTESIAN_POINT('',(10.875,44.45,2.));
#2085=CARTESIAN_POINT('',(15.875,44.45,2.));
#2086=CARTESIAN_POINT('',(10.875,44.45,0.));
#2087=CARTESIAN_POINT('',(-7.5,44.45,74.));
#2088=CARTESIAN_POINT('Origin',(0.,0.,0.));
#2089=CARTESIAN_POINT('',(10.875,-1.05547026873505E-32,2.));
#2090=CARTESIAN_POINT('',(10.875,0.,0.));
#2091=CARTESIAN_POINT('',(0.,0.,2.));
#2092=CARTESIAN_POINT('',(1.,0.,74.));
#2093=CARTESIAN_POINT('Origin',(-7.5,10.1,33.));
#2094=CARTESIAN_POINT('',(-6.50784325835078,10.1,67.));
#2095=CARTESIAN_POINT('',(-6.50784325835078,10.1,67.));
#2096=CARTESIAN_POINT('',(-2.5,10.1,67.));
#2097=CARTESIAN_POINT('',(-7.5,10.1,67.));
#2098=CARTESIAN_POINT('',(-2.5,10.1,33.));
#2099=CARTESIAN_POINT('Origin',(-7.5,10.1,33.));
#2100=CARTESIAN_POINT('',(-12.5,10.1,67.));
#2101=CARTESIAN_POINT('',(-12.5,10.1,33.));
#2102=CARTESIAN_POINT('',(-8.49215674164922,10.1,67.));
#2103=CARTESIAN_POINT('',(-7.5,10.1,67.));
#2104=CARTESIAN_POINT('',(-8.49215674164922,10.1,67.));
#2105=CARTESIAN_POINT('Origin',(-12.5,22.225,33.));
#2106=CARTESIAN_POINT('',(-12.5,34.35,67.));
#2107=CARTESIAN_POINT('',(-12.5,34.35,33.));
#2108=CARTESIAN_POINT('',(-12.5,34.225,67.));
#2109=CARTESIAN_POINT('',(-12.5,22.225,67.));
#2110=CARTESIAN_POINT('',(-12.5,34.225,16.5));
#2111=CARTESIAN_POINT('Origin',(-2.5,22.225,33.));
#2112=CARTESIAN_POINT('',(-2.5,34.225,67.));
#2113=CARTESIAN_POINT('',(-2.5,34.225,16.5));
#2114=CARTESIAN_POINT('',(-2.5,34.35,67.));
#2115=CARTESIAN_POINT('',(-2.5,22.225,67.));
#2116=CARTESIAN_POINT('',(-2.5,34.35,33.));
#2117=CARTESIAN_POINT('Origin',(-2.5,22.225,33.));
#2118=CARTESIAN_POINT('',(-2.5,10.225,67.));
#2119=CARTESIAN_POINT('',(-2.5,22.225,67.));
#2120=CARTESIAN_POINT('',(-2.5,10.225,50.));
#2121=CARTESIAN_POINT('Origin',(-7.5,34.35,33.));
#2122=CARTESIAN_POINT('',(-6.50784325835077,34.35,67.));
#2123=CARTESIAN_POINT('',(-7.5,34.35,67.));
#2124=CARTESIAN_POINT('',(-6.50784325835077,34.35,67.));
#2125=CARTESIAN_POINT('Origin',(-12.5,22.225,33.));
#2126=CARTESIAN_POINT('',(-12.5,10.225,67.));
#2127=CARTESIAN_POINT('',(-12.5,10.225,50.));
#2128=CARTESIAN_POINT('',(-12.5,22.225,67.));
#2129=CARTESIAN_POINT('Origin',(-7.5,34.35,33.));
#2130=CARTESIAN_POINT('',(-8.49215674164923,34.35,67.));
#2131=CARTESIAN_POINT('',(-8.49215674164923,34.35,67.));
#2132=CARTESIAN_POINT('',(-7.5,34.35,67.));
#2133=CARTESIAN_POINT('Origin',(-7.5,6.225,67.));
#2134=CARTESIAN_POINT('Origin',(-7.5,6.225,67.));
#2135=CARTESIAN_POINT('',(-3.5,6.225,69.));
#2136=CARTESIAN_POINT('',(-3.5,6.225,67.));
#2137=CARTESIAN_POINT('Origin',(-7.5,6.225,69.));
#2138=CARTESIAN_POINT('Origin',(0.,34.225,0.));
#2139=CARTESIAN_POINT('',(0.,34.225,67.));
#2140=CARTESIAN_POINT('Origin',(0.,10.225,67.));
#2141=CARTESIAN_POINT('',(0.,10.225,67.));
#2142=CARTESIAN_POINT('Origin',(-7.5,22.225,69.));
#2143=CARTESIAN_POINT('',(-3.5,38.225,69.));
#2144=CARTESIAN_POINT('Origin',(-7.5,38.225,69.));
#2145=CARTESIAN_POINT('Origin',(-7.5,22.225,69.));
#2146=CARTESIAN_POINT('Origin',(-7.5,22.225,74.));
#2147=CARTESIAN_POINT('Origin',(-7.5,22.225,67.));
#2148=CARTESIAN_POINT('',(0.,10.225,67.));
#2149=CARTESIAN_POINT('Origin',(-7.5,38.225,67.));
#2150=CARTESIAN_POINT('',(0.,34.225,67.));
#2151=CARTESIAN_POINT('Origin',(-7.5,38.225,67.));
#2152=CARTESIAN_POINT('',(-3.5,38.225,67.));
#2153=CARTESIAN_POINT('Origin',(10.875,39.45,0.));
#2154=CARTESIAN_POINT('',(15.875,39.45,2.));
#2155=CARTESIAN_POINT('Origin',(10.875,39.45,2.));
#2156=CARTESIAN_POINT('',(15.875,39.45,0.));
#2157=CARTESIAN_POINT('Origin',(10.875,5.,0.));
#2158=CARTESIAN_POINT('',(15.875,5.,2.));
#2159=CARTESIAN_POINT('Origin',(10.875,5.,2.));
#2160=CARTESIAN_POINT('',(15.875,5.,0.));
#2161=CARTESIAN_POINT('Origin',(0.,10.225,67.));
#2162=CARTESIAN_POINT('Origin',(0.,34.225,0.));
#2163=CARTESIAN_POINT('Origin',(7.9375,38.1,0.));
#2164=CARTESIAN_POINT('',(5.5375,38.1,2.));
#2165=CARTESIAN_POINT('Origin',(7.9375,38.1,2.));
#2166=CARTESIAN_POINT('',(5.5375,38.1,0.));
#2167=CARTESIAN_POINT('Origin',(7.93749999999999,6.35,0.));
#2168=CARTESIAN_POINT('',(5.53749999999999,6.35,2.));
#2169=CARTESIAN_POINT('Origin',(7.93749999999999,6.35,2.));
#2170=CARTESIAN_POINT('',(5.53749999999999,6.35,0.));
#2171=CARTESIAN_POINT('Origin',(15.875,-1.54074395550979E-32,0.));
#2172=CARTESIAN_POINT('',(15.875,-1.54074395550979E-32,2.));
#2173=CARTESIAN_POINT('Origin',(7.9375,22.225,2.));
#2174=UNCERTAINTY_MEASURE_WITH_UNIT(LENGTH_MEASURE(0.01),#2178,
'DISTANCE_ACCURACY_VALUE',
'Maximum model space distance between geometric entities at asserted c
onnectivities');
#2175=UNCERTAINTY_MEASURE_WITH_UNIT(LENGTH_MEASURE(0.01),#2178,
'DISTANCE_ACCURACY_VALUE',
'Maximum model space distance between geometric entities at asserted c
onnectivities');
#2176=(
GEOMETRIC_REPRESENTATION_CONTEXT(3)
GLOBAL_UNCERTAINTY_ASSIGNED_CONTEXT((#2174))
GLOBAL_UNIT_ASSIGNED_CONTEXT((#2178,#2180,#2181))
REPRESENTATION_CONTEXT('','3D')
);
#2177=(
GEOMETRIC_REPRESENTATION_CONTEXT(3)
GLOBAL_UNCERTAINTY_ASSIGNED_CONTEXT((#2175))
GLOBAL_UNIT_ASSIGNED_CONTEXT((#2178,#2180,#2181))
REPRESENTATION_CONTEXT('','3D')
);
#2178=(
LENGTH_UNIT()
NAMED_UNIT(*)
SI_UNIT(.MILLI.,.METRE.)
);
#2179=(
LENGTH_UNIT()
NAMED_UNIT(*)
SI_UNIT($,.METRE.)
);
#2180=(
NAMED_UNIT(*)
PLANE_ANGLE_UNIT()
SI_UNIT($,.RADIAN.)
);
#2181=(
NAMED_UNIT(*)
SI_UNIT($,.STERADIAN.)
SOLID_ANGLE_UNIT()
);
#2182=SHAPE_DEFINITION_REPRESENTATION(#2183,#2184);
#2183=PRODUCT_DEFINITION_SHAPE('',$,#2186);
#2184=SHAPE_REPRESENTATION('',(#1354),#2176);
#2185=PRODUCT_DEFINITION_CONTEXT('part definition',#2190,'design');
#2186=PRODUCT_DEFINITION('2026-08-26-07-13-46-400','(Unsaved)',#2187,#2185);
#2187=PRODUCT_DEFINITION_FORMATION('',$,#2192);
#2188=PRODUCT_RELATED_PRODUCT_CATEGORY('(Unsaved)','(Unsaved)',(#2192));
#2189=APPLICATION_PROTOCOL_DEFINITION('international standard',
'automotive_design',2009,#2190);
#2190=APPLICATION_CONTEXT(
'Core Data for Automotive Mechanical Design Process');
#2191=PRODUCT_CONTEXT('part definition',#2190,'mechanical');
#2192=PRODUCT('2026-08-26-07-13-46-400','(Unsaved)',$,(#2191));
#2193=PRESENTATION_STYLE_ASSIGNMENT((#2194));
#2194=SURFACE_STYLE_USAGE(.BOTH.,#2195);
#2195=SURFACE_SIDE_STYLE('',(#2196));
#2196=SURFACE_STYLE_FILL_AREA(#2197);
#2197=FILL_AREA_STYLE('Steel - Satin',(#2198));
#2198=FILL_AREA_STYLE_COLOUR('Steel - Satin',#2199);
#2199=COLOUR_RGB('Steel - Satin',0.627450980392157,0.627450980392157,0.627450980392157);
ENDSEC;
END-ISO-10303-21;
