ISO-10303-21;
HEADER;
/* Generated by software containing ST-Developer
 * from STEP Tools, Inc. (www.steptools.com) 
 */

FILE_DESCRIPTION(
/* description */ (''),
/* implementation_level */ '2;1');

FILE_NAME(
/* name */ 'rear_ear_v2_heatset.step',
/* time_stamp */ '2026-08-26T07:14:43-05:00',
/* author */ (''),
/* organization */ (''),
/* preprocessor_version */ 'ST-DEVELOPER v20.1',
/* originating_system */ 'Autodesk Translation Framework v15.8.0.0',
/* authorisation */ '');

FILE_SCHEMA (('AUTOMOTIVE_DESIGN { 1 0 10303 214 3 1 1 }'));
ENDSEC;

DATA;
#10=MECHANICAL_DESIGN_GEOMETRIC_PRESENTATION_REPRESENTATION('',(#13),#1547);
#11=SHAPE_REPRESENTATION_RELATIONSHIP('SRR','None',#1554,#12);
#12=ADVANCED_BREP_SHAPE_REPRESENTATION('',(#14),#1546);
#13=STYLED_ITEM('',(#1563),#14);
#14=MANIFOLD_SOLID_BREP('Rear Ear',#951);
#15=CYLINDRICAL_SURFACE('',#974,2.);
#16=CYLINDRICAL_SURFACE('',#978,2.);
#17=CYLINDRICAL_SURFACE('',#1015,4.);
#18=CYLINDRICAL_SURFACE('',#1017,4.);
#19=CYLINDRICAL_SURFACE('',#1019,5.);
#20=CYLINDRICAL_SURFACE('',#1021,5.);
#21=CYLINDRICAL_SURFACE('',#1023,2.4);
#22=CYLINDRICAL_SURFACE('',#1025,2.4);
#23=FACE_BOUND('',#96,.T.);
#24=FACE_BOUND('',#97,.T.);
#25=FACE_BOUND('',#116,.T.);
#26=FACE_BOUND('',#117,.T.);
#27=FACE_BOUND('',#145,.T.);
#28=FACE_BOUND('',#146,.T.);
#29=CIRCLE('',#968,4.);
#30=CIRCLE('',#969,5.);
#31=CIRCLE('',#970,5.);
#32=CIRCLE('',#971,4.);
#33=CIRCLE('',#972,2.4);
#34=CIRCLE('',#973,2.4);
#35=CIRCLE('',#975,2.);
#36=CIRCLE('',#976,2.);
#37=CIRCLE('',#979,2.);
#38=CIRCLE('',#980,2.);
#39=CIRCLE('',#1001,4.);
#40=CIRCLE('',#1002,4.);
#41=CIRCLE('',#1020,5.);
#42=CIRCLE('',#1022,5.);
#43=CIRCLE('',#1024,2.4);
#44=CIRCLE('',#1026,2.4);
#45=FACE_OUTER_BOUND('',#93,.T.);
#46=FACE_OUTER_BOUND('',#94,.T.);
#47=FACE_OUTER_BOUND('',#95,.T.);
#48=FACE_OUTER_BOUND('',#98,.T.);
#49=FACE_OUTER_BOUND('',#99,.T.);
#50=FACE_OUTER_BOUND('',#100,.T.);
#51=FACE_OUTER_BOUND('',#101,.T.);
#52=FACE_OUTER_BOUND('',#102,.T.);
#53=FACE_OUTER_BOUND('',#103,.T.);
#54=FACE_OUTER_BOUND('',#104,.T.);
#55=FACE_OUTER_BOUND('',#105,.T.);
#56=FACE_OUTER_BOUND('',#106,.T.);
#57=FACE_OUTER_BOUND('',#107,.T.);
#58=FACE_OUTER_BOUND('',#108,.T.);
#59=FACE_OUTER_BOUND('',#109,.T.);
#60=FACE_OUTER_BOUND('',#110,.T.);
#61=FACE_OUTER_BOUND('',#111,.T.);
#62=FACE_OUTER_BOUND('',#112,.T.);
#63=FACE_OUTER_BOUND('',#113,.T.);
#64=FACE_OUTER_BOUND('',#114,.T.);
#65=FACE_OUTER_BOUND('',#115,.T.);
#66=FACE_OUTER_BOUND('',#118,.T.);
#67=FACE_OUTER_BOUND('',#119,.T.);
#68=FACE_OUTER_BOUND('',#120,.T.);
#69=FACE_OUTER_BOUND('',#121,.T.);
#70=FACE_OUTER_BOUND('',#122,.T.);
#71=FACE_OUTER_BOUND('',#123,.T.);
#72=FACE_OUTER_BOUND('',#124,.T.);
#73=FACE_OUTER_BOUND('',#125,.T.);
#74=FACE_OUTER_BOUND('',#126,.T.);
#75=FACE_OUTER_BOUND('',#127,.T.);
#76=FACE_OUTER_BOUND('',#128,.T.);
#77=FACE_OUTER_BOUND('',#129,.T.);
#78=FACE_OUTER_BOUND('',#130,.T.);
#79=FACE_OUTER_BOUND('',#131,.T.);
#80=FACE_OUTER_BOUND('',#132,.T.);
#81=FACE_OUTER_BOUND('',#133,.T.);
#82=FACE_OUTER_BOUND('',#134,.T.);
#83=FACE_OUTER_BOUND('',#135,.T.);
#84=FACE_OUTER_BOUND('',#136,.T.);
#85=FACE_OUTER_BOUND('',#137,.T.);
#86=FACE_OUTER_BOUND('',#138,.T.);
#87=FACE_OUTER_BOUND('',#139,.T.);
#88=FACE_OUTER_BOUND('',#140,.T.);
#89=FACE_OUTER_BOUND('',#141,.T.);
#90=FACE_OUTER_BOUND('',#142,.T.);
#91=FACE_OUTER_BOUND('',#143,.T.);
#92=FACE_OUTER_BOUND('',#144,.T.);
#93=EDGE_LOOP('',(#599,#600,#601,#602));
#94=EDGE_LOOP('',(#603,#604,#605,#606));
#95=EDGE_LOOP('',(#607,#608,#609,#610,#611,#612,#613,#614,#615,#616,#617,
#618,#619,#620,#621,#622,#623,#624,#625,#626,#627,#628,#629,#630,#631,#632,
#633,#634,#635,#636,#637,#638,#639,#640,#641,#642,#643,#644));
#96=EDGE_LOOP('',(#645));
#97=EDGE_LOOP('',(#646));
#98=EDGE_LOOP('',(#647,#648,#649,#650));
#99=EDGE_LOOP('',(#651));
#100=EDGE_LOOP('',(#652,#653,#654,#655));
#101=EDGE_LOOP('',(#656));
#102=EDGE_LOOP('',(#657,#658,#659,#660));
#103=EDGE_LOOP('',(#661,#662,#663,#664));
#104=EDGE_LOOP('',(#665,#666,#667,#668));
#105=EDGE_LOOP('',(#669,#670,#671,#672));
#106=EDGE_LOOP('',(#673,#674,#675,#676));
#107=EDGE_LOOP('',(#677,#678,#679,#680));
#108=EDGE_LOOP('',(#681,#682,#683,#684));
#109=EDGE_LOOP('',(#685,#686,#687,#688));
#110=EDGE_LOOP('',(#689,#690,#691,#692));
#111=EDGE_LOOP('',(#693,#694,#695,#696));
#112=EDGE_LOOP('',(#697,#698,#699,#700,#701,#702,#703,#704));
#113=EDGE_LOOP('',(#705,#706,#707,#708));
#114=EDGE_LOOP('',(#709,#710,#711,#712));
#115=EDGE_LOOP('',(#713,#714,#715,#716,#717,#718,#719,#720,#721,#722,#723,
#724,#725,#726,#727,#728));
#116=EDGE_LOOP('',(#729));
#117=EDGE_LOOP('',(#730));
#118=EDGE_LOOP('',(#731,#732,#733,#734,#735,#736));
#119=EDGE_LOOP('',(#737,#738,#739,#740));
#120=EDGE_LOOP('',(#741,#742,#743,#744,#745,#746));
#121=EDGE_LOOP('',(#747,#748,#749,#750));
#122=EDGE_LOOP('',(#751,#752,#753,#754,#755,#756,#757,#758,#759,#760,#761,
#762,#763,#764,#765,#766));
#123=EDGE_LOOP('',(#767,#768,#769,#770,#771,#772,#773,#774));
#124=EDGE_LOOP('',(#775,#776,#777,#778));
#125=EDGE_LOOP('',(#779,#780,#781,#782));
#126=EDGE_LOOP('',(#783,#784,#785,#786));
#127=EDGE_LOOP('',(#787,#788,#789,#790));
#128=EDGE_LOOP('',(#791,#792,#793,#794));
#129=EDGE_LOOP('',(#795,#796,#797,#798));
#130=EDGE_LOOP('',(#799,#800,#801,#802));
#131=EDGE_LOOP('',(#803,#804,#805,#806));
#132=EDGE_LOOP('',(#807,#808,#809,#810));
#133=EDGE_LOOP('',(#811,#812,#813,#814));
#134=EDGE_LOOP('',(#815,#816,#817,#818));
#135=EDGE_LOOP('',(#819,#820,#821,#822));
#136=EDGE_LOOP('',(#823,#824,#825,#826));
#137=EDGE_LOOP('',(#827,#828,#829,#830));
#138=EDGE_LOOP('',(#831,#832,#833,#834));
#139=EDGE_LOOP('',(#835,#836,#837,#838));
#140=EDGE_LOOP('',(#839,#840,#841,#842));
#141=EDGE_LOOP('',(#843,#844,#845,#846));
#142=EDGE_LOOP('',(#847,#848,#849,#850));
#143=EDGE_LOOP('',(#851,#852,#853,#854));
#144=EDGE_LOOP('',(#855,#856,#857,#858,#859,#860));
#145=EDGE_LOOP('',(#861));
#146=EDGE_LOOP('',(#862));
#147=LINE('',#1279,#263);
#148=LINE('',#1281,#264);
#149=LINE('',#1283,#265);
#150=LINE('',#1284,#266);
#151=LINE('',#1288,#267);
#152=LINE('',#1289,#268);
#153=LINE('',#1290,#269);
#154=LINE('',#1293,#270);
#155=LINE('',#1295,#271);
#156=LINE('',#1297,#272);
#157=LINE('',#1299,#273);
#158=LINE('',#1301,#274);
#159=LINE('',#1303,#275);
#160=LINE('',#1307,#276);
#161=LINE('',#1309,#277);
#162=LINE('',#1311,#278);
#163=LINE('',#1313,#279);
#164=LINE('',#1315,#280);
#165=LINE('',#1317,#281);
#166=LINE('',#1319,#282);
#167=LINE('',#1321,#283);
#168=LINE('',#1323,#284);
#169=LINE('',#1325,#285);
#170=LINE('',#1327,#286);
#171=LINE('',#1331,#287);
#172=LINE('',#1335,#288);
#173=LINE('',#1337,#289);
#174=LINE('',#1339,#290);
#175=LINE('',#1341,#291);
#176=LINE('',#1343,#292);
#177=LINE('',#1345,#293);
#178=LINE('',#1347,#294);
#179=LINE('',#1349,#295);
#180=LINE('',#1351,#296);
#181=LINE('',#1353,#297);
#182=LINE('',#1355,#298);
#183=LINE('',#1359,#299);
#184=LINE('',#1361,#300);
#185=LINE('',#1363,#301);
#186=LINE('',#1364,#302);
#187=LINE('',#1373,#303);
#188=LINE('',#1380,#304);
#189=LINE('',#1386,#305);
#190=LINE('',#1387,#306);
#191=LINE('',#1388,#307);
#192=LINE('',#1391,#308);
#193=LINE('',#1392,#309);
#194=LINE('',#1395,#310);
#195=LINE('',#1396,#311);
#196=LINE('',#1400,#312);
#197=LINE('',#1401,#313);
#198=LINE('',#1402,#314);
#199=LINE('',#1405,#315);
#200=LINE('',#1406,#316);
#201=LINE('',#1409,#317);
#202=LINE('',#1410,#318);
#203=LINE('',#1413,#319);
#204=LINE('',#1414,#320);
#205=LINE('',#1417,#321);
#206=LINE('',#1418,#322);
#207=LINE('',#1421,#323);
#208=LINE('',#1423,#324);
#209=LINE('',#1424,#325);
#210=LINE('',#1426,#326);
#211=LINE('',#1429,#327);
#212=LINE('',#1431,#328);
#213=LINE('',#1432,#329);
#214=LINE('',#1434,#330);
#215=LINE('',#1435,#331);
#216=LINE('',#1437,#332);
#217=LINE('',#1440,#333);
#218=LINE('',#1441,#334);
#219=LINE('',#1444,#335);
#220=LINE('',#1446,#336);
#221=LINE('',#1447,#337);
#222=LINE('',#1450,#338);
#223=LINE('',#1452,#339);
#224=LINE('',#1453,#340);
#225=LINE('',#1456,#341);
#226=LINE('',#1457,#342);
#227=LINE('',#1460,#343);
#228=LINE('',#1461,#344);
#229=LINE('',#1463,#345);
#230=LINE('',#1467,#346);
#231=LINE('',#1469,#347);
#232=LINE('',#1471,#348);
#233=LINE('',#1473,#349);
#234=LINE('',#1475,#350);
#235=LINE('',#1479,#351);
#236=LINE('',#1481,#352);
#237=LINE('',#1482,#353);
#238=LINE('',#1484,#354);
#239=LINE('',#1486,#355);
#240=LINE('',#1488,#356);
#241=LINE('',#1492,#357);
#242=LINE('',#1493,#358);
#243=LINE('',#1495,#359);
#244=LINE('',#1496,#360);
#245=LINE('',#1497,#361);
#246=LINE('',#1500,#362);
#247=LINE('',#1502,#363);
#248=LINE('',#1503,#364);
#249=LINE('',#1505,#365);
#250=LINE('',#1506,#366);
#251=LINE('',#1508,#367);
#252=LINE('',#1509,#368);
#253=LINE('',#1511,#369);
#254=LINE('',#1512,#370);
#255=LINE('',#1514,#371);
#256=LINE('',#1516,#372);
#257=LINE('',#1519,#373);
#258=LINE('',#1528,#374);
#259=LINE('',#1532,#375);
#260=LINE('',#1536,#376);
#261=LINE('',#1540,#377);
#262=LINE('',#1542,#378);
#263=VECTOR('',#1033,10.);
#264=VECTOR('',#1034,10.);
#265=VECTOR('',#1035,10.);
#266=VECTOR('',#1036,10.);
#267=VECTOR('',#1039,10.);
#268=VECTOR('',#1040,10.);
#269=VECTOR('',#1041,10.);
#270=VECTOR('',#1044,10.);
#271=VECTOR('',#1045,10.);
#272=VECTOR('',#1046,10.);
#273=VECTOR('',#1047,10.);
#274=VECTOR('',#1048,10.);
#275=VECTOR('',#1049,10.);
#276=VECTOR('',#1052,10.);
#277=VECTOR('',#1053,10.);
#278=VECTOR('',#1054,10.);
#279=VECTOR('',#1055,10.);
#280=VECTOR('',#1056,10.);
#281=VECTOR('',#1057,10.);
#282=VECTOR('',#1058,10.);
#283=VECTOR('',#1059,10.);
#284=VECTOR('',#1060,10.);
#285=VECTOR('',#1061,10.);
#286=VECTOR('',#1062,10.);
#287=VECTOR('',#1065,10.);
#288=VECTOR('',#1068,10.);
#289=VECTOR('',#1069,10.);
#290=VECTOR('',#1070,10.);
#291=VECTOR('',#1071,10.);
#292=VECTOR('',#1072,10.);
#293=VECTOR('',#1073,10.);
#294=VECTOR('',#1074,10.);
#295=VECTOR('',#1075,10.);
#296=VECTOR('',#1076,10.);
#297=VECTOR('',#1077,10.);
#298=VECTOR('',#1078,10.);
#299=VECTOR('',#1081,10.);
#300=VECTOR('',#1082,10.);
#301=VECTOR('',#1083,10.);
#302=VECTOR('',#1084,10.);
#303=VECTOR('',#1093,2.);
#304=VECTOR('',#1102,2.);
#305=VECTOR('',#1109,10.);
#306=VECTOR('',#1110,10.);
#307=VECTOR('',#1111,10.);
#308=VECTOR('',#1114,10.);
#309=VECTOR('',#1115,10.);
#310=VECTOR('',#1118,10.);
#311=VECTOR('',#1119,10.);
#312=VECTOR('',#1122,10.);
#313=VECTOR('',#1123,10.);
#314=VECTOR('',#1124,10.);
#315=VECTOR('',#1127,10.);
#316=VECTOR('',#1128,10.);
#317=VECTOR('',#1131,10.);
#318=VECTOR('',#1132,10.);
#319=VECTOR('',#1135,10.);
#320=VECTOR('',#1136,10.);
#321=VECTOR('',#1139,10.);
#322=VECTOR('',#1140,10.);
#323=VECTOR('',#1143,10.);
#324=VECTOR('',#1144,10.);
#325=VECTOR('',#1145,10.);
#326=VECTOR('',#1148,10.);
#327=VECTOR('',#1151,10.);
#328=VECTOR('',#1152,10.);
#329=VECTOR('',#1153,10.);
#330=VECTOR('',#1154,10.);
#331=VECTOR('',#1155,10.);
#332=VECTOR('',#1158,10.);
#333=VECTOR('',#1161,10.);
#334=VECTOR('',#1162,10.);
#335=VECTOR('',#1165,10.);
#336=VECTOR('',#1166,10.);
#337=VECTOR('',#1167,10.);
#338=VECTOR('',#1170,10.);
#339=VECTOR('',#1171,10.);
#340=VECTOR('',#1172,10.);
#341=VECTOR('',#1175,10.);
#342=VECTOR('',#1176,10.);
#343=VECTOR('',#1179,10.);
#344=VECTOR('',#1180,10.);
#345=VECTOR('',#1183,10.);
#346=VECTOR('',#1186,10.);
#347=VECTOR('',#1187,10.);
#348=VECTOR('',#1188,10.);
#349=VECTOR('',#1189,10.);
#350=VECTOR('',#1190,10.);
#351=VECTOR('',#1193,10.);
#352=VECTOR('',#1194,10.);
#353=VECTOR('',#1195,10.);
#354=VECTOR('',#1196,10.);
#355=VECTOR('',#1197,10.);
#356=VECTOR('',#1198,10.);
#357=VECTOR('',#1201,10.);
#358=VECTOR('',#1202,10.);
#359=VECTOR('',#1205,10.);
#360=VECTOR('',#1206,10.);
#361=VECTOR('',#1207,10.);
#362=VECTOR('',#1212,10.);
#363=VECTOR('',#1215,10.);
#364=VECTOR('',#1216,10.);
#365=VECTOR('',#1219,10.);
#366=VECTOR('',#1220,10.);
#367=VECTOR('',#1223,10.);
#368=VECTOR('',#1224,10.);
#369=VECTOR('',#1227,10.);
#370=VECTOR('',#1228,10.);
#371=VECTOR('',#1231,10.);
#372=VECTOR('',#1234,10.);
#373=VECTOR('',#1239,10.);
#374=VECTOR('',#1254,10.);
#375=VECTOR('',#1259,10.);
#376=VECTOR('',#1264,2.4);
#377=VECTOR('',#1269,2.4);
#378=VECTOR('',#1272,10.);
#379=VERTEX_POINT('',#1277);
#380=VERTEX_POINT('',#1278);
#381=VERTEX_POINT('',#1280);
#382=VERTEX_POINT('',#1282);
#383=VERTEX_POINT('',#1286);
#384=VERTEX_POINT('',#1287);
#385=VERTEX_POINT('',#1292);
#386=VERTEX_POINT('',#1294);
#387=VERTEX_POINT('',#1296);
#388=VERTEX_POINT('',#1298);
#389=VERTEX_POINT('',#1300);
#390=VERTEX_POINT('',#1302);
#391=VERTEX_POINT('',#1304);
#392=VERTEX_POINT('',#1306);
#393=VERTEX_POINT('',#1308);
#394=VERTEX_POINT('',#1310);
#395=VERTEX_POINT('',#1312);
#396=VERTEX_POINT('',#1314);
#397=VERTEX_POINT('',#1316);
#398=VERTEX_POINT('',#1318);
#399=VERTEX_POINT('',#1320);
#400=VERTEX_POINT('',#1322);
#401=VERTEX_POINT('',#1324);
#402=VERTEX_POINT('',#1326);
#403=VERTEX_POINT('',#1328);
#404=VERTEX_POINT('',#1330);
#405=VERTEX_POINT('',#1332);
#406=VERTEX_POINT('',#1334);
#407=VERTEX_POINT('',#1336);
#408=VERTEX_POINT('',#1338);
#409=VERTEX_POINT('',#1340);
#410=VERTEX_POINT('',#1342);
#411=VERTEX_POINT('',#1344);
#412=VERTEX_POINT('',#1346);
#413=VERTEX_POINT('',#1348);
#414=VERTEX_POINT('',#1350);
#415=VERTEX_POINT('',#1352);
#416=VERTEX_POINT('',#1354);
#417=VERTEX_POINT('',#1356);
#418=VERTEX_POINT('',#1358);
#419=VERTEX_POINT('',#1360);
#420=VERTEX_POINT('',#1362);
#421=VERTEX_POINT('',#1365);
#422=VERTEX_POINT('',#1367);
#423=VERTEX_POINT('',#1370);
#424=VERTEX_POINT('',#1372);
#425=VERTEX_POINT('',#1377);
#426=VERTEX_POINT('',#1379);
#427=VERTEX_POINT('',#1384);
#428=VERTEX_POINT('',#1385);
#429=VERTEX_POINT('',#1390);
#430=VERTEX_POINT('',#1394);
#431=VERTEX_POINT('',#1398);
#432=VERTEX_POINT('',#1399);
#433=VERTEX_POINT('',#1404);
#434=VERTEX_POINT('',#1408);
#435=VERTEX_POINT('',#1412);
#436=VERTEX_POINT('',#1416);
#437=VERTEX_POINT('',#1420);
#438=VERTEX_POINT('',#1422);
#439=VERTEX_POINT('',#1428);
#440=VERTEX_POINT('',#1430);
#441=VERTEX_POINT('',#1433);
#442=VERTEX_POINT('',#1439);
#443=VERTEX_POINT('',#1443);
#444=VERTEX_POINT('',#1445);
#445=VERTEX_POINT('',#1449);
#446=VERTEX_POINT('',#1451);
#447=VERTEX_POINT('',#1455);
#448=VERTEX_POINT('',#1459);
#449=VERTEX_POINT('',#1465);
#450=VERTEX_POINT('',#1466);
#451=VERTEX_POINT('',#1468);
#452=VERTEX_POINT('',#1470);
#453=VERTEX_POINT('',#1472);
#454=VERTEX_POINT('',#1474);
#455=VERTEX_POINT('',#1476);
#456=VERTEX_POINT('',#1478);
#457=VERTEX_POINT('',#1480);
#458=VERTEX_POINT('',#1483);
#459=VERTEX_POINT('',#1485);
#460=VERTEX_POINT('',#1487);
#461=VERTEX_POINT('',#1489);
#462=VERTEX_POINT('',#1491);
#463=VERTEX_POINT('',#1526);
#464=VERTEX_POINT('',#1530);
#465=VERTEX_POINT('',#1534);
#466=VERTEX_POINT('',#1538);
#467=EDGE_CURVE('',#379,#380,#147,.T.);
#468=EDGE_CURVE('',#379,#381,#148,.T.);
#469=EDGE_CURVE('',#381,#382,#149,.T.);
#470=EDGE_CURVE('',#380,#382,#150,.T.);
#471=EDGE_CURVE('',#383,#384,#151,.T.);
#472=EDGE_CURVE('',#382,#383,#152,.T.);
#473=EDGE_CURVE('',#384,#381,#153,.T.);
#474=EDGE_CURVE('',#385,#379,#154,.T.);
#475=EDGE_CURVE('',#380,#386,#155,.T.);
#476=EDGE_CURVE('',#386,#387,#156,.T.);
#477=EDGE_CURVE('',#387,#388,#157,.T.);
#478=EDGE_CURVE('',#388,#389,#158,.T.);
#479=EDGE_CURVE('',#389,#390,#159,.T.);
#480=EDGE_CURVE('',#390,#391,#29,.T.);
#481=EDGE_CURVE('',#391,#392,#160,.T.);
#482=EDGE_CURVE('',#392,#393,#161,.T.);
#483=EDGE_CURVE('',#393,#394,#162,.T.);
#484=EDGE_CURVE('',#395,#394,#163,.T.);
#485=EDGE_CURVE('',#396,#395,#164,.T.);
#486=EDGE_CURVE('',#397,#396,#165,.T.);
#487=EDGE_CURVE('',#397,#398,#166,.T.);
#488=EDGE_CURVE('',#398,#399,#167,.T.);
#489=EDGE_CURVE('',#399,#400,#168,.T.);
#490=EDGE_CURVE('',#401,#400,#169,.T.);
#491=EDGE_CURVE('',#402,#401,#170,.T.);
#492=EDGE_CURVE('',#403,#402,#30,.T.);
#493=EDGE_CURVE('',#404,#403,#171,.T.);
#494=EDGE_CURVE('',#405,#404,#31,.T.);
#495=EDGE_CURVE('',#405,#406,#172,.T.);
#496=EDGE_CURVE('',#407,#406,#173,.T.);
#497=EDGE_CURVE('',#407,#408,#174,.T.);
#498=EDGE_CURVE('',#408,#409,#175,.T.);
#499=EDGE_CURVE('',#409,#410,#176,.T.);
#500=EDGE_CURVE('',#411,#410,#177,.T.);
#501=EDGE_CURVE('',#412,#411,#178,.T.);
#502=EDGE_CURVE('',#413,#412,#179,.T.);
#503=EDGE_CURVE('',#414,#413,#180,.T.);
#504=EDGE_CURVE('',#414,#415,#181,.T.);
#505=EDGE_CURVE('',#415,#416,#182,.T.);
#506=EDGE_CURVE('',#416,#417,#32,.T.);
#507=EDGE_CURVE('',#417,#418,#183,.T.);
#508=EDGE_CURVE('',#418,#419,#184,.T.);
#509=EDGE_CURVE('',#420,#419,#185,.T.);
#510=EDGE_CURVE('',#420,#385,#186,.T.);
#511=EDGE_CURVE('',#421,#421,#33,.T.);
#512=EDGE_CURVE('',#422,#422,#34,.T.);
#513=EDGE_CURVE('',#423,#423,#35,.T.);
#514=EDGE_CURVE('',#423,#424,#187,.T.);
#515=EDGE_CURVE('',#424,#424,#36,.T.);
#516=EDGE_CURVE('',#425,#425,#37,.T.);
#517=EDGE_CURVE('',#425,#426,#188,.T.);
#518=EDGE_CURVE('',#426,#426,#38,.T.);
#519=EDGE_CURVE('',#427,#428,#189,.T.);
#520=EDGE_CURVE('',#409,#427,#190,.T.);
#521=EDGE_CURVE('',#408,#428,#191,.T.);
#522=EDGE_CURVE('',#428,#429,#192,.T.);
#523=EDGE_CURVE('',#429,#407,#193,.T.);
#524=EDGE_CURVE('',#430,#427,#194,.T.);
#525=EDGE_CURVE('',#410,#430,#195,.T.);
#526=EDGE_CURVE('',#431,#432,#196,.T.);
#527=EDGE_CURVE('',#399,#431,#197,.T.);
#528=EDGE_CURVE('',#398,#432,#198,.T.);
#529=EDGE_CURVE('',#432,#433,#199,.T.);
#530=EDGE_CURVE('',#433,#397,#200,.T.);
#531=EDGE_CURVE('',#434,#431,#201,.T.);
#532=EDGE_CURVE('',#400,#434,#202,.T.);
#533=EDGE_CURVE('',#435,#430,#203,.T.);
#534=EDGE_CURVE('',#411,#435,#204,.T.);
#535=EDGE_CURVE('',#436,#434,#205,.T.);
#536=EDGE_CURVE('',#401,#436,#206,.T.);
#537=EDGE_CURVE('',#437,#395,#207,.T.);
#538=EDGE_CURVE('',#438,#437,#208,.T.);
#539=EDGE_CURVE('',#396,#438,#209,.T.);
#540=EDGE_CURVE('',#433,#438,#210,.T.);
#541=EDGE_CURVE('',#394,#439,#211,.T.);
#542=EDGE_CURVE('',#440,#439,#212,.T.);
#543=EDGE_CURVE('',#440,#413,#213,.T.);
#544=EDGE_CURVE('',#412,#441,#214,.T.);
#545=EDGE_CURVE('',#437,#441,#215,.T.);
#546=EDGE_CURVE('',#441,#435,#216,.T.);
#547=EDGE_CURVE('',#406,#442,#217,.T.);
#548=EDGE_CURVE('',#429,#442,#218,.T.);
#549=EDGE_CURVE('',#442,#443,#219,.T.);
#550=EDGE_CURVE('',#443,#444,#220,.T.);
#551=EDGE_CURVE('',#444,#436,#221,.T.);
#552=EDGE_CURVE('',#445,#444,#222,.T.);
#553=EDGE_CURVE('',#446,#445,#223,.T.);
#554=EDGE_CURVE('',#402,#446,#224,.T.);
#555=EDGE_CURVE('',#447,#443,#225,.T.);
#556=EDGE_CURVE('',#445,#447,#226,.T.);
#557=EDGE_CURVE('',#448,#405,#227,.T.);
#558=EDGE_CURVE('',#447,#448,#228,.T.);
#559=EDGE_CURVE('',#385,#384,#229,.T.);
#560=EDGE_CURVE('',#449,#450,#230,.T.);
#561=EDGE_CURVE('',#449,#451,#231,.T.);
#562=EDGE_CURVE('',#451,#452,#232,.T.);
#563=EDGE_CURVE('',#452,#453,#233,.T.);
#564=EDGE_CURVE('',#453,#454,#234,.T.);
#565=EDGE_CURVE('',#454,#455,#39,.T.);
#566=EDGE_CURVE('',#455,#456,#235,.T.);
#567=EDGE_CURVE('',#456,#457,#236,.T.);
#568=EDGE_CURVE('',#457,#440,#237,.T.);
#569=EDGE_CURVE('',#458,#439,#238,.T.);
#570=EDGE_CURVE('',#458,#459,#239,.T.);
#571=EDGE_CURVE('',#459,#460,#240,.T.);
#572=EDGE_CURVE('',#460,#461,#40,.T.);
#573=EDGE_CURVE('',#461,#462,#241,.T.);
#574=EDGE_CURVE('',#462,#450,#242,.T.);
#575=EDGE_CURVE('',#387,#449,#243,.T.);
#576=EDGE_CURVE('',#386,#383,#244,.T.);
#577=EDGE_CURVE('',#451,#420,#245,.T.);
#578=EDGE_CURVE('',#419,#452,#246,.T.);
#579=EDGE_CURVE('',#416,#455,#247,.T.);
#580=EDGE_CURVE('',#415,#456,#248,.T.);
#581=EDGE_CURVE('',#418,#453,#249,.T.);
#582=EDGE_CURVE('',#454,#417,#250,.T.);
#583=EDGE_CURVE('',#389,#462,#251,.T.);
#584=EDGE_CURVE('',#450,#388,#252,.T.);
#585=EDGE_CURVE('',#460,#391,#253,.T.);
#586=EDGE_CURVE('',#392,#459,#254,.T.);
#587=EDGE_CURVE('',#393,#458,#255,.T.);
#588=EDGE_CURVE('',#390,#461,#256,.T.);
#589=EDGE_CURVE('',#457,#414,#257,.T.);
#590=EDGE_CURVE('',#446,#463,#41,.T.);
#591=EDGE_CURVE('',#463,#403,#258,.T.);
#592=EDGE_CURVE('',#464,#448,#42,.T.);
#593=EDGE_CURVE('',#404,#464,#259,.T.);
#594=EDGE_CURVE('',#465,#465,#43,.T.);
#595=EDGE_CURVE('',#465,#422,#260,.T.);
#596=EDGE_CURVE('',#466,#466,#44,.T.);
#597=EDGE_CURVE('',#466,#421,#261,.T.);
#598=EDGE_CURVE('',#464,#463,#262,.T.);
#599=ORIENTED_EDGE('',*,*,#467,.F.);
#600=ORIENTED_EDGE('',*,*,#468,.T.);
#601=ORIENTED_EDGE('',*,*,#469,.T.);
#602=ORIENTED_EDGE('',*,*,#470,.F.);
#603=ORIENTED_EDGE('',*,*,#471,.F.);
#604=ORIENTED_EDGE('',*,*,#472,.F.);
#605=ORIENTED_EDGE('',*,*,#469,.F.);
#606=ORIENTED_EDGE('',*,*,#473,.F.);
#607=ORIENTED_EDGE('',*,*,#474,.T.);
#608=ORIENTED_EDGE('',*,*,#467,.T.);
#609=ORIENTED_EDGE('',*,*,#475,.T.);
#610=ORIENTED_EDGE('',*,*,#476,.T.);
#611=ORIENTED_EDGE('',*,*,#477,.T.);
#612=ORIENTED_EDGE('',*,*,#478,.T.);
#613=ORIENTED_EDGE('',*,*,#479,.T.);
#614=ORIENTED_EDGE('',*,*,#480,.T.);
#615=ORIENTED_EDGE('',*,*,#481,.T.);
#616=ORIENTED_EDGE('',*,*,#482,.T.);
#617=ORIENTED_EDGE('',*,*,#483,.T.);
#618=ORIENTED_EDGE('',*,*,#484,.F.);
#619=ORIENTED_EDGE('',*,*,#485,.F.);
#620=ORIENTED_EDGE('',*,*,#486,.F.);
#621=ORIENTED_EDGE('',*,*,#487,.T.);
#622=ORIENTED_EDGE('',*,*,#488,.T.);
#623=ORIENTED_EDGE('',*,*,#489,.T.);
#624=ORIENTED_EDGE('',*,*,#490,.F.);
#625=ORIENTED_EDGE('',*,*,#491,.F.);
#626=ORIENTED_EDGE('',*,*,#492,.F.);
#627=ORIENTED_EDGE('',*,*,#493,.F.);
#628=ORIENTED_EDGE('',*,*,#494,.F.);
#629=ORIENTED_EDGE('',*,*,#495,.T.);
#630=ORIENTED_EDGE('',*,*,#496,.F.);
#631=ORIENTED_EDGE('',*,*,#497,.T.);
#632=ORIENTED_EDGE('',*,*,#498,.T.);
#633=ORIENTED_EDGE('',*,*,#499,.T.);
#634=ORIENTED_EDGE('',*,*,#500,.F.);
#635=ORIENTED_EDGE('',*,*,#501,.F.);
#636=ORIENTED_EDGE('',*,*,#502,.F.);
#637=ORIENTED_EDGE('',*,*,#503,.F.);
#638=ORIENTED_EDGE('',*,*,#504,.T.);
#639=ORIENTED_EDGE('',*,*,#505,.T.);
#640=ORIENTED_EDGE('',*,*,#506,.T.);
#641=ORIENTED_EDGE('',*,*,#507,.T.);
#642=ORIENTED_EDGE('',*,*,#508,.T.);
#643=ORIENTED_EDGE('',*,*,#509,.F.);
#644=ORIENTED_EDGE('',*,*,#510,.T.);
#645=ORIENTED_EDGE('',*,*,#511,.F.);
#646=ORIENTED_EDGE('',*,*,#512,.F.);
#647=ORIENTED_EDGE('',*,*,#513,.F.);
#648=ORIENTED_EDGE('',*,*,#514,.T.);
#649=ORIENTED_EDGE('',*,*,#515,.F.);
#650=ORIENTED_EDGE('',*,*,#514,.F.);
#651=ORIENTED_EDGE('',*,*,#513,.T.);
#652=ORIENTED_EDGE('',*,*,#516,.F.);
#653=ORIENTED_EDGE('',*,*,#517,.T.);
#654=ORIENTED_EDGE('',*,*,#518,.F.);
#655=ORIENTED_EDGE('',*,*,#517,.F.);
#656=ORIENTED_EDGE('',*,*,#516,.T.);
#657=ORIENTED_EDGE('',*,*,#519,.F.);
#658=ORIENTED_EDGE('',*,*,#520,.F.);
#659=ORIENTED_EDGE('',*,*,#498,.F.);
#660=ORIENTED_EDGE('',*,*,#521,.T.);
#661=ORIENTED_EDGE('',*,*,#522,.F.);
#662=ORIENTED_EDGE('',*,*,#521,.F.);
#663=ORIENTED_EDGE('',*,*,#497,.F.);
#664=ORIENTED_EDGE('',*,*,#523,.F.);
#665=ORIENTED_EDGE('',*,*,#524,.F.);
#666=ORIENTED_EDGE('',*,*,#525,.F.);
#667=ORIENTED_EDGE('',*,*,#499,.F.);
#668=ORIENTED_EDGE('',*,*,#520,.T.);
#669=ORIENTED_EDGE('',*,*,#526,.F.);
#670=ORIENTED_EDGE('',*,*,#527,.F.);
#671=ORIENTED_EDGE('',*,*,#488,.F.);
#672=ORIENTED_EDGE('',*,*,#528,.T.);
#673=ORIENTED_EDGE('',*,*,#529,.F.);
#674=ORIENTED_EDGE('',*,*,#528,.F.);
#675=ORIENTED_EDGE('',*,*,#487,.F.);
#676=ORIENTED_EDGE('',*,*,#530,.F.);
#677=ORIENTED_EDGE('',*,*,#531,.F.);
#678=ORIENTED_EDGE('',*,*,#532,.F.);
#679=ORIENTED_EDGE('',*,*,#489,.F.);
#680=ORIENTED_EDGE('',*,*,#527,.T.);
#681=ORIENTED_EDGE('',*,*,#525,.T.);
#682=ORIENTED_EDGE('',*,*,#533,.F.);
#683=ORIENTED_EDGE('',*,*,#534,.F.);
#684=ORIENTED_EDGE('',*,*,#500,.T.);
#685=ORIENTED_EDGE('',*,*,#532,.T.);
#686=ORIENTED_EDGE('',*,*,#535,.F.);
#687=ORIENTED_EDGE('',*,*,#536,.F.);
#688=ORIENTED_EDGE('',*,*,#490,.T.);
#689=ORIENTED_EDGE('',*,*,#485,.T.);
#690=ORIENTED_EDGE('',*,*,#537,.F.);
#691=ORIENTED_EDGE('',*,*,#538,.F.);
#692=ORIENTED_EDGE('',*,*,#539,.F.);
#693=ORIENTED_EDGE('',*,*,#530,.T.);
#694=ORIENTED_EDGE('',*,*,#486,.T.);
#695=ORIENTED_EDGE('',*,*,#539,.T.);
#696=ORIENTED_EDGE('',*,*,#540,.F.);
#697=ORIENTED_EDGE('',*,*,#537,.T.);
#698=ORIENTED_EDGE('',*,*,#484,.T.);
#699=ORIENTED_EDGE('',*,*,#541,.T.);
#700=ORIENTED_EDGE('',*,*,#542,.F.);
#701=ORIENTED_EDGE('',*,*,#543,.T.);
#702=ORIENTED_EDGE('',*,*,#502,.T.);
#703=ORIENTED_EDGE('',*,*,#544,.T.);
#704=ORIENTED_EDGE('',*,*,#545,.F.);
#705=ORIENTED_EDGE('',*,*,#501,.T.);
#706=ORIENTED_EDGE('',*,*,#534,.T.);
#707=ORIENTED_EDGE('',*,*,#546,.F.);
#708=ORIENTED_EDGE('',*,*,#544,.F.);
#709=ORIENTED_EDGE('',*,*,#523,.T.);
#710=ORIENTED_EDGE('',*,*,#496,.T.);
#711=ORIENTED_EDGE('',*,*,#547,.T.);
#712=ORIENTED_EDGE('',*,*,#548,.F.);
#713=ORIENTED_EDGE('',*,*,#522,.T.);
#714=ORIENTED_EDGE('',*,*,#548,.T.);
#715=ORIENTED_EDGE('',*,*,#549,.T.);
#716=ORIENTED_EDGE('',*,*,#550,.T.);
#717=ORIENTED_EDGE('',*,*,#551,.T.);
#718=ORIENTED_EDGE('',*,*,#535,.T.);
#719=ORIENTED_EDGE('',*,*,#531,.T.);
#720=ORIENTED_EDGE('',*,*,#526,.T.);
#721=ORIENTED_EDGE('',*,*,#529,.T.);
#722=ORIENTED_EDGE('',*,*,#540,.T.);
#723=ORIENTED_EDGE('',*,*,#538,.T.);
#724=ORIENTED_EDGE('',*,*,#545,.T.);
#725=ORIENTED_EDGE('',*,*,#546,.T.);
#726=ORIENTED_EDGE('',*,*,#533,.T.);
#727=ORIENTED_EDGE('',*,*,#524,.T.);
#728=ORIENTED_EDGE('',*,*,#519,.T.);
#729=ORIENTED_EDGE('',*,*,#515,.T.);
#730=ORIENTED_EDGE('',*,*,#518,.T.);
#731=ORIENTED_EDGE('',*,*,#552,.F.);
#732=ORIENTED_EDGE('',*,*,#553,.F.);
#733=ORIENTED_EDGE('',*,*,#554,.F.);
#734=ORIENTED_EDGE('',*,*,#491,.T.);
#735=ORIENTED_EDGE('',*,*,#536,.T.);
#736=ORIENTED_EDGE('',*,*,#551,.F.);
#737=ORIENTED_EDGE('',*,*,#555,.F.);
#738=ORIENTED_EDGE('',*,*,#556,.F.);
#739=ORIENTED_EDGE('',*,*,#552,.T.);
#740=ORIENTED_EDGE('',*,*,#550,.F.);
#741=ORIENTED_EDGE('',*,*,#495,.F.);
#742=ORIENTED_EDGE('',*,*,#557,.F.);
#743=ORIENTED_EDGE('',*,*,#558,.F.);
#744=ORIENTED_EDGE('',*,*,#555,.T.);
#745=ORIENTED_EDGE('',*,*,#549,.F.);
#746=ORIENTED_EDGE('',*,*,#547,.F.);
#747=ORIENTED_EDGE('',*,*,#474,.F.);
#748=ORIENTED_EDGE('',*,*,#559,.T.);
#749=ORIENTED_EDGE('',*,*,#473,.T.);
#750=ORIENTED_EDGE('',*,*,#468,.F.);
#751=ORIENTED_EDGE('',*,*,#560,.F.);
#752=ORIENTED_EDGE('',*,*,#561,.T.);
#753=ORIENTED_EDGE('',*,*,#562,.T.);
#754=ORIENTED_EDGE('',*,*,#563,.T.);
#755=ORIENTED_EDGE('',*,*,#564,.T.);
#756=ORIENTED_EDGE('',*,*,#565,.T.);
#757=ORIENTED_EDGE('',*,*,#566,.T.);
#758=ORIENTED_EDGE('',*,*,#567,.T.);
#759=ORIENTED_EDGE('',*,*,#568,.T.);
#760=ORIENTED_EDGE('',*,*,#542,.T.);
#761=ORIENTED_EDGE('',*,*,#569,.F.);
#762=ORIENTED_EDGE('',*,*,#570,.T.);
#763=ORIENTED_EDGE('',*,*,#571,.T.);
#764=ORIENTED_EDGE('',*,*,#572,.T.);
#765=ORIENTED_EDGE('',*,*,#573,.T.);
#766=ORIENTED_EDGE('',*,*,#574,.T.);
#767=ORIENTED_EDGE('',*,*,#575,.F.);
#768=ORIENTED_EDGE('',*,*,#476,.F.);
#769=ORIENTED_EDGE('',*,*,#576,.T.);
#770=ORIENTED_EDGE('',*,*,#471,.T.);
#771=ORIENTED_EDGE('',*,*,#559,.F.);
#772=ORIENTED_EDGE('',*,*,#510,.F.);
#773=ORIENTED_EDGE('',*,*,#577,.F.);
#774=ORIENTED_EDGE('',*,*,#561,.F.);
#775=ORIENTED_EDGE('',*,*,#576,.F.);
#776=ORIENTED_EDGE('',*,*,#475,.F.);
#777=ORIENTED_EDGE('',*,*,#470,.T.);
#778=ORIENTED_EDGE('',*,*,#472,.T.);
#779=ORIENTED_EDGE('',*,*,#577,.T.);
#780=ORIENTED_EDGE('',*,*,#509,.T.);
#781=ORIENTED_EDGE('',*,*,#578,.T.);
#782=ORIENTED_EDGE('',*,*,#562,.F.);
#783=ORIENTED_EDGE('',*,*,#566,.F.);
#784=ORIENTED_EDGE('',*,*,#579,.F.);
#785=ORIENTED_EDGE('',*,*,#505,.F.);
#786=ORIENTED_EDGE('',*,*,#580,.T.);
#787=ORIENTED_EDGE('',*,*,#564,.F.);
#788=ORIENTED_EDGE('',*,*,#581,.F.);
#789=ORIENTED_EDGE('',*,*,#507,.F.);
#790=ORIENTED_EDGE('',*,*,#582,.F.);
#791=ORIENTED_EDGE('',*,*,#574,.F.);
#792=ORIENTED_EDGE('',*,*,#583,.F.);
#793=ORIENTED_EDGE('',*,*,#478,.F.);
#794=ORIENTED_EDGE('',*,*,#584,.F.);
#795=ORIENTED_EDGE('',*,*,#585,.F.);
#796=ORIENTED_EDGE('',*,*,#571,.F.);
#797=ORIENTED_EDGE('',*,*,#586,.F.);
#798=ORIENTED_EDGE('',*,*,#481,.F.);
#799=ORIENTED_EDGE('',*,*,#570,.F.);
#800=ORIENTED_EDGE('',*,*,#587,.F.);
#801=ORIENTED_EDGE('',*,*,#482,.F.);
#802=ORIENTED_EDGE('',*,*,#586,.T.);
#803=ORIENTED_EDGE('',*,*,#573,.F.);
#804=ORIENTED_EDGE('',*,*,#588,.F.);
#805=ORIENTED_EDGE('',*,*,#479,.F.);
#806=ORIENTED_EDGE('',*,*,#583,.T.);
#807=ORIENTED_EDGE('',*,*,#563,.F.);
#808=ORIENTED_EDGE('',*,*,#578,.F.);
#809=ORIENTED_EDGE('',*,*,#508,.F.);
#810=ORIENTED_EDGE('',*,*,#581,.T.);
#811=ORIENTED_EDGE('',*,*,#589,.F.);
#812=ORIENTED_EDGE('',*,*,#567,.F.);
#813=ORIENTED_EDGE('',*,*,#580,.F.);
#814=ORIENTED_EDGE('',*,*,#504,.F.);
#815=ORIENTED_EDGE('',*,*,#589,.T.);
#816=ORIENTED_EDGE('',*,*,#503,.T.);
#817=ORIENTED_EDGE('',*,*,#543,.F.);
#818=ORIENTED_EDGE('',*,*,#568,.F.);
#819=ORIENTED_EDGE('',*,*,#582,.T.);
#820=ORIENTED_EDGE('',*,*,#506,.F.);
#821=ORIENTED_EDGE('',*,*,#579,.T.);
#822=ORIENTED_EDGE('',*,*,#565,.F.);
#823=ORIENTED_EDGE('',*,*,#575,.T.);
#824=ORIENTED_EDGE('',*,*,#560,.T.);
#825=ORIENTED_EDGE('',*,*,#584,.T.);
#826=ORIENTED_EDGE('',*,*,#477,.F.);
#827=ORIENTED_EDGE('',*,*,#588,.T.);
#828=ORIENTED_EDGE('',*,*,#572,.F.);
#829=ORIENTED_EDGE('',*,*,#585,.T.);
#830=ORIENTED_EDGE('',*,*,#480,.F.);
#831=ORIENTED_EDGE('',*,*,#587,.T.);
#832=ORIENTED_EDGE('',*,*,#569,.T.);
#833=ORIENTED_EDGE('',*,*,#541,.F.);
#834=ORIENTED_EDGE('',*,*,#483,.F.);
#835=ORIENTED_EDGE('',*,*,#590,.T.);
#836=ORIENTED_EDGE('',*,*,#591,.T.);
#837=ORIENTED_EDGE('',*,*,#492,.T.);
#838=ORIENTED_EDGE('',*,*,#554,.T.);
#839=ORIENTED_EDGE('',*,*,#592,.T.);
#840=ORIENTED_EDGE('',*,*,#557,.T.);
#841=ORIENTED_EDGE('',*,*,#494,.T.);
#842=ORIENTED_EDGE('',*,*,#593,.T.);
#843=ORIENTED_EDGE('',*,*,#594,.F.);
#844=ORIENTED_EDGE('',*,*,#595,.T.);
#845=ORIENTED_EDGE('',*,*,#512,.T.);
#846=ORIENTED_EDGE('',*,*,#595,.F.);
#847=ORIENTED_EDGE('',*,*,#596,.F.);
#848=ORIENTED_EDGE('',*,*,#597,.T.);
#849=ORIENTED_EDGE('',*,*,#511,.T.);
#850=ORIENTED_EDGE('',*,*,#597,.F.);
#851=ORIENTED_EDGE('',*,*,#591,.F.);
#852=ORIENTED_EDGE('',*,*,#598,.F.);
#853=ORIENTED_EDGE('',*,*,#593,.F.);
#854=ORIENTED_EDGE('',*,*,#493,.T.);
#855=ORIENTED_EDGE('',*,*,#556,.T.);
#856=ORIENTED_EDGE('',*,*,#558,.T.);
#857=ORIENTED_EDGE('',*,*,#592,.F.);
#858=ORIENTED_EDGE('',*,*,#598,.T.);
#859=ORIENTED_EDGE('',*,*,#590,.F.);
#860=ORIENTED_EDGE('',*,*,#553,.T.);
#861=ORIENTED_EDGE('',*,*,#596,.T.);
#862=ORIENTED_EDGE('',*,*,#594,.T.);
#863=PLANE('',#965);
#864=PLANE('',#966);
#865=PLANE('',#967);
#866=PLANE('',#977);
#867=PLANE('',#981);
#868=PLANE('',#982);
#869=PLANE('',#983);
#870=PLANE('',#984);
#871=PLANE('',#985);
#872=PLANE('',#986);
#873=PLANE('',#987);
#874=PLANE('',#988);
#875=PLANE('',#989);
#876=PLANE('',#990);
#877=PLANE('',#991);
#878=PLANE('',#992);
#879=PLANE('',#993);
#880=PLANE('',#994);
#881=PLANE('',#995);
#882=PLANE('',#996);
#883=PLANE('',#997);
#884=PLANE('',#998);
#885=PLANE('',#999);
#886=PLANE('',#1000);
#887=PLANE('',#1003);
#888=PLANE('',#1004);
#889=PLANE('',#1005);
#890=PLANE('',#1006);
#891=PLANE('',#1007);
#892=PLANE('',#1008);
#893=PLANE('',#1009);
#894=PLANE('',#1010);
#895=PLANE('',#1011);
#896=PLANE('',#1012);
#897=PLANE('',#1013);
#898=PLANE('',#1014);
#899=PLANE('',#1016);
#900=PLANE('',#1018);
#901=PLANE('',#1027);
#902=PLANE('',#1028);
#903=ADVANCED_FACE('',(#45),#863,.F.);
#904=ADVANCED_FACE('',(#46),#864,.F.);
#905=ADVANCED_FACE('',(#47,#23,#24),#865,.F.);
#906=ADVANCED_FACE('',(#48),#15,.F.);
#907=ADVANCED_FACE('',(#49),#866,.T.);
#908=ADVANCED_FACE('',(#50),#16,.F.);
#909=ADVANCED_FACE('',(#51),#867,.T.);
#910=ADVANCED_FACE('',(#52),#868,.F.);
#911=ADVANCED_FACE('',(#53),#869,.F.);
#912=ADVANCED_FACE('',(#54),#870,.F.);
#913=ADVANCED_FACE('',(#55),#871,.F.);
#914=ADVANCED_FACE('',(#56),#872,.F.);
#915=ADVANCED_FACE('',(#57),#873,.F.);
#916=ADVANCED_FACE('',(#58),#874,.T.);
#917=ADVANCED_FACE('',(#59),#875,.T.);
#918=ADVANCED_FACE('',(#60),#876,.T.);
#919=ADVANCED_FACE('',(#61),#877,.T.);
#920=ADVANCED_FACE('',(#62),#878,.T.);
#921=ADVANCED_FACE('',(#63),#879,.T.);
#922=ADVANCED_FACE('',(#64),#880,.T.);
#923=ADVANCED_FACE('',(#65,#25,#26),#881,.T.);
#924=ADVANCED_FACE('',(#66),#882,.T.);
#925=ADVANCED_FACE('',(#67),#883,.T.);
#926=ADVANCED_FACE('',(#68),#884,.T.);
#927=ADVANCED_FACE('',(#69),#885,.F.);
#928=ADVANCED_FACE('',(#70),#886,.F.);
#929=ADVANCED_FACE('',(#71),#887,.F.);
#930=ADVANCED_FACE('',(#72),#888,.F.);
#931=ADVANCED_FACE('',(#73),#889,.T.);
#932=ADVANCED_FACE('',(#74),#890,.F.);
#933=ADVANCED_FACE('',(#75),#891,.F.);
#934=ADVANCED_FACE('',(#76),#892,.F.);
#935=ADVANCED_FACE('',(#77),#893,.F.);
#936=ADVANCED_FACE('',(#78),#894,.F.);
#937=ADVANCED_FACE('',(#79),#895,.F.);
#938=ADVANCED_FACE('',(#80),#896,.F.);
#939=ADVANCED_FACE('',(#81),#897,.F.);
#940=ADVANCED_FACE('',(#82),#898,.T.);
#941=ADVANCED_FACE('',(#83),#17,.F.);
#942=ADVANCED_FACE('',(#84),#899,.T.);
#943=ADVANCED_FACE('',(#85),#18,.F.);
#944=ADVANCED_FACE('',(#86),#900,.T.);
#945=ADVANCED_FACE('',(#87),#19,.T.);
#946=ADVANCED_FACE('',(#88),#20,.T.);
#947=ADVANCED_FACE('',(#89),#21,.F.);
#948=ADVANCED_FACE('',(#90),#22,.F.);
#949=ADVANCED_FACE('',(#91),#901,.T.);
#950=ADVANCED_FACE('',(#92,#27,#28),#902,.T.);
#951=CLOSED_SHELL('',(#903,#904,#905,#906,#907,#908,#909,#910,#911,#912,
#913,#914,#915,#916,#917,#918,#919,#920,#921,#922,#923,#924,#925,#926,#927,
#928,#929,#930,#931,#932,#933,#934,#935,#936,#937,#938,#939,#940,#941,#942,
#943,#944,#945,#946,#947,#948,#949,#950));
#952=DERIVED_UNIT_ELEMENT(#954,1.);
#953=DERIVED_UNIT_ELEMENT(#1549,-3.);
#954=(
MASS_UNIT()
NAMED_UNIT(*)
SI_UNIT(.KILO.,.GRAM.)
);
#955=DERIVED_UNIT((#952,#953));
#956=MEASURE_REPRESENTATION_ITEM('density measure',
POSITIVE_RATIO_MEASURE(7850.),#955);
#957=PROPERTY_DEFINITION_REPRESENTATION(#962,#959);
#958=PROPERTY_DEFINITION_REPRESENTATION(#963,#960);
#959=REPRESENTATION('material name',(#961),#1546);
#960=REPRESENTATION('density',(#956),#1546);
#961=DESCRIPTIVE_REPRESENTATION_ITEM('Steel','Steel');
#962=PROPERTY_DEFINITION('material property','material name',#1556);
#963=PROPERTY_DEFINITION('material property','density of part',#1556);
#964=AXIS2_PLACEMENT_3D('',#1275,#1029,#1030);
#965=AXIS2_PLACEMENT_3D('',#1276,#1031,#1032);
#966=AXIS2_PLACEMENT_3D('',#1285,#1037,#1038);
#967=AXIS2_PLACEMENT_3D('',#1291,#1042,#1043);
#968=AXIS2_PLACEMENT_3D('',#1305,#1050,#1051);
#969=AXIS2_PLACEMENT_3D('',#1329,#1063,#1064);
#970=AXIS2_PLACEMENT_3D('',#1333,#1066,#1067);
#971=AXIS2_PLACEMENT_3D('',#1357,#1079,#1080);
#972=AXIS2_PLACEMENT_3D('',#1366,#1085,#1086);
#973=AXIS2_PLACEMENT_3D('',#1368,#1087,#1088);
#974=AXIS2_PLACEMENT_3D('',#1369,#1089,#1090);
#975=AXIS2_PLACEMENT_3D('',#1371,#1091,#1092);
#976=AXIS2_PLACEMENT_3D('',#1374,#1094,#1095);
#977=AXIS2_PLACEMENT_3D('',#1375,#1096,#1097);
#978=AXIS2_PLACEMENT_3D('',#1376,#1098,#1099);
#979=AXIS2_PLACEMENT_3D('',#1378,#1100,#1101);
#980=AXIS2_PLACEMENT_3D('',#1381,#1103,#1104);
#981=AXIS2_PLACEMENT_3D('',#1382,#1105,#1106);
#982=AXIS2_PLACEMENT_3D('',#1383,#1107,#1108);
#983=AXIS2_PLACEMENT_3D('',#1389,#1112,#1113);
#984=AXIS2_PLACEMENT_3D('',#1393,#1116,#1117);
#985=AXIS2_PLACEMENT_3D('',#1397,#1120,#1121);
#986=AXIS2_PLACEMENT_3D('',#1403,#1125,#1126);
#987=AXIS2_PLACEMENT_3D('',#1407,#1129,#1130);
#988=AXIS2_PLACEMENT_3D('',#1411,#1133,#1134);
#989=AXIS2_PLACEMENT_3D('',#1415,#1137,#1138);
#990=AXIS2_PLACEMENT_3D('',#1419,#1141,#1142);
#991=AXIS2_PLACEMENT_3D('',#1425,#1146,#1147);
#992=AXIS2_PLACEMENT_3D('',#1427,#1149,#1150);
#993=AXIS2_PLACEMENT_3D('',#1436,#1156,#1157);
#994=AXIS2_PLACEMENT_3D('',#1438,#1159,#1160);
#995=AXIS2_PLACEMENT_3D('',#1442,#1163,#1164);
#996=AXIS2_PLACEMENT_3D('',#1448,#1168,#1169);
#997=AXIS2_PLACEMENT_3D('',#1454,#1173,#1174);
#998=AXIS2_PLACEMENT_3D('',#1458,#1177,#1178);
#999=AXIS2_PLACEMENT_3D('',#1462,#1181,#1182);
#1000=AXIS2_PLACEMENT_3D('',#1464,#1184,#1185);
#1001=AXIS2_PLACEMENT_3D('',#1477,#1191,#1192);
#1002=AXIS2_PLACEMENT_3D('',#1490,#1199,#1200);
#1003=AXIS2_PLACEMENT_3D('',#1494,#1203,#1204);
#1004=AXIS2_PLACEMENT_3D('',#1498,#1208,#1209);
#1005=AXIS2_PLACEMENT_3D('',#1499,#1210,#1211);
#1006=AXIS2_PLACEMENT_3D('',#1501,#1213,#1214);
#1007=AXIS2_PLACEMENT_3D('',#1504,#1217,#1218);
#1008=AXIS2_PLACEMENT_3D('',#1507,#1221,#1222);
#1009=AXIS2_PLACEMENT_3D('',#1510,#1225,#1226);
#1010=AXIS2_PLACEMENT_3D('',#1513,#1229,#1230);
#1011=AXIS2_PLACEMENT_3D('',#1515,#1232,#1233);
#1012=AXIS2_PLACEMENT_3D('',#1517,#1235,#1236);
#1013=AXIS2_PLACEMENT_3D('',#1518,#1237,#1238);
#1014=AXIS2_PLACEMENT_3D('',#1520,#1240,#1241);
#1015=AXIS2_PLACEMENT_3D('',#1521,#1242,#1243);
#1016=AXIS2_PLACEMENT_3D('',#1522,#1244,#1245);
#1017=AXIS2_PLACEMENT_3D('',#1523,#1246,#1247);
#1018=AXIS2_PLACEMENT_3D('',#1524,#1248,#1249);
#1019=AXIS2_PLACEMENT_3D('',#1525,#1250,#1251);
#1020=AXIS2_PLACEMENT_3D('',#1527,#1252,#1253);
#1021=AXIS2_PLACEMENT_3D('',#1529,#1255,#1256);
#1022=AXIS2_PLACEMENT_3D('',#1531,#1257,#1258);
#1023=AXIS2_PLACEMENT_3D('',#1533,#1260,#1261);
#1024=AXIS2_PLACEMENT_3D('',#1535,#1262,#1263);
#1025=AXIS2_PLACEMENT_3D('',#1537,#1265,#1266);
#1026=AXIS2_PLACEMENT_3D('',#1539,#1267,#1268);
#1027=AXIS2_PLACEMENT_3D('',#1541,#1270,#1271);
#1028=AXIS2_PLACEMENT_3D('',#1543,#1273,#1274);
#1029=DIRECTION('axis',(0.,0.,1.));
#1030=DIRECTION('refdir',(1.,0.,0.));
#1031=DIRECTION('center_axis',(1.,0.,0.));
#1032=DIRECTION('ref_axis',(0.,1.,0.));
#1033=DIRECTION('',(0.,1.,0.));
#1034=DIRECTION('',(0.,0.,1.));
#1035=DIRECTION('',(0.,1.,0.));
#1036=DIRECTION('',(0.,0.,1.));
#1037=DIRECTION('center_axis',(0.,0.,1.));
#1038=DIRECTION('ref_axis',(1.,0.,0.));
#1039=DIRECTION('',(0.,-1.,0.));
#1040=DIRECTION('',(-1.,0.,0.));
#1041=DIRECTION('',(1.,0.,0.));
#1042=DIRECTION('center_axis',(0.,0.,1.));
#1043=DIRECTION('ref_axis',(1.,0.,0.));
#1044=DIRECTION('',(1.,0.,0.));
#1045=DIRECTION('',(-1.,0.,0.));
#1046=DIRECTION('',(0.,-1.,0.));
#1047=DIRECTION('',(-1.,0.,0.));
#1048=DIRECTION('',(0.,1.,0.));
#1049=DIRECTION('',(-1.,0.,0.));
#1050=DIRECTION('center_axis',(0.,0.,1.));
#1051=DIRECTION('ref_axis',(-1.,0.,0.));
#1052=DIRECTION('',(-1.,0.,0.));
#1053=DIRECTION('',(0.,-1.,0.));
#1054=DIRECTION('',(-1.,0.,0.));
#1055=DIRECTION('',(0.,-1.,0.));
#1056=DIRECTION('',(1.,0.,0.));
#1057=DIRECTION('',(0.,-1.,0.));
#1058=DIRECTION('',(1.,0.,0.));
#1059=DIRECTION('',(0.,1.,0.));
#1060=DIRECTION('',(-1.,0.,0.));
#1061=DIRECTION('',(0.,-1.,0.));
#1062=DIRECTION('',(-1.,0.,0.));
#1063=DIRECTION('center_axis',(0.,0.,1.));
#1064=DIRECTION('ref_axis',(0.707106781186547,0.707106781186547,0.));
#1065=DIRECTION('',(0.,1.,0.));
#1066=DIRECTION('center_axis',(0.,0.,1.));
#1067=DIRECTION('ref_axis',(0.707106781186547,-0.707106781186547,0.));
#1068=DIRECTION('',(-1.,0.,0.));
#1069=DIRECTION('',(0.,-1.,0.));
#1070=DIRECTION('',(1.,0.,0.));
#1071=DIRECTION('',(0.,1.,0.));
#1072=DIRECTION('',(-1.,0.,0.));
#1073=DIRECTION('',(0.,-1.,0.));
#1074=DIRECTION('',(-1.,0.,0.));
#1075=DIRECTION('',(0.,-1.,0.));
#1076=DIRECTION('',(-1.,0.,0.));
#1077=DIRECTION('',(0.,-1.,0.));
#1078=DIRECTION('',(1.,0.,0.));
#1079=DIRECTION('center_axis',(0.,0.,1.));
#1080=DIRECTION('ref_axis',(-1.,0.,0.));
#1081=DIRECTION('',(1.,0.,0.));
#1082=DIRECTION('',(0.,1.,0.));
#1083=DIRECTION('',(-1.,0.,0.));
#1084=DIRECTION('',(0.,-1.,0.));
#1085=DIRECTION('center_axis',(0.,0.,-1.));
#1086=DIRECTION('ref_axis',(1.,0.,0.));
#1087=DIRECTION('center_axis',(0.,0.,-1.));
#1088=DIRECTION('ref_axis',(1.,0.,0.));
#1089=DIRECTION('center_axis',(0.,0.,1.));
#1090=DIRECTION('ref_axis',(1.,0.,0.));
#1091=DIRECTION('center_axis',(0.,0.,1.));
#1092=DIRECTION('ref_axis',(1.,0.,0.));
#1093=DIRECTION('',(0.,0.,1.));
#1094=DIRECTION('center_axis',(0.,0.,-1.));
#1095=DIRECTION('ref_axis',(1.,0.,0.));
#1096=DIRECTION('center_axis',(0.,0.,1.));
#1097=DIRECTION('ref_axis',(1.,0.,0.));
#1098=DIRECTION('center_axis',(0.,0.,1.));
#1099=DIRECTION('ref_axis',(1.,0.,0.));
#1100=DIRECTION('center_axis',(0.,0.,1.));
#1101=DIRECTION('ref_axis',(1.,0.,0.));
#1102=DIRECTION('',(0.,0.,1.));
#1103=DIRECTION('center_axis',(0.,0.,-1.));
#1104=DIRECTION('ref_axis',(1.,0.,0.));
#1105=DIRECTION('center_axis',(0.,0.,1.));
#1106=DIRECTION('ref_axis',(1.,0.,0.));
#1107=DIRECTION('center_axis',(1.,0.,0.));
#1108=DIRECTION('ref_axis',(0.,1.,0.));
#1109=DIRECTION('',(0.,-1.,0.));
#1110=DIRECTION('',(0.,0.,1.));
#1111=DIRECTION('',(0.,0.,1.));
#1112=DIRECTION('center_axis',(0.,-1.,0.));
#1113=DIRECTION('ref_axis',(1.,0.,0.));
#1114=DIRECTION('',(-1.,0.,0.));
#1115=DIRECTION('',(0.,0.,-1.));
#1116=DIRECTION('center_axis',(0.,1.,0.));
#1117=DIRECTION('ref_axis',(-1.,0.,0.));
#1118=DIRECTION('',(1.,0.,0.));
#1119=DIRECTION('',(0.,0.,1.));
#1120=DIRECTION('center_axis',(1.,0.,0.));
#1121=DIRECTION('ref_axis',(0.,1.,0.));
#1122=DIRECTION('',(0.,-1.,0.));
#1123=DIRECTION('',(0.,0.,1.));
#1124=DIRECTION('',(0.,0.,1.));
#1125=DIRECTION('center_axis',(0.,-1.,0.));
#1126=DIRECTION('ref_axis',(1.,0.,0.));
#1127=DIRECTION('',(-1.,0.,0.));
#1128=DIRECTION('',(0.,0.,-1.));
#1129=DIRECTION('center_axis',(0.,1.,0.));
#1130=DIRECTION('ref_axis',(-1.,0.,0.));
#1131=DIRECTION('',(1.,0.,0.));
#1132=DIRECTION('',(0.,0.,1.));
#1133=DIRECTION('center_axis',(-1.,0.,0.));
#1134=DIRECTION('ref_axis',(0.,-1.,0.));
#1135=DIRECTION('',(0.,-1.,0.));
#1136=DIRECTION('',(0.,0.,1.));
#1137=DIRECTION('center_axis',(-1.,0.,0.));
#1138=DIRECTION('ref_axis',(0.,-1.,0.));
#1139=DIRECTION('',(0.,-1.,0.));
#1140=DIRECTION('',(0.,0.,1.));
#1141=DIRECTION('center_axis',(0.,-1.,0.));
#1142=DIRECTION('ref_axis',(1.,0.,0.));
#1143=DIRECTION('',(0.,0.,-1.));
#1144=DIRECTION('',(1.,0.,0.));
#1145=DIRECTION('',(0.,0.,1.));
#1146=DIRECTION('center_axis',(-1.,0.,0.));
#1147=DIRECTION('ref_axis',(0.,-1.,0.));
#1148=DIRECTION('',(0.,-1.,0.));
#1149=DIRECTION('center_axis',(-1.,0.,0.));
#1150=DIRECTION('ref_axis',(0.,0.,1.));
#1151=DIRECTION('',(0.,1.36642833800019E-16,1.));
#1152=DIRECTION('',(0.,1.,0.));
#1153=DIRECTION('',(0.,-1.02482125350014E-16,-1.));
#1154=DIRECTION('',(0.,0.,1.));
#1155=DIRECTION('',(0.,-1.,0.));
#1156=DIRECTION('center_axis',(0.,1.,0.));
#1157=DIRECTION('ref_axis',(-1.,0.,0.));
#1158=DIRECTION('',(-1.,0.,0.));
#1159=DIRECTION('center_axis',(-1.,0.,0.));
#1160=DIRECTION('ref_axis',(0.,-1.,0.));
#1161=DIRECTION('',(0.,0.,1.));
#1162=DIRECTION('',(0.,-1.,0.));
#1163=DIRECTION('center_axis',(0.,0.,1.));
#1164=DIRECTION('ref_axis',(1.,0.,0.));
#1165=DIRECTION('',(1.,0.,0.));
#1166=DIRECTION('',(-1.24884479710366E-17,1.,0.));
#1167=DIRECTION('',(-1.,0.,0.));
#1168=DIRECTION('center_axis',(0.,1.,0.));
#1169=DIRECTION('ref_axis',(-1.,0.,0.));
#1170=DIRECTION('',(0.,0.,1.));
#1171=DIRECTION('',(-1.,0.,0.));
#1172=DIRECTION('',(0.,0.,1.));
#1173=DIRECTION('center_axis',(1.,0.,0.));
#1174=DIRECTION('ref_axis',(0.,1.,0.));
#1175=DIRECTION('',(0.,0.,1.));
#1176=DIRECTION('',(0.,-1.,0.));
#1177=DIRECTION('center_axis',(-9.70547373549473E-34,-1.,0.));
#1178=DIRECTION('ref_axis',(1.,-9.70547373549473E-34,0.));
#1179=DIRECTION('',(0.,0.,-1.));
#1180=DIRECTION('',(1.,-9.70547373549473E-34,0.));
#1181=DIRECTION('center_axis',(0.,-1.,0.));
#1182=DIRECTION('ref_axis',(1.,0.,0.));
#1183=DIRECTION('',(0.,0.,1.));
#1184=DIRECTION('center_axis',(0.,0.,1.));
#1185=DIRECTION('ref_axis',(-1.,0.,0.));
#1186=DIRECTION('',(-1.,0.,0.));
#1187=DIRECTION('',(0.,-1.,0.));
#1188=DIRECTION('',(-1.,0.,0.));
#1189=DIRECTION('',(0.,-1.,0.));
#1190=DIRECTION('',(-1.,0.,0.));
#1191=DIRECTION('center_axis',(0.,0.,-1.));
#1192=DIRECTION('ref_axis',(-1.,0.,0.));
#1193=DIRECTION('',(-1.,0.,0.));
#1194=DIRECTION('',(0.,1.,0.));
#1195=DIRECTION('',(-1.,0.,0.));
#1196=DIRECTION('',(-1.,0.,0.));
#1197=DIRECTION('',(0.,1.,0.));
#1198=DIRECTION('',(1.,0.,0.));
#1199=DIRECTION('center_axis',(0.,0.,-1.));
#1200=DIRECTION('ref_axis',(-1.,0.,0.));
#1201=DIRECTION('',(1.,0.,0.));
#1202=DIRECTION('',(0.,-1.,0.));
#1203=DIRECTION('center_axis',(-1.,0.,0.));
#1204=DIRECTION('ref_axis',(0.,-1.,0.));
#1205=DIRECTION('',(0.,1.36642833800019E-16,1.));
#1206=DIRECTION('',(0.,0.,1.));
#1207=DIRECTION('',(0.,-1.02482125350014E-16,-1.));
#1208=DIRECTION('center_axis',(0.,1.,0.));
#1209=DIRECTION('ref_axis',(-1.,0.,0.));
#1210=DIRECTION('center_axis',(0.,1.,-1.02482125350014E-16));
#1211=DIRECTION('ref_axis',(0.,-1.02482125350014E-16,-1.));
#1212=DIRECTION('',(0.,1.02482125350014E-16,1.));
#1213=DIRECTION('center_axis',(0.,-1.,0.));
#1214=DIRECTION('ref_axis',(1.,0.,0.));
#1215=DIRECTION('',(0.,0.,1.));
#1216=DIRECTION('',(0.,0.,1.));
#1217=DIRECTION('center_axis',(0.,-1.,0.));
#1218=DIRECTION('ref_axis',(1.,0.,0.));
#1219=DIRECTION('',(0.,0.,1.));
#1220=DIRECTION('',(0.,0.,-1.));
#1221=DIRECTION('center_axis',(1.,0.,0.));
#1222=DIRECTION('ref_axis',(0.,1.,0.));
#1223=DIRECTION('',(0.,0.,1.));
#1224=DIRECTION('',(0.,-1.36642833800019E-16,-1.));
#1225=DIRECTION('center_axis',(0.,1.,0.));
#1226=DIRECTION('ref_axis',(-1.,0.,0.));
#1227=DIRECTION('',(0.,0.,-1.));
#1228=DIRECTION('',(0.,0.,1.));
#1229=DIRECTION('center_axis',(-1.,0.,0.));
#1230=DIRECTION('ref_axis',(0.,-1.,0.));
#1231=DIRECTION('',(0.,1.36642833800019E-16,1.));
#1232=DIRECTION('center_axis',(0.,1.,0.));
#1233=DIRECTION('ref_axis',(-1.,0.,0.));
#1234=DIRECTION('',(0.,0.,1.));
#1235=DIRECTION('center_axis',(1.,0.,0.));
#1236=DIRECTION('ref_axis',(0.,1.,0.));
#1237=DIRECTION('center_axis',(-1.,0.,0.));
#1238=DIRECTION('ref_axis',(0.,-1.,0.));
#1239=DIRECTION('',(0.,-1.02482125350014E-16,-1.));
#1240=DIRECTION('center_axis',(0.,1.,-1.02482125350014E-16));
#1241=DIRECTION('ref_axis',(0.,-1.02482125350014E-16,-1.));
#1242=DIRECTION('center_axis',(0.,0.,-1.));
#1243=DIRECTION('ref_axis',(1.83697019872103E-16,-1.,0.));
#1244=DIRECTION('center_axis',(0.,-1.,1.36642833800019E-16));
#1245=DIRECTION('ref_axis',(0.,1.36642833800019E-16,1.));
#1246=DIRECTION('center_axis',(0.,0.,-1.));
#1247=DIRECTION('ref_axis',(1.83697019872103E-16,1.,0.));
#1248=DIRECTION('center_axis',(0.,-1.,1.36642833800019E-16));
#1249=DIRECTION('ref_axis',(0.,1.36642833800019E-16,1.));
#1250=DIRECTION('center_axis',(0.,0.,1.));
#1251=DIRECTION('ref_axis',(0.707106781186547,0.707106781186547,0.));
#1252=DIRECTION('center_axis',(0.,0.,-1.));
#1253=DIRECTION('ref_axis',(0.707106781186547,0.707106781186547,0.));
#1254=DIRECTION('',(0.,0.,-1.));
#1255=DIRECTION('center_axis',(0.,0.,1.));
#1256=DIRECTION('ref_axis',(0.707106781186547,-0.707106781186547,0.));
#1257=DIRECTION('center_axis',(0.,0.,-1.));
#1258=DIRECTION('ref_axis',(0.707106781186547,-0.707106781186547,0.));
#1259=DIRECTION('',(0.,0.,1.));
#1260=DIRECTION('center_axis',(0.,0.,1.));
#1261=DIRECTION('ref_axis',(1.,0.,0.));
#1262=DIRECTION('center_axis',(0.,0.,-1.));
#1263=DIRECTION('ref_axis',(1.,0.,0.));
#1264=DIRECTION('',(0.,0.,-1.));
#1265=DIRECTION('center_axis',(0.,0.,1.));
#1266=DIRECTION('ref_axis',(1.,0.,0.));
#1267=DIRECTION('center_axis',(0.,0.,-1.));
#1268=DIRECTION('ref_axis',(1.,0.,0.));
#1269=DIRECTION('',(0.,0.,-1.));
#1270=DIRECTION('center_axis',(1.,0.,0.));
#1271=DIRECTION('ref_axis',(0.,1.,0.));
#1272=DIRECTION('',(0.,1.,0.));
#1273=DIRECTION('center_axis',(0.,0.,1.));
#1274=DIRECTION('ref_axis',(1.,0.,0.));
#1275=CARTESIAN_POINT('',(0.,0.,0.));
#1276=CARTESIAN_POINT('Origin',(0.65,9.7,0.));
#1277=CARTESIAN_POINT('',(0.65,9.7,0.));
#1278=CARTESIAN_POINT('',(0.65,34.7,0.));
#1279=CARTESIAN_POINT('',(0.650000000000001,15.9625,0.));
#1280=CARTESIAN_POINT('',(0.65,9.7,67.1));
#1281=CARTESIAN_POINT('',(0.65,9.7,0.));
#1282=CARTESIAN_POINT('',(0.65,34.7,67.1));
#1283=CARTESIAN_POINT('',(0.65,9.7,67.1));
#1284=CARTESIAN_POINT('',(0.65,34.7,0.));
#1285=CARTESIAN_POINT('Origin',(0.3,22.2,67.1));
#1286=CARTESIAN_POINT('',(-0.05,34.7,67.1));
#1287=CARTESIAN_POINT('',(-0.05,9.7,67.1));
#1288=CARTESIAN_POINT('',(-0.05,34.7,67.1));
#1289=CARTESIAN_POINT('',(0.65,34.7,67.1));
#1290=CARTESIAN_POINT('',(-0.05,9.7,67.1));
#1291=CARTESIAN_POINT('Origin',(7.9375,22.225,0.));
#1292=CARTESIAN_POINT('',(-0.05,9.7,0.));
#1293=CARTESIAN_POINT('',(3.94375,9.7,0.));
#1294=CARTESIAN_POINT('',(-0.05,34.7,0.));
#1295=CARTESIAN_POINT('',(4.29375,34.7,0.));
#1296=CARTESIAN_POINT('',(-0.05,34.225,0.));
#1297=CARTESIAN_POINT('',(-0.05,28.4625,0.));
#1298=CARTESIAN_POINT('',(-2.5,34.225,0.));
#1299=CARTESIAN_POINT('',(0.,34.225,0.));
#1300=CARTESIAN_POINT('',(-2.5,34.35,0.));
#1301=CARTESIAN_POINT('',(-2.5,16.1625,0.));
#1302=CARTESIAN_POINT('',(-6.50784325835077,34.35,0.));
#1303=CARTESIAN_POINT('',(2.71875,34.35,0.));
#1304=CARTESIAN_POINT('',(-8.49215674164923,34.35,0.));
#1305=CARTESIAN_POINT('Origin',(-7.5,38.225,0.));
#1306=CARTESIAN_POINT('',(-12.5,34.35,0.));
#1307=CARTESIAN_POINT('',(2.71875,34.35,0.));
#1308=CARTESIAN_POINT('',(-12.5,34.225,0.));
#1309=CARTESIAN_POINT('',(-12.5,28.2875,0.));
#1310=CARTESIAN_POINT('',(-15.,34.225,0.));
#1311=CARTESIAN_POINT('',(0.,34.225,0.));
#1312=CARTESIAN_POINT('',(-15.,38.05,0.));
#1313=CARTESIAN_POINT('',(-15.,44.45,0.));
#1314=CARTESIAN_POINT('',(-25.,38.05,0.));
#1315=CARTESIAN_POINT('',(-25.,38.05,0.));
#1316=CARTESIAN_POINT('',(-25.,40.05,0.));
#1317=CARTESIAN_POINT('',(-25.,44.45,0.));
#1318=CARTESIAN_POINT('',(-13.,40.05,0.));
#1319=CARTESIAN_POINT('',(-8.58125,40.05,0.));
#1320=CARTESIAN_POINT('',(-13.,42.45,0.));
#1321=CARTESIAN_POINT('',(-13.,31.1375,0.));
#1322=CARTESIAN_POINT('',(-25.,42.45,0.));
#1323=CARTESIAN_POINT('',(-2.53125,42.45,0.));
#1324=CARTESIAN_POINT('',(-25.,44.45,0.));
#1325=CARTESIAN_POINT('',(-25.,44.45,0.));
#1326=CARTESIAN_POINT('',(10.875,44.45,0.));
#1327=CARTESIAN_POINT('',(15.875,44.45,0.));
#1328=CARTESIAN_POINT('',(15.875,39.45,0.));
#1329=CARTESIAN_POINT('Origin',(10.875,39.45,0.));
#1330=CARTESIAN_POINT('',(15.875,5.,0.));
#1331=CARTESIAN_POINT('',(15.875,-1.54074395550979E-32,0.));
#1332=CARTESIAN_POINT('',(10.875,0.,0.));
#1333=CARTESIAN_POINT('Origin',(10.875,5.,0.));
#1334=CARTESIAN_POINT('',(-25.,0.,0.));
#1335=CARTESIAN_POINT('',(0.,0.,0.));
#1336=CARTESIAN_POINT('',(-25.,2.,0.));
#1337=CARTESIAN_POINT('',(-25.,6.4,0.));
#1338=CARTESIAN_POINT('',(-13.,2.,0.));
#1339=CARTESIAN_POINT('',(-8.58125,2.,0.));
#1340=CARTESIAN_POINT('',(-13.,4.4,0.));
#1341=CARTESIAN_POINT('',(-13.,12.1125,0.));
#1342=CARTESIAN_POINT('',(-25.,4.4,0.));
#1343=CARTESIAN_POINT('',(-2.53125,4.4,0.));
#1344=CARTESIAN_POINT('',(-25.,6.4,0.));
#1345=CARTESIAN_POINT('',(-25.,6.4,0.));
#1346=CARTESIAN_POINT('',(-15.,6.4,0.));
#1347=CARTESIAN_POINT('',(-15.,6.4,0.));
#1348=CARTESIAN_POINT('',(-15.,10.225,0.));
#1349=CARTESIAN_POINT('',(-15.,44.45,0.));
#1350=CARTESIAN_POINT('',(-12.5,10.225,0.));
#1351=CARTESIAN_POINT('',(0.,10.225,0.));
#1352=CARTESIAN_POINT('',(-12.5,10.1,0.));
#1353=CARTESIAN_POINT('',(-12.5,28.2875,0.));
#1354=CARTESIAN_POINT('',(-8.49215674164922,10.1,8.88178419700125E-15));
#1355=CARTESIAN_POINT('',(-2.28125,10.1,0.));
#1356=CARTESIAN_POINT('',(-6.50784325835078,10.1,8.88178419700125E-15));
#1357=CARTESIAN_POINT('Origin',(-7.5,6.225,0.));
#1358=CARTESIAN_POINT('',(-2.5,10.1,0.));
#1359=CARTESIAN_POINT('',(-2.28125,10.1,0.));
#1360=CARTESIAN_POINT('',(-2.5,10.225,0.));
#1361=CARTESIAN_POINT('',(-2.5,16.1625,0.));
#1362=CARTESIAN_POINT('',(-0.05,10.225,0.));
#1363=CARTESIAN_POINT('',(0.,10.225,0.));
#1364=CARTESIAN_POINT('',(-0.05,28.4625,0.));
#1365=CARTESIAN_POINT('',(5.53749999999999,6.35,0.));
#1366=CARTESIAN_POINT('Origin',(7.93749999999999,6.35,0.));
#1367=CARTESIAN_POINT('',(5.5375,38.1,0.));
#1368=CARTESIAN_POINT('Origin',(7.9375,38.1,0.));
#1369=CARTESIAN_POINT('Origin',(-7.5,15.,68.8));
#1370=CARTESIAN_POINT('',(-9.5,15.,68.8));
#1371=CARTESIAN_POINT('Origin',(-7.5,15.,68.8));
#1372=CARTESIAN_POINT('',(-9.5,15.,72.));
#1373=CARTESIAN_POINT('',(-9.5,15.,68.8));
#1374=CARTESIAN_POINT('Origin',(-7.5,15.,72.));
#1375=CARTESIAN_POINT('Origin',(-7.5,15.,68.8));
#1376=CARTESIAN_POINT('Origin',(-7.5,29.45,68.8));
#1377=CARTESIAN_POINT('',(-9.5,29.45,68.8));
#1378=CARTESIAN_POINT('Origin',(-7.5,29.45,68.8));
#1379=CARTESIAN_POINT('',(-9.5,29.45,72.));
#1380=CARTESIAN_POINT('',(-9.5,29.45,68.8));
#1381=CARTESIAN_POINT('Origin',(-7.5,29.45,72.));
#1382=CARTESIAN_POINT('Origin',(-7.5,29.45,68.8));
#1383=CARTESIAN_POINT('Origin',(-13.,2.,0.));
#1384=CARTESIAN_POINT('',(-13.,4.4,72.));
#1385=CARTESIAN_POINT('',(-13.,2.,72.));
#1386=CARTESIAN_POINT('',(-13.,12.1125,72.));
#1387=CARTESIAN_POINT('',(-13.,4.4,0.));
#1388=CARTESIAN_POINT('',(-13.,2.,0.));
#1389=CARTESIAN_POINT('Origin',(-25.1,2.,0.));
#1390=CARTESIAN_POINT('',(-25.,2.,72.));
#1391=CARTESIAN_POINT('',(-15.8,2.,72.));
#1392=CARTESIAN_POINT('',(-25.,2.,0.));
#1393=CARTESIAN_POINT('Origin',(-13.,4.4,0.));
#1394=CARTESIAN_POINT('',(-25.,4.4,72.));
#1395=CARTESIAN_POINT('',(-9.75,4.4,72.));
#1396=CARTESIAN_POINT('',(-25.,4.4,0.));
#1397=CARTESIAN_POINT('Origin',(-13.,40.05,0.));
#1398=CARTESIAN_POINT('',(-13.,42.45,72.));
#1399=CARTESIAN_POINT('',(-13.,40.05,72.));
#1400=CARTESIAN_POINT('',(-13.,31.1375,72.));
#1401=CARTESIAN_POINT('',(-13.,42.45,0.));
#1402=CARTESIAN_POINT('',(-13.,40.05,0.));
#1403=CARTESIAN_POINT('Origin',(-25.1,40.05,0.));
#1404=CARTESIAN_POINT('',(-25.,40.05,72.));
#1405=CARTESIAN_POINT('',(-15.8,40.05,72.));
#1406=CARTESIAN_POINT('',(-25.,40.05,0.));
#1407=CARTESIAN_POINT('Origin',(-13.,42.45,0.));
#1408=CARTESIAN_POINT('',(-25.,42.45,72.));
#1409=CARTESIAN_POINT('',(-9.75,42.45,72.));
#1410=CARTESIAN_POINT('',(-25.,42.45,0.));
#1411=CARTESIAN_POINT('Origin',(-25.,6.4,0.));
#1412=CARTESIAN_POINT('',(-25.,6.4,72.));
#1413=CARTESIAN_POINT('',(-25.,6.4,72.));
#1414=CARTESIAN_POINT('',(-25.,6.4,0.));
#1415=CARTESIAN_POINT('Origin',(-25.,44.45,0.));
#1416=CARTESIAN_POINT('',(-25.,44.45,72.));
#1417=CARTESIAN_POINT('',(-25.,44.45,72.));
#1418=CARTESIAN_POINT('',(-25.,44.45,0.));
#1419=CARTESIAN_POINT('Origin',(-25.,38.05,0.));
#1420=CARTESIAN_POINT('',(-15.,38.05,72.));
#1421=CARTESIAN_POINT('',(-15.,38.05,16.25));
#1422=CARTESIAN_POINT('',(-25.,38.05,72.));
#1423=CARTESIAN_POINT('',(-25.,38.05,72.));
#1424=CARTESIAN_POINT('',(-25.,38.05,0.));
#1425=CARTESIAN_POINT('Origin',(-25.,44.45,0.));
#1426=CARTESIAN_POINT('',(-25.,44.45,72.));
#1427=CARTESIAN_POINT('Origin',(-15.,39.3375,32.5));
#1428=CARTESIAN_POINT('',(-15.,34.225,65.));
#1429=CARTESIAN_POINT('',(-15.,34.225,65.));
#1430=CARTESIAN_POINT('',(-15.,10.225,65.));
#1431=CARTESIAN_POINT('',(-15.,0.,65.));
#1432=CARTESIAN_POINT('',(-15.,10.225,65.));
#1433=CARTESIAN_POINT('',(-15.,6.4,72.));
#1434=CARTESIAN_POINT('',(-15.,6.4,16.25));
#1435=CARTESIAN_POINT('',(-15.,0.,72.));
#1436=CARTESIAN_POINT('Origin',(-15.,6.4,0.));
#1437=CARTESIAN_POINT('',(-15.,6.4,72.));
#1438=CARTESIAN_POINT('Origin',(-25.,6.4,0.));
#1439=CARTESIAN_POINT('',(-25.,0.,72.));
#1440=CARTESIAN_POINT('',(-25.,0.,0.));
#1441=CARTESIAN_POINT('',(-25.,6.4,72.));
#1442=CARTESIAN_POINT('Origin',(-6.5,22.225,72.));
#1443=CARTESIAN_POINT('',(2.,0.,72.));
#1444=CARTESIAN_POINT('',(-25.,0.,72.));
#1445=CARTESIAN_POINT('',(2.,44.45,72.));
#1446=CARTESIAN_POINT('',(2.,44.45,72.));
#1447=CARTESIAN_POINT('',(-15.,44.45,72.));
#1448=CARTESIAN_POINT('Origin',(15.875,44.45,0.));
#1449=CARTESIAN_POINT('',(2.,44.45,2.));
#1450=CARTESIAN_POINT('',(2.,44.45,0.));
#1451=CARTESIAN_POINT('',(10.875,44.45,2.));
#1452=CARTESIAN_POINT('',(15.875,44.45,2.));
#1453=CARTESIAN_POINT('',(10.875,44.45,0.));
#1454=CARTESIAN_POINT('Origin',(2.,0.,0.));
#1455=CARTESIAN_POINT('',(2.,-1.94109474709895E-33,2.));
#1456=CARTESIAN_POINT('',(2.,0.,0.));
#1457=CARTESIAN_POINT('',(2.,11.1125,2.));
#1458=CARTESIAN_POINT('Origin',(0.,0.,0.));
#1459=CARTESIAN_POINT('',(10.875,-1.05547026873505E-32,2.));
#1460=CARTESIAN_POINT('',(10.875,0.,0.));
#1461=CARTESIAN_POINT('',(0.,0.,2.));
#1462=CARTESIAN_POINT('Origin',(-0.05,9.7,0.));
#1463=CARTESIAN_POINT('',(-0.05,9.7,0.));
#1464=CARTESIAN_POINT('Origin',(-7.5,22.225,65.));
#1465=CARTESIAN_POINT('',(-0.05,34.225,65.));
#1466=CARTESIAN_POINT('',(-2.5,34.225,65.));
#1467=CARTESIAN_POINT('',(0.,34.225,65.));
#1468=CARTESIAN_POINT('',(-0.05,10.225,65.));
#1469=CARTESIAN_POINT('',(-0.05,28.4625,65.));
#1470=CARTESIAN_POINT('',(-2.5,10.225,65.));
#1471=CARTESIAN_POINT('',(0.,10.225,65.));
#1472=CARTESIAN_POINT('',(-2.5,10.1,65.));
#1473=CARTESIAN_POINT('',(-2.5,5.05,65.));
#1474=CARTESIAN_POINT('',(-6.50784325835078,10.1,65.));
#1475=CARTESIAN_POINT('',(-6.25,10.1,65.));
#1476=CARTESIAN_POINT('',(-8.49215674164922,10.1,65.));
#1477=CARTESIAN_POINT('Origin',(-7.5,6.225,65.));
#1478=CARTESIAN_POINT('',(-12.5,10.1,65.));
#1479=CARTESIAN_POINT('',(-6.25,10.1,65.));
#1480=CARTESIAN_POINT('',(-12.5,10.225,65.));
#1481=CARTESIAN_POINT('',(-12.5,17.175,65.));
#1482=CARTESIAN_POINT('',(0.,10.225,65.));
#1483=CARTESIAN_POINT('',(-12.5,34.225,65.));
#1484=CARTESIAN_POINT('',(0.,34.225,65.));
#1485=CARTESIAN_POINT('',(-12.5,34.35,65.));
#1486=CARTESIAN_POINT('',(-12.5,34.2875,65.));
#1487=CARTESIAN_POINT('',(-8.49215674164923,34.35,65.));
#1488=CARTESIAN_POINT('',(-1.25,34.35,65.));
#1489=CARTESIAN_POINT('',(-6.50784325835077,34.35,65.));
#1490=CARTESIAN_POINT('Origin',(-7.5,38.225,65.));
#1491=CARTESIAN_POINT('',(-2.5,34.35,65.));
#1492=CARTESIAN_POINT('',(-1.25,34.35,65.));
#1493=CARTESIAN_POINT('',(-2.5,22.1625,65.));
#1494=CARTESIAN_POINT('Origin',(-0.05,34.7,0.));
#1495=CARTESIAN_POINT('',(-0.05,34.225,3.24526730275054E-17));
#1496=CARTESIAN_POINT('',(-0.05,34.7,0.));
#1497=CARTESIAN_POINT('',(-0.05,10.225,32.5));
#1498=CARTESIAN_POINT('Origin',(0.65,34.7,0.));
#1499=CARTESIAN_POINT('Origin',(0.,10.225,65.));
#1500=CARTESIAN_POINT('',(-2.5,10.225,32.5));
#1501=CARTESIAN_POINT('Origin',(-12.5,10.1,0.));
#1502=CARTESIAN_POINT('',(-8.49215674164922,10.1,65.));
#1503=CARTESIAN_POINT('',(-12.5,10.1,0.));
#1504=CARTESIAN_POINT('Origin',(-12.5,10.1,0.));
#1505=CARTESIAN_POINT('',(-2.5,10.1,0.));
#1506=CARTESIAN_POINT('',(-6.50784325835078,10.1,65.));
#1507=CARTESIAN_POINT('Origin',(-2.5,10.1,0.));
#1508=CARTESIAN_POINT('',(-2.5,34.35,0.));
#1509=CARTESIAN_POINT('',(-2.5,34.225,-1.64825418271273E-15));
#1510=CARTESIAN_POINT('Origin',(-2.5,34.35,0.));
#1511=CARTESIAN_POINT('',(-8.49215674164923,34.35,65.));
#1512=CARTESIAN_POINT('',(-12.5,34.35,0.));
#1513=CARTESIAN_POINT('Origin',(-12.5,34.35,0.));
#1514=CARTESIAN_POINT('',(-12.5,34.225,8.54017711250193E-18));
#1515=CARTESIAN_POINT('Origin',(-2.5,34.35,0.));
#1516=CARTESIAN_POINT('',(-6.50784325835077,34.35,65.));
#1517=CARTESIAN_POINT('Origin',(-2.5,10.1,0.));
#1518=CARTESIAN_POINT('Origin',(-12.5,34.35,0.));
#1519=CARTESIAN_POINT('',(-12.5,10.225,32.5));
#1520=CARTESIAN_POINT('Origin',(0.,10.225,65.));
#1521=CARTESIAN_POINT('Origin',(-7.5,6.225,65.));
#1522=CARTESIAN_POINT('Origin',(0.,34.225,0.));
#1523=CARTESIAN_POINT('Origin',(-7.5,38.225,65.));
#1524=CARTESIAN_POINT('Origin',(0.,34.225,0.));
#1525=CARTESIAN_POINT('Origin',(10.875,39.45,0.));
#1526=CARTESIAN_POINT('',(15.875,39.45,2.));
#1527=CARTESIAN_POINT('Origin',(10.875,39.45,2.));
#1528=CARTESIAN_POINT('',(15.875,39.45,0.));
#1529=CARTESIAN_POINT('Origin',(10.875,5.,0.));
#1530=CARTESIAN_POINT('',(15.875,5.,2.));
#1531=CARTESIAN_POINT('Origin',(10.875,5.,2.));
#1532=CARTESIAN_POINT('',(15.875,5.,0.));
#1533=CARTESIAN_POINT('Origin',(7.9375,38.1,0.));
#1534=CARTESIAN_POINT('',(5.5375,38.1,2.));
#1535=CARTESIAN_POINT('Origin',(7.9375,38.1,2.));
#1536=CARTESIAN_POINT('',(5.5375,38.1,0.));
#1537=CARTESIAN_POINT('Origin',(7.93749999999999,6.35,0.));
#1538=CARTESIAN_POINT('',(5.53749999999999,6.35,2.));
#1539=CARTESIAN_POINT('Origin',(7.93749999999999,6.35,2.));
#1540=CARTESIAN_POINT('',(5.53749999999999,6.35,0.));
#1541=CARTESIAN_POINT('Origin',(15.875,-1.54074395550979E-32,0.));
#1542=CARTESIAN_POINT('',(15.875,-1.54074395550979E-32,2.));
#1543=CARTESIAN_POINT('Origin',(7.9375,22.225,2.));
#1544=UNCERTAINTY_MEASURE_WITH_UNIT(LENGTH_MEASURE(0.01),#1548,
'DISTANCE_ACCURACY_VALUE',
'Maximum model space distance between geometric entities at asserted c
onnectivities');
#1545=UNCERTAINTY_MEASURE_WITH_UNIT(LENGTH_MEASURE(0.01),#1548,
'DISTANCE_ACCURACY_VALUE',
'Maximum model space distance between geometric entities at asserted c
onnectivities');
#1546=(
GEOMETRIC_REPRESENTATION_CONTEXT(3)
GLOBAL_UNCERTAINTY_ASSIGNED_CONTEXT((#1544))
GLOBAL_UNIT_ASSIGNED_CONTEXT((#1548,#1550,#1551))
REPRESENTATION_CONTEXT('','3D')
);
#1547=(
GEOMETRIC_REPRESENTATION_CONTEXT(3)
GLOBAL_UNCERTAINTY_ASSIGNED_CONTEXT((#1545))
GLOBAL_UNIT_ASSIGNED_CONTEXT((#1548,#1550,#1551))
REPRESENTATION_CONTEXT('','3D')
);
#1548=(
LENGTH_UNIT()
NAMED_UNIT(*)
SI_UNIT(.MILLI.,.METRE.)
);
#1549=(
LENGTH_UNIT()
NAMED_UNIT(*)
SI_UNIT($,.METRE.)
);
#1550=(
NAMED_UNIT(*)
PLANE_ANGLE_UNIT()
SI_UNIT($,.RADIAN.)
);
#1551=(
NAMED_UNIT(*)
SI_UNIT($,.STERADIAN.)
SOLID_ANGLE_UNIT()
);
#1552=SHAPE_DEFINITION_REPRESENTATION(#1553,#1554);
#1553=PRODUCT_DEFINITION_SHAPE('',$,#1556);
#1554=SHAPE_REPRESENTATION('',(#964),#1546);
#1555=PRODUCT_DEFINITION_CONTEXT('part definition',#1560,'design');
#1556=PRODUCT_DEFINITION('2025-11-01-16-26-23-759',
'MacBook Pro Rear Ear v2 Parametric',#1557,#1555);
#1557=PRODUCT_DEFINITION_FORMATION('',$,#1562);
#1558=PRODUCT_RELATED_PRODUCT_CATEGORY(
'MacBook Pro Rear Ear v2 Parametric',
'MacBook Pro Rear Ear v2 Parametric',(#1562));
#1559=APPLICATION_PROTOCOL_DEFINITION('international standard',
'automotive_design',2009,#1560);
#1560=APPLICATION_CONTEXT(
'Core Data for Automotive Mechanical Design Process');
#1561=PRODUCT_CONTEXT('part definition',#1560,'mechanical');
#1562=PRODUCT('2025-11-01-16-26-23-759',
'MacBook Pro Rear Ear v2 Parametric',$,(#1561));
#1563=PRESENTATION_STYLE_ASSIGNMENT((#1564));
#1564=SURFACE_STYLE_USAGE(.BOTH.,#1565);
#1565=SURFACE_SIDE_STYLE('',(#1566));
#1566=SURFACE_STYLE_FILL_AREA(#1567);
#1567=FILL_AREA_STYLE('Steel - Satin',(#1568));
#1568=FILL_AREA_STYLE_COLOUR('Steel - Satin',#1569);
#1569=COLOUR_RGB('Steel - Satin',0.627450980392157,0.627450980392157,0.627450980392157);
ENDSEC;
END-ISO-10303-21;
