ISO-10303-21;
HEADER;
/* Generated by software containing ST-Developer
 * from STEP Tools, Inc. (www.steptools.com) 
 */

FILE_DESCRIPTION(
/* description */ (''),
/* implementation_level */ '2;1');

FILE_NAME(
/* name */ 'rear_ear_v2_selftap.step',
/* time_stamp */ '2026-08-26T07:13:45-05:00',
/* author */ (''),
/* organization */ (''),
/* preprocessor_version */ 'ST-DEVELOPER v20.1',
/* originating_system */ 'Autodesk Translation Framework v15.8.0.0',
/* authorisation */ '');

FILE_SCHEMA (('AUTOMOTIVE_DESIGN { 1 0 10303 214 3 1 1 }'));
ENDSEC;

DATA;
#10=MECHANICAL_DESIGN_GEOMETRIC_PRESENTATION_REPRESENTATION('',(#13),#1617);
#11=SHAPE_REPRESENTATION_RELATIONSHIP('SRR','None',#1624,#12);
#12=ADVANCED_BREP_SHAPE_REPRESENTATION('',(#14),#1616);
#13=STYLED_ITEM('',(#1633),#14);
#14=MANIFOLD_SOLID_BREP('Rear Ear v2',#989);
#15=FACE_BOUND('',#121,.T.);
#16=FACE_BOUND('',#122,.T.);
#17=FACE_BOUND('',#155,.T.);
#18=FACE_BOUND('',#156,.T.);
#19=FACE_BOUND('',#167,.T.);
#20=FACE_BOUND('',#168,.T.);
#21=PLANE('',#1006);
#22=PLANE('',#1010);
#23=PLANE('',#1011);
#24=PLANE('',#1012);
#25=PLANE('',#1013);
#26=PLANE('',#1014);
#27=PLANE('',#1023);
#28=PLANE('',#1024);
#29=PLANE('',#1025);
#30=PLANE('',#1026);
#31=PLANE('',#1027);
#32=PLANE('',#1028);
#33=PLANE('',#1029);
#34=PLANE('',#1030);
#35=PLANE('',#1031);
#36=PLANE('',#1032);
#37=PLANE('',#1033);
#38=PLANE('',#1034);
#39=PLANE('',#1035);
#40=PLANE('',#1036);
#41=PLANE('',#1037);
#42=PLANE('',#1038);
#43=PLANE('',#1039);
#44=PLANE('',#1040);
#45=PLANE('',#1041);
#46=PLANE('',#1042);
#47=PLANE('',#1043);
#48=PLANE('',#1044);
#49=PLANE('',#1045);
#50=PLANE('',#1046);
#51=PLANE('',#1047);
#52=PLANE('',#1048);
#53=PLANE('',#1052);
#54=PLANE('',#1053);
#55=PLANE('',#1054);
#56=PLANE('',#1056);
#57=PLANE('',#1057);
#58=PLANE('',#1058);
#59=PLANE('',#1065);
#60=PLANE('',#1066);
#61=PLANE('',#1071);
#62=PLANE('',#1072);
#63=FACE_OUTER_BOUND('',#113,.T.);
#64=FACE_OUTER_BOUND('',#114,.T.);
#65=FACE_OUTER_BOUND('',#115,.T.);
#66=FACE_OUTER_BOUND('',#116,.T.);
#67=FACE_OUTER_BOUND('',#117,.T.);
#68=FACE_OUTER_BOUND('',#118,.T.);
#69=FACE_OUTER_BOUND('',#119,.T.);
#70=FACE_OUTER_BOUND('',#120,.T.);
#71=FACE_OUTER_BOUND('',#123,.T.);
#72=FACE_OUTER_BOUND('',#124,.T.);
#73=FACE_OUTER_BOUND('',#125,.T.);
#74=FACE_OUTER_BOUND('',#126,.T.);
#75=FACE_OUTER_BOUND('',#127,.T.);
#76=FACE_OUTER_BOUND('',#128,.T.);
#77=FACE_OUTER_BOUND('',#129,.T.);
#78=FACE_OUTER_BOUND('',#130,.T.);
#79=FACE_OUTER_BOUND('',#131,.T.);
#80=FACE_OUTER_BOUND('',#132,.T.);
#81=FACE_OUTER_BOUND('',#133,.T.);
#82=FACE_OUTER_BOUND('',#134,.T.);
#83=FACE_OUTER_BOUND('',#135,.T.);
#84=FACE_OUTER_BOUND('',#136,.T.);
#85=FACE_OUTER_BOUND('',#137,.T.);
#86=FACE_OUTER_BOUND('',#138,.T.);
#87=FACE_OUTER_BOUND('',#139,.T.);
#88=FACE_OUTER_BOUND('',#140,.T.);
#89=FACE_OUTER_BOUND('',#141,.T.);
#90=FACE_OUTER_BOUND('',#142,.T.);
#91=FACE_OUTER_BOUND('',#143,.T.);
#92=FACE_OUTER_BOUND('',#144,.T.);
#93=FACE_OUTER_BOUND('',#145,.T.);
#94=FACE_OUTER_BOUND('',#146,.T.);
#95=FACE_OUTER_BOUND('',#147,.T.);
#96=FACE_OUTER_BOUND('',#148,.T.);
#97=FACE_OUTER_BOUND('',#149,.T.);
#98=FACE_OUTER_BOUND('',#150,.T.);
#99=FACE_OUTER_BOUND('',#151,.T.);
#100=FACE_OUTER_BOUND('',#152,.T.);
#101=FACE_OUTER_BOUND('',#153,.T.);
#102=FACE_OUTER_BOUND('',#154,.T.);
#103=FACE_OUTER_BOUND('',#157,.T.);
#104=FACE_OUTER_BOUND('',#158,.T.);
#105=FACE_OUTER_BOUND('',#159,.T.);
#106=FACE_OUTER_BOUND('',#160,.T.);
#107=FACE_OUTER_BOUND('',#161,.T.);
#108=FACE_OUTER_BOUND('',#162,.T.);
#109=FACE_OUTER_BOUND('',#163,.T.);
#110=FACE_OUTER_BOUND('',#164,.T.);
#111=FACE_OUTER_BOUND('',#165,.T.);
#112=FACE_OUTER_BOUND('',#166,.T.);
#113=EDGE_LOOP('',(#655,#656,#657,#658));
#114=EDGE_LOOP('',(#659));
#115=EDGE_LOOP('',(#660,#661,#662,#663));
#116=EDGE_LOOP('',(#664));
#117=EDGE_LOOP('',(#665,#666,#667,#668));
#118=EDGE_LOOP('',(#669,#670,#671,#672));
#119=EDGE_LOOP('',(#673,#674,#675,#676));
#120=EDGE_LOOP('',(#677,#678,#679,#680,#681,#682,#683,#684,#685,#686,#687,
#688,#689,#690,#691,#692,#693,#694,#695,#696,#697,#698,#699,#700,#701,#702,
#703,#704,#705,#706,#707,#708,#709,#710,#711,#712,#713,#714,#715,#716));
#121=EDGE_LOOP('',(#717));
#122=EDGE_LOOP('',(#718));
#123=EDGE_LOOP('',(#719,#720,#721,#722));
#124=EDGE_LOOP('',(#723,#724,#725,#726));
#125=EDGE_LOOP('',(#727,#728,#729,#730));
#126=EDGE_LOOP('',(#731,#732,#733,#734));
#127=EDGE_LOOP('',(#735,#736,#737,#738));
#128=EDGE_LOOP('',(#739,#740,#741,#742));
#129=EDGE_LOOP('',(#743,#744,#745,#746));
#130=EDGE_LOOP('',(#747,#748,#749,#750));
#131=EDGE_LOOP('',(#751,#752,#753,#754,#755,#756,#757,#758));
#132=EDGE_LOOP('',(#759,#760,#761,#762));
#133=EDGE_LOOP('',(#763,#764,#765,#766));
#134=EDGE_LOOP('',(#767,#768,#769,#770));
#135=EDGE_LOOP('',(#771,#772,#773,#774));
#136=EDGE_LOOP('',(#775,#776,#777,#778));
#137=EDGE_LOOP('',(#779,#780,#781,#782,#783,#784,#785,#786));
#138=EDGE_LOOP('',(#787,#788,#789,#790));
#139=EDGE_LOOP('',(#791,#792,#793,#794,#795,#796));
#140=EDGE_LOOP('',(#797,#798,#799,#800,#801,#802));
#141=EDGE_LOOP('',(#803,#804,#805,#806));
#142=EDGE_LOOP('',(#807,#808,#809,#810));
#143=EDGE_LOOP('',(#811,#812,#813,#814));
#144=EDGE_LOOP('',(#815,#816,#817,#818));
#145=EDGE_LOOP('',(#819,#820,#821,#822));
#146=EDGE_LOOP('',(#823,#824,#825,#826));
#147=EDGE_LOOP('',(#827,#828,#829,#830));
#148=EDGE_LOOP('',(#831,#832,#833,#834));
#149=EDGE_LOOP('',(#835,#836,#837,#838,#839,#840,#841,#842));
#150=EDGE_LOOP('',(#843,#844,#845,#846));
#151=EDGE_LOOP('',(#847,#848,#849,#850));
#152=EDGE_LOOP('',(#851));
#153=EDGE_LOOP('',(#852));
#154=EDGE_LOOP('',(#853,#854,#855,#856,#857,#858,#859,#860,#861,#862,#863,
#864,#865,#866,#867,#868));
#155=EDGE_LOOP('',(#869));
#156=EDGE_LOOP('',(#870));
#157=EDGE_LOOP('',(#871,#872,#873,#874,#875,#876,#877,#878,#879,#880,#881,
#882,#883,#884,#885,#886));
#158=EDGE_LOOP('',(#887,#888,#889,#890,#891,#892,#893,#894));
#159=EDGE_LOOP('',(#895,#896,#897,#898));
#160=EDGE_LOOP('',(#899,#900,#901,#902));
#161=EDGE_LOOP('',(#903,#904,#905,#906));
#162=EDGE_LOOP('',(#907,#908,#909,#910));
#163=EDGE_LOOP('',(#911,#912,#913,#914));
#164=EDGE_LOOP('',(#915,#916,#917,#918));
#165=EDGE_LOOP('',(#919,#920,#921,#922));
#166=EDGE_LOOP('',(#923,#924,#925,#926,#927,#928));
#167=EDGE_LOOP('',(#929));
#168=EDGE_LOOP('',(#930));
#169=LINE('',#1338,#287);
#170=LINE('',#1345,#288);
#171=LINE('',#1351,#289);
#172=LINE('',#1353,#290);
#173=LINE('',#1355,#291);
#174=LINE('',#1356,#292);
#175=LINE('',#1360,#293);
#176=LINE('',#1362,#294);
#177=LINE('',#1364,#295);
#178=LINE('',#1365,#296);
#179=LINE('',#1367,#297);
#180=LINE('',#1368,#298);
#181=LINE('',#1371,#299);
#182=LINE('',#1373,#300);
#183=LINE('',#1377,#301);
#184=LINE('',#1381,#302);
#185=LINE('',#1383,#303);
#186=LINE('',#1385,#304);
#187=LINE('',#1387,#305);
#188=LINE('',#1389,#306);
#189=LINE('',#1391,#307);
#190=LINE('',#1393,#308);
#191=LINE('',#1395,#309);
#192=LINE('',#1397,#310);
#193=LINE('',#1399,#311);
#194=LINE('',#1401,#312);
#195=LINE('',#1407,#313);
#196=LINE('',#1409,#314);
#197=LINE('',#1411,#315);
#198=LINE('',#1413,#316);
#199=LINE('',#1415,#317);
#200=LINE('',#1417,#318);
#201=LINE('',#1419,#319);
#202=LINE('',#1421,#320);
#203=LINE('',#1423,#321);
#204=LINE('',#1425,#322);
#205=LINE('',#1427,#323);
#206=LINE('',#1433,#324);
#207=LINE('',#1435,#325);
#208=LINE('',#1437,#326);
#209=LINE('',#1439,#327);
#210=LINE('',#1441,#328);
#211=LINE('',#1442,#329);
#212=LINE('',#1449,#330);
#213=LINE('',#1450,#331);
#214=LINE('',#1453,#332);
#215=LINE('',#1454,#333);
#216=LINE('',#1458,#334);
#217=LINE('',#1459,#335);
#218=LINE('',#1460,#336);
#219=LINE('',#1464,#337);
#220=LINE('',#1465,#338);
#221=LINE('',#1466,#339);
#222=LINE('',#1468,#340);
#223=LINE('',#1471,#341);
#224=LINE('',#1472,#342);
#225=LINE('',#1475,#343);
#226=LINE('',#1476,#344);
#227=LINE('',#1479,#345);
#228=LINE('',#1480,#346);
#229=LINE('',#1483,#347);
#230=LINE('',#1485,#348);
#231=LINE('',#1486,#349);
#232=LINE('',#1488,#350);
#233=LINE('',#1489,#351);
#234=LINE('',#1491,#352);
#235=LINE('',#1494,#353);
#236=LINE('',#1496,#354);
#237=LINE('',#1497,#355);
#238=LINE('',#1500,#356);
#239=LINE('',#1501,#357);
#240=LINE('',#1504,#358);
#241=LINE('',#1505,#359);
#242=LINE('',#1507,#360);
#243=LINE('',#1510,#361);
#244=LINE('',#1512,#362);
#245=LINE('',#1513,#363);
#246=LINE('',#1517,#364);
#247=LINE('',#1519,#365);
#248=LINE('',#1521,#366);
#249=LINE('',#1522,#367);
#250=LINE('',#1525,#368);
#251=LINE('',#1526,#369);
#252=LINE('',#1527,#370);
#253=LINE('',#1530,#371);
#254=LINE('',#1531,#372);
#255=LINE('',#1532,#373);
#256=LINE('',#1535,#374);
#257=LINE('',#1537,#375);
#258=LINE('',#1538,#376);
#259=LINE('',#1541,#377);
#260=LINE('',#1543,#378);
#261=LINE('',#1544,#379);
#262=LINE('',#1547,#380);
#263=LINE('',#1549,#381);
#264=LINE('',#1550,#382);
#265=LINE('',#1553,#383);
#266=LINE('',#1555,#384);
#267=LINE('',#1556,#385);
#268=LINE('',#1559,#386);
#269=LINE('',#1560,#387);
#270=LINE('',#1563,#388);
#271=LINE('',#1564,#389);
#272=LINE('',#1567,#390);
#273=LINE('',#1568,#391);
#274=LINE('',#1571,#392);
#275=LINE('',#1572,#393);
#276=LINE('',#1576,#394);
#277=LINE('',#1579,#395);
#278=LINE('',#1581,#396);
#279=LINE('',#1588,#397);
#280=LINE('',#1590,#398);
#281=LINE('',#1592,#399);
#282=LINE('',#1596,#400);
#283=LINE('',#1600,#401);
#284=LINE('',#1606,#402);
#285=LINE('',#1610,#403);
#286=LINE('',#1612,#404);
#287=VECTOR('',#1079,1.25);
#288=VECTOR('',#1088,1.25);
#289=VECTOR('',#1095,10.);
#290=VECTOR('',#1096,10.);
#291=VECTOR('',#1097,10.);
#292=VECTOR('',#1098,10.);
#293=VECTOR('',#1101,10.);
#294=VECTOR('',#1102,10.);
#295=VECTOR('',#1103,10.);
#296=VECTOR('',#1104,10.);
#297=VECTOR('',#1107,10.);
#298=VECTOR('',#1108,10.);
#299=VECTOR('',#1111,10.);
#300=VECTOR('',#1112,10.);
#301=VECTOR('',#1115,10.);
#302=VECTOR('',#1118,10.);
#303=VECTOR('',#1119,10.);
#304=VECTOR('',#1120,10.);
#305=VECTOR('',#1121,10.);
#306=VECTOR('',#1122,10.);
#307=VECTOR('',#1123,10.);
#308=VECTOR('',#1124,10.);
#309=VECTOR('',#1125,10.);
#310=VECTOR('',#1126,10.);
#311=VECTOR('',#1127,10.);
#312=VECTOR('',#1128,10.);
#313=VECTOR('',#1133,10.);
#314=VECTOR('',#1134,10.);
#315=VECTOR('',#1135,10.);
#316=VECTOR('',#1136,10.);
#317=VECTOR('',#1137,10.);
#318=VECTOR('',#1138,10.);
#319=VECTOR('',#1139,10.);
#320=VECTOR('',#1140,10.);
#321=VECTOR('',#1141,10.);
#322=VECTOR('',#1142,10.);
#323=VECTOR('',#1143,10.);
#324=VECTOR('',#1148,10.);
#325=VECTOR('',#1149,10.);
#326=VECTOR('',#1150,10.);
#327=VECTOR('',#1151,10.);
#328=VECTOR('',#1152,10.);
#329=VECTOR('',#1153,10.);
#330=VECTOR('',#1160,10.);
#331=VECTOR('',#1161,10.);
#332=VECTOR('',#1164,10.);
#333=VECTOR('',#1165,10.);
#334=VECTOR('',#1168,10.);
#335=VECTOR('',#1169,10.);
#336=VECTOR('',#1170,10.);
#337=VECTOR('',#1173,10.);
#338=VECTOR('',#1174,10.);
#339=VECTOR('',#1175,10.);
#340=VECTOR('',#1178,10.);
#341=VECTOR('',#1181,10.);
#342=VECTOR('',#1182,10.);
#343=VECTOR('',#1185,10.);
#344=VECTOR('',#1186,10.);
#345=VECTOR('',#1189,10.);
#346=VECTOR('',#1190,10.);
#347=VECTOR('',#1193,10.);
#348=VECTOR('',#1194,10.);
#349=VECTOR('',#1195,10.);
#350=VECTOR('',#1196,10.);
#351=VECTOR('',#1197,10.);
#352=VECTOR('',#1200,10.);
#353=VECTOR('',#1203,10.);
#354=VECTOR('',#1204,10.);
#355=VECTOR('',#1205,10.);
#356=VECTOR('',#1208,10.);
#357=VECTOR('',#1209,10.);
#358=VECTOR('',#1212,10.);
#359=VECTOR('',#1213,10.);
#360=VECTOR('',#1216,10.);
#361=VECTOR('',#1219,10.);
#362=VECTOR('',#1220,10.);
#363=VECTOR('',#1221,10.);
#364=VECTOR('',#1224,10.);
#365=VECTOR('',#1225,10.);
#366=VECTOR('',#1226,10.);
#367=VECTOR('',#1227,10.);
#368=VECTOR('',#1230,10.);
#369=VECTOR('',#1231,10.);
#370=VECTOR('',#1232,10.);
#371=VECTOR('',#1235,10.);
#372=VECTOR('',#1236,10.);
#373=VECTOR('',#1237,10.);
#374=VECTOR('',#1240,10.);
#375=VECTOR('',#1241,10.);
#376=VECTOR('',#1242,10.);
#377=VECTOR('',#1245,10.);
#378=VECTOR('',#1246,10.);
#379=VECTOR('',#1247,10.);
#380=VECTOR('',#1250,10.);
#381=VECTOR('',#1251,10.);
#382=VECTOR('',#1252,10.);
#383=VECTOR('',#1255,10.);
#384=VECTOR('',#1256,10.);
#385=VECTOR('',#1257,10.);
#386=VECTOR('',#1260,10.);
#387=VECTOR('',#1261,10.);
#388=VECTOR('',#1264,10.);
#389=VECTOR('',#1265,10.);
#390=VECTOR('',#1268,10.);
#391=VECTOR('',#1269,10.);
#392=VECTOR('',#1272,10.);
#393=VECTOR('',#1273,10.);
#394=VECTOR('',#1278,4.);
#395=VECTOR('',#1283,10.);
#396=VECTOR('',#1286,10.);
#397=VECTOR('',#1297,10.);
#398=VECTOR('',#1300,10.);
#399=VECTOR('',#1303,4.);
#400=VECTOR('',#1308,10.);
#401=VECTOR('',#1313,10.);
#402=VECTOR('',#1322,2.4);
#403=VECTOR('',#1327,2.4);
#404=VECTOR('',#1330,10.);
#405=CIRCLE('',#1004,1.25);
#406=CIRCLE('',#1005,1.25);
#407=CIRCLE('',#1008,1.25);
#408=CIRCLE('',#1009,1.25);
#409=CIRCLE('',#1015,5.);
#410=CIRCLE('',#1016,5.);
#411=CIRCLE('',#1017,4.);
#412=CIRCLE('',#1018,4.);
#413=CIRCLE('',#1019,4.);
#414=CIRCLE('',#1020,4.);
#415=CIRCLE('',#1021,2.4);
#416=CIRCLE('',#1022,2.4);
#417=CIRCLE('',#1050,4.);
#418=CIRCLE('',#1051,4.);
#419=CIRCLE('',#1055,4.);
#420=CIRCLE('',#1059,4.);
#421=CIRCLE('',#1062,5.);
#422=CIRCLE('',#1064,5.);
#423=CIRCLE('',#1068,2.4);
#424=CIRCLE('',#1070,2.4);
#425=VERTEX_POINT('',#1335);
#426=VERTEX_POINT('',#1337);
#427=VERTEX_POINT('',#1342);
#428=VERTEX_POINT('',#1344);
#429=VERTEX_POINT('',#1349);
#430=VERTEX_POINT('',#1350);
#431=VERTEX_POINT('',#1352);
#432=VERTEX_POINT('',#1354);
#433=VERTEX_POINT('',#1358);
#434=VERTEX_POINT('',#1359);
#435=VERTEX_POINT('',#1361);
#436=VERTEX_POINT('',#1363);
#437=VERTEX_POINT('',#1370);
#438=VERTEX_POINT('',#1372);
#439=VERTEX_POINT('',#1374);
#440=VERTEX_POINT('',#1376);
#441=VERTEX_POINT('',#1378);
#442=VERTEX_POINT('',#1380);
#443=VERTEX_POINT('',#1382);
#444=VERTEX_POINT('',#1384);
#445=VERTEX_POINT('',#1386);
#446=VERTEX_POINT('',#1388);
#447=VERTEX_POINT('',#1390);
#448=VERTEX_POINT('',#1392);
#449=VERTEX_POINT('',#1394);
#450=VERTEX_POINT('',#1396);
#451=VERTEX_POINT('',#1398);
#452=VERTEX_POINT('',#1400);
#453=VERTEX_POINT('',#1402);
#454=VERTEX_POINT('',#1404);
#455=VERTEX_POINT('',#1406);
#456=VERTEX_POINT('',#1408);
#457=VERTEX_POINT('',#1410);
#458=VERTEX_POINT('',#1412);
#459=VERTEX_POINT('',#1414);
#460=VERTEX_POINT('',#1416);
#461=VERTEX_POINT('',#1418);
#462=VERTEX_POINT('',#1420);
#463=VERTEX_POINT('',#1422);
#464=VERTEX_POINT('',#1424);
#465=VERTEX_POINT('',#1426);
#466=VERTEX_POINT('',#1428);
#467=VERTEX_POINT('',#1430);
#468=VERTEX_POINT('',#1432);
#469=VERTEX_POINT('',#1434);
#470=VERTEX_POINT('',#1436);
#471=VERTEX_POINT('',#1438);
#472=VERTEX_POINT('',#1440);
#473=VERTEX_POINT('',#1443);
#474=VERTEX_POINT('',#1445);
#475=VERTEX_POINT('',#1448);
#476=VERTEX_POINT('',#1452);
#477=VERTEX_POINT('',#1456);
#478=VERTEX_POINT('',#1457);
#479=VERTEX_POINT('',#1462);
#480=VERTEX_POINT('',#1463);
#481=VERTEX_POINT('',#1470);
#482=VERTEX_POINT('',#1474);
#483=VERTEX_POINT('',#1478);
#484=VERTEX_POINT('',#1482);
#485=VERTEX_POINT('',#1484);
#486=VERTEX_POINT('',#1487);
#487=VERTEX_POINT('',#1493);
#488=VERTEX_POINT('',#1495);
#489=VERTEX_POINT('',#1499);
#490=VERTEX_POINT('',#1503);
#491=VERTEX_POINT('',#1509);
#492=VERTEX_POINT('',#1511);
#493=VERTEX_POINT('',#1515);
#494=VERTEX_POINT('',#1516);
#495=VERTEX_POINT('',#1518);
#496=VERTEX_POINT('',#1520);
#497=VERTEX_POINT('',#1524);
#498=VERTEX_POINT('',#1529);
#499=VERTEX_POINT('',#1534);
#500=VERTEX_POINT('',#1536);
#501=VERTEX_POINT('',#1540);
#502=VERTEX_POINT('',#1542);
#503=VERTEX_POINT('',#1546);
#504=VERTEX_POINT('',#1548);
#505=VERTEX_POINT('',#1552);
#506=VERTEX_POINT('',#1554);
#507=VERTEX_POINT('',#1558);
#508=VERTEX_POINT('',#1562);
#509=VERTEX_POINT('',#1566);
#510=VERTEX_POINT('',#1570);
#511=VERTEX_POINT('',#1575);
#512=VERTEX_POINT('',#1583);
#513=VERTEX_POINT('',#1594);
#514=VERTEX_POINT('',#1598);
#515=VERTEX_POINT('',#1604);
#516=VERTEX_POINT('',#1608);
#517=EDGE_CURVE('',#425,#425,#405,.T.);
#518=EDGE_CURVE('',#425,#426,#169,.T.);
#519=EDGE_CURVE('',#426,#426,#406,.T.);
#520=EDGE_CURVE('',#427,#427,#407,.T.);
#521=EDGE_CURVE('',#427,#428,#170,.T.);
#522=EDGE_CURVE('',#428,#428,#408,.T.);
#523=EDGE_CURVE('',#429,#430,#171,.T.);
#524=EDGE_CURVE('',#429,#431,#172,.T.);
#525=EDGE_CURVE('',#432,#431,#173,.T.);
#526=EDGE_CURVE('',#430,#432,#174,.T.);
#527=EDGE_CURVE('',#433,#434,#175,.T.);
#528=EDGE_CURVE('',#435,#433,#176,.T.);
#529=EDGE_CURVE('',#436,#435,#177,.T.);
#530=EDGE_CURVE('',#434,#436,#178,.T.);
#531=EDGE_CURVE('',#434,#429,#179,.T.);
#532=EDGE_CURVE('',#431,#436,#180,.T.);
#533=EDGE_CURVE('',#435,#437,#181,.T.);
#534=EDGE_CURVE('',#438,#437,#182,.T.);
#535=EDGE_CURVE('',#439,#438,#409,.T.);
#536=EDGE_CURVE('',#440,#439,#183,.T.);
#537=EDGE_CURVE('',#441,#440,#410,.T.);
#538=EDGE_CURVE('',#441,#442,#184,.T.);
#539=EDGE_CURVE('',#442,#443,#185,.T.);
#540=EDGE_CURVE('',#443,#444,#186,.T.);
#541=EDGE_CURVE('',#444,#445,#187,.T.);
#542=EDGE_CURVE('',#445,#446,#188,.T.);
#543=EDGE_CURVE('',#446,#447,#189,.T.);
#544=EDGE_CURVE('',#447,#448,#190,.T.);
#545=EDGE_CURVE('',#449,#448,#191,.T.);
#546=EDGE_CURVE('',#450,#449,#192,.T.);
#547=EDGE_CURVE('',#450,#451,#193,.T.);
#548=EDGE_CURVE('',#451,#452,#194,.T.);
#549=EDGE_CURVE('',#452,#453,#411,.T.);
#550=EDGE_CURVE('',#453,#454,#412,.T.);
#551=EDGE_CURVE('',#454,#455,#195,.T.);
#552=EDGE_CURVE('',#455,#456,#196,.T.);
#553=EDGE_CURVE('',#457,#456,#197,.T.);
#554=EDGE_CURVE('',#457,#458,#198,.T.);
#555=EDGE_CURVE('',#458,#459,#199,.T.);
#556=EDGE_CURVE('',#459,#460,#200,.T.);
#557=EDGE_CURVE('',#460,#461,#201,.T.);
#558=EDGE_CURVE('',#461,#462,#202,.T.);
#559=EDGE_CURVE('',#462,#463,#203,.T.);
#560=EDGE_CURVE('',#463,#464,#204,.T.);
#561=EDGE_CURVE('',#464,#465,#205,.T.);
#562=EDGE_CURVE('',#465,#466,#413,.T.);
#563=EDGE_CURVE('',#466,#467,#414,.T.);
#564=EDGE_CURVE('',#467,#468,#206,.T.);
#565=EDGE_CURVE('',#468,#469,#207,.T.);
#566=EDGE_CURVE('',#469,#470,#208,.T.);
#567=EDGE_CURVE('',#471,#470,#209,.T.);
#568=EDGE_CURVE('',#471,#472,#210,.T.);
#569=EDGE_CURVE('',#472,#432,#211,.T.);
#570=EDGE_CURVE('',#473,#473,#415,.T.);
#571=EDGE_CURVE('',#474,#474,#416,.T.);
#572=EDGE_CURVE('',#475,#433,#212,.T.);
#573=EDGE_CURVE('',#475,#437,#213,.T.);
#574=EDGE_CURVE('',#476,#472,#214,.T.);
#575=EDGE_CURVE('',#430,#476,#215,.T.);
#576=EDGE_CURVE('',#477,#478,#216,.T.);
#577=EDGE_CURVE('',#477,#444,#217,.T.);
#578=EDGE_CURVE('',#478,#443,#218,.T.);
#579=EDGE_CURVE('',#479,#480,#219,.T.);
#580=EDGE_CURVE('',#446,#479,#220,.T.);
#581=EDGE_CURVE('',#480,#445,#221,.T.);
#582=EDGE_CURVE('',#480,#477,#222,.T.);
#583=EDGE_CURVE('',#481,#479,#223,.T.);
#584=EDGE_CURVE('',#481,#447,#224,.T.);
#585=EDGE_CURVE('',#482,#442,#225,.T.);
#586=EDGE_CURVE('',#478,#482,#226,.T.);
#587=EDGE_CURVE('',#483,#471,#227,.T.);
#588=EDGE_CURVE('',#476,#483,#228,.T.);
#589=EDGE_CURVE('',#470,#484,#229,.T.);
#590=EDGE_CURVE('',#485,#484,#230,.T.);
#591=EDGE_CURVE('',#485,#449,#231,.T.);
#592=EDGE_CURVE('',#448,#486,#232,.T.);
#593=EDGE_CURVE('',#483,#486,#233,.T.);
#594=EDGE_CURVE('',#486,#481,#234,.T.);
#595=EDGE_CURVE('',#487,#458,#235,.T.);
#596=EDGE_CURVE('',#487,#488,#236,.T.);
#597=EDGE_CURVE('',#488,#459,#237,.T.);
#598=EDGE_CURVE('',#488,#489,#238,.T.);
#599=EDGE_CURVE('',#489,#460,#239,.T.);
#600=EDGE_CURVE('',#489,#490,#240,.T.);
#601=EDGE_CURVE('',#490,#461,#241,.T.);
#602=EDGE_CURVE('',#490,#487,#242,.T.);
#603=EDGE_CURVE('',#491,#457,#243,.T.);
#604=EDGE_CURVE('',#492,#491,#244,.T.);
#605=EDGE_CURVE('',#462,#492,#245,.T.);
#606=EDGE_CURVE('',#493,#494,#246,.T.);
#607=EDGE_CURVE('',#495,#493,#247,.T.);
#608=EDGE_CURVE('',#496,#495,#248,.T.);
#609=EDGE_CURVE('',#496,#494,#249,.T.);
#610=EDGE_CURVE('',#497,#493,#250,.T.);
#611=EDGE_CURVE('',#438,#497,#251,.T.);
#612=EDGE_CURVE('',#495,#475,#252,.T.);
#613=EDGE_CURVE('',#498,#441,#253,.T.);
#614=EDGE_CURVE('',#494,#498,#254,.T.);
#615=EDGE_CURVE('',#482,#496,#255,.T.);
#616=EDGE_CURVE('',#499,#454,#256,.T.);
#617=EDGE_CURVE('',#499,#500,#257,.T.);
#618=EDGE_CURVE('',#500,#455,#258,.T.);
#619=EDGE_CURVE('',#501,#451,#259,.T.);
#620=EDGE_CURVE('',#501,#502,#260,.T.);
#621=EDGE_CURVE('',#452,#502,#261,.T.);
#622=EDGE_CURVE('',#503,#468,#262,.T.);
#623=EDGE_CURVE('',#503,#504,#263,.T.);
#624=EDGE_CURVE('',#469,#504,#264,.T.);
#625=EDGE_CURVE('',#505,#463,#265,.T.);
#626=EDGE_CURVE('',#505,#506,#266,.T.);
#627=EDGE_CURVE('',#506,#464,#267,.T.);
#628=EDGE_CURVE('',#500,#507,#268,.T.);
#629=EDGE_CURVE('',#456,#507,#269,.T.);
#630=EDGE_CURVE('',#506,#508,#270,.T.);
#631=EDGE_CURVE('',#465,#508,#271,.T.);
#632=EDGE_CURVE('',#509,#450,#272,.T.);
#633=EDGE_CURVE('',#509,#501,#273,.T.);
#634=EDGE_CURVE('',#510,#467,#274,.T.);
#635=EDGE_CURVE('',#510,#503,#275,.T.);
#636=EDGE_CURVE('',#502,#499,#417,.T.);
#637=EDGE_CURVE('',#453,#511,#276,.T.);
#638=EDGE_CURVE('',#511,#511,#418,.T.);
#639=EDGE_CURVE('',#504,#484,#277,.T.);
#640=EDGE_CURVE('',#491,#507,#278,.T.);
#641=EDGE_CURVE('',#512,#512,#419,.T.);
#642=EDGE_CURVE('',#509,#485,#279,.T.);
#643=EDGE_CURVE('',#508,#510,#420,.T.);
#644=EDGE_CURVE('',#492,#505,#280,.T.);
#645=EDGE_CURVE('',#466,#512,#281,.T.);
#646=EDGE_CURVE('',#497,#513,#421,.T.);
#647=EDGE_CURVE('',#513,#439,#282,.T.);
#648=EDGE_CURVE('',#514,#498,#422,.T.);
#649=EDGE_CURVE('',#440,#514,#283,.T.);
#650=EDGE_CURVE('',#515,#515,#423,.T.);
#651=EDGE_CURVE('',#515,#474,#284,.T.);
#652=EDGE_CURVE('',#516,#516,#424,.T.);
#653=EDGE_CURVE('',#516,#473,#285,.T.);
#654=EDGE_CURVE('',#514,#513,#286,.T.);
#655=ORIENTED_EDGE('',*,*,#517,.T.);
#656=ORIENTED_EDGE('',*,*,#518,.T.);
#657=ORIENTED_EDGE('',*,*,#519,.F.);
#658=ORIENTED_EDGE('',*,*,#518,.F.);
#659=ORIENTED_EDGE('',*,*,#517,.F.);
#660=ORIENTED_EDGE('',*,*,#520,.T.);
#661=ORIENTED_EDGE('',*,*,#521,.T.);
#662=ORIENTED_EDGE('',*,*,#522,.F.);
#663=ORIENTED_EDGE('',*,*,#521,.F.);
#664=ORIENTED_EDGE('',*,*,#520,.F.);
#665=ORIENTED_EDGE('',*,*,#523,.F.);
#666=ORIENTED_EDGE('',*,*,#524,.T.);
#667=ORIENTED_EDGE('',*,*,#525,.F.);
#668=ORIENTED_EDGE('',*,*,#526,.F.);
#669=ORIENTED_EDGE('',*,*,#527,.F.);
#670=ORIENTED_EDGE('',*,*,#528,.F.);
#671=ORIENTED_EDGE('',*,*,#529,.F.);
#672=ORIENTED_EDGE('',*,*,#530,.F.);
#673=ORIENTED_EDGE('',*,*,#531,.F.);
#674=ORIENTED_EDGE('',*,*,#530,.T.);
#675=ORIENTED_EDGE('',*,*,#532,.F.);
#676=ORIENTED_EDGE('',*,*,#524,.F.);
#677=ORIENTED_EDGE('',*,*,#525,.T.);
#678=ORIENTED_EDGE('',*,*,#532,.T.);
#679=ORIENTED_EDGE('',*,*,#529,.T.);
#680=ORIENTED_EDGE('',*,*,#533,.T.);
#681=ORIENTED_EDGE('',*,*,#534,.F.);
#682=ORIENTED_EDGE('',*,*,#535,.F.);
#683=ORIENTED_EDGE('',*,*,#536,.F.);
#684=ORIENTED_EDGE('',*,*,#537,.F.);
#685=ORIENTED_EDGE('',*,*,#538,.T.);
#686=ORIENTED_EDGE('',*,*,#539,.T.);
#687=ORIENTED_EDGE('',*,*,#540,.T.);
#688=ORIENTED_EDGE('',*,*,#541,.T.);
#689=ORIENTED_EDGE('',*,*,#542,.T.);
#690=ORIENTED_EDGE('',*,*,#543,.T.);
#691=ORIENTED_EDGE('',*,*,#544,.T.);
#692=ORIENTED_EDGE('',*,*,#545,.F.);
#693=ORIENTED_EDGE('',*,*,#546,.F.);
#694=ORIENTED_EDGE('',*,*,#547,.T.);
#695=ORIENTED_EDGE('',*,*,#548,.T.);
#696=ORIENTED_EDGE('',*,*,#549,.T.);
#697=ORIENTED_EDGE('',*,*,#550,.T.);
#698=ORIENTED_EDGE('',*,*,#551,.T.);
#699=ORIENTED_EDGE('',*,*,#552,.T.);
#700=ORIENTED_EDGE('',*,*,#553,.F.);
#701=ORIENTED_EDGE('',*,*,#554,.T.);
#702=ORIENTED_EDGE('',*,*,#555,.T.);
#703=ORIENTED_EDGE('',*,*,#556,.T.);
#704=ORIENTED_EDGE('',*,*,#557,.T.);
#705=ORIENTED_EDGE('',*,*,#558,.T.);
#706=ORIENTED_EDGE('',*,*,#559,.T.);
#707=ORIENTED_EDGE('',*,*,#560,.T.);
#708=ORIENTED_EDGE('',*,*,#561,.T.);
#709=ORIENTED_EDGE('',*,*,#562,.T.);
#710=ORIENTED_EDGE('',*,*,#563,.T.);
#711=ORIENTED_EDGE('',*,*,#564,.T.);
#712=ORIENTED_EDGE('',*,*,#565,.T.);
#713=ORIENTED_EDGE('',*,*,#566,.T.);
#714=ORIENTED_EDGE('',*,*,#567,.F.);
#715=ORIENTED_EDGE('',*,*,#568,.T.);
#716=ORIENTED_EDGE('',*,*,#569,.T.);
#717=ORIENTED_EDGE('',*,*,#570,.F.);
#718=ORIENTED_EDGE('',*,*,#571,.F.);
#719=ORIENTED_EDGE('',*,*,#528,.T.);
#720=ORIENTED_EDGE('',*,*,#572,.F.);
#721=ORIENTED_EDGE('',*,*,#573,.T.);
#722=ORIENTED_EDGE('',*,*,#533,.F.);
#723=ORIENTED_EDGE('',*,*,#526,.T.);
#724=ORIENTED_EDGE('',*,*,#569,.F.);
#725=ORIENTED_EDGE('',*,*,#574,.F.);
#726=ORIENTED_EDGE('',*,*,#575,.F.);
#727=ORIENTED_EDGE('',*,*,#576,.F.);
#728=ORIENTED_EDGE('',*,*,#577,.T.);
#729=ORIENTED_EDGE('',*,*,#540,.F.);
#730=ORIENTED_EDGE('',*,*,#578,.F.);
#731=ORIENTED_EDGE('',*,*,#579,.F.);
#732=ORIENTED_EDGE('',*,*,#580,.F.);
#733=ORIENTED_EDGE('',*,*,#542,.F.);
#734=ORIENTED_EDGE('',*,*,#581,.F.);
#735=ORIENTED_EDGE('',*,*,#582,.F.);
#736=ORIENTED_EDGE('',*,*,#581,.T.);
#737=ORIENTED_EDGE('',*,*,#541,.F.);
#738=ORIENTED_EDGE('',*,*,#577,.F.);
#739=ORIENTED_EDGE('',*,*,#580,.T.);
#740=ORIENTED_EDGE('',*,*,#583,.F.);
#741=ORIENTED_EDGE('',*,*,#584,.T.);
#742=ORIENTED_EDGE('',*,*,#543,.F.);
#743=ORIENTED_EDGE('',*,*,#578,.T.);
#744=ORIENTED_EDGE('',*,*,#539,.F.);
#745=ORIENTED_EDGE('',*,*,#585,.F.);
#746=ORIENTED_EDGE('',*,*,#586,.F.);
#747=ORIENTED_EDGE('',*,*,#574,.T.);
#748=ORIENTED_EDGE('',*,*,#568,.F.);
#749=ORIENTED_EDGE('',*,*,#587,.F.);
#750=ORIENTED_EDGE('',*,*,#588,.F.);
#751=ORIENTED_EDGE('',*,*,#587,.T.);
#752=ORIENTED_EDGE('',*,*,#567,.T.);
#753=ORIENTED_EDGE('',*,*,#589,.T.);
#754=ORIENTED_EDGE('',*,*,#590,.F.);
#755=ORIENTED_EDGE('',*,*,#591,.T.);
#756=ORIENTED_EDGE('',*,*,#545,.T.);
#757=ORIENTED_EDGE('',*,*,#592,.T.);
#758=ORIENTED_EDGE('',*,*,#593,.F.);
#759=ORIENTED_EDGE('',*,*,#592,.F.);
#760=ORIENTED_EDGE('',*,*,#544,.F.);
#761=ORIENTED_EDGE('',*,*,#584,.F.);
#762=ORIENTED_EDGE('',*,*,#594,.F.);
#763=ORIENTED_EDGE('',*,*,#555,.F.);
#764=ORIENTED_EDGE('',*,*,#595,.F.);
#765=ORIENTED_EDGE('',*,*,#596,.T.);
#766=ORIENTED_EDGE('',*,*,#597,.T.);
#767=ORIENTED_EDGE('',*,*,#556,.F.);
#768=ORIENTED_EDGE('',*,*,#597,.F.);
#769=ORIENTED_EDGE('',*,*,#598,.T.);
#770=ORIENTED_EDGE('',*,*,#599,.T.);
#771=ORIENTED_EDGE('',*,*,#557,.F.);
#772=ORIENTED_EDGE('',*,*,#599,.F.);
#773=ORIENTED_EDGE('',*,*,#600,.T.);
#774=ORIENTED_EDGE('',*,*,#601,.T.);
#775=ORIENTED_EDGE('',*,*,#598,.F.);
#776=ORIENTED_EDGE('',*,*,#596,.F.);
#777=ORIENTED_EDGE('',*,*,#602,.F.);
#778=ORIENTED_EDGE('',*,*,#600,.F.);
#779=ORIENTED_EDGE('',*,*,#554,.F.);
#780=ORIENTED_EDGE('',*,*,#603,.F.);
#781=ORIENTED_EDGE('',*,*,#604,.F.);
#782=ORIENTED_EDGE('',*,*,#605,.F.);
#783=ORIENTED_EDGE('',*,*,#558,.F.);
#784=ORIENTED_EDGE('',*,*,#601,.F.);
#785=ORIENTED_EDGE('',*,*,#602,.T.);
#786=ORIENTED_EDGE('',*,*,#595,.T.);
#787=ORIENTED_EDGE('',*,*,#606,.F.);
#788=ORIENTED_EDGE('',*,*,#607,.F.);
#789=ORIENTED_EDGE('',*,*,#608,.F.);
#790=ORIENTED_EDGE('',*,*,#609,.T.);
#791=ORIENTED_EDGE('',*,*,#610,.F.);
#792=ORIENTED_EDGE('',*,*,#611,.F.);
#793=ORIENTED_EDGE('',*,*,#534,.T.);
#794=ORIENTED_EDGE('',*,*,#573,.F.);
#795=ORIENTED_EDGE('',*,*,#612,.F.);
#796=ORIENTED_EDGE('',*,*,#607,.T.);
#797=ORIENTED_EDGE('',*,*,#538,.F.);
#798=ORIENTED_EDGE('',*,*,#613,.F.);
#799=ORIENTED_EDGE('',*,*,#614,.F.);
#800=ORIENTED_EDGE('',*,*,#609,.F.);
#801=ORIENTED_EDGE('',*,*,#615,.F.);
#802=ORIENTED_EDGE('',*,*,#585,.T.);
#803=ORIENTED_EDGE('',*,*,#616,.F.);
#804=ORIENTED_EDGE('',*,*,#617,.T.);
#805=ORIENTED_EDGE('',*,*,#618,.T.);
#806=ORIENTED_EDGE('',*,*,#551,.F.);
#807=ORIENTED_EDGE('',*,*,#548,.F.);
#808=ORIENTED_EDGE('',*,*,#619,.F.);
#809=ORIENTED_EDGE('',*,*,#620,.T.);
#810=ORIENTED_EDGE('',*,*,#621,.F.);
#811=ORIENTED_EDGE('',*,*,#565,.F.);
#812=ORIENTED_EDGE('',*,*,#622,.F.);
#813=ORIENTED_EDGE('',*,*,#623,.T.);
#814=ORIENTED_EDGE('',*,*,#624,.F.);
#815=ORIENTED_EDGE('',*,*,#560,.F.);
#816=ORIENTED_EDGE('',*,*,#625,.F.);
#817=ORIENTED_EDGE('',*,*,#626,.T.);
#818=ORIENTED_EDGE('',*,*,#627,.T.);
#819=ORIENTED_EDGE('',*,*,#552,.F.);
#820=ORIENTED_EDGE('',*,*,#618,.F.);
#821=ORIENTED_EDGE('',*,*,#628,.T.);
#822=ORIENTED_EDGE('',*,*,#629,.F.);
#823=ORIENTED_EDGE('',*,*,#561,.F.);
#824=ORIENTED_EDGE('',*,*,#627,.F.);
#825=ORIENTED_EDGE('',*,*,#630,.T.);
#826=ORIENTED_EDGE('',*,*,#631,.F.);
#827=ORIENTED_EDGE('',*,*,#547,.F.);
#828=ORIENTED_EDGE('',*,*,#632,.F.);
#829=ORIENTED_EDGE('',*,*,#633,.T.);
#830=ORIENTED_EDGE('',*,*,#619,.T.);
#831=ORIENTED_EDGE('',*,*,#564,.F.);
#832=ORIENTED_EDGE('',*,*,#634,.F.);
#833=ORIENTED_EDGE('',*,*,#635,.T.);
#834=ORIENTED_EDGE('',*,*,#622,.T.);
#835=ORIENTED_EDGE('',*,*,#621,.T.);
#836=ORIENTED_EDGE('',*,*,#636,.T.);
#837=ORIENTED_EDGE('',*,*,#616,.T.);
#838=ORIENTED_EDGE('',*,*,#550,.F.);
#839=ORIENTED_EDGE('',*,*,#637,.T.);
#840=ORIENTED_EDGE('',*,*,#638,.F.);
#841=ORIENTED_EDGE('',*,*,#637,.F.);
#842=ORIENTED_EDGE('',*,*,#549,.F.);
#843=ORIENTED_EDGE('',*,*,#624,.T.);
#844=ORIENTED_EDGE('',*,*,#639,.T.);
#845=ORIENTED_EDGE('',*,*,#589,.F.);
#846=ORIENTED_EDGE('',*,*,#566,.F.);
#847=ORIENTED_EDGE('',*,*,#603,.T.);
#848=ORIENTED_EDGE('',*,*,#553,.T.);
#849=ORIENTED_EDGE('',*,*,#629,.T.);
#850=ORIENTED_EDGE('',*,*,#640,.F.);
#851=ORIENTED_EDGE('',*,*,#641,.T.);
#852=ORIENTED_EDGE('',*,*,#638,.T.);
#853=ORIENTED_EDGE('',*,*,#523,.T.);
#854=ORIENTED_EDGE('',*,*,#575,.T.);
#855=ORIENTED_EDGE('',*,*,#588,.T.);
#856=ORIENTED_EDGE('',*,*,#593,.T.);
#857=ORIENTED_EDGE('',*,*,#594,.T.);
#858=ORIENTED_EDGE('',*,*,#583,.T.);
#859=ORIENTED_EDGE('',*,*,#579,.T.);
#860=ORIENTED_EDGE('',*,*,#582,.T.);
#861=ORIENTED_EDGE('',*,*,#576,.T.);
#862=ORIENTED_EDGE('',*,*,#586,.T.);
#863=ORIENTED_EDGE('',*,*,#615,.T.);
#864=ORIENTED_EDGE('',*,*,#608,.T.);
#865=ORIENTED_EDGE('',*,*,#612,.T.);
#866=ORIENTED_EDGE('',*,*,#572,.T.);
#867=ORIENTED_EDGE('',*,*,#527,.T.);
#868=ORIENTED_EDGE('',*,*,#531,.T.);
#869=ORIENTED_EDGE('',*,*,#519,.T.);
#870=ORIENTED_EDGE('',*,*,#522,.T.);
#871=ORIENTED_EDGE('',*,*,#604,.T.);
#872=ORIENTED_EDGE('',*,*,#640,.T.);
#873=ORIENTED_EDGE('',*,*,#628,.F.);
#874=ORIENTED_EDGE('',*,*,#617,.F.);
#875=ORIENTED_EDGE('',*,*,#636,.F.);
#876=ORIENTED_EDGE('',*,*,#620,.F.);
#877=ORIENTED_EDGE('',*,*,#633,.F.);
#878=ORIENTED_EDGE('',*,*,#642,.T.);
#879=ORIENTED_EDGE('',*,*,#590,.T.);
#880=ORIENTED_EDGE('',*,*,#639,.F.);
#881=ORIENTED_EDGE('',*,*,#623,.F.);
#882=ORIENTED_EDGE('',*,*,#635,.F.);
#883=ORIENTED_EDGE('',*,*,#643,.F.);
#884=ORIENTED_EDGE('',*,*,#630,.F.);
#885=ORIENTED_EDGE('',*,*,#626,.F.);
#886=ORIENTED_EDGE('',*,*,#644,.F.);
#887=ORIENTED_EDGE('',*,*,#634,.T.);
#888=ORIENTED_EDGE('',*,*,#563,.F.);
#889=ORIENTED_EDGE('',*,*,#645,.T.);
#890=ORIENTED_EDGE('',*,*,#641,.F.);
#891=ORIENTED_EDGE('',*,*,#645,.F.);
#892=ORIENTED_EDGE('',*,*,#562,.F.);
#893=ORIENTED_EDGE('',*,*,#631,.T.);
#894=ORIENTED_EDGE('',*,*,#643,.T.);
#895=ORIENTED_EDGE('',*,*,#646,.T.);
#896=ORIENTED_EDGE('',*,*,#647,.T.);
#897=ORIENTED_EDGE('',*,*,#535,.T.);
#898=ORIENTED_EDGE('',*,*,#611,.T.);
#899=ORIENTED_EDGE('',*,*,#648,.T.);
#900=ORIENTED_EDGE('',*,*,#613,.T.);
#901=ORIENTED_EDGE('',*,*,#537,.T.);
#902=ORIENTED_EDGE('',*,*,#649,.T.);
#903=ORIENTED_EDGE('',*,*,#632,.T.);
#904=ORIENTED_EDGE('',*,*,#546,.T.);
#905=ORIENTED_EDGE('',*,*,#591,.F.);
#906=ORIENTED_EDGE('',*,*,#642,.F.);
#907=ORIENTED_EDGE('',*,*,#605,.T.);
#908=ORIENTED_EDGE('',*,*,#644,.T.);
#909=ORIENTED_EDGE('',*,*,#625,.T.);
#910=ORIENTED_EDGE('',*,*,#559,.F.);
#911=ORIENTED_EDGE('',*,*,#650,.F.);
#912=ORIENTED_EDGE('',*,*,#651,.T.);
#913=ORIENTED_EDGE('',*,*,#571,.T.);
#914=ORIENTED_EDGE('',*,*,#651,.F.);
#915=ORIENTED_EDGE('',*,*,#652,.F.);
#916=ORIENTED_EDGE('',*,*,#653,.T.);
#917=ORIENTED_EDGE('',*,*,#570,.T.);
#918=ORIENTED_EDGE('',*,*,#653,.F.);
#919=ORIENTED_EDGE('',*,*,#647,.F.);
#920=ORIENTED_EDGE('',*,*,#654,.F.);
#921=ORIENTED_EDGE('',*,*,#649,.F.);
#922=ORIENTED_EDGE('',*,*,#536,.T.);
#923=ORIENTED_EDGE('',*,*,#606,.T.);
#924=ORIENTED_EDGE('',*,*,#614,.T.);
#925=ORIENTED_EDGE('',*,*,#648,.F.);
#926=ORIENTED_EDGE('',*,*,#654,.T.);
#927=ORIENTED_EDGE('',*,*,#646,.F.);
#928=ORIENTED_EDGE('',*,*,#610,.T.);
#929=ORIENTED_EDGE('',*,*,#652,.T.);
#930=ORIENTED_EDGE('',*,*,#650,.T.);
#931=CYLINDRICAL_SURFACE('',#1003,1.25);
#932=CYLINDRICAL_SURFACE('',#1007,1.25);
#933=CYLINDRICAL_SURFACE('',#1049,4.);
#934=CYLINDRICAL_SURFACE('',#1060,4.);
#935=CYLINDRICAL_SURFACE('',#1061,5.);
#936=CYLINDRICAL_SURFACE('',#1063,5.);
#937=CYLINDRICAL_SURFACE('',#1067,2.4);
#938=CYLINDRICAL_SURFACE('',#1069,2.4);
#939=ADVANCED_FACE('',(#63),#931,.F.);
#940=ADVANCED_FACE('',(#64),#21,.F.);
#941=ADVANCED_FACE('',(#65),#932,.F.);
#942=ADVANCED_FACE('',(#66),#22,.F.);
#943=ADVANCED_FACE('',(#67),#23,.T.);
#944=ADVANCED_FACE('',(#68),#24,.T.);
#945=ADVANCED_FACE('',(#69),#25,.T.);
#946=ADVANCED_FACE('',(#70,#15,#16),#26,.F.);
#947=ADVANCED_FACE('',(#71),#27,.F.);
#948=ADVANCED_FACE('',(#72),#28,.F.);
#949=ADVANCED_FACE('',(#73),#29,.T.);
#950=ADVANCED_FACE('',(#74),#30,.T.);
#951=ADVANCED_FACE('',(#75),#31,.T.);
#952=ADVANCED_FACE('',(#76),#32,.F.);
#953=ADVANCED_FACE('',(#77),#33,.F.);
#954=ADVANCED_FACE('',(#78),#34,.F.);
#955=ADVANCED_FACE('',(#79),#35,.T.);
#956=ADVANCED_FACE('',(#80),#36,.F.);
#957=ADVANCED_FACE('',(#81),#37,.T.);
#958=ADVANCED_FACE('',(#82),#38,.T.);
#959=ADVANCED_FACE('',(#83),#39,.T.);
#960=ADVANCED_FACE('',(#84),#40,.F.);
#961=ADVANCED_FACE('',(#85),#41,.T.);
#962=ADVANCED_FACE('',(#86),#42,.F.);
#963=ADVANCED_FACE('',(#87),#43,.T.);
#964=ADVANCED_FACE('',(#88),#44,.T.);
#965=ADVANCED_FACE('',(#89),#45,.T.);
#966=ADVANCED_FACE('',(#90),#46,.T.);
#967=ADVANCED_FACE('',(#91),#47,.T.);
#968=ADVANCED_FACE('',(#92),#48,.T.);
#969=ADVANCED_FACE('',(#93),#49,.T.);
#970=ADVANCED_FACE('',(#94),#50,.T.);
#971=ADVANCED_FACE('',(#95),#51,.T.);
#972=ADVANCED_FACE('',(#96),#52,.T.);
#973=ADVANCED_FACE('',(#97),#933,.F.);
#974=ADVANCED_FACE('',(#98),#53,.T.);
#975=ADVANCED_FACE('',(#99),#54,.T.);
#976=ADVANCED_FACE('',(#100),#55,.F.);
#977=ADVANCED_FACE('',(#101),#56,.F.);
#978=ADVANCED_FACE('',(#102,#17,#18),#57,.T.);
#979=ADVANCED_FACE('',(#103),#58,.F.);
#980=ADVANCED_FACE('',(#104),#934,.F.);
#981=ADVANCED_FACE('',(#105),#935,.T.);
#982=ADVANCED_FACE('',(#106),#936,.T.);
#983=ADVANCED_FACE('',(#107),#59,.T.);
#984=ADVANCED_FACE('',(#108),#60,.T.);
#985=ADVANCED_FACE('',(#109),#937,.F.);
#986=ADVANCED_FACE('',(#110),#938,.F.);
#987=ADVANCED_FACE('',(#111),#61,.T.);
#988=ADVANCED_FACE('',(#112,#19,#20),#62,.T.);
#989=CLOSED_SHELL('',(#939,#940,#941,#942,#943,#944,#945,#946,#947,#948,
#949,#950,#951,#952,#953,#954,#955,#956,#957,#958,#959,#960,#961,#962,#963,
#964,#965,#966,#967,#968,#969,#970,#971,#972,#973,#974,#975,#976,#977,#978,
#979,#980,#981,#982,#983,#984,#985,#986,#987,#988));
#990=DERIVED_UNIT_ELEMENT(#992,1.);
#991=DERIVED_UNIT_ELEMENT(#1619,-3.);
#992=(
MASS_UNIT()
NAMED_UNIT(*)
SI_UNIT(.KILO.,.GRAM.)
);
#993=DERIVED_UNIT((#990,#991));
#994=MEASURE_REPRESENTATION_ITEM('density measure',
POSITIVE_RATIO_MEASURE(7850.),#993);
#995=PROPERTY_DEFINITION_REPRESENTATION(#1000,#997);
#996=PROPERTY_DEFINITION_REPRESENTATION(#1001,#998);
#997=REPRESENTATION('material name',(#999),#1616);
#998=REPRESENTATION('density',(#994),#1616);
#999=DESCRIPTIVE_REPRESENTATION_ITEM('Steel','Steel');
#1000=PROPERTY_DEFINITION('material property','material name',#1626);
#1001=PROPERTY_DEFINITION('material property','density of part',#1626);
#1002=AXIS2_PLACEMENT_3D('',#1333,#1073,#1074);
#1003=AXIS2_PLACEMENT_3D('',#1334,#1075,#1076);
#1004=AXIS2_PLACEMENT_3D('',#1336,#1077,#1078);
#1005=AXIS2_PLACEMENT_3D('',#1339,#1080,#1081);
#1006=AXIS2_PLACEMENT_3D('',#1340,#1082,#1083);
#1007=AXIS2_PLACEMENT_3D('',#1341,#1084,#1085);
#1008=AXIS2_PLACEMENT_3D('',#1343,#1086,#1087);
#1009=AXIS2_PLACEMENT_3D('',#1346,#1089,#1090);
#1010=AXIS2_PLACEMENT_3D('',#1347,#1091,#1092);
#1011=AXIS2_PLACEMENT_3D('',#1348,#1093,#1094);
#1012=AXIS2_PLACEMENT_3D('',#1357,#1099,#1100);
#1013=AXIS2_PLACEMENT_3D('',#1366,#1105,#1106);
#1014=AXIS2_PLACEMENT_3D('',#1369,#1109,#1110);
#1015=AXIS2_PLACEMENT_3D('',#1375,#1113,#1114);
#1016=AXIS2_PLACEMENT_3D('',#1379,#1116,#1117);
#1017=AXIS2_PLACEMENT_3D('',#1403,#1129,#1130);
#1018=AXIS2_PLACEMENT_3D('',#1405,#1131,#1132);
#1019=AXIS2_PLACEMENT_3D('',#1429,#1144,#1145);
#1020=AXIS2_PLACEMENT_3D('',#1431,#1146,#1147);
#1021=AXIS2_PLACEMENT_3D('',#1444,#1154,#1155);
#1022=AXIS2_PLACEMENT_3D('',#1446,#1156,#1157);
#1023=AXIS2_PLACEMENT_3D('',#1447,#1158,#1159);
#1024=AXIS2_PLACEMENT_3D('',#1451,#1162,#1163);
#1025=AXIS2_PLACEMENT_3D('',#1455,#1166,#1167);
#1026=AXIS2_PLACEMENT_3D('',#1461,#1171,#1172);
#1027=AXIS2_PLACEMENT_3D('',#1467,#1176,#1177);
#1028=AXIS2_PLACEMENT_3D('',#1469,#1179,#1180);
#1029=AXIS2_PLACEMENT_3D('',#1473,#1183,#1184);
#1030=AXIS2_PLACEMENT_3D('',#1477,#1187,#1188);
#1031=AXIS2_PLACEMENT_3D('',#1481,#1191,#1192);
#1032=AXIS2_PLACEMENT_3D('',#1490,#1198,#1199);
#1033=AXIS2_PLACEMENT_3D('',#1492,#1201,#1202);
#1034=AXIS2_PLACEMENT_3D('',#1498,#1206,#1207);
#1035=AXIS2_PLACEMENT_3D('',#1502,#1210,#1211);
#1036=AXIS2_PLACEMENT_3D('',#1506,#1214,#1215);
#1037=AXIS2_PLACEMENT_3D('',#1508,#1217,#1218);
#1038=AXIS2_PLACEMENT_3D('',#1514,#1222,#1223);
#1039=AXIS2_PLACEMENT_3D('',#1523,#1228,#1229);
#1040=AXIS2_PLACEMENT_3D('',#1528,#1233,#1234);
#1041=AXIS2_PLACEMENT_3D('',#1533,#1238,#1239);
#1042=AXIS2_PLACEMENT_3D('',#1539,#1243,#1244);
#1043=AXIS2_PLACEMENT_3D('',#1545,#1248,#1249);
#1044=AXIS2_PLACEMENT_3D('',#1551,#1253,#1254);
#1045=AXIS2_PLACEMENT_3D('',#1557,#1258,#1259);
#1046=AXIS2_PLACEMENT_3D('',#1561,#1262,#1263);
#1047=AXIS2_PLACEMENT_3D('',#1565,#1266,#1267);
#1048=AXIS2_PLACEMENT_3D('',#1569,#1270,#1271);
#1049=AXIS2_PLACEMENT_3D('',#1573,#1274,#1275);
#1050=AXIS2_PLACEMENT_3D('',#1574,#1276,#1277);
#1051=AXIS2_PLACEMENT_3D('',#1577,#1279,#1280);
#1052=AXIS2_PLACEMENT_3D('',#1578,#1281,#1282);
#1053=AXIS2_PLACEMENT_3D('',#1580,#1284,#1285);
#1054=AXIS2_PLACEMENT_3D('',#1582,#1287,#1288);
#1055=AXIS2_PLACEMENT_3D('',#1584,#1289,#1290);
#1056=AXIS2_PLACEMENT_3D('',#1585,#1291,#1292);
#1057=AXIS2_PLACEMENT_3D('',#1586,#1293,#1294);
#1058=AXIS2_PLACEMENT_3D('',#1587,#1295,#1296);
#1059=AXIS2_PLACEMENT_3D('',#1589,#1298,#1299);
#1060=AXIS2_PLACEMENT_3D('',#1591,#1301,#1302);
#1061=AXIS2_PLACEMENT_3D('',#1593,#1304,#1305);
#1062=AXIS2_PLACEMENT_3D('',#1595,#1306,#1307);
#1063=AXIS2_PLACEMENT_3D('',#1597,#1309,#1310);
#1064=AXIS2_PLACEMENT_3D('',#1599,#1311,#1312);
#1065=AXIS2_PLACEMENT_3D('',#1601,#1314,#1315);
#1066=AXIS2_PLACEMENT_3D('',#1602,#1316,#1317);
#1067=AXIS2_PLACEMENT_3D('',#1603,#1318,#1319);
#1068=AXIS2_PLACEMENT_3D('',#1605,#1320,#1321);
#1069=AXIS2_PLACEMENT_3D('',#1607,#1323,#1324);
#1070=AXIS2_PLACEMENT_3D('',#1609,#1325,#1326);
#1071=AXIS2_PLACEMENT_3D('',#1611,#1328,#1329);
#1072=AXIS2_PLACEMENT_3D('',#1613,#1331,#1332);
#1073=DIRECTION('axis',(0.,0.,1.));
#1074=DIRECTION('refdir',(1.,0.,0.));
#1075=DIRECTION('center_axis',(0.,0.,1.));
#1076=DIRECTION('ref_axis',(1.,0.,0.));
#1077=DIRECTION('center_axis',(0.,0.,-1.));
#1078=DIRECTION('ref_axis',(1.,0.,0.));
#1079=DIRECTION('',(0.,0.,1.));
#1080=DIRECTION('center_axis',(0.,0.,-1.));
#1081=DIRECTION('ref_axis',(1.,0.,0.));
#1082=DIRECTION('center_axis',(0.,0.,-1.));
#1083=DIRECTION('ref_axis',(-1.,0.,0.));
#1084=DIRECTION('center_axis',(0.,0.,1.));
#1085=DIRECTION('ref_axis',(1.,0.,0.));
#1086=DIRECTION('center_axis',(0.,0.,-1.));
#1087=DIRECTION('ref_axis',(1.,0.,0.));
#1088=DIRECTION('',(0.,0.,1.));
#1089=DIRECTION('center_axis',(0.,0.,-1.));
#1090=DIRECTION('ref_axis',(1.,0.,0.));
#1091=DIRECTION('center_axis',(0.,0.,-1.));
#1092=DIRECTION('ref_axis',(-1.,0.,0.));
#1093=DIRECTION('center_axis',(0.,1.,0.));
#1094=DIRECTION('ref_axis',(0.,0.,1.));
#1095=DIRECTION('',(-1.,0.,0.));
#1096=DIRECTION('',(0.,0.,-1.));
#1097=DIRECTION('',(1.,0.,0.));
#1098=DIRECTION('',(0.,0.,-1.));
#1099=DIRECTION('center_axis',(0.,-1.,0.));
#1100=DIRECTION('ref_axis',(0.,0.,-1.));
#1101=DIRECTION('',(1.,0.,0.));
#1102=DIRECTION('',(0.,0.,1.));
#1103=DIRECTION('',(-1.,0.,0.));
#1104=DIRECTION('',(0.,0.,-1.));
#1105=DIRECTION('center_axis',(-1.,0.,0.));
#1106=DIRECTION('ref_axis',(0.,0.,1.));
#1107=DIRECTION('',(0.,-1.,0.));
#1108=DIRECTION('',(0.,1.,0.));
#1109=DIRECTION('center_axis',(0.,0.,1.));
#1110=DIRECTION('ref_axis',(1.,0.,0.));
#1111=DIRECTION('',(0.,1.,0.));
#1112=DIRECTION('',(-1.,0.,0.));
#1113=DIRECTION('center_axis',(0.,0.,1.));
#1114=DIRECTION('ref_axis',(0.707106781186547,0.707106781186547,0.));
#1115=DIRECTION('',(0.,1.,0.));
#1116=DIRECTION('center_axis',(0.,0.,1.));
#1117=DIRECTION('ref_axis',(0.707106781186547,-0.707106781186547,0.));
#1118=DIRECTION('',(-1.,0.,0.));
#1119=DIRECTION('',(0.,1.,0.));
#1120=DIRECTION('',(1.,0.,0.));
#1121=DIRECTION('',(0.,1.,0.));
#1122=DIRECTION('',(-1.,0.,0.));
#1123=DIRECTION('',(0.,1.,0.));
#1124=DIRECTION('',(1.,0.,0.));
#1125=DIRECTION('',(0.,-1.,0.));
#1126=DIRECTION('',(-1.,0.,0.));
#1127=DIRECTION('',(0.,-1.,0.));
#1128=DIRECTION('',(1.,0.,0.));
#1129=DIRECTION('center_axis',(0.,0.,1.));
#1130=DIRECTION('ref_axis',(-1.,0.,0.));
#1131=DIRECTION('center_axis',(0.,0.,1.));
#1132=DIRECTION('ref_axis',(-1.,0.,0.));
#1133=DIRECTION('',(1.,0.,0.));
#1134=DIRECTION('',(0.,1.,0.));
#1135=DIRECTION('',(-1.,0.,0.));
#1136=DIRECTION('',(0.,-1.,0.));
#1137=DIRECTION('',(1.,0.,0.));
#1138=DIRECTION('',(0.,1.,0.));
#1139=DIRECTION('',(-1.,0.,0.));
#1140=DIRECTION('',(0.,-1.,0.));
#1141=DIRECTION('',(-1.,0.,0.));
#1142=DIRECTION('',(0.,1.,0.));
#1143=DIRECTION('',(-1.,0.,0.));
#1144=DIRECTION('center_axis',(0.,0.,1.));
#1145=DIRECTION('ref_axis',(-1.,0.,0.));
#1146=DIRECTION('center_axis',(0.,0.,1.));
#1147=DIRECTION('ref_axis',(-1.,0.,0.));
#1148=DIRECTION('',(-1.,0.,0.));
#1149=DIRECTION('',(0.,-1.,0.));
#1150=DIRECTION('',(-1.,0.,0.));
#1151=DIRECTION('',(0.,-1.,0.));
#1152=DIRECTION('',(-1.,0.,0.));
#1153=DIRECTION('',(0.,1.,0.));
#1154=DIRECTION('center_axis',(0.,0.,-1.));
#1155=DIRECTION('ref_axis',(1.,0.,0.));
#1156=DIRECTION('center_axis',(0.,0.,-1.));
#1157=DIRECTION('ref_axis',(1.,0.,0.));
#1158=DIRECTION('center_axis',(1.,0.,0.));
#1159=DIRECTION('ref_axis',(0.,0.,-1.));
#1160=DIRECTION('',(0.,-1.,0.));
#1161=DIRECTION('',(0.,0.,-1.));
#1162=DIRECTION('center_axis',(1.,0.,0.));
#1163=DIRECTION('ref_axis',(0.,0.,-1.));
#1164=DIRECTION('',(0.,0.,-1.));
#1165=DIRECTION('',(0.,-1.,0.));
#1166=DIRECTION('center_axis',(0.,1.,0.));
#1167=DIRECTION('ref_axis',(0.,0.,1.));
#1168=DIRECTION('',(-1.,0.,0.));
#1169=DIRECTION('',(0.,0.,-1.));
#1170=DIRECTION('',(0.,0.,-1.));
#1171=DIRECTION('center_axis',(0.,-1.,0.));
#1172=DIRECTION('ref_axis',(0.,0.,-1.));
#1173=DIRECTION('',(1.,0.,0.));
#1174=DIRECTION('',(0.,0.,1.));
#1175=DIRECTION('',(0.,0.,-1.));
#1176=DIRECTION('center_axis',(-1.,0.,0.));
#1177=DIRECTION('ref_axis',(0.,0.,1.));
#1178=DIRECTION('',(0.,-1.,0.));
#1179=DIRECTION('center_axis',(1.,0.,0.));
#1180=DIRECTION('ref_axis',(0.,0.,-1.));
#1181=DIRECTION('',(0.,-1.,0.));
#1182=DIRECTION('',(0.,0.,-1.));
#1183=DIRECTION('center_axis',(1.,0.,0.));
#1184=DIRECTION('ref_axis',(0.,0.,-1.));
#1185=DIRECTION('',(0.,0.,-1.));
#1186=DIRECTION('',(0.,-1.,0.));
#1187=DIRECTION('center_axis',(0.,1.,0.));
#1188=DIRECTION('ref_axis',(0.,0.,1.));
#1189=DIRECTION('',(0.,0.,-1.));
#1190=DIRECTION('',(1.,0.,0.));
#1191=DIRECTION('center_axis',(-1.,0.,0.));
#1192=DIRECTION('ref_axis',(0.,0.,1.));
#1193=DIRECTION('',(0.,1.32563943238825E-16,1.));
#1194=DIRECTION('',(0.,1.,0.));
#1195=DIRECTION('',(0.,-9.94229574291185E-17,-1.));
#1196=DIRECTION('',(0.,0.,1.));
#1197=DIRECTION('',(0.,-1.,0.));
#1198=DIRECTION('center_axis',(0.,-1.,0.));
#1199=DIRECTION('ref_axis',(0.,0.,-1.));
#1200=DIRECTION('',(-1.,0.,0.));
#1201=DIRECTION('center_axis',(0.,1.,0.));
#1202=DIRECTION('ref_axis',(0.,0.,1.));
#1203=DIRECTION('',(0.,0.,-1.));
#1204=DIRECTION('',(1.,0.,0.));
#1205=DIRECTION('',(0.,0.,-1.));
#1206=DIRECTION('center_axis',(-1.,0.,0.));
#1207=DIRECTION('ref_axis',(0.,0.,1.));
#1208=DIRECTION('',(0.,1.,0.));
#1209=DIRECTION('',(0.,0.,-1.));
#1210=DIRECTION('center_axis',(0.,-1.,0.));
#1211=DIRECTION('ref_axis',(0.,0.,-1.));
#1212=DIRECTION('',(-1.,0.,0.));
#1213=DIRECTION('',(0.,0.,-1.));
#1214=DIRECTION('center_axis',(0.,0.,1.));
#1215=DIRECTION('ref_axis',(1.,0.,0.));
#1216=DIRECTION('',(0.,-1.,0.));
#1217=DIRECTION('center_axis',(1.,0.,0.));
#1218=DIRECTION('ref_axis',(0.,0.,-1.));
#1219=DIRECTION('',(0.,-9.94229574291185E-17,-1.));
#1220=DIRECTION('',(0.,-1.,0.));
#1221=DIRECTION('',(0.,1.32563943238825E-16,1.));
#1222=DIRECTION('center_axis',(-1.,0.,0.));
#1223=DIRECTION('ref_axis',(0.,0.,1.));
#1224=DIRECTION('',(0.,-1.,0.));
#1225=DIRECTION('',(0.,0.,-1.));
#1226=DIRECTION('',(0.,1.,0.));
#1227=DIRECTION('',(0.,0.,-1.));
#1228=DIRECTION('center_axis',(0.,1.,0.));
#1229=DIRECTION('ref_axis',(-1.,0.,0.));
#1230=DIRECTION('',(-1.,0.,0.));
#1231=DIRECTION('',(0.,0.,1.));
#1232=DIRECTION('',(-1.,0.,0.));
#1233=DIRECTION('center_axis',(-9.70547373549473E-34,-1.,0.));
#1234=DIRECTION('ref_axis',(1.,-9.70547373549473E-34,0.));
#1235=DIRECTION('',(0.,0.,-1.));
#1236=DIRECTION('',(1.,-9.70547373549473E-34,0.));
#1237=DIRECTION('',(1.,0.,0.));
#1238=DIRECTION('center_axis',(0.,1.,0.));
#1239=DIRECTION('ref_axis',(0.,0.,1.));
#1240=DIRECTION('',(0.,0.,-1.));
#1241=DIRECTION('',(1.,0.,0.));
#1242=DIRECTION('',(0.,0.,-1.));
#1243=DIRECTION('center_axis',(0.,1.,0.));
#1244=DIRECTION('ref_axis',(0.,0.,1.));
#1245=DIRECTION('',(0.,0.,-1.));
#1246=DIRECTION('',(1.,0.,0.));
#1247=DIRECTION('',(0.,0.,1.));
#1248=DIRECTION('center_axis',(1.,0.,0.));
#1249=DIRECTION('ref_axis',(0.,0.,-1.));
#1250=DIRECTION('',(0.,0.,-1.));
#1251=DIRECTION('',(0.,-1.,0.));
#1252=DIRECTION('',(0.,1.32563943238825E-16,1.));
#1253=DIRECTION('center_axis',(-1.,0.,0.));
#1254=DIRECTION('ref_axis',(0.,0.,1.));
#1255=DIRECTION('',(0.,-1.32563943238825E-16,-1.));
#1256=DIRECTION('',(0.,1.,0.));
#1257=DIRECTION('',(0.,0.,-1.));
#1258=DIRECTION('center_axis',(-1.,0.,0.));
#1259=DIRECTION('ref_axis',(0.,0.,1.));
#1260=DIRECTION('',(0.,1.,0.));
#1261=DIRECTION('',(0.,9.94229574291185E-17,1.));
#1262=DIRECTION('center_axis',(0.,-1.,0.));
#1263=DIRECTION('ref_axis',(0.,0.,-1.));
#1264=DIRECTION('',(-1.,0.,0.));
#1265=DIRECTION('',(0.,0.,1.));
#1266=DIRECTION('center_axis',(1.,0.,0.));
#1267=DIRECTION('ref_axis',(0.,0.,-1.));
#1268=DIRECTION('',(0.,-9.94229574291185E-17,-1.));
#1269=DIRECTION('',(0.,-1.,0.));
#1270=DIRECTION('center_axis',(0.,-1.,0.));
#1271=DIRECTION('ref_axis',(0.,0.,-1.));
#1272=DIRECTION('',(0.,0.,-1.));
#1273=DIRECTION('',(-1.,0.,0.));
#1274=DIRECTION('center_axis',(0.,0.,1.));
#1275=DIRECTION('ref_axis',(-1.,0.,0.));
#1276=DIRECTION('center_axis',(0.,0.,-1.));
#1277=DIRECTION('ref_axis',(-1.,0.,0.));
#1278=DIRECTION('',(0.,0.,1.));
#1279=DIRECTION('center_axis',(0.,0.,-1.));
#1280=DIRECTION('ref_axis',(-1.,0.,0.));
#1281=DIRECTION('center_axis',(0.,-1.,1.32563943238825E-16));
#1282=DIRECTION('ref_axis',(0.,1.32563943238825E-16,1.));
#1283=DIRECTION('',(-1.,0.,0.));
#1284=DIRECTION('center_axis',(0.,1.,-9.94229574291185E-17));
#1285=DIRECTION('ref_axis',(0.,-9.94229574291185E-17,-1.));
#1286=DIRECTION('',(-1.,0.,0.));
#1287=DIRECTION('center_axis',(0.,0.,1.));
#1288=DIRECTION('ref_axis',(1.,0.,0.));
#1289=DIRECTION('center_axis',(0.,0.,-1.));
#1290=DIRECTION('ref_axis',(-1.,0.,0.));
#1291=DIRECTION('center_axis',(0.,0.,1.));
#1292=DIRECTION('ref_axis',(1.,0.,0.));
#1293=DIRECTION('center_axis',(0.,0.,1.));
#1294=DIRECTION('ref_axis',(1.,0.,0.));
#1295=DIRECTION('center_axis',(0.,0.,1.));
#1296=DIRECTION('ref_axis',(-1.,0.,0.));
#1297=DIRECTION('',(-1.,0.,0.));
#1298=DIRECTION('center_axis',(0.,0.,-1.));
#1299=DIRECTION('ref_axis',(-1.,0.,0.));
#1300=DIRECTION('',(-1.,0.,0.));
#1301=DIRECTION('center_axis',(0.,0.,1.));
#1302=DIRECTION('ref_axis',(-1.,0.,0.));
#1303=DIRECTION('',(0.,0.,1.));
#1304=DIRECTION('center_axis',(0.,0.,1.));
#1305=DIRECTION('ref_axis',(0.707106781186547,0.707106781186547,0.));
#1306=DIRECTION('center_axis',(0.,0.,-1.));
#1307=DIRECTION('ref_axis',(0.707106781186547,0.707106781186547,0.));
#1308=DIRECTION('',(0.,0.,-1.));
#1309=DIRECTION('center_axis',(0.,0.,1.));
#1310=DIRECTION('ref_axis',(0.707106781186547,-0.707106781186547,0.));
#1311=DIRECTION('center_axis',(0.,0.,-1.));
#1312=DIRECTION('ref_axis',(0.707106781186547,-0.707106781186547,0.));
#1313=DIRECTION('',(0.,0.,1.));
#1314=DIRECTION('center_axis',(0.,1.,-9.94229574291185E-17));
#1315=DIRECTION('ref_axis',(0.,-9.94229574291185E-17,-1.));
#1316=DIRECTION('center_axis',(0.,-1.,1.32563943238825E-16));
#1317=DIRECTION('ref_axis',(0.,1.32563943238825E-16,1.));
#1318=DIRECTION('center_axis',(0.,0.,1.));
#1319=DIRECTION('ref_axis',(1.,0.,0.));
#1320=DIRECTION('center_axis',(0.,0.,-1.));
#1321=DIRECTION('ref_axis',(1.,0.,0.));
#1322=DIRECTION('',(0.,0.,-1.));
#1323=DIRECTION('center_axis',(0.,0.,1.));
#1324=DIRECTION('ref_axis',(1.,0.,0.));
#1325=DIRECTION('center_axis',(0.,0.,-1.));
#1326=DIRECTION('ref_axis',(1.,0.,0.));
#1327=DIRECTION('',(0.,0.,-1.));
#1328=DIRECTION('center_axis',(1.,0.,0.));
#1329=DIRECTION('ref_axis',(0.,1.,0.));
#1330=DIRECTION('',(0.,1.,0.));
#1331=DIRECTION('center_axis',(0.,0.,1.));
#1332=DIRECTION('ref_axis',(1.,0.,0.));
#1333=CARTESIAN_POINT('',(0.,0.,0.));
#1334=CARTESIAN_POINT('Origin',(-7.5,29.45,70.3));
#1335=CARTESIAN_POINT('',(-8.75,29.45,68.5));
#1336=CARTESIAN_POINT('Origin',(-7.5,29.45,68.5));
#1337=CARTESIAN_POINT('',(-8.75,29.45,72.));
#1338=CARTESIAN_POINT('',(-8.75,29.45,70.3));
#1339=CARTESIAN_POINT('Origin',(-7.5,29.45,72.));
#1340=CARTESIAN_POINT('Origin',(-7.5,29.45,68.5));
#1341=CARTESIAN_POINT('Origin',(-7.5,15.,70.3));
#1342=CARTESIAN_POINT('',(-8.75,15.,68.5));
#1343=CARTESIAN_POINT('Origin',(-7.5,15.,68.5));
#1344=CARTESIAN_POINT('',(-8.75,15.,72.));
#1345=CARTESIAN_POINT('',(-8.75,15.,70.3));
#1346=CARTESIAN_POINT('Origin',(-7.5,15.,72.));
#1347=CARTESIAN_POINT('Origin',(-7.5,15.,68.5));
#1348=CARTESIAN_POINT('Origin',(-19.05,40.05,36.));
#1349=CARTESIAN_POINT('',(-13.,40.05,72.));
#1350=CARTESIAN_POINT('',(-25.,40.05,72.));
#1351=CARTESIAN_POINT('',(-13.275,40.05,72.));
#1352=CARTESIAN_POINT('',(-13.,40.05,0.));
#1353=CARTESIAN_POINT('',(-13.,40.05,36.));
#1354=CARTESIAN_POINT('',(-25.,40.05,0.));
#1355=CARTESIAN_POINT('',(-5.55625,40.05,0.));
#1356=CARTESIAN_POINT('',(-25.,40.05,36.));
#1357=CARTESIAN_POINT('Origin',(-19.05,42.45,36.));
#1358=CARTESIAN_POINT('',(-25.,42.45,72.));
#1359=CARTESIAN_POINT('',(-13.,42.45,72.));
#1360=CARTESIAN_POINT('',(-13.275,42.45,72.));
#1361=CARTESIAN_POINT('',(-25.,42.45,0.));
#1362=CARTESIAN_POINT('',(-25.,42.45,36.));
#1363=CARTESIAN_POINT('',(-13.,42.45,0.));
#1364=CARTESIAN_POINT('',(-5.55625,42.45,0.));
#1365=CARTESIAN_POINT('',(-13.,42.45,36.));
#1366=CARTESIAN_POINT('Origin',(-13.,41.25,36.));
#1367=CARTESIAN_POINT('',(-13.,31.7375,72.));
#1368=CARTESIAN_POINT('',(-13.,31.7375,0.));
#1369=CARTESIAN_POINT('Origin',(7.9375,22.225,0.));
#1370=CARTESIAN_POINT('',(-25.,44.45,0.));
#1371=CARTESIAN_POINT('',(-25.,41.25,0.));
#1372=CARTESIAN_POINT('',(10.875,44.45,0.));
#1373=CARTESIAN_POINT('',(15.875,44.45,0.));
#1374=CARTESIAN_POINT('',(15.875,39.45,0.));
#1375=CARTESIAN_POINT('Origin',(10.875,39.45,0.));
#1376=CARTESIAN_POINT('',(15.875,5.,0.));
#1377=CARTESIAN_POINT('',(15.875,-1.54074395550979E-32,0.));
#1378=CARTESIAN_POINT('',(10.875,0.,0.));
#1379=CARTESIAN_POINT('Origin',(10.875,5.,0.));
#1380=CARTESIAN_POINT('',(-25.,0.,0.));
#1381=CARTESIAN_POINT('',(0.,0.,0.));
#1382=CARTESIAN_POINT('',(-25.,2.,0.));
#1383=CARTESIAN_POINT('',(-25.,3.2,0.));
#1384=CARTESIAN_POINT('',(-13.,2.,0.));
#1385=CARTESIAN_POINT('',(-5.55625,2.,0.));
#1386=CARTESIAN_POINT('',(-13.,4.4,0.));
#1387=CARTESIAN_POINT('',(-13.,12.7125,0.));
#1388=CARTESIAN_POINT('',(-25.,4.4,0.));
#1389=CARTESIAN_POINT('',(-5.55625,4.4,0.));
#1390=CARTESIAN_POINT('',(-25.,6.4,0.));
#1391=CARTESIAN_POINT('',(-25.,3.2,0.));
#1392=CARTESIAN_POINT('',(-15.,6.4,0.));
#1393=CARTESIAN_POINT('',(-20.,6.4,0.));
#1394=CARTESIAN_POINT('',(-15.,10.225,0.));
#1395=CARTESIAN_POINT('',(-15.,44.45,0.));
#1396=CARTESIAN_POINT('',(-12.5,10.225,0.));
#1397=CARTESIAN_POINT('',(0.,10.225,0.));
#1398=CARTESIAN_POINT('',(-12.5,10.1,0.));
#1399=CARTESIAN_POINT('',(-12.5,22.225,0.));
#1400=CARTESIAN_POINT('',(-8.49215674164922,10.1,0.));
#1401=CARTESIAN_POINT('',(0.21875,10.1,0.));
#1402=CARTESIAN_POINT('',(-3.5,6.225,-8.88178419700125E-15));
#1403=CARTESIAN_POINT('Origin',(-7.5,6.225,0.));
#1404=CARTESIAN_POINT('',(-6.50784325835078,10.1,0.));
#1405=CARTESIAN_POINT('Origin',(-7.5,6.225,0.));
#1406=CARTESIAN_POINT('',(-2.5,10.1,0.));
#1407=CARTESIAN_POINT('',(0.21875,10.1,0.));
#1408=CARTESIAN_POINT('',(-2.5,10.225,0.));
#1409=CARTESIAN_POINT('',(-2.5,22.225,0.));
#1410=CARTESIAN_POINT('',(-0.05,10.225,0.));
#1411=CARTESIAN_POINT('',(0.,10.225,0.));
#1412=CARTESIAN_POINT('',(-0.05,9.7,0.));
#1413=CARTESIAN_POINT('',(-0.05,22.2125,0.));
#1414=CARTESIAN_POINT('',(0.65,9.7,0.));
#1415=CARTESIAN_POINT('',(4.11875,9.7,0.));
#1416=CARTESIAN_POINT('',(0.65,34.7,0.));
#1417=CARTESIAN_POINT('',(0.650000000000001,22.2125,0.));
#1418=CARTESIAN_POINT('',(-0.05,34.7,0.));
#1419=CARTESIAN_POINT('',(4.11875,34.7,0.));
#1420=CARTESIAN_POINT('',(-0.05,34.225,0.));
#1421=CARTESIAN_POINT('',(-0.05,22.2125,0.));
#1422=CARTESIAN_POINT('',(-2.5,34.225,0.));
#1423=CARTESIAN_POINT('',(0.,34.225,0.));
#1424=CARTESIAN_POINT('',(-2.5,34.35,0.));
#1425=CARTESIAN_POINT('',(-2.5,22.225,0.));
#1426=CARTESIAN_POINT('',(-6.50784325835077,34.35,0.));
#1427=CARTESIAN_POINT('',(0.21875,34.35,0.));
#1428=CARTESIAN_POINT('',(-3.5,38.225,0.));
#1429=CARTESIAN_POINT('Origin',(-7.5,38.225,0.));
#1430=CARTESIAN_POINT('',(-8.49215674164923,34.35,0.));
#1431=CARTESIAN_POINT('Origin',(-7.5,38.225,0.));
#1432=CARTESIAN_POINT('',(-12.5,34.35,0.));
#1433=CARTESIAN_POINT('',(0.21875,34.35,0.));
#1434=CARTESIAN_POINT('',(-12.5,34.225,0.));
#1435=CARTESIAN_POINT('',(-12.5,22.225,0.));
#1436=CARTESIAN_POINT('',(-15.,34.225,0.));
#1437=CARTESIAN_POINT('',(0.,34.225,0.));
#1438=CARTESIAN_POINT('',(-15.,38.05,0.));
#1439=CARTESIAN_POINT('',(-15.,44.45,0.));
#1440=CARTESIAN_POINT('',(-25.,38.05,0.));
#1441=CARTESIAN_POINT('',(-20.,38.05,0.));
#1442=CARTESIAN_POINT('',(-25.,41.25,0.));
#1443=CARTESIAN_POINT('',(5.53749999999999,6.35,0.));
#1444=CARTESIAN_POINT('Origin',(7.93749999999999,6.35,0.));
#1445=CARTESIAN_POINT('',(5.5375,38.1,0.));
#1446=CARTESIAN_POINT('Origin',(7.9375,38.1,0.));
#1447=CARTESIAN_POINT('Origin',(-25.,41.25,36.));
#1448=CARTESIAN_POINT('',(-25.,44.45,72.));
#1449=CARTESIAN_POINT('',(-25.,41.25,72.));
#1450=CARTESIAN_POINT('',(-25.,44.45,36.));
#1451=CARTESIAN_POINT('Origin',(-25.,41.25,36.));
#1452=CARTESIAN_POINT('',(-25.,38.05,72.));
#1453=CARTESIAN_POINT('',(-25.,38.05,36.));
#1454=CARTESIAN_POINT('',(-25.,41.25,72.));
#1455=CARTESIAN_POINT('Origin',(-19.05,2.,36.));
#1456=CARTESIAN_POINT('',(-13.,2.,72.));
#1457=CARTESIAN_POINT('',(-25.,2.,72.));
#1458=CARTESIAN_POINT('',(-13.275,2.,72.));
#1459=CARTESIAN_POINT('',(-13.,2.,36.));
#1460=CARTESIAN_POINT('',(-25.,2.,36.));
#1461=CARTESIAN_POINT('Origin',(-19.05,4.4,36.));
#1462=CARTESIAN_POINT('',(-25.,4.4,72.));
#1463=CARTESIAN_POINT('',(-13.,4.4,72.));
#1464=CARTESIAN_POINT('',(-13.275,4.4,72.));
#1465=CARTESIAN_POINT('',(-25.,4.4,36.));
#1466=CARTESIAN_POINT('',(-13.,4.4,36.));
#1467=CARTESIAN_POINT('Origin',(-13.,3.2,36.));
#1468=CARTESIAN_POINT('',(-13.,12.7125,72.));
#1469=CARTESIAN_POINT('Origin',(-25.,3.2,36.));
#1470=CARTESIAN_POINT('',(-25.,6.4,72.));
#1471=CARTESIAN_POINT('',(-25.,3.2,72.));
#1472=CARTESIAN_POINT('',(-25.,6.4,36.));
#1473=CARTESIAN_POINT('Origin',(-25.,3.2,36.));
#1474=CARTESIAN_POINT('',(-25.,0.,72.));
#1475=CARTESIAN_POINT('',(-25.,0.,36.));
#1476=CARTESIAN_POINT('',(-25.,3.2,72.));
#1477=CARTESIAN_POINT('Origin',(-20.,38.05,36.));
#1478=CARTESIAN_POINT('',(-15.,38.05,72.));
#1479=CARTESIAN_POINT('',(-15.,38.05,34.75));
#1480=CARTESIAN_POINT('',(-20.,38.05,72.));
#1481=CARTESIAN_POINT('Origin',(-15.,5.1125,33.5));
#1482=CARTESIAN_POINT('',(-15.,34.225,67.));
#1483=CARTESIAN_POINT('',(-15.,34.225,67.));
#1484=CARTESIAN_POINT('',(-15.,10.225,67.));
#1485=CARTESIAN_POINT('',(-15.,0.,67.));
#1486=CARTESIAN_POINT('',(-15.,10.225,67.));
#1487=CARTESIAN_POINT('',(-15.,6.4,72.));
#1488=CARTESIAN_POINT('',(-15.,6.4,34.75));
#1489=CARTESIAN_POINT('',(-15.,22.225,72.));
#1490=CARTESIAN_POINT('Origin',(-20.,6.4,36.));
#1491=CARTESIAN_POINT('',(-20.,6.4,72.));
#1492=CARTESIAN_POINT('Origin',(0.3,9.7,33.5));
#1493=CARTESIAN_POINT('',(-0.05,9.7,67.1));
#1494=CARTESIAN_POINT('',(-0.05,9.7,33.5));
#1495=CARTESIAN_POINT('',(0.65,9.7,67.1));
#1496=CARTESIAN_POINT('',(0.3,9.7,67.1));
#1497=CARTESIAN_POINT('',(0.65,9.7,33.5));
#1498=CARTESIAN_POINT('Origin',(0.65,22.2,33.5));
#1499=CARTESIAN_POINT('',(0.65,34.7,67.1));
#1500=CARTESIAN_POINT('',(0.65,22.2,67.1));
#1501=CARTESIAN_POINT('',(0.65,34.7,33.5));
#1502=CARTESIAN_POINT('Origin',(0.3,34.7,33.5));
#1503=CARTESIAN_POINT('',(-0.05,34.7,67.1));
#1504=CARTESIAN_POINT('',(0.3,34.7,67.1));
#1505=CARTESIAN_POINT('',(-0.05,34.7,33.5));
#1506=CARTESIAN_POINT('Origin',(0.3,22.2,67.1));
#1507=CARTESIAN_POINT('',(-0.05,22.2,67.1));
#1508=CARTESIAN_POINT('Origin',(-0.05,22.2,33.5));
#1509=CARTESIAN_POINT('',(-0.05,10.225,67.));
#1510=CARTESIAN_POINT('',(-0.05,10.225,50.25));
#1511=CARTESIAN_POINT('',(-0.05,34.225,67.));
#1512=CARTESIAN_POINT('',(-0.05,22.2125,67.));
#1513=CARTESIAN_POINT('',(-0.05,34.225,16.75));
#1514=CARTESIAN_POINT('Origin',(2.,22.225,36.));
#1515=CARTESIAN_POINT('',(2.,44.45,2.));
#1516=CARTESIAN_POINT('',(2.,0.,2.));
#1517=CARTESIAN_POINT('',(2.,22.225,2.));
#1518=CARTESIAN_POINT('',(2.,44.45,72.));
#1519=CARTESIAN_POINT('',(2.,44.45,36.));
#1520=CARTESIAN_POINT('',(2.,0.,72.));
#1521=CARTESIAN_POINT('',(2.,22.225,72.));
#1522=CARTESIAN_POINT('',(2.,0.,36.));
#1523=CARTESIAN_POINT('Origin',(15.875,44.45,0.));
#1524=CARTESIAN_POINT('',(10.875,44.45,2.));
#1525=CARTESIAN_POINT('',(15.875,44.45,2.));
#1526=CARTESIAN_POINT('',(10.875,44.45,0.));
#1527=CARTESIAN_POINT('',(-7.5,44.45,72.));
#1528=CARTESIAN_POINT('Origin',(0.,0.,0.));
#1529=CARTESIAN_POINT('',(10.875,-1.05547026873505E-32,2.));
#1530=CARTESIAN_POINT('',(10.875,0.,0.));
#1531=CARTESIAN_POINT('',(0.,0.,2.));
#1532=CARTESIAN_POINT('',(1.,0.,72.));
#1533=CARTESIAN_POINT('Origin',(-7.5,10.1,33.));
#1534=CARTESIAN_POINT('',(-6.50784325835078,10.1,67.));
#1535=CARTESIAN_POINT('',(-6.50784325835078,10.1,67.));
#1536=CARTESIAN_POINT('',(-2.5,10.1,67.));
#1537=CARTESIAN_POINT('',(-7.5,10.1,67.));
#1538=CARTESIAN_POINT('',(-2.5,10.1,33.));
#1539=CARTESIAN_POINT('Origin',(-7.5,10.1,33.));
#1540=CARTESIAN_POINT('',(-12.5,10.1,67.));
#1541=CARTESIAN_POINT('',(-12.5,10.1,33.));
#1542=CARTESIAN_POINT('',(-8.49215674164922,10.1,67.));
#1543=CARTESIAN_POINT('',(-7.5,10.1,67.));
#1544=CARTESIAN_POINT('',(-8.49215674164922,10.1,67.));
#1545=CARTESIAN_POINT('Origin',(-12.5,22.225,33.));
#1546=CARTESIAN_POINT('',(-12.5,34.35,67.));
#1547=CARTESIAN_POINT('',(-12.5,34.35,33.));
#1548=CARTESIAN_POINT('',(-12.5,34.225,67.));
#1549=CARTESIAN_POINT('',(-12.5,22.225,67.));
#1550=CARTESIAN_POINT('',(-12.5,34.225,16.5));
#1551=CARTESIAN_POINT('Origin',(-2.5,22.225,33.));
#1552=CARTESIAN_POINT('',(-2.5,34.225,67.));
#1553=CARTESIAN_POINT('',(-2.5,34.225,16.5));
#1554=CARTESIAN_POINT('',(-2.5,34.35,67.));
#1555=CARTESIAN_POINT('',(-2.5,22.225,67.));
#1556=CARTESIAN_POINT('',(-2.5,34.35,33.));
#1557=CARTESIAN_POINT('Origin',(-2.5,22.225,33.));
#1558=CARTESIAN_POINT('',(-2.5,10.225,67.));
#1559=CARTESIAN_POINT('',(-2.5,22.225,67.));
#1560=CARTESIAN_POINT('',(-2.5,10.225,50.));
#1561=CARTESIAN_POINT('Origin',(-7.5,34.35,33.));
#1562=CARTESIAN_POINT('',(-6.50784325835077,34.35,67.));
#1563=CARTESIAN_POINT('',(-7.5,34.35,67.));
#1564=CARTESIAN_POINT('',(-6.50784325835077,34.35,67.));
#1565=CARTESIAN_POINT('Origin',(-12.5,22.225,33.));
#1566=CARTESIAN_POINT('',(-12.5,10.225,67.));
#1567=CARTESIAN_POINT('',(-12.5,10.225,50.));
#1568=CARTESIAN_POINT('',(-12.5,22.225,67.));
#1569=CARTESIAN_POINT('Origin',(-7.5,34.35,33.));
#1570=CARTESIAN_POINT('',(-8.49215674164923,34.35,67.));
#1571=CARTESIAN_POINT('',(-8.49215674164923,34.35,67.));
#1572=CARTESIAN_POINT('',(-7.5,34.35,67.));
#1573=CARTESIAN_POINT('Origin',(-7.5,6.225,67.));
#1574=CARTESIAN_POINT('Origin',(-7.5,6.225,67.));
#1575=CARTESIAN_POINT('',(-3.5,6.225,69.));
#1576=CARTESIAN_POINT('',(-3.5,6.225,67.));
#1577=CARTESIAN_POINT('Origin',(-7.5,6.225,69.));
#1578=CARTESIAN_POINT('Origin',(0.,34.225,0.));
#1579=CARTESIAN_POINT('',(0.,34.225,67.));
#1580=CARTESIAN_POINT('Origin',(0.,10.225,67.));
#1581=CARTESIAN_POINT('',(0.,10.225,67.));
#1582=CARTESIAN_POINT('Origin',(-7.5,22.225,69.));
#1583=CARTESIAN_POINT('',(-3.5,38.225,69.));
#1584=CARTESIAN_POINT('Origin',(-7.5,38.225,69.));
#1585=CARTESIAN_POINT('Origin',(-7.5,22.225,69.));
#1586=CARTESIAN_POINT('Origin',(-7.5,22.225,72.));
#1587=CARTESIAN_POINT('Origin',(-7.5,22.225,67.));
#1588=CARTESIAN_POINT('',(0.,10.225,67.));
#1589=CARTESIAN_POINT('Origin',(-7.5,38.225,67.));
#1590=CARTESIAN_POINT('',(0.,34.225,67.));
#1591=CARTESIAN_POINT('Origin',(-7.5,38.225,67.));
#1592=CARTESIAN_POINT('',(-3.5,38.225,67.));
#1593=CARTESIAN_POINT('Origin',(10.875,39.45,0.));
#1594=CARTESIAN_POINT('',(15.875,39.45,2.));
#1595=CARTESIAN_POINT('Origin',(10.875,39.45,2.));
#1596=CARTESIAN_POINT('',(15.875,39.45,0.));
#1597=CARTESIAN_POINT('Origin',(10.875,5.,0.));
#1598=CARTESIAN_POINT('',(15.875,5.,2.));
#1599=CARTESIAN_POINT('Origin',(10.875,5.,2.));
#1600=CARTESIAN_POINT('',(15.875,5.,0.));
#1601=CARTESIAN_POINT('Origin',(0.,10.225,67.));
#1602=CARTESIAN_POINT('Origin',(0.,34.225,0.));
#1603=CARTESIAN_POINT('Origin',(7.9375,38.1,0.));
#1604=CARTESIAN_POINT('',(5.5375,38.1,2.));
#1605=CARTESIAN_POINT('Origin',(7.9375,38.1,2.));
#1606=CARTESIAN_POINT('',(5.5375,38.1,0.));
#1607=CARTESIAN_POINT('Origin',(7.93749999999999,6.35,0.));
#1608=CARTESIAN_POINT('',(5.53749999999999,6.35,2.));
#1609=CARTESIAN_POINT('Origin',(7.93749999999999,6.35,2.));
#1610=CARTESIAN_POINT('',(5.53749999999999,6.35,0.));
#1611=CARTESIAN_POINT('Origin',(15.875,-1.54074395550979E-32,0.));
#1612=CARTESIAN_POINT('',(15.875,-1.54074395550979E-32,2.));
#1613=CARTESIAN_POINT('Origin',(7.9375,22.225,2.));
#1614=UNCERTAINTY_MEASURE_WITH_UNIT(LENGTH_MEASURE(0.01),#1618,
'DISTANCE_ACCURACY_VALUE',
'Maximum model space distance between geometric entities at asserted c
onnectivities');
#1615=UNCERTAINTY_MEASURE_WITH_UNIT(LENGTH_MEASURE(0.01),#1618,
'DISTANCE_ACCURACY_VALUE',
'Maximum model space distance between geometric entities at asserted c
onnectivities');
#1616=(
GEOMETRIC_REPRESENTATION_CONTEXT(3)
GLOBAL_UNCERTAINTY_ASSIGNED_CONTEXT((#1614))
GLOBAL_UNIT_ASSIGNED_CONTEXT((#1618,#1620,#1621))
REPRESENTATION_CONTEXT('','3D')
);
#1617=(
GEOMETRIC_REPRESENTATION_CONTEXT(3)
GLOBAL_UNCERTAINTY_ASSIGNED_CONTEXT((#1615))
GLOBAL_UNIT_ASSIGNED_CONTEXT((#1618,#1620,#1621))
REPRESENTATION_CONTEXT('','3D')
);
#1618=(
LENGTH_UNIT()
NAMED_UNIT(*)
SI_UNIT(.MILLI.,.METRE.)
);
#1619=(
LENGTH_UNIT()
NAMED_UNIT(*)
SI_UNIT($,.METRE.)
);
#1620=(
NAMED_UNIT(*)
PLANE_ANGLE_UNIT()
SI_UNIT($,.RADIAN.)
);
#1621=(
NAMED_UNIT(*)
SI_UNIT($,.STERADIAN.)
SOLID_ANGLE_UNIT()
);
#1622=SHAPE_DEFINITION_REPRESENTATION(#1623,#1624);
#1623=PRODUCT_DEFINITION_SHAPE('',$,#1626);
#1624=SHAPE_REPRESENTATION('',(#1002),#1616);
#1625=PRODUCT_DEFINITION_CONTEXT('part definition',#1630,'design');
#1626=PRODUCT_DEFINITION('2026-08-26-07-13-43-882','(Unsaved)',#1627,#1625);
#1627=PRODUCT_DEFINITION_FORMATION('',$,#1632);
#1628=PRODUCT_RELATED_PRODUCT_CATEGORY('(Unsaved)','(Unsaved)',(#1632));
#1629=APPLICATION_PROTOCOL_DEFINITION('international standard',
'automotive_design',2009,#1630);
#1630=APPLICATION_CONTEXT(
'Core Data for Automotive Mechanical Design Process');
#1631=PRODUCT_CONTEXT('part definition',#1630,'mechanical');
#1632=PRODUCT('2026-08-26-07-13-43-882','(Unsaved)',$,(#1631));
#1633=PRESENTATION_STYLE_ASSIGNMENT((#1634));
#1634=SURFACE_STYLE_USAGE(.BOTH.,#1635);
#1635=SURFACE_SIDE_STYLE('',(#1636));
#1636=SURFACE_STYLE_FILL_AREA(#1637);
#1637=FILL_AREA_STYLE('Steel - Satin',(#1638));
#1638=FILL_AREA_STYLE_COLOUR('Steel - Satin',#1639);
#1639=COLOUR_RGB('Steel - Satin',0.627450980392157,0.627450980392157,0.627450980392157);
ENDSEC;
END-ISO-10303-21;
