ISO-10303-21;
HEADER;
/* Generated by software containing ST-Developer
 * from STEP Tools, Inc. (www.steptools.com) 
 */

FILE_DESCRIPTION(
/* description */ (''),
/* implementation_level */ '2;1');

FILE_NAME(
/* name */ 'shared_fan_plate.step',
/* time_stamp */ '2026-08-27T12:22:50-05:00',
/* author */ (''),
/* organization */ (''),
/* preprocessor_version */ 'ST-DEVELOPER v20.1',
/* originating_system */ 'Autodesk Translation Framework v15.8.0.0',
/* authorisation */ '');

FILE_SCHEMA (('AUTOMOTIVE_DESIGN { 1 0 10303 214 3 1 1 }'));
ENDSEC;

DATA;
#10=MECHANICAL_DESIGN_GEOMETRIC_PRESENTATION_REPRESENTATION('',(#13),#2239);
#11=SHAPE_REPRESENTATION_RELATIONSHIP('SRR','None',#2246,#12);
#12=ADVANCED_BREP_SHAPE_REPRESENTATION('',(#14),#2238);
#13=STYLED_ITEM('',(#2255),#14);
#14=MANIFOLD_SOLID_BREP('Shared Duct Fan Plate',#1344);
#15=FACE_BOUND('',#221,.T.);
#16=FACE_BOUND('',#222,.T.);
#17=FACE_BOUND('',#223,.T.);
#18=FACE_BOUND('',#224,.T.);
#19=FACE_BOUND('',#225,.T.);
#20=FACE_BOUND('',#226,.T.);
#21=FACE_BOUND('',#227,.T.);
#22=FACE_BOUND('',#228,.T.);
#23=FACE_BOUND('',#229,.T.);
#24=FACE_BOUND('',#230,.T.);
#25=FACE_BOUND('',#231,.T.);
#26=FACE_BOUND('',#232,.T.);
#27=FACE_BOUND('',#233,.T.);
#28=FACE_BOUND('',#234,.T.);
#29=FACE_BOUND('',#235,.T.);
#30=FACE_BOUND('',#236,.T.);
#31=FACE_BOUND('',#237,.T.);
#32=FACE_BOUND('',#238,.T.);
#33=FACE_BOUND('',#239,.T.);
#34=FACE_BOUND('',#240,.T.);
#35=FACE_BOUND('',#241,.T.);
#36=FACE_BOUND('',#242,.T.);
#37=FACE_BOUND('',#243,.T.);
#38=FACE_BOUND('',#246,.T.);
#39=FACE_BOUND('',#249,.T.);
#40=FACE_BOUND('',#252,.T.);
#41=FACE_BOUND('',#255,.T.);
#42=FACE_BOUND('',#258,.T.);
#43=FACE_BOUND('',#261,.T.);
#44=FACE_BOUND('',#264,.T.);
#45=FACE_BOUND('',#267,.T.);
#46=FACE_BOUND('',#270,.T.);
#47=FACE_BOUND('',#273,.T.);
#48=FACE_BOUND('',#276,.T.);
#49=FACE_BOUND('',#279,.T.);
#50=FACE_BOUND('',#327,.T.);
#51=FACE_BOUND('',#328,.T.);
#52=FACE_BOUND('',#329,.T.);
#53=FACE_BOUND('',#330,.T.);
#54=FACE_BOUND('',#331,.T.);
#55=FACE_BOUND('',#332,.T.);
#56=FACE_BOUND('',#333,.T.);
#57=FACE_BOUND('',#334,.T.);
#58=FACE_BOUND('',#335,.T.);
#59=FACE_BOUND('',#336,.T.);
#60=FACE_BOUND('',#337,.T.);
#61=FACE_BOUND('',#338,.T.);
#62=FACE_BOUND('',#339,.T.);
#63=FACE_BOUND('',#340,.T.);
#64=FACE_BOUND('',#341,.T.);
#65=FACE_BOUND('',#342,.T.);
#66=FACE_BOUND('',#343,.T.);
#67=FACE_BOUND('',#344,.T.);
#68=FACE_BOUND('',#345,.T.);
#69=FACE_BOUND('',#346,.T.);
#70=FACE_BOUND('',#347,.T.);
#71=PLANE('',#1363);
#72=PLANE('',#1383);
#73=PLANE('',#1388);
#74=PLANE('',#1393);
#75=PLANE('',#1398);
#76=PLANE('',#1403);
#77=PLANE('',#1408);
#78=PLANE('',#1413);
#79=PLANE('',#1418);
#80=PLANE('',#1423);
#81=PLANE('',#1428);
#82=PLANE('',#1433);
#83=PLANE('',#1438);
#84=PLANE('',#1440);
#85=PLANE('',#1441);
#86=PLANE('',#1442);
#87=PLANE('',#1443);
#88=PLANE('',#1444);
#89=PLANE('',#1445);
#90=PLANE('',#1446);
#91=PLANE('',#1447);
#92=PLANE('',#1448);
#93=PLANE('',#1449);
#94=PLANE('',#1450);
#95=PLANE('',#1451);
#96=PLANE('',#1452);
#97=PLANE('',#1453);
#98=PLANE('',#1454);
#99=PLANE('',#1455);
#100=PLANE('',#1476);
#101=PLANE('',#1477);
#102=PLANE('',#1478);
#103=PLANE('',#1479);
#104=PLANE('',#1480);
#105=PLANE('',#1481);
#106=PLANE('',#1482);
#107=PLANE('',#1483);
#108=PLANE('',#1484);
#109=PLANE('',#1485);
#110=PLANE('',#1486);
#111=PLANE('',#1487);
#112=PLANE('',#1488);
#113=PLANE('',#1489);
#114=PLANE('',#1490);
#115=CYLINDRICAL_SURFACE('',#1361,57.);
#116=CYLINDRICAL_SURFACE('',#1380,3.24999999999999);
#117=CYLINDRICAL_SURFACE('',#1385,3.24999999999999);
#118=CYLINDRICAL_SURFACE('',#1390,3.24999999999999);
#119=CYLINDRICAL_SURFACE('',#1395,3.24999999999999);
#120=CYLINDRICAL_SURFACE('',#1400,3.24999999999999);
#121=CYLINDRICAL_SURFACE('',#1405,3.24999999999999);
#122=CYLINDRICAL_SURFACE('',#1410,3.24999999999999);
#123=CYLINDRICAL_SURFACE('',#1415,3.24999999999999);
#124=CYLINDRICAL_SURFACE('',#1420,3.24999999999999);
#125=CYLINDRICAL_SURFACE('',#1425,3.24999999999999);
#126=CYLINDRICAL_SURFACE('',#1430,3.24999999999999);
#127=CYLINDRICAL_SURFACE('',#1435,3.24999999999999);
#128=CYLINDRICAL_SURFACE('',#1456,1.7);
#129=CYLINDRICAL_SURFACE('',#1457,1.7);
#130=CYLINDRICAL_SURFACE('',#1458,1.7);
#131=CYLINDRICAL_SURFACE('',#1459,1.7);
#132=CYLINDRICAL_SURFACE('',#1460,1.7);
#133=CYLINDRICAL_SURFACE('',#1461,1.7);
#134=CYLINDRICAL_SURFACE('',#1462,2.25);
#135=CYLINDRICAL_SURFACE('',#1464,2.25);
#136=CYLINDRICAL_SURFACE('',#1466,2.25);
#137=CYLINDRICAL_SURFACE('',#1468,2.25);
#138=CYLINDRICAL_SURFACE('',#1470,1.7);
#139=CYLINDRICAL_SURFACE('',#1471,1.7);
#140=CYLINDRICAL_SURFACE('',#1472,1.7);
#141=CYLINDRICAL_SURFACE('',#1473,1.7);
#142=CYLINDRICAL_SURFACE('',#1474,1.7);
#143=CYLINDRICAL_SURFACE('',#1475,1.7);
#144=FACE_OUTER_BOUND('',#218,.T.);
#145=FACE_OUTER_BOUND('',#219,.T.);
#146=FACE_OUTER_BOUND('',#220,.T.);
#147=FACE_OUTER_BOUND('',#244,.T.);
#148=FACE_OUTER_BOUND('',#245,.T.);
#149=FACE_OUTER_BOUND('',#247,.T.);
#150=FACE_OUTER_BOUND('',#248,.T.);
#151=FACE_OUTER_BOUND('',#250,.T.);
#152=FACE_OUTER_BOUND('',#251,.T.);
#153=FACE_OUTER_BOUND('',#253,.T.);
#154=FACE_OUTER_BOUND('',#254,.T.);
#155=FACE_OUTER_BOUND('',#256,.T.);
#156=FACE_OUTER_BOUND('',#257,.T.);
#157=FACE_OUTER_BOUND('',#259,.T.);
#158=FACE_OUTER_BOUND('',#260,.T.);
#159=FACE_OUTER_BOUND('',#262,.T.);
#160=FACE_OUTER_BOUND('',#263,.T.);
#161=FACE_OUTER_BOUND('',#265,.T.);
#162=FACE_OUTER_BOUND('',#266,.T.);
#163=FACE_OUTER_BOUND('',#268,.T.);
#164=FACE_OUTER_BOUND('',#269,.T.);
#165=FACE_OUTER_BOUND('',#271,.T.);
#166=FACE_OUTER_BOUND('',#272,.T.);
#167=FACE_OUTER_BOUND('',#274,.T.);
#168=FACE_OUTER_BOUND('',#275,.T.);
#169=FACE_OUTER_BOUND('',#277,.T.);
#170=FACE_OUTER_BOUND('',#278,.T.);
#171=FACE_OUTER_BOUND('',#280,.T.);
#172=FACE_OUTER_BOUND('',#281,.T.);
#173=FACE_OUTER_BOUND('',#282,.T.);
#174=FACE_OUTER_BOUND('',#283,.T.);
#175=FACE_OUTER_BOUND('',#284,.T.);
#176=FACE_OUTER_BOUND('',#285,.T.);
#177=FACE_OUTER_BOUND('',#286,.T.);
#178=FACE_OUTER_BOUND('',#287,.T.);
#179=FACE_OUTER_BOUND('',#288,.T.);
#180=FACE_OUTER_BOUND('',#289,.T.);
#181=FACE_OUTER_BOUND('',#290,.T.);
#182=FACE_OUTER_BOUND('',#291,.T.);
#183=FACE_OUTER_BOUND('',#292,.T.);
#184=FACE_OUTER_BOUND('',#293,.T.);
#185=FACE_OUTER_BOUND('',#294,.T.);
#186=FACE_OUTER_BOUND('',#295,.T.);
#187=FACE_OUTER_BOUND('',#296,.T.);
#188=FACE_OUTER_BOUND('',#297,.T.);
#189=FACE_OUTER_BOUND('',#298,.T.);
#190=FACE_OUTER_BOUND('',#299,.T.);
#191=FACE_OUTER_BOUND('',#300,.T.);
#192=FACE_OUTER_BOUND('',#301,.T.);
#193=FACE_OUTER_BOUND('',#302,.T.);
#194=FACE_OUTER_BOUND('',#303,.T.);
#195=FACE_OUTER_BOUND('',#304,.T.);
#196=FACE_OUTER_BOUND('',#305,.T.);
#197=FACE_OUTER_BOUND('',#306,.T.);
#198=FACE_OUTER_BOUND('',#307,.T.);
#199=FACE_OUTER_BOUND('',#308,.T.);
#200=FACE_OUTER_BOUND('',#309,.T.);
#201=FACE_OUTER_BOUND('',#310,.T.);
#202=FACE_OUTER_BOUND('',#311,.T.);
#203=FACE_OUTER_BOUND('',#312,.T.);
#204=FACE_OUTER_BOUND('',#313,.T.);
#205=FACE_OUTER_BOUND('',#314,.T.);
#206=FACE_OUTER_BOUND('',#315,.T.);
#207=FACE_OUTER_BOUND('',#316,.T.);
#208=FACE_OUTER_BOUND('',#317,.T.);
#209=FACE_OUTER_BOUND('',#318,.T.);
#210=FACE_OUTER_BOUND('',#319,.T.);
#211=FACE_OUTER_BOUND('',#320,.T.);
#212=FACE_OUTER_BOUND('',#321,.T.);
#213=FACE_OUTER_BOUND('',#322,.T.);
#214=FACE_OUTER_BOUND('',#323,.T.);
#215=FACE_OUTER_BOUND('',#324,.T.);
#216=FACE_OUTER_BOUND('',#325,.T.);
#217=FACE_OUTER_BOUND('',#326,.T.);
#218=EDGE_LOOP('',(#923,#924,#925,#926));
#219=EDGE_LOOP('',(#927,#928,#929,#930));
#220=EDGE_LOOP('',(#931,#932,#933,#934));
#221=EDGE_LOOP('',(#935,#936,#937,#938));
#222=EDGE_LOOP('',(#939,#940,#941,#942));
#223=EDGE_LOOP('',(#943,#944,#945,#946));
#224=EDGE_LOOP('',(#947,#948,#949,#950));
#225=EDGE_LOOP('',(#951,#952,#953,#954));
#226=EDGE_LOOP('',(#955,#956,#957,#958));
#227=EDGE_LOOP('',(#959));
#228=EDGE_LOOP('',(#960));
#229=EDGE_LOOP('',(#961));
#230=EDGE_LOOP('',(#962));
#231=EDGE_LOOP('',(#963));
#232=EDGE_LOOP('',(#964));
#233=EDGE_LOOP('',(#965));
#234=EDGE_LOOP('',(#966));
#235=EDGE_LOOP('',(#967));
#236=EDGE_LOOP('',(#968));
#237=EDGE_LOOP('',(#969));
#238=EDGE_LOOP('',(#970));
#239=EDGE_LOOP('',(#971));
#240=EDGE_LOOP('',(#972));
#241=EDGE_LOOP('',(#973));
#242=EDGE_LOOP('',(#974));
#243=EDGE_LOOP('',(#975));
#244=EDGE_LOOP('',(#976,#977,#978,#979));
#245=EDGE_LOOP('',(#980));
#246=EDGE_LOOP('',(#981));
#247=EDGE_LOOP('',(#982,#983,#984,#985));
#248=EDGE_LOOP('',(#986));
#249=EDGE_LOOP('',(#987));
#250=EDGE_LOOP('',(#988,#989,#990,#991));
#251=EDGE_LOOP('',(#992));
#252=EDGE_LOOP('',(#993));
#253=EDGE_LOOP('',(#994,#995,#996,#997));
#254=EDGE_LOOP('',(#998));
#255=EDGE_LOOP('',(#999));
#256=EDGE_LOOP('',(#1000,#1001,#1002,#1003));
#257=EDGE_LOOP('',(#1004));
#258=EDGE_LOOP('',(#1005));
#259=EDGE_LOOP('',(#1006,#1007,#1008,#1009));
#260=EDGE_LOOP('',(#1010));
#261=EDGE_LOOP('',(#1011));
#262=EDGE_LOOP('',(#1012,#1013,#1014,#1015));
#263=EDGE_LOOP('',(#1016));
#264=EDGE_LOOP('',(#1017));
#265=EDGE_LOOP('',(#1018,#1019,#1020,#1021));
#266=EDGE_LOOP('',(#1022));
#267=EDGE_LOOP('',(#1023));
#268=EDGE_LOOP('',(#1024,#1025,#1026,#1027));
#269=EDGE_LOOP('',(#1028));
#270=EDGE_LOOP('',(#1029));
#271=EDGE_LOOP('',(#1030,#1031,#1032,#1033));
#272=EDGE_LOOP('',(#1034));
#273=EDGE_LOOP('',(#1035));
#274=EDGE_LOOP('',(#1036,#1037,#1038,#1039));
#275=EDGE_LOOP('',(#1040));
#276=EDGE_LOOP('',(#1041));
#277=EDGE_LOOP('',(#1042,#1043,#1044,#1045));
#278=EDGE_LOOP('',(#1046));
#279=EDGE_LOOP('',(#1047));
#280=EDGE_LOOP('',(#1048,#1049,#1050,#1051));
#281=EDGE_LOOP('',(#1052,#1053,#1054,#1055));
#282=EDGE_LOOP('',(#1056,#1057,#1058,#1059));
#283=EDGE_LOOP('',(#1060,#1061,#1062,#1063));
#284=EDGE_LOOP('',(#1064,#1065,#1066,#1067));
#285=EDGE_LOOP('',(#1068,#1069,#1070,#1071));
#286=EDGE_LOOP('',(#1072,#1073,#1074,#1075));
#287=EDGE_LOOP('',(#1076,#1077,#1078,#1079));
#288=EDGE_LOOP('',(#1080,#1081,#1082,#1083));
#289=EDGE_LOOP('',(#1084,#1085,#1086,#1087));
#290=EDGE_LOOP('',(#1088,#1089,#1090,#1091));
#291=EDGE_LOOP('',(#1092,#1093,#1094,#1095));
#292=EDGE_LOOP('',(#1096,#1097,#1098,#1099));
#293=EDGE_LOOP('',(#1100,#1101,#1102,#1103));
#294=EDGE_LOOP('',(#1104,#1105,#1106,#1107));
#295=EDGE_LOOP('',(#1108,#1109,#1110,#1111));
#296=EDGE_LOOP('',(#1112,#1113,#1114,#1115));
#297=EDGE_LOOP('',(#1116,#1117,#1118,#1119));
#298=EDGE_LOOP('',(#1120,#1121,#1122,#1123));
#299=EDGE_LOOP('',(#1124,#1125,#1126,#1127));
#300=EDGE_LOOP('',(#1128,#1129,#1130,#1131));
#301=EDGE_LOOP('',(#1132,#1133,#1134,#1135));
#302=EDGE_LOOP('',(#1136,#1137,#1138,#1139));
#303=EDGE_LOOP('',(#1140,#1141,#1142,#1143));
#304=EDGE_LOOP('',(#1144,#1145,#1146,#1147));
#305=EDGE_LOOP('',(#1148,#1149,#1150,#1151));
#306=EDGE_LOOP('',(#1152,#1153,#1154,#1155));
#307=EDGE_LOOP('',(#1156,#1157,#1158,#1159));
#308=EDGE_LOOP('',(#1160,#1161,#1162,#1163));
#309=EDGE_LOOP('',(#1164,#1165,#1166,#1167));
#310=EDGE_LOOP('',(#1168,#1169,#1170,#1171));
#311=EDGE_LOOP('',(#1172,#1173,#1174,#1175));
#312=EDGE_LOOP('',(#1176,#1177,#1178,#1179));
#313=EDGE_LOOP('',(#1180,#1181,#1182,#1183));
#314=EDGE_LOOP('',(#1184,#1185,#1186,#1187));
#315=EDGE_LOOP('',(#1188,#1189,#1190,#1191));
#316=EDGE_LOOP('',(#1192,#1193,#1194,#1195));
#317=EDGE_LOOP('',(#1196,#1197,#1198,#1199));
#318=EDGE_LOOP('',(#1200,#1201,#1202,#1203));
#319=EDGE_LOOP('',(#1204,#1205,#1206,#1207));
#320=EDGE_LOOP('',(#1208,#1209,#1210,#1211));
#321=EDGE_LOOP('',(#1212,#1213,#1214,#1215));
#322=EDGE_LOOP('',(#1216,#1217,#1218,#1219));
#323=EDGE_LOOP('',(#1220,#1221,#1222,#1223));
#324=EDGE_LOOP('',(#1224,#1225,#1226,#1227));
#325=EDGE_LOOP('',(#1228,#1229,#1230,#1231));
#326=EDGE_LOOP('',(#1232,#1233,#1234,#1235));
#327=EDGE_LOOP('',(#1236,#1237,#1238,#1239));
#328=EDGE_LOOP('',(#1240,#1241,#1242,#1243));
#329=EDGE_LOOP('',(#1244,#1245,#1246,#1247));
#330=EDGE_LOOP('',(#1248,#1249,#1250,#1251));
#331=EDGE_LOOP('',(#1252));
#332=EDGE_LOOP('',(#1253));
#333=EDGE_LOOP('',(#1254));
#334=EDGE_LOOP('',(#1255));
#335=EDGE_LOOP('',(#1256));
#336=EDGE_LOOP('',(#1257));
#337=EDGE_LOOP('',(#1258));
#338=EDGE_LOOP('',(#1259));
#339=EDGE_LOOP('',(#1260));
#340=EDGE_LOOP('',(#1261));
#341=EDGE_LOOP('',(#1262));
#342=EDGE_LOOP('',(#1263));
#343=EDGE_LOOP('',(#1264));
#344=EDGE_LOOP('',(#1265));
#345=EDGE_LOOP('',(#1266));
#346=EDGE_LOOP('',(#1267));
#347=EDGE_LOOP('',(#1268));
#348=LINE('',#1878,#462);
#349=LINE('',#1882,#463);
#350=LINE('',#1887,#464);
#351=LINE('',#1889,#465);
#352=LINE('',#1891,#466);
#353=LINE('',#1892,#467);
#354=LINE('',#1895,#468);
#355=LINE('',#1897,#469);
#356=LINE('',#1899,#470);
#357=LINE('',#1900,#471);
#358=LINE('',#1903,#472);
#359=LINE('',#1905,#473);
#360=LINE('',#1907,#474);
#361=LINE('',#1908,#475);
#362=LINE('',#1911,#476);
#363=LINE('',#1913,#477);
#364=LINE('',#1915,#478);
#365=LINE('',#1916,#479);
#366=LINE('',#1919,#480);
#367=LINE('',#1921,#481);
#368=LINE('',#1923,#482);
#369=LINE('',#1924,#483);
#370=LINE('',#1927,#484);
#371=LINE('',#1929,#485);
#372=LINE('',#1931,#486);
#373=LINE('',#1932,#487);
#374=LINE('',#1935,#488);
#375=LINE('',#1937,#489);
#376=LINE('',#1939,#490);
#377=LINE('',#1940,#491);
#378=LINE('',#1977,#492);
#379=LINE('',#1986,#493);
#380=LINE('',#1995,#494);
#381=LINE('',#2004,#495);
#382=LINE('',#2013,#496);
#383=LINE('',#2022,#497);
#384=LINE('',#2031,#498);
#385=LINE('',#2040,#499);
#386=LINE('',#2049,#500);
#387=LINE('',#2058,#501);
#388=LINE('',#2067,#502);
#389=LINE('',#2076,#503);
#390=LINE('',#2083,#504);
#391=LINE('',#2085,#505);
#392=LINE('',#2086,#506);
#393=LINE('',#2089,#507);
#394=LINE('',#2090,#508);
#395=LINE('',#2093,#509);
#396=LINE('',#2094,#510);
#397=LINE('',#2096,#511);
#398=LINE('',#2099,#512);
#399=LINE('',#2101,#513);
#400=LINE('',#2102,#514);
#401=LINE('',#2105,#515);
#402=LINE('',#2106,#516);
#403=LINE('',#2109,#517);
#404=LINE('',#2110,#518);
#405=LINE('',#2112,#519);
#406=LINE('',#2115,#520);
#407=LINE('',#2117,#521);
#408=LINE('',#2118,#522);
#409=LINE('',#2121,#523);
#410=LINE('',#2122,#524);
#411=LINE('',#2125,#525);
#412=LINE('',#2126,#526);
#413=LINE('',#2128,#527);
#414=LINE('',#2131,#528);
#415=LINE('',#2133,#529);
#416=LINE('',#2134,#530);
#417=LINE('',#2137,#531);
#418=LINE('',#2138,#532);
#419=LINE('',#2141,#533);
#420=LINE('',#2142,#534);
#421=LINE('',#2144,#535);
#422=LINE('',#2146,#536);
#423=LINE('',#2148,#537);
#424=LINE('',#2150,#538);
#425=LINE('',#2152,#539);
#426=LINE('',#2154,#540);
#427=LINE('',#2156,#541);
#428=LINE('',#2159,#542);
#429=LINE('',#2163,#543);
#430=LINE('',#2167,#544);
#431=LINE('',#2171,#545);
#432=LINE('',#2174,#546);
#433=LINE('',#2176,#547);
#434=LINE('',#2178,#548);
#435=LINE('',#2180,#549);
#436=LINE('',#2182,#550);
#437=LINE('',#2184,#551);
#438=LINE('',#2187,#552);
#439=LINE('',#2189,#553);
#440=LINE('',#2190,#554);
#441=LINE('',#2193,#555);
#442=LINE('',#2194,#556);
#443=LINE('',#2197,#557);
#444=LINE('',#2198,#558);
#445=LINE('',#2200,#559);
#446=LINE('',#2204,#560);
#447=LINE('',#2206,#561);
#448=LINE('',#2207,#562);
#449=LINE('',#2210,#563);
#450=LINE('',#2211,#564);
#451=LINE('',#2214,#565);
#452=LINE('',#2215,#566);
#453=LINE('',#2217,#567);
#454=LINE('',#2221,#568);
#455=LINE('',#2223,#569);
#456=LINE('',#2224,#570);
#457=LINE('',#2227,#571);
#458=LINE('',#2228,#572);
#459=LINE('',#2231,#573);
#460=LINE('',#2232,#574);
#461=LINE('',#2234,#575);
#462=VECTOR('',#1497,58.5);
#463=VECTOR('',#1502,57.);
#464=VECTOR('',#1507,10.);
#465=VECTOR('',#1508,10.);
#466=VECTOR('',#1509,10.);
#467=VECTOR('',#1510,10.);
#468=VECTOR('',#1511,10.);
#469=VECTOR('',#1512,10.);
#470=VECTOR('',#1513,10.);
#471=VECTOR('',#1514,10.);
#472=VECTOR('',#1515,10.);
#473=VECTOR('',#1516,10.);
#474=VECTOR('',#1517,10.);
#475=VECTOR('',#1518,10.);
#476=VECTOR('',#1519,10.);
#477=VECTOR('',#1520,10.);
#478=VECTOR('',#1521,10.);
#479=VECTOR('',#1522,10.);
#480=VECTOR('',#1523,10.);
#481=VECTOR('',#1524,10.);
#482=VECTOR('',#1525,10.);
#483=VECTOR('',#1526,10.);
#484=VECTOR('',#1527,10.);
#485=VECTOR('',#1528,10.);
#486=VECTOR('',#1529,10.);
#487=VECTOR('',#1530,10.);
#488=VECTOR('',#1531,10.);
#489=VECTOR('',#1532,10.);
#490=VECTOR('',#1533,10.);
#491=VECTOR('',#1534,10.);
#492=VECTOR('',#1571,3.24999999999999);
#493=VECTOR('',#1582,3.24999999999999);
#494=VECTOR('',#1593,3.24999999999999);
#495=VECTOR('',#1604,3.24999999999999);
#496=VECTOR('',#1615,3.24999999999999);
#497=VECTOR('',#1626,3.24999999999999);
#498=VECTOR('',#1637,3.24999999999999);
#499=VECTOR('',#1648,3.24999999999999);
#500=VECTOR('',#1659,3.24999999999999);
#501=VECTOR('',#1670,3.24999999999999);
#502=VECTOR('',#1681,3.24999999999999);
#503=VECTOR('',#1692,3.24999999999999);
#504=VECTOR('',#1701,10.);
#505=VECTOR('',#1702,10.);
#506=VECTOR('',#1703,10.);
#507=VECTOR('',#1706,10.);
#508=VECTOR('',#1707,10.);
#509=VECTOR('',#1710,10.);
#510=VECTOR('',#1711,10.);
#511=VECTOR('',#1714,10.);
#512=VECTOR('',#1717,10.);
#513=VECTOR('',#1718,10.);
#514=VECTOR('',#1719,10.);
#515=VECTOR('',#1722,10.);
#516=VECTOR('',#1723,10.);
#517=VECTOR('',#1726,10.);
#518=VECTOR('',#1727,10.);
#519=VECTOR('',#1730,10.);
#520=VECTOR('',#1733,10.);
#521=VECTOR('',#1734,10.);
#522=VECTOR('',#1735,10.);
#523=VECTOR('',#1738,10.);
#524=VECTOR('',#1739,10.);
#525=VECTOR('',#1742,10.);
#526=VECTOR('',#1743,10.);
#527=VECTOR('',#1746,10.);
#528=VECTOR('',#1749,10.);
#529=VECTOR('',#1750,10.);
#530=VECTOR('',#1751,10.);
#531=VECTOR('',#1754,10.);
#532=VECTOR('',#1755,10.);
#533=VECTOR('',#1758,10.);
#534=VECTOR('',#1759,10.);
#535=VECTOR('',#1762,10.);
#536=VECTOR('',#1765,1.7);
#537=VECTOR('',#1768,1.7);
#538=VECTOR('',#1771,1.7);
#539=VECTOR('',#1774,1.7);
#540=VECTOR('',#1777,1.7);
#541=VECTOR('',#1780,1.7);
#542=VECTOR('',#1783,2.25);
#543=VECTOR('',#1788,2.25);
#544=VECTOR('',#1793,2.25);
#545=VECTOR('',#1798,2.25);
#546=VECTOR('',#1803,1.7);
#547=VECTOR('',#1806,1.7);
#548=VECTOR('',#1809,1.7);
#549=VECTOR('',#1812,1.7);
#550=VECTOR('',#1815,1.7);
#551=VECTOR('',#1818,1.7);
#552=VECTOR('',#1821,10.);
#553=VECTOR('',#1822,10.);
#554=VECTOR('',#1823,10.);
#555=VECTOR('',#1826,10.);
#556=VECTOR('',#1827,10.);
#557=VECTOR('',#1830,10.);
#558=VECTOR('',#1831,10.);
#559=VECTOR('',#1834,10.);
#560=VECTOR('',#1839,10.);
#561=VECTOR('',#1840,10.);
#562=VECTOR('',#1841,10.);
#563=VECTOR('',#1844,10.);
#564=VECTOR('',#1845,10.);
#565=VECTOR('',#1848,10.);
#566=VECTOR('',#1849,10.);
#567=VECTOR('',#1852,10.);
#568=VECTOR('',#1857,10.);
#569=VECTOR('',#1858,10.);
#570=VECTOR('',#1859,10.);
#571=VECTOR('',#1862,10.);
#572=VECTOR('',#1863,10.);
#573=VECTOR('',#1866,10.);
#574=VECTOR('',#1867,10.);
#575=VECTOR('',#1870,10.);
#576=CIRCLE('',#1359,60.);
#577=CIRCLE('',#1360,57.);
#578=CIRCLE('',#1362,57.);
#579=CIRCLE('',#1364,1.7);
#580=CIRCLE('',#1365,1.7);
#581=CIRCLE('',#1366,1.7);
#582=CIRCLE('',#1367,1.7);
#583=CIRCLE('',#1368,1.7);
#584=CIRCLE('',#1369,1.7);
#585=CIRCLE('',#1370,2.25);
#586=CIRCLE('',#1371,2.25);
#587=CIRCLE('',#1372,2.25);
#588=CIRCLE('',#1373,2.25);
#589=CIRCLE('',#1374,1.7);
#590=CIRCLE('',#1375,1.7);
#591=CIRCLE('',#1376,1.7);
#592=CIRCLE('',#1377,1.7);
#593=CIRCLE('',#1378,1.7);
#594=CIRCLE('',#1379,1.7);
#595=CIRCLE('',#1381,3.24999999999999);
#596=CIRCLE('',#1382,3.24999999999999);
#597=CIRCLE('',#1384,1.7);
#598=CIRCLE('',#1386,3.24999999999999);
#599=CIRCLE('',#1387,3.24999999999999);
#600=CIRCLE('',#1389,1.7);
#601=CIRCLE('',#1391,3.24999999999999);
#602=CIRCLE('',#1392,3.24999999999999);
#603=CIRCLE('',#1394,1.7);
#604=CIRCLE('',#1396,3.24999999999999);
#605=CIRCLE('',#1397,3.24999999999999);
#606=CIRCLE('',#1399,1.7);
#607=CIRCLE('',#1401,3.24999999999999);
#608=CIRCLE('',#1402,3.24999999999999);
#609=CIRCLE('',#1404,1.7);
#610=CIRCLE('',#1406,3.24999999999999);
#611=CIRCLE('',#1407,3.24999999999999);
#612=CIRCLE('',#1409,1.7);
#613=CIRCLE('',#1411,3.24999999999999);
#614=CIRCLE('',#1412,3.24999999999999);
#615=CIRCLE('',#1414,1.7);
#616=CIRCLE('',#1416,3.24999999999999);
#617=CIRCLE('',#1417,3.24999999999999);
#618=CIRCLE('',#1419,1.7);
#619=CIRCLE('',#1421,3.24999999999999);
#620=CIRCLE('',#1422,3.24999999999999);
#621=CIRCLE('',#1424,1.7);
#622=CIRCLE('',#1426,3.24999999999999);
#623=CIRCLE('',#1427,3.24999999999999);
#624=CIRCLE('',#1429,1.7);
#625=CIRCLE('',#1431,3.24999999999999);
#626=CIRCLE('',#1432,3.24999999999999);
#627=CIRCLE('',#1434,1.7);
#628=CIRCLE('',#1436,3.24999999999999);
#629=CIRCLE('',#1437,3.24999999999999);
#630=CIRCLE('',#1439,1.7);
#631=CIRCLE('',#1463,2.25);
#632=CIRCLE('',#1465,2.25);
#633=CIRCLE('',#1467,2.25);
#634=CIRCLE('',#1469,2.25);
#635=VERTEX_POINT('',#1875);
#636=VERTEX_POINT('',#1877);
#637=VERTEX_POINT('',#1881);
#638=VERTEX_POINT('',#1885);
#639=VERTEX_POINT('',#1886);
#640=VERTEX_POINT('',#1888);
#641=VERTEX_POINT('',#1890);
#642=VERTEX_POINT('',#1893);
#643=VERTEX_POINT('',#1894);
#644=VERTEX_POINT('',#1896);
#645=VERTEX_POINT('',#1898);
#646=VERTEX_POINT('',#1901);
#647=VERTEX_POINT('',#1902);
#648=VERTEX_POINT('',#1904);
#649=VERTEX_POINT('',#1906);
#650=VERTEX_POINT('',#1909);
#651=VERTEX_POINT('',#1910);
#652=VERTEX_POINT('',#1912);
#653=VERTEX_POINT('',#1914);
#654=VERTEX_POINT('',#1917);
#655=VERTEX_POINT('',#1918);
#656=VERTEX_POINT('',#1920);
#657=VERTEX_POINT('',#1922);
#658=VERTEX_POINT('',#1925);
#659=VERTEX_POINT('',#1926);
#660=VERTEX_POINT('',#1928);
#661=VERTEX_POINT('',#1930);
#662=VERTEX_POINT('',#1933);
#663=VERTEX_POINT('',#1934);
#664=VERTEX_POINT('',#1936);
#665=VERTEX_POINT('',#1938);
#666=VERTEX_POINT('',#1941);
#667=VERTEX_POINT('',#1943);
#668=VERTEX_POINT('',#1945);
#669=VERTEX_POINT('',#1947);
#670=VERTEX_POINT('',#1949);
#671=VERTEX_POINT('',#1951);
#672=VERTEX_POINT('',#1953);
#673=VERTEX_POINT('',#1955);
#674=VERTEX_POINT('',#1957);
#675=VERTEX_POINT('',#1959);
#676=VERTEX_POINT('',#1961);
#677=VERTEX_POINT('',#1963);
#678=VERTEX_POINT('',#1965);
#679=VERTEX_POINT('',#1967);
#680=VERTEX_POINT('',#1969);
#681=VERTEX_POINT('',#1971);
#682=VERTEX_POINT('',#1974);
#683=VERTEX_POINT('',#1976);
#684=VERTEX_POINT('',#1980);
#685=VERTEX_POINT('',#1983);
#686=VERTEX_POINT('',#1985);
#687=VERTEX_POINT('',#1989);
#688=VERTEX_POINT('',#1992);
#689=VERTEX_POINT('',#1994);
#690=VERTEX_POINT('',#1998);
#691=VERTEX_POINT('',#2001);
#692=VERTEX_POINT('',#2003);
#693=VERTEX_POINT('',#2007);
#694=VERTEX_POINT('',#2010);
#695=VERTEX_POINT('',#2012);
#696=VERTEX_POINT('',#2016);
#697=VERTEX_POINT('',#2019);
#698=VERTEX_POINT('',#2021);
#699=VERTEX_POINT('',#2025);
#700=VERTEX_POINT('',#2028);
#701=VERTEX_POINT('',#2030);
#702=VERTEX_POINT('',#2034);
#703=VERTEX_POINT('',#2037);
#704=VERTEX_POINT('',#2039);
#705=VERTEX_POINT('',#2043);
#706=VERTEX_POINT('',#2046);
#707=VERTEX_POINT('',#2048);
#708=VERTEX_POINT('',#2052);
#709=VERTEX_POINT('',#2055);
#710=VERTEX_POINT('',#2057);
#711=VERTEX_POINT('',#2061);
#712=VERTEX_POINT('',#2064);
#713=VERTEX_POINT('',#2066);
#714=VERTEX_POINT('',#2070);
#715=VERTEX_POINT('',#2073);
#716=VERTEX_POINT('',#2075);
#717=VERTEX_POINT('',#2079);
#718=VERTEX_POINT('',#2082);
#719=VERTEX_POINT('',#2084);
#720=VERTEX_POINT('',#2088);
#721=VERTEX_POINT('',#2092);
#722=VERTEX_POINT('',#2098);
#723=VERTEX_POINT('',#2100);
#724=VERTEX_POINT('',#2104);
#725=VERTEX_POINT('',#2108);
#726=VERTEX_POINT('',#2114);
#727=VERTEX_POINT('',#2116);
#728=VERTEX_POINT('',#2120);
#729=VERTEX_POINT('',#2124);
#730=VERTEX_POINT('',#2130);
#731=VERTEX_POINT('',#2132);
#732=VERTEX_POINT('',#2136);
#733=VERTEX_POINT('',#2140);
#734=VERTEX_POINT('',#2158);
#735=VERTEX_POINT('',#2162);
#736=VERTEX_POINT('',#2166);
#737=VERTEX_POINT('',#2170);
#738=VERTEX_POINT('',#2186);
#739=VERTEX_POINT('',#2188);
#740=VERTEX_POINT('',#2192);
#741=VERTEX_POINT('',#2196);
#742=VERTEX_POINT('',#2203);
#743=VERTEX_POINT('',#2205);
#744=VERTEX_POINT('',#2209);
#745=VERTEX_POINT('',#2213);
#746=VERTEX_POINT('',#2220);
#747=VERTEX_POINT('',#2222);
#748=VERTEX_POINT('',#2226);
#749=VERTEX_POINT('',#2230);
#750=EDGE_CURVE('',#635,#635,#576,.T.);
#751=EDGE_CURVE('',#635,#636,#348,.T.);
#752=EDGE_CURVE('',#636,#636,#577,.T.);
#753=EDGE_CURVE('',#636,#637,#349,.T.);
#754=EDGE_CURVE('',#637,#637,#578,.T.);
#755=EDGE_CURVE('',#638,#639,#350,.T.);
#756=EDGE_CURVE('',#640,#638,#351,.T.);
#757=EDGE_CURVE('',#641,#640,#352,.T.);
#758=EDGE_CURVE('',#639,#641,#353,.T.);
#759=EDGE_CURVE('',#642,#643,#354,.T.);
#760=EDGE_CURVE('',#643,#644,#355,.T.);
#761=EDGE_CURVE('',#644,#645,#356,.T.);
#762=EDGE_CURVE('',#645,#642,#357,.T.);
#763=EDGE_CURVE('',#646,#647,#358,.T.);
#764=EDGE_CURVE('',#647,#648,#359,.T.);
#765=EDGE_CURVE('',#648,#649,#360,.T.);
#766=EDGE_CURVE('',#649,#646,#361,.T.);
#767=EDGE_CURVE('',#650,#651,#362,.T.);
#768=EDGE_CURVE('',#651,#652,#363,.T.);
#769=EDGE_CURVE('',#652,#653,#364,.T.);
#770=EDGE_CURVE('',#653,#650,#365,.T.);
#771=EDGE_CURVE('',#654,#655,#366,.T.);
#772=EDGE_CURVE('',#655,#656,#367,.T.);
#773=EDGE_CURVE('',#656,#657,#368,.T.);
#774=EDGE_CURVE('',#657,#654,#369,.T.);
#775=EDGE_CURVE('',#658,#659,#370,.T.);
#776=EDGE_CURVE('',#659,#660,#371,.T.);
#777=EDGE_CURVE('',#660,#661,#372,.T.);
#778=EDGE_CURVE('',#661,#658,#373,.T.);
#779=EDGE_CURVE('',#662,#663,#374,.T.);
#780=EDGE_CURVE('',#663,#664,#375,.T.);
#781=EDGE_CURVE('',#664,#665,#376,.T.);
#782=EDGE_CURVE('',#665,#662,#377,.T.);
#783=EDGE_CURVE('',#666,#666,#579,.T.);
#784=EDGE_CURVE('',#667,#667,#580,.T.);
#785=EDGE_CURVE('',#668,#668,#581,.T.);
#786=EDGE_CURVE('',#669,#669,#582,.T.);
#787=EDGE_CURVE('',#670,#670,#583,.T.);
#788=EDGE_CURVE('',#671,#671,#584,.T.);
#789=EDGE_CURVE('',#672,#672,#585,.T.);
#790=EDGE_CURVE('',#673,#673,#586,.T.);
#791=EDGE_CURVE('',#674,#674,#587,.T.);
#792=EDGE_CURVE('',#675,#675,#588,.T.);
#793=EDGE_CURVE('',#676,#676,#589,.T.);
#794=EDGE_CURVE('',#677,#677,#590,.T.);
#795=EDGE_CURVE('',#678,#678,#591,.T.);
#796=EDGE_CURVE('',#679,#679,#592,.T.);
#797=EDGE_CURVE('',#680,#680,#593,.T.);
#798=EDGE_CURVE('',#681,#681,#594,.T.);
#799=EDGE_CURVE('',#682,#682,#595,.T.);
#800=EDGE_CURVE('',#682,#683,#378,.T.);
#801=EDGE_CURVE('',#683,#683,#596,.T.);
#802=EDGE_CURVE('',#684,#684,#597,.T.);
#803=EDGE_CURVE('',#685,#685,#598,.T.);
#804=EDGE_CURVE('',#685,#686,#379,.T.);
#805=EDGE_CURVE('',#686,#686,#599,.T.);
#806=EDGE_CURVE('',#687,#687,#600,.T.);
#807=EDGE_CURVE('',#688,#688,#601,.T.);
#808=EDGE_CURVE('',#688,#689,#380,.T.);
#809=EDGE_CURVE('',#689,#689,#602,.T.);
#810=EDGE_CURVE('',#690,#690,#603,.T.);
#811=EDGE_CURVE('',#691,#691,#604,.T.);
#812=EDGE_CURVE('',#691,#692,#381,.T.);
#813=EDGE_CURVE('',#692,#692,#605,.T.);
#814=EDGE_CURVE('',#693,#693,#606,.T.);
#815=EDGE_CURVE('',#694,#694,#607,.T.);
#816=EDGE_CURVE('',#694,#695,#382,.T.);
#817=EDGE_CURVE('',#695,#695,#608,.T.);
#818=EDGE_CURVE('',#696,#696,#609,.T.);
#819=EDGE_CURVE('',#697,#697,#610,.T.);
#820=EDGE_CURVE('',#697,#698,#383,.T.);
#821=EDGE_CURVE('',#698,#698,#611,.T.);
#822=EDGE_CURVE('',#699,#699,#612,.T.);
#823=EDGE_CURVE('',#700,#700,#613,.T.);
#824=EDGE_CURVE('',#700,#701,#384,.T.);
#825=EDGE_CURVE('',#701,#701,#614,.T.);
#826=EDGE_CURVE('',#702,#702,#615,.T.);
#827=EDGE_CURVE('',#703,#703,#616,.T.);
#828=EDGE_CURVE('',#703,#704,#385,.T.);
#829=EDGE_CURVE('',#704,#704,#617,.T.);
#830=EDGE_CURVE('',#705,#705,#618,.T.);
#831=EDGE_CURVE('',#706,#706,#619,.T.);
#832=EDGE_CURVE('',#706,#707,#386,.T.);
#833=EDGE_CURVE('',#707,#707,#620,.T.);
#834=EDGE_CURVE('',#708,#708,#621,.T.);
#835=EDGE_CURVE('',#709,#709,#622,.T.);
#836=EDGE_CURVE('',#709,#710,#387,.T.);
#837=EDGE_CURVE('',#710,#710,#623,.T.);
#838=EDGE_CURVE('',#711,#711,#624,.T.);
#839=EDGE_CURVE('',#712,#712,#625,.T.);
#840=EDGE_CURVE('',#712,#713,#388,.T.);
#841=EDGE_CURVE('',#713,#713,#626,.T.);
#842=EDGE_CURVE('',#714,#714,#627,.T.);
#843=EDGE_CURVE('',#715,#715,#628,.T.);
#844=EDGE_CURVE('',#715,#716,#389,.T.);
#845=EDGE_CURVE('',#716,#716,#629,.T.);
#846=EDGE_CURVE('',#717,#717,#630,.T.);
#847=EDGE_CURVE('',#642,#718,#390,.T.);
#848=EDGE_CURVE('',#719,#718,#391,.T.);
#849=EDGE_CURVE('',#643,#719,#392,.T.);
#850=EDGE_CURVE('',#645,#720,#393,.T.);
#851=EDGE_CURVE('',#718,#720,#394,.T.);
#852=EDGE_CURVE('',#644,#721,#395,.T.);
#853=EDGE_CURVE('',#720,#721,#396,.T.);
#854=EDGE_CURVE('',#721,#719,#397,.T.);
#855=EDGE_CURVE('',#646,#722,#398,.T.);
#856=EDGE_CURVE('',#723,#722,#399,.T.);
#857=EDGE_CURVE('',#647,#723,#400,.T.);
#858=EDGE_CURVE('',#649,#724,#401,.T.);
#859=EDGE_CURVE('',#722,#724,#402,.T.);
#860=EDGE_CURVE('',#648,#725,#403,.T.);
#861=EDGE_CURVE('',#724,#725,#404,.T.);
#862=EDGE_CURVE('',#725,#723,#405,.T.);
#863=EDGE_CURVE('',#650,#726,#406,.T.);
#864=EDGE_CURVE('',#727,#726,#407,.T.);
#865=EDGE_CURVE('',#651,#727,#408,.T.);
#866=EDGE_CURVE('',#653,#728,#409,.T.);
#867=EDGE_CURVE('',#726,#728,#410,.T.);
#868=EDGE_CURVE('',#652,#729,#411,.T.);
#869=EDGE_CURVE('',#728,#729,#412,.T.);
#870=EDGE_CURVE('',#729,#727,#413,.T.);
#871=EDGE_CURVE('',#654,#730,#414,.T.);
#872=EDGE_CURVE('',#731,#730,#415,.T.);
#873=EDGE_CURVE('',#655,#731,#416,.T.);
#874=EDGE_CURVE('',#657,#732,#417,.T.);
#875=EDGE_CURVE('',#730,#732,#418,.T.);
#876=EDGE_CURVE('',#656,#733,#419,.T.);
#877=EDGE_CURVE('',#732,#733,#420,.T.);
#878=EDGE_CURVE('',#733,#731,#421,.T.);
#879=EDGE_CURVE('',#681,#684,#422,.T.);
#880=EDGE_CURVE('',#680,#687,#423,.T.);
#881=EDGE_CURVE('',#679,#690,#424,.T.);
#882=EDGE_CURVE('',#678,#705,#425,.T.);
#883=EDGE_CURVE('',#677,#696,#426,.T.);
#884=EDGE_CURVE('',#676,#699,#427,.T.);
#885=EDGE_CURVE('',#675,#734,#428,.T.);
#886=EDGE_CURVE('',#734,#734,#631,.T.);
#887=EDGE_CURVE('',#674,#735,#429,.T.);
#888=EDGE_CURVE('',#735,#735,#632,.T.);
#889=EDGE_CURVE('',#673,#736,#430,.T.);
#890=EDGE_CURVE('',#736,#736,#633,.T.);
#891=EDGE_CURVE('',#672,#737,#431,.T.);
#892=EDGE_CURVE('',#737,#737,#634,.T.);
#893=EDGE_CURVE('',#671,#708,#432,.T.);
#894=EDGE_CURVE('',#670,#702,#433,.T.);
#895=EDGE_CURVE('',#669,#693,#434,.T.);
#896=EDGE_CURVE('',#668,#711,#435,.T.);
#897=EDGE_CURVE('',#667,#714,#436,.T.);
#898=EDGE_CURVE('',#666,#717,#437,.T.);
#899=EDGE_CURVE('',#662,#738,#438,.T.);
#900=EDGE_CURVE('',#739,#738,#439,.T.);
#901=EDGE_CURVE('',#663,#739,#440,.T.);
#902=EDGE_CURVE('',#740,#739,#441,.T.);
#903=EDGE_CURVE('',#664,#740,#442,.T.);
#904=EDGE_CURVE('',#741,#740,#443,.T.);
#905=EDGE_CURVE('',#665,#741,#444,.T.);
#906=EDGE_CURVE('',#738,#741,#445,.T.);
#907=EDGE_CURVE('',#658,#742,#446,.T.);
#908=EDGE_CURVE('',#743,#742,#447,.T.);
#909=EDGE_CURVE('',#659,#743,#448,.T.);
#910=EDGE_CURVE('',#744,#743,#449,.T.);
#911=EDGE_CURVE('',#660,#744,#450,.T.);
#912=EDGE_CURVE('',#745,#744,#451,.T.);
#913=EDGE_CURVE('',#661,#745,#452,.T.);
#914=EDGE_CURVE('',#742,#745,#453,.T.);
#915=EDGE_CURVE('',#638,#746,#454,.T.);
#916=EDGE_CURVE('',#747,#746,#455,.T.);
#917=EDGE_CURVE('',#640,#747,#456,.T.);
#918=EDGE_CURVE('',#748,#747,#457,.T.);
#919=EDGE_CURVE('',#641,#748,#458,.T.);
#920=EDGE_CURVE('',#749,#748,#459,.T.);
#921=EDGE_CURVE('',#639,#749,#460,.T.);
#922=EDGE_CURVE('',#746,#749,#461,.T.);
#923=ORIENTED_EDGE('',*,*,#750,.T.);
#924=ORIENTED_EDGE('',*,*,#751,.T.);
#925=ORIENTED_EDGE('',*,*,#752,.T.);
#926=ORIENTED_EDGE('',*,*,#751,.F.);
#927=ORIENTED_EDGE('',*,*,#752,.F.);
#928=ORIENTED_EDGE('',*,*,#753,.T.);
#929=ORIENTED_EDGE('',*,*,#754,.F.);
#930=ORIENTED_EDGE('',*,*,#753,.F.);
#931=ORIENTED_EDGE('',*,*,#755,.F.);
#932=ORIENTED_EDGE('',*,*,#756,.F.);
#933=ORIENTED_EDGE('',*,*,#757,.F.);
#934=ORIENTED_EDGE('',*,*,#758,.F.);
#935=ORIENTED_EDGE('',*,*,#759,.T.);
#936=ORIENTED_EDGE('',*,*,#760,.T.);
#937=ORIENTED_EDGE('',*,*,#761,.T.);
#938=ORIENTED_EDGE('',*,*,#762,.T.);
#939=ORIENTED_EDGE('',*,*,#763,.T.);
#940=ORIENTED_EDGE('',*,*,#764,.T.);
#941=ORIENTED_EDGE('',*,*,#765,.T.);
#942=ORIENTED_EDGE('',*,*,#766,.T.);
#943=ORIENTED_EDGE('',*,*,#767,.T.);
#944=ORIENTED_EDGE('',*,*,#768,.T.);
#945=ORIENTED_EDGE('',*,*,#769,.T.);
#946=ORIENTED_EDGE('',*,*,#770,.T.);
#947=ORIENTED_EDGE('',*,*,#771,.T.);
#948=ORIENTED_EDGE('',*,*,#772,.T.);
#949=ORIENTED_EDGE('',*,*,#773,.T.);
#950=ORIENTED_EDGE('',*,*,#774,.T.);
#951=ORIENTED_EDGE('',*,*,#775,.T.);
#952=ORIENTED_EDGE('',*,*,#776,.T.);
#953=ORIENTED_EDGE('',*,*,#777,.T.);
#954=ORIENTED_EDGE('',*,*,#778,.T.);
#955=ORIENTED_EDGE('',*,*,#779,.T.);
#956=ORIENTED_EDGE('',*,*,#780,.T.);
#957=ORIENTED_EDGE('',*,*,#781,.T.);
#958=ORIENTED_EDGE('',*,*,#782,.T.);
#959=ORIENTED_EDGE('',*,*,#783,.T.);
#960=ORIENTED_EDGE('',*,*,#784,.T.);
#961=ORIENTED_EDGE('',*,*,#785,.T.);
#962=ORIENTED_EDGE('',*,*,#786,.T.);
#963=ORIENTED_EDGE('',*,*,#787,.T.);
#964=ORIENTED_EDGE('',*,*,#788,.T.);
#965=ORIENTED_EDGE('',*,*,#789,.T.);
#966=ORIENTED_EDGE('',*,*,#790,.T.);
#967=ORIENTED_EDGE('',*,*,#791,.T.);
#968=ORIENTED_EDGE('',*,*,#792,.T.);
#969=ORIENTED_EDGE('',*,*,#793,.T.);
#970=ORIENTED_EDGE('',*,*,#794,.T.);
#971=ORIENTED_EDGE('',*,*,#795,.T.);
#972=ORIENTED_EDGE('',*,*,#796,.T.);
#973=ORIENTED_EDGE('',*,*,#797,.T.);
#974=ORIENTED_EDGE('',*,*,#798,.T.);
#975=ORIENTED_EDGE('',*,*,#750,.F.);
#976=ORIENTED_EDGE('',*,*,#799,.F.);
#977=ORIENTED_EDGE('',*,*,#800,.T.);
#978=ORIENTED_EDGE('',*,*,#801,.T.);
#979=ORIENTED_EDGE('',*,*,#800,.F.);
#980=ORIENTED_EDGE('',*,*,#801,.F.);
#981=ORIENTED_EDGE('',*,*,#802,.F.);
#982=ORIENTED_EDGE('',*,*,#803,.F.);
#983=ORIENTED_EDGE('',*,*,#804,.T.);
#984=ORIENTED_EDGE('',*,*,#805,.T.);
#985=ORIENTED_EDGE('',*,*,#804,.F.);
#986=ORIENTED_EDGE('',*,*,#805,.F.);
#987=ORIENTED_EDGE('',*,*,#806,.F.);
#988=ORIENTED_EDGE('',*,*,#807,.F.);
#989=ORIENTED_EDGE('',*,*,#808,.T.);
#990=ORIENTED_EDGE('',*,*,#809,.T.);
#991=ORIENTED_EDGE('',*,*,#808,.F.);
#992=ORIENTED_EDGE('',*,*,#809,.F.);
#993=ORIENTED_EDGE('',*,*,#810,.F.);
#994=ORIENTED_EDGE('',*,*,#811,.F.);
#995=ORIENTED_EDGE('',*,*,#812,.T.);
#996=ORIENTED_EDGE('',*,*,#813,.T.);
#997=ORIENTED_EDGE('',*,*,#812,.F.);
#998=ORIENTED_EDGE('',*,*,#813,.F.);
#999=ORIENTED_EDGE('',*,*,#814,.F.);
#1000=ORIENTED_EDGE('',*,*,#815,.F.);
#1001=ORIENTED_EDGE('',*,*,#816,.T.);
#1002=ORIENTED_EDGE('',*,*,#817,.T.);
#1003=ORIENTED_EDGE('',*,*,#816,.F.);
#1004=ORIENTED_EDGE('',*,*,#817,.F.);
#1005=ORIENTED_EDGE('',*,*,#818,.F.);
#1006=ORIENTED_EDGE('',*,*,#819,.F.);
#1007=ORIENTED_EDGE('',*,*,#820,.T.);
#1008=ORIENTED_EDGE('',*,*,#821,.T.);
#1009=ORIENTED_EDGE('',*,*,#820,.F.);
#1010=ORIENTED_EDGE('',*,*,#821,.F.);
#1011=ORIENTED_EDGE('',*,*,#822,.F.);
#1012=ORIENTED_EDGE('',*,*,#823,.F.);
#1013=ORIENTED_EDGE('',*,*,#824,.T.);
#1014=ORIENTED_EDGE('',*,*,#825,.T.);
#1015=ORIENTED_EDGE('',*,*,#824,.F.);
#1016=ORIENTED_EDGE('',*,*,#825,.F.);
#1017=ORIENTED_EDGE('',*,*,#826,.F.);
#1018=ORIENTED_EDGE('',*,*,#827,.F.);
#1019=ORIENTED_EDGE('',*,*,#828,.T.);
#1020=ORIENTED_EDGE('',*,*,#829,.T.);
#1021=ORIENTED_EDGE('',*,*,#828,.F.);
#1022=ORIENTED_EDGE('',*,*,#829,.F.);
#1023=ORIENTED_EDGE('',*,*,#830,.F.);
#1024=ORIENTED_EDGE('',*,*,#831,.F.);
#1025=ORIENTED_EDGE('',*,*,#832,.T.);
#1026=ORIENTED_EDGE('',*,*,#833,.T.);
#1027=ORIENTED_EDGE('',*,*,#832,.F.);
#1028=ORIENTED_EDGE('',*,*,#833,.F.);
#1029=ORIENTED_EDGE('',*,*,#834,.F.);
#1030=ORIENTED_EDGE('',*,*,#835,.F.);
#1031=ORIENTED_EDGE('',*,*,#836,.T.);
#1032=ORIENTED_EDGE('',*,*,#837,.T.);
#1033=ORIENTED_EDGE('',*,*,#836,.F.);
#1034=ORIENTED_EDGE('',*,*,#837,.F.);
#1035=ORIENTED_EDGE('',*,*,#838,.F.);
#1036=ORIENTED_EDGE('',*,*,#839,.F.);
#1037=ORIENTED_EDGE('',*,*,#840,.T.);
#1038=ORIENTED_EDGE('',*,*,#841,.T.);
#1039=ORIENTED_EDGE('',*,*,#840,.F.);
#1040=ORIENTED_EDGE('',*,*,#841,.F.);
#1041=ORIENTED_EDGE('',*,*,#842,.F.);
#1042=ORIENTED_EDGE('',*,*,#843,.F.);
#1043=ORIENTED_EDGE('',*,*,#844,.T.);
#1044=ORIENTED_EDGE('',*,*,#845,.T.);
#1045=ORIENTED_EDGE('',*,*,#844,.F.);
#1046=ORIENTED_EDGE('',*,*,#845,.F.);
#1047=ORIENTED_EDGE('',*,*,#846,.F.);
#1048=ORIENTED_EDGE('',*,*,#759,.F.);
#1049=ORIENTED_EDGE('',*,*,#847,.T.);
#1050=ORIENTED_EDGE('',*,*,#848,.F.);
#1051=ORIENTED_EDGE('',*,*,#849,.F.);
#1052=ORIENTED_EDGE('',*,*,#762,.F.);
#1053=ORIENTED_EDGE('',*,*,#850,.T.);
#1054=ORIENTED_EDGE('',*,*,#851,.F.);
#1055=ORIENTED_EDGE('',*,*,#847,.F.);
#1056=ORIENTED_EDGE('',*,*,#761,.F.);
#1057=ORIENTED_EDGE('',*,*,#852,.T.);
#1058=ORIENTED_EDGE('',*,*,#853,.F.);
#1059=ORIENTED_EDGE('',*,*,#850,.F.);
#1060=ORIENTED_EDGE('',*,*,#760,.F.);
#1061=ORIENTED_EDGE('',*,*,#849,.T.);
#1062=ORIENTED_EDGE('',*,*,#854,.F.);
#1063=ORIENTED_EDGE('',*,*,#852,.F.);
#1064=ORIENTED_EDGE('',*,*,#763,.F.);
#1065=ORIENTED_EDGE('',*,*,#855,.T.);
#1066=ORIENTED_EDGE('',*,*,#856,.F.);
#1067=ORIENTED_EDGE('',*,*,#857,.F.);
#1068=ORIENTED_EDGE('',*,*,#766,.F.);
#1069=ORIENTED_EDGE('',*,*,#858,.T.);
#1070=ORIENTED_EDGE('',*,*,#859,.F.);
#1071=ORIENTED_EDGE('',*,*,#855,.F.);
#1072=ORIENTED_EDGE('',*,*,#765,.F.);
#1073=ORIENTED_EDGE('',*,*,#860,.T.);
#1074=ORIENTED_EDGE('',*,*,#861,.F.);
#1075=ORIENTED_EDGE('',*,*,#858,.F.);
#1076=ORIENTED_EDGE('',*,*,#764,.F.);
#1077=ORIENTED_EDGE('',*,*,#857,.T.);
#1078=ORIENTED_EDGE('',*,*,#862,.F.);
#1079=ORIENTED_EDGE('',*,*,#860,.F.);
#1080=ORIENTED_EDGE('',*,*,#767,.F.);
#1081=ORIENTED_EDGE('',*,*,#863,.T.);
#1082=ORIENTED_EDGE('',*,*,#864,.F.);
#1083=ORIENTED_EDGE('',*,*,#865,.F.);
#1084=ORIENTED_EDGE('',*,*,#770,.F.);
#1085=ORIENTED_EDGE('',*,*,#866,.T.);
#1086=ORIENTED_EDGE('',*,*,#867,.F.);
#1087=ORIENTED_EDGE('',*,*,#863,.F.);
#1088=ORIENTED_EDGE('',*,*,#769,.F.);
#1089=ORIENTED_EDGE('',*,*,#868,.T.);
#1090=ORIENTED_EDGE('',*,*,#869,.F.);
#1091=ORIENTED_EDGE('',*,*,#866,.F.);
#1092=ORIENTED_EDGE('',*,*,#768,.F.);
#1093=ORIENTED_EDGE('',*,*,#865,.T.);
#1094=ORIENTED_EDGE('',*,*,#870,.F.);
#1095=ORIENTED_EDGE('',*,*,#868,.F.);
#1096=ORIENTED_EDGE('',*,*,#771,.F.);
#1097=ORIENTED_EDGE('',*,*,#871,.T.);
#1098=ORIENTED_EDGE('',*,*,#872,.F.);
#1099=ORIENTED_EDGE('',*,*,#873,.F.);
#1100=ORIENTED_EDGE('',*,*,#774,.F.);
#1101=ORIENTED_EDGE('',*,*,#874,.T.);
#1102=ORIENTED_EDGE('',*,*,#875,.F.);
#1103=ORIENTED_EDGE('',*,*,#871,.F.);
#1104=ORIENTED_EDGE('',*,*,#773,.F.);
#1105=ORIENTED_EDGE('',*,*,#876,.T.);
#1106=ORIENTED_EDGE('',*,*,#877,.F.);
#1107=ORIENTED_EDGE('',*,*,#874,.F.);
#1108=ORIENTED_EDGE('',*,*,#772,.F.);
#1109=ORIENTED_EDGE('',*,*,#873,.T.);
#1110=ORIENTED_EDGE('',*,*,#878,.F.);
#1111=ORIENTED_EDGE('',*,*,#876,.F.);
#1112=ORIENTED_EDGE('',*,*,#798,.F.);
#1113=ORIENTED_EDGE('',*,*,#879,.T.);
#1114=ORIENTED_EDGE('',*,*,#802,.T.);
#1115=ORIENTED_EDGE('',*,*,#879,.F.);
#1116=ORIENTED_EDGE('',*,*,#797,.F.);
#1117=ORIENTED_EDGE('',*,*,#880,.T.);
#1118=ORIENTED_EDGE('',*,*,#806,.T.);
#1119=ORIENTED_EDGE('',*,*,#880,.F.);
#1120=ORIENTED_EDGE('',*,*,#796,.F.);
#1121=ORIENTED_EDGE('',*,*,#881,.T.);
#1122=ORIENTED_EDGE('',*,*,#810,.T.);
#1123=ORIENTED_EDGE('',*,*,#881,.F.);
#1124=ORIENTED_EDGE('',*,*,#795,.F.);
#1125=ORIENTED_EDGE('',*,*,#882,.T.);
#1126=ORIENTED_EDGE('',*,*,#830,.T.);
#1127=ORIENTED_EDGE('',*,*,#882,.F.);
#1128=ORIENTED_EDGE('',*,*,#794,.F.);
#1129=ORIENTED_EDGE('',*,*,#883,.T.);
#1130=ORIENTED_EDGE('',*,*,#818,.T.);
#1131=ORIENTED_EDGE('',*,*,#883,.F.);
#1132=ORIENTED_EDGE('',*,*,#793,.F.);
#1133=ORIENTED_EDGE('',*,*,#884,.T.);
#1134=ORIENTED_EDGE('',*,*,#822,.T.);
#1135=ORIENTED_EDGE('',*,*,#884,.F.);
#1136=ORIENTED_EDGE('',*,*,#792,.F.);
#1137=ORIENTED_EDGE('',*,*,#885,.T.);
#1138=ORIENTED_EDGE('',*,*,#886,.F.);
#1139=ORIENTED_EDGE('',*,*,#885,.F.);
#1140=ORIENTED_EDGE('',*,*,#791,.F.);
#1141=ORIENTED_EDGE('',*,*,#887,.T.);
#1142=ORIENTED_EDGE('',*,*,#888,.F.);
#1143=ORIENTED_EDGE('',*,*,#887,.F.);
#1144=ORIENTED_EDGE('',*,*,#790,.F.);
#1145=ORIENTED_EDGE('',*,*,#889,.T.);
#1146=ORIENTED_EDGE('',*,*,#890,.F.);
#1147=ORIENTED_EDGE('',*,*,#889,.F.);
#1148=ORIENTED_EDGE('',*,*,#789,.F.);
#1149=ORIENTED_EDGE('',*,*,#891,.T.);
#1150=ORIENTED_EDGE('',*,*,#892,.F.);
#1151=ORIENTED_EDGE('',*,*,#891,.F.);
#1152=ORIENTED_EDGE('',*,*,#788,.F.);
#1153=ORIENTED_EDGE('',*,*,#893,.T.);
#1154=ORIENTED_EDGE('',*,*,#834,.T.);
#1155=ORIENTED_EDGE('',*,*,#893,.F.);
#1156=ORIENTED_EDGE('',*,*,#787,.F.);
#1157=ORIENTED_EDGE('',*,*,#894,.T.);
#1158=ORIENTED_EDGE('',*,*,#826,.T.);
#1159=ORIENTED_EDGE('',*,*,#894,.F.);
#1160=ORIENTED_EDGE('',*,*,#786,.F.);
#1161=ORIENTED_EDGE('',*,*,#895,.T.);
#1162=ORIENTED_EDGE('',*,*,#814,.T.);
#1163=ORIENTED_EDGE('',*,*,#895,.F.);
#1164=ORIENTED_EDGE('',*,*,#785,.F.);
#1165=ORIENTED_EDGE('',*,*,#896,.T.);
#1166=ORIENTED_EDGE('',*,*,#838,.T.);
#1167=ORIENTED_EDGE('',*,*,#896,.F.);
#1168=ORIENTED_EDGE('',*,*,#784,.F.);
#1169=ORIENTED_EDGE('',*,*,#897,.T.);
#1170=ORIENTED_EDGE('',*,*,#842,.T.);
#1171=ORIENTED_EDGE('',*,*,#897,.F.);
#1172=ORIENTED_EDGE('',*,*,#783,.F.);
#1173=ORIENTED_EDGE('',*,*,#898,.T.);
#1174=ORIENTED_EDGE('',*,*,#846,.T.);
#1175=ORIENTED_EDGE('',*,*,#898,.F.);
#1176=ORIENTED_EDGE('',*,*,#779,.F.);
#1177=ORIENTED_EDGE('',*,*,#899,.T.);
#1178=ORIENTED_EDGE('',*,*,#900,.F.);
#1179=ORIENTED_EDGE('',*,*,#901,.F.);
#1180=ORIENTED_EDGE('',*,*,#780,.F.);
#1181=ORIENTED_EDGE('',*,*,#901,.T.);
#1182=ORIENTED_EDGE('',*,*,#902,.F.);
#1183=ORIENTED_EDGE('',*,*,#903,.F.);
#1184=ORIENTED_EDGE('',*,*,#781,.F.);
#1185=ORIENTED_EDGE('',*,*,#903,.T.);
#1186=ORIENTED_EDGE('',*,*,#904,.F.);
#1187=ORIENTED_EDGE('',*,*,#905,.F.);
#1188=ORIENTED_EDGE('',*,*,#782,.F.);
#1189=ORIENTED_EDGE('',*,*,#905,.T.);
#1190=ORIENTED_EDGE('',*,*,#906,.F.);
#1191=ORIENTED_EDGE('',*,*,#899,.F.);
#1192=ORIENTED_EDGE('',*,*,#906,.T.);
#1193=ORIENTED_EDGE('',*,*,#904,.T.);
#1194=ORIENTED_EDGE('',*,*,#902,.T.);
#1195=ORIENTED_EDGE('',*,*,#900,.T.);
#1196=ORIENTED_EDGE('',*,*,#775,.F.);
#1197=ORIENTED_EDGE('',*,*,#907,.T.);
#1198=ORIENTED_EDGE('',*,*,#908,.F.);
#1199=ORIENTED_EDGE('',*,*,#909,.F.);
#1200=ORIENTED_EDGE('',*,*,#776,.F.);
#1201=ORIENTED_EDGE('',*,*,#909,.T.);
#1202=ORIENTED_EDGE('',*,*,#910,.F.);
#1203=ORIENTED_EDGE('',*,*,#911,.F.);
#1204=ORIENTED_EDGE('',*,*,#777,.F.);
#1205=ORIENTED_EDGE('',*,*,#911,.T.);
#1206=ORIENTED_EDGE('',*,*,#912,.F.);
#1207=ORIENTED_EDGE('',*,*,#913,.F.);
#1208=ORIENTED_EDGE('',*,*,#778,.F.);
#1209=ORIENTED_EDGE('',*,*,#913,.T.);
#1210=ORIENTED_EDGE('',*,*,#914,.F.);
#1211=ORIENTED_EDGE('',*,*,#907,.F.);
#1212=ORIENTED_EDGE('',*,*,#914,.T.);
#1213=ORIENTED_EDGE('',*,*,#912,.T.);
#1214=ORIENTED_EDGE('',*,*,#910,.T.);
#1215=ORIENTED_EDGE('',*,*,#908,.T.);
#1216=ORIENTED_EDGE('',*,*,#756,.T.);
#1217=ORIENTED_EDGE('',*,*,#915,.T.);
#1218=ORIENTED_EDGE('',*,*,#916,.F.);
#1219=ORIENTED_EDGE('',*,*,#917,.F.);
#1220=ORIENTED_EDGE('',*,*,#757,.T.);
#1221=ORIENTED_EDGE('',*,*,#917,.T.);
#1222=ORIENTED_EDGE('',*,*,#918,.F.);
#1223=ORIENTED_EDGE('',*,*,#919,.F.);
#1224=ORIENTED_EDGE('',*,*,#758,.T.);
#1225=ORIENTED_EDGE('',*,*,#919,.T.);
#1226=ORIENTED_EDGE('',*,*,#920,.F.);
#1227=ORIENTED_EDGE('',*,*,#921,.F.);
#1228=ORIENTED_EDGE('',*,*,#755,.T.);
#1229=ORIENTED_EDGE('',*,*,#921,.T.);
#1230=ORIENTED_EDGE('',*,*,#922,.F.);
#1231=ORIENTED_EDGE('',*,*,#915,.F.);
#1232=ORIENTED_EDGE('',*,*,#922,.T.);
#1233=ORIENTED_EDGE('',*,*,#920,.T.);
#1234=ORIENTED_EDGE('',*,*,#918,.T.);
#1235=ORIENTED_EDGE('',*,*,#916,.T.);
#1236=ORIENTED_EDGE('',*,*,#848,.T.);
#1237=ORIENTED_EDGE('',*,*,#851,.T.);
#1238=ORIENTED_EDGE('',*,*,#853,.T.);
#1239=ORIENTED_EDGE('',*,*,#854,.T.);
#1240=ORIENTED_EDGE('',*,*,#856,.T.);
#1241=ORIENTED_EDGE('',*,*,#859,.T.);
#1242=ORIENTED_EDGE('',*,*,#861,.T.);
#1243=ORIENTED_EDGE('',*,*,#862,.T.);
#1244=ORIENTED_EDGE('',*,*,#864,.T.);
#1245=ORIENTED_EDGE('',*,*,#867,.T.);
#1246=ORIENTED_EDGE('',*,*,#869,.T.);
#1247=ORIENTED_EDGE('',*,*,#870,.T.);
#1248=ORIENTED_EDGE('',*,*,#872,.T.);
#1249=ORIENTED_EDGE('',*,*,#875,.T.);
#1250=ORIENTED_EDGE('',*,*,#877,.T.);
#1251=ORIENTED_EDGE('',*,*,#878,.T.);
#1252=ORIENTED_EDGE('',*,*,#754,.T.);
#1253=ORIENTED_EDGE('',*,*,#892,.T.);
#1254=ORIENTED_EDGE('',*,*,#890,.T.);
#1255=ORIENTED_EDGE('',*,*,#888,.T.);
#1256=ORIENTED_EDGE('',*,*,#886,.T.);
#1257=ORIENTED_EDGE('',*,*,#843,.T.);
#1258=ORIENTED_EDGE('',*,*,#839,.T.);
#1259=ORIENTED_EDGE('',*,*,#835,.T.);
#1260=ORIENTED_EDGE('',*,*,#831,.T.);
#1261=ORIENTED_EDGE('',*,*,#827,.T.);
#1262=ORIENTED_EDGE('',*,*,#823,.T.);
#1263=ORIENTED_EDGE('',*,*,#819,.T.);
#1264=ORIENTED_EDGE('',*,*,#815,.T.);
#1265=ORIENTED_EDGE('',*,*,#811,.T.);
#1266=ORIENTED_EDGE('',*,*,#807,.T.);
#1267=ORIENTED_EDGE('',*,*,#803,.T.);
#1268=ORIENTED_EDGE('',*,*,#799,.T.);
#1269=CONICAL_SURFACE('',#1358,58.5,0.785398163397448);
#1270=ADVANCED_FACE('',(#144),#1269,.F.);
#1271=ADVANCED_FACE('',(#145),#115,.F.);
#1272=ADVANCED_FACE('',(#146,#15,#16,#17,#18,#19,#20,#21,#22,#23,#24,#25,
#26,#27,#28,#29,#30,#31,#32,#33,#34,#35,#36,#37),#71,.F.);
#1273=ADVANCED_FACE('',(#147),#116,.F.);
#1274=ADVANCED_FACE('',(#148,#38),#72,.T.);
#1275=ADVANCED_FACE('',(#149),#117,.F.);
#1276=ADVANCED_FACE('',(#150,#39),#73,.T.);
#1277=ADVANCED_FACE('',(#151),#118,.F.);
#1278=ADVANCED_FACE('',(#152,#40),#74,.T.);
#1279=ADVANCED_FACE('',(#153),#119,.F.);
#1280=ADVANCED_FACE('',(#154,#41),#75,.T.);
#1281=ADVANCED_FACE('',(#155),#120,.F.);
#1282=ADVANCED_FACE('',(#156,#42),#76,.T.);
#1283=ADVANCED_FACE('',(#157),#121,.F.);
#1284=ADVANCED_FACE('',(#158,#43),#77,.T.);
#1285=ADVANCED_FACE('',(#159),#122,.F.);
#1286=ADVANCED_FACE('',(#160,#44),#78,.T.);
#1287=ADVANCED_FACE('',(#161),#123,.F.);
#1288=ADVANCED_FACE('',(#162,#45),#79,.T.);
#1289=ADVANCED_FACE('',(#163),#124,.F.);
#1290=ADVANCED_FACE('',(#164,#46),#80,.T.);
#1291=ADVANCED_FACE('',(#165),#125,.F.);
#1292=ADVANCED_FACE('',(#166,#47),#81,.T.);
#1293=ADVANCED_FACE('',(#167),#126,.F.);
#1294=ADVANCED_FACE('',(#168,#48),#82,.T.);
#1295=ADVANCED_FACE('',(#169),#127,.F.);
#1296=ADVANCED_FACE('',(#170,#49),#83,.T.);
#1297=ADVANCED_FACE('',(#171),#84,.F.);
#1298=ADVANCED_FACE('',(#172),#85,.F.);
#1299=ADVANCED_FACE('',(#173),#86,.F.);
#1300=ADVANCED_FACE('',(#174),#87,.F.);
#1301=ADVANCED_FACE('',(#175),#88,.F.);
#1302=ADVANCED_FACE('',(#176),#89,.F.);
#1303=ADVANCED_FACE('',(#177),#90,.F.);
#1304=ADVANCED_FACE('',(#178),#91,.F.);
#1305=ADVANCED_FACE('',(#179),#92,.F.);
#1306=ADVANCED_FACE('',(#180),#93,.F.);
#1307=ADVANCED_FACE('',(#181),#94,.F.);
#1308=ADVANCED_FACE('',(#182),#95,.F.);
#1309=ADVANCED_FACE('',(#183),#96,.F.);
#1310=ADVANCED_FACE('',(#184),#97,.F.);
#1311=ADVANCED_FACE('',(#185),#98,.F.);
#1312=ADVANCED_FACE('',(#186),#99,.F.);
#1313=ADVANCED_FACE('',(#187),#128,.F.);
#1314=ADVANCED_FACE('',(#188),#129,.F.);
#1315=ADVANCED_FACE('',(#189),#130,.F.);
#1316=ADVANCED_FACE('',(#190),#131,.F.);
#1317=ADVANCED_FACE('',(#191),#132,.F.);
#1318=ADVANCED_FACE('',(#192),#133,.F.);
#1319=ADVANCED_FACE('',(#193),#134,.F.);
#1320=ADVANCED_FACE('',(#194),#135,.F.);
#1321=ADVANCED_FACE('',(#195),#136,.F.);
#1322=ADVANCED_FACE('',(#196),#137,.F.);
#1323=ADVANCED_FACE('',(#197),#138,.F.);
#1324=ADVANCED_FACE('',(#198),#139,.F.);
#1325=ADVANCED_FACE('',(#199),#140,.F.);
#1326=ADVANCED_FACE('',(#200),#141,.F.);
#1327=ADVANCED_FACE('',(#201),#142,.F.);
#1328=ADVANCED_FACE('',(#202),#143,.F.);
#1329=ADVANCED_FACE('',(#203),#100,.T.);
#1330=ADVANCED_FACE('',(#204),#101,.T.);
#1331=ADVANCED_FACE('',(#205),#102,.T.);
#1332=ADVANCED_FACE('',(#206),#103,.T.);
#1333=ADVANCED_FACE('',(#207),#104,.T.);
#1334=ADVANCED_FACE('',(#208),#105,.T.);
#1335=ADVANCED_FACE('',(#209),#106,.T.);
#1336=ADVANCED_FACE('',(#210),#107,.T.);
#1337=ADVANCED_FACE('',(#211),#108,.T.);
#1338=ADVANCED_FACE('',(#212),#109,.T.);
#1339=ADVANCED_FACE('',(#213),#110,.T.);
#1340=ADVANCED_FACE('',(#214),#111,.T.);
#1341=ADVANCED_FACE('',(#215),#112,.T.);
#1342=ADVANCED_FACE('',(#216),#113,.T.);
#1343=ADVANCED_FACE('',(#217,#50,#51,#52,#53,#54,#55,#56,#57,#58,#59,#60,
#61,#62,#63,#64,#65,#66,#67,#68,#69,#70),#114,.T.);
#1344=CLOSED_SHELL('',(#1270,#1271,#1272,#1273,#1274,#1275,#1276,#1277,
#1278,#1279,#1280,#1281,#1282,#1283,#1284,#1285,#1286,#1287,#1288,#1289,
#1290,#1291,#1292,#1293,#1294,#1295,#1296,#1297,#1298,#1299,#1300,#1301,
#1302,#1303,#1304,#1305,#1306,#1307,#1308,#1309,#1310,#1311,#1312,#1313,
#1314,#1315,#1316,#1317,#1318,#1319,#1320,#1321,#1322,#1323,#1324,#1325,
#1326,#1327,#1328,#1329,#1330,#1331,#1332,#1333,#1334,#1335,#1336,#1337,
#1338,#1339,#1340,#1341,#1342,#1343));
#1345=DERIVED_UNIT_ELEMENT(#1347,1.);
#1346=DERIVED_UNIT_ELEMENT(#2241,-3.);
#1347=(
MASS_UNIT()
NAMED_UNIT(*)
SI_UNIT(.KILO.,.GRAM.)
);
#1348=DERIVED_UNIT((#1345,#1346));
#1349=MEASURE_REPRESENTATION_ITEM('density measure',
POSITIVE_RATIO_MEASURE(7850.),#1348);
#1350=PROPERTY_DEFINITION_REPRESENTATION(#1355,#1352);
#1351=PROPERTY_DEFINITION_REPRESENTATION(#1356,#1353);
#1352=REPRESENTATION('material name',(#1354),#2238);
#1353=REPRESENTATION('density',(#1349),#2238);
#1354=DESCRIPTIVE_REPRESENTATION_ITEM('Steel','Steel');
#1355=PROPERTY_DEFINITION('material property','material name',#2248);
#1356=PROPERTY_DEFINITION('material property','density of part',#2248);
#1357=AXIS2_PLACEMENT_3D('',#1873,#1491,#1492);
#1358=AXIS2_PLACEMENT_3D('',#1874,#1493,#1494);
#1359=AXIS2_PLACEMENT_3D('',#1876,#1495,#1496);
#1360=AXIS2_PLACEMENT_3D('',#1879,#1498,#1499);
#1361=AXIS2_PLACEMENT_3D('',#1880,#1500,#1501);
#1362=AXIS2_PLACEMENT_3D('',#1883,#1503,#1504);
#1363=AXIS2_PLACEMENT_3D('',#1884,#1505,#1506);
#1364=AXIS2_PLACEMENT_3D('',#1942,#1535,#1536);
#1365=AXIS2_PLACEMENT_3D('',#1944,#1537,#1538);
#1366=AXIS2_PLACEMENT_3D('',#1946,#1539,#1540);
#1367=AXIS2_PLACEMENT_3D('',#1948,#1541,#1542);
#1368=AXIS2_PLACEMENT_3D('',#1950,#1543,#1544);
#1369=AXIS2_PLACEMENT_3D('',#1952,#1545,#1546);
#1370=AXIS2_PLACEMENT_3D('',#1954,#1547,#1548);
#1371=AXIS2_PLACEMENT_3D('',#1956,#1549,#1550);
#1372=AXIS2_PLACEMENT_3D('',#1958,#1551,#1552);
#1373=AXIS2_PLACEMENT_3D('',#1960,#1553,#1554);
#1374=AXIS2_PLACEMENT_3D('',#1962,#1555,#1556);
#1375=AXIS2_PLACEMENT_3D('',#1964,#1557,#1558);
#1376=AXIS2_PLACEMENT_3D('',#1966,#1559,#1560);
#1377=AXIS2_PLACEMENT_3D('',#1968,#1561,#1562);
#1378=AXIS2_PLACEMENT_3D('',#1970,#1563,#1564);
#1379=AXIS2_PLACEMENT_3D('',#1972,#1565,#1566);
#1380=AXIS2_PLACEMENT_3D('',#1973,#1567,#1568);
#1381=AXIS2_PLACEMENT_3D('',#1975,#1569,#1570);
#1382=AXIS2_PLACEMENT_3D('',#1978,#1572,#1573);
#1383=AXIS2_PLACEMENT_3D('',#1979,#1574,#1575);
#1384=AXIS2_PLACEMENT_3D('',#1981,#1576,#1577);
#1385=AXIS2_PLACEMENT_3D('',#1982,#1578,#1579);
#1386=AXIS2_PLACEMENT_3D('',#1984,#1580,#1581);
#1387=AXIS2_PLACEMENT_3D('',#1987,#1583,#1584);
#1388=AXIS2_PLACEMENT_3D('',#1988,#1585,#1586);
#1389=AXIS2_PLACEMENT_3D('',#1990,#1587,#1588);
#1390=AXIS2_PLACEMENT_3D('',#1991,#1589,#1590);
#1391=AXIS2_PLACEMENT_3D('',#1993,#1591,#1592);
#1392=AXIS2_PLACEMENT_3D('',#1996,#1594,#1595);
#1393=AXIS2_PLACEMENT_3D('',#1997,#1596,#1597);
#1394=AXIS2_PLACEMENT_3D('',#1999,#1598,#1599);
#1395=AXIS2_PLACEMENT_3D('',#2000,#1600,#1601);
#1396=AXIS2_PLACEMENT_3D('',#2002,#1602,#1603);
#1397=AXIS2_PLACEMENT_3D('',#2005,#1605,#1606);
#1398=AXIS2_PLACEMENT_3D('',#2006,#1607,#1608);
#1399=AXIS2_PLACEMENT_3D('',#2008,#1609,#1610);
#1400=AXIS2_PLACEMENT_3D('',#2009,#1611,#1612);
#1401=AXIS2_PLACEMENT_3D('',#2011,#1613,#1614);
#1402=AXIS2_PLACEMENT_3D('',#2014,#1616,#1617);
#1403=AXIS2_PLACEMENT_3D('',#2015,#1618,#1619);
#1404=AXIS2_PLACEMENT_3D('',#2017,#1620,#1621);
#1405=AXIS2_PLACEMENT_3D('',#2018,#1622,#1623);
#1406=AXIS2_PLACEMENT_3D('',#2020,#1624,#1625);
#1407=AXIS2_PLACEMENT_3D('',#2023,#1627,#1628);
#1408=AXIS2_PLACEMENT_3D('',#2024,#1629,#1630);
#1409=AXIS2_PLACEMENT_3D('',#2026,#1631,#1632);
#1410=AXIS2_PLACEMENT_3D('',#2027,#1633,#1634);
#1411=AXIS2_PLACEMENT_3D('',#2029,#1635,#1636);
#1412=AXIS2_PLACEMENT_3D('',#2032,#1638,#1639);
#1413=AXIS2_PLACEMENT_3D('',#2033,#1640,#1641);
#1414=AXIS2_PLACEMENT_3D('',#2035,#1642,#1643);
#1415=AXIS2_PLACEMENT_3D('',#2036,#1644,#1645);
#1416=AXIS2_PLACEMENT_3D('',#2038,#1646,#1647);
#1417=AXIS2_PLACEMENT_3D('',#2041,#1649,#1650);
#1418=AXIS2_PLACEMENT_3D('',#2042,#1651,#1652);
#1419=AXIS2_PLACEMENT_3D('',#2044,#1653,#1654);
#1420=AXIS2_PLACEMENT_3D('',#2045,#1655,#1656);
#1421=AXIS2_PLACEMENT_3D('',#2047,#1657,#1658);
#1422=AXIS2_PLACEMENT_3D('',#2050,#1660,#1661);
#1423=AXIS2_PLACEMENT_3D('',#2051,#1662,#1663);
#1424=AXIS2_PLACEMENT_3D('',#2053,#1664,#1665);
#1425=AXIS2_PLACEMENT_3D('',#2054,#1666,#1667);
#1426=AXIS2_PLACEMENT_3D('',#2056,#1668,#1669);
#1427=AXIS2_PLACEMENT_3D('',#2059,#1671,#1672);
#1428=AXIS2_PLACEMENT_3D('',#2060,#1673,#1674);
#1429=AXIS2_PLACEMENT_3D('',#2062,#1675,#1676);
#1430=AXIS2_PLACEMENT_3D('',#2063,#1677,#1678);
#1431=AXIS2_PLACEMENT_3D('',#2065,#1679,#1680);
#1432=AXIS2_PLACEMENT_3D('',#2068,#1682,#1683);
#1433=AXIS2_PLACEMENT_3D('',#2069,#1684,#1685);
#1434=AXIS2_PLACEMENT_3D('',#2071,#1686,#1687);
#1435=AXIS2_PLACEMENT_3D('',#2072,#1688,#1689);
#1436=AXIS2_PLACEMENT_3D('',#2074,#1690,#1691);
#1437=AXIS2_PLACEMENT_3D('',#2077,#1693,#1694);
#1438=AXIS2_PLACEMENT_3D('',#2078,#1695,#1696);
#1439=AXIS2_PLACEMENT_3D('',#2080,#1697,#1698);
#1440=AXIS2_PLACEMENT_3D('',#2081,#1699,#1700);
#1441=AXIS2_PLACEMENT_3D('',#2087,#1704,#1705);
#1442=AXIS2_PLACEMENT_3D('',#2091,#1708,#1709);
#1443=AXIS2_PLACEMENT_3D('',#2095,#1712,#1713);
#1444=AXIS2_PLACEMENT_3D('',#2097,#1715,#1716);
#1445=AXIS2_PLACEMENT_3D('',#2103,#1720,#1721);
#1446=AXIS2_PLACEMENT_3D('',#2107,#1724,#1725);
#1447=AXIS2_PLACEMENT_3D('',#2111,#1728,#1729);
#1448=AXIS2_PLACEMENT_3D('',#2113,#1731,#1732);
#1449=AXIS2_PLACEMENT_3D('',#2119,#1736,#1737);
#1450=AXIS2_PLACEMENT_3D('',#2123,#1740,#1741);
#1451=AXIS2_PLACEMENT_3D('',#2127,#1744,#1745);
#1452=AXIS2_PLACEMENT_3D('',#2129,#1747,#1748);
#1453=AXIS2_PLACEMENT_3D('',#2135,#1752,#1753);
#1454=AXIS2_PLACEMENT_3D('',#2139,#1756,#1757);
#1455=AXIS2_PLACEMENT_3D('',#2143,#1760,#1761);
#1456=AXIS2_PLACEMENT_3D('',#2145,#1763,#1764);
#1457=AXIS2_PLACEMENT_3D('',#2147,#1766,#1767);
#1458=AXIS2_PLACEMENT_3D('',#2149,#1769,#1770);
#1459=AXIS2_PLACEMENT_3D('',#2151,#1772,#1773);
#1460=AXIS2_PLACEMENT_3D('',#2153,#1775,#1776);
#1461=AXIS2_PLACEMENT_3D('',#2155,#1778,#1779);
#1462=AXIS2_PLACEMENT_3D('',#2157,#1781,#1782);
#1463=AXIS2_PLACEMENT_3D('',#2160,#1784,#1785);
#1464=AXIS2_PLACEMENT_3D('',#2161,#1786,#1787);
#1465=AXIS2_PLACEMENT_3D('',#2164,#1789,#1790);
#1466=AXIS2_PLACEMENT_3D('',#2165,#1791,#1792);
#1467=AXIS2_PLACEMENT_3D('',#2168,#1794,#1795);
#1468=AXIS2_PLACEMENT_3D('',#2169,#1796,#1797);
#1469=AXIS2_PLACEMENT_3D('',#2172,#1799,#1800);
#1470=AXIS2_PLACEMENT_3D('',#2173,#1801,#1802);
#1471=AXIS2_PLACEMENT_3D('',#2175,#1804,#1805);
#1472=AXIS2_PLACEMENT_3D('',#2177,#1807,#1808);
#1473=AXIS2_PLACEMENT_3D('',#2179,#1810,#1811);
#1474=AXIS2_PLACEMENT_3D('',#2181,#1813,#1814);
#1475=AXIS2_PLACEMENT_3D('',#2183,#1816,#1817);
#1476=AXIS2_PLACEMENT_3D('',#2185,#1819,#1820);
#1477=AXIS2_PLACEMENT_3D('',#2191,#1824,#1825);
#1478=AXIS2_PLACEMENT_3D('',#2195,#1828,#1829);
#1479=AXIS2_PLACEMENT_3D('',#2199,#1832,#1833);
#1480=AXIS2_PLACEMENT_3D('',#2201,#1835,#1836);
#1481=AXIS2_PLACEMENT_3D('',#2202,#1837,#1838);
#1482=AXIS2_PLACEMENT_3D('',#2208,#1842,#1843);
#1483=AXIS2_PLACEMENT_3D('',#2212,#1846,#1847);
#1484=AXIS2_PLACEMENT_3D('',#2216,#1850,#1851);
#1485=AXIS2_PLACEMENT_3D('',#2218,#1853,#1854);
#1486=AXIS2_PLACEMENT_3D('',#2219,#1855,#1856);
#1487=AXIS2_PLACEMENT_3D('',#2225,#1860,#1861);
#1488=AXIS2_PLACEMENT_3D('',#2229,#1864,#1865);
#1489=AXIS2_PLACEMENT_3D('',#2233,#1868,#1869);
#1490=AXIS2_PLACEMENT_3D('',#2235,#1871,#1872);
#1491=DIRECTION('axis',(0.,0.,1.));
#1492=DIRECTION('refdir',(1.,0.,0.));
#1493=DIRECTION('center_axis',(0.,0.,-1.));
#1494=DIRECTION('ref_axis',(1.,0.,0.));
#1495=DIRECTION('center_axis',(0.,0.,-1.));
#1496=DIRECTION('ref_axis',(1.,0.,0.));
#1497=DIRECTION('',(0.707106781186547,-8.65956056235493E-17,0.707106781186548));
#1498=DIRECTION('center_axis',(0.,0.,1.));
#1499=DIRECTION('ref_axis',(1.,0.,0.));
#1500=DIRECTION('center_axis',(0.,0.,1.));
#1501=DIRECTION('ref_axis',(1.,0.,0.));
#1502=DIRECTION('',(0.,0.,1.));
#1503=DIRECTION('center_axis',(0.,0.,-1.));
#1504=DIRECTION('ref_axis',(1.,0.,0.));
#1505=DIRECTION('center_axis',(0.,0.,1.));
#1506=DIRECTION('ref_axis',(1.,0.,0.));
#1507=DIRECTION('',(0.,-1.,0.));
#1508=DIRECTION('',(-1.,0.,0.));
#1509=DIRECTION('',(0.,1.,0.));
#1510=DIRECTION('',(1.,0.,0.));
#1511=DIRECTION('',(-1.,0.,0.));
#1512=DIRECTION('',(0.,-1.,0.));
#1513=DIRECTION('',(1.,0.,0.));
#1514=DIRECTION('',(0.,1.,0.));
#1515=DIRECTION('',(-1.,0.,0.));
#1516=DIRECTION('',(0.,-1.,0.));
#1517=DIRECTION('',(1.,0.,0.));
#1518=DIRECTION('',(0.,1.,0.));
#1519=DIRECTION('',(-1.,0.,0.));
#1520=DIRECTION('',(0.,-1.,0.));
#1521=DIRECTION('',(1.,0.,0.));
#1522=DIRECTION('',(0.,1.,0.));
#1523=DIRECTION('',(-1.,0.,0.));
#1524=DIRECTION('',(0.,-1.,0.));
#1525=DIRECTION('',(1.,0.,0.));
#1526=DIRECTION('',(0.,1.,0.));
#1527=DIRECTION('',(1.,0.,0.));
#1528=DIRECTION('',(0.,1.,0.));
#1529=DIRECTION('',(-1.,0.,0.));
#1530=DIRECTION('',(0.,-1.,0.));
#1531=DIRECTION('',(1.,0.,0.));
#1532=DIRECTION('',(0.,1.,0.));
#1533=DIRECTION('',(-1.,0.,0.));
#1534=DIRECTION('',(0.,-1.,0.));
#1535=DIRECTION('center_axis',(0.,0.,1.));
#1536=DIRECTION('ref_axis',(1.,0.,0.));
#1537=DIRECTION('center_axis',(0.,0.,1.));
#1538=DIRECTION('ref_axis',(1.,0.,0.));
#1539=DIRECTION('center_axis',(0.,0.,1.));
#1540=DIRECTION('ref_axis',(1.,0.,0.));
#1541=DIRECTION('center_axis',(0.,0.,1.));
#1542=DIRECTION('ref_axis',(1.,0.,0.));
#1543=DIRECTION('center_axis',(0.,0.,1.));
#1544=DIRECTION('ref_axis',(1.,0.,0.));
#1545=DIRECTION('center_axis',(0.,0.,1.));
#1546=DIRECTION('ref_axis',(1.,0.,0.));
#1547=DIRECTION('center_axis',(0.,0.,1.));
#1548=DIRECTION('ref_axis',(1.,0.,0.));
#1549=DIRECTION('center_axis',(0.,0.,1.));
#1550=DIRECTION('ref_axis',(1.,0.,0.));
#1551=DIRECTION('center_axis',(0.,0.,1.));
#1552=DIRECTION('ref_axis',(1.,0.,0.));
#1553=DIRECTION('center_axis',(0.,0.,1.));
#1554=DIRECTION('ref_axis',(1.,0.,0.));
#1555=DIRECTION('center_axis',(0.,0.,1.));
#1556=DIRECTION('ref_axis',(1.,0.,0.));
#1557=DIRECTION('center_axis',(0.,0.,1.));
#1558=DIRECTION('ref_axis',(1.,0.,0.));
#1559=DIRECTION('center_axis',(0.,0.,1.));
#1560=DIRECTION('ref_axis',(1.,0.,0.));
#1561=DIRECTION('center_axis',(0.,0.,1.));
#1562=DIRECTION('ref_axis',(1.,0.,0.));
#1563=DIRECTION('center_axis',(0.,0.,1.));
#1564=DIRECTION('ref_axis',(1.,0.,0.));
#1565=DIRECTION('center_axis',(0.,0.,1.));
#1566=DIRECTION('ref_axis',(1.,0.,0.));
#1567=DIRECTION('center_axis',(0.,0.,-1.));
#1568=DIRECTION('ref_axis',(1.,0.,0.));
#1569=DIRECTION('center_axis',(0.,0.,-1.));
#1570=DIRECTION('ref_axis',(1.,0.,0.));
#1571=DIRECTION('',(0.,0.,-1.));
#1572=DIRECTION('center_axis',(0.,0.,-1.));
#1573=DIRECTION('ref_axis',(1.,0.,0.));
#1574=DIRECTION('center_axis',(0.,0.,1.));
#1575=DIRECTION('ref_axis',(1.,0.,0.));
#1576=DIRECTION('center_axis',(0.,0.,1.));
#1577=DIRECTION('ref_axis',(1.,0.,0.));
#1578=DIRECTION('center_axis',(0.,0.,-1.));
#1579=DIRECTION('ref_axis',(1.,0.,0.));
#1580=DIRECTION('center_axis',(0.,0.,-1.));
#1581=DIRECTION('ref_axis',(1.,0.,0.));
#1582=DIRECTION('',(0.,0.,-1.));
#1583=DIRECTION('center_axis',(0.,0.,-1.));
#1584=DIRECTION('ref_axis',(1.,0.,0.));
#1585=DIRECTION('center_axis',(0.,0.,1.));
#1586=DIRECTION('ref_axis',(1.,0.,0.));
#1587=DIRECTION('center_axis',(0.,0.,1.));
#1588=DIRECTION('ref_axis',(1.,0.,0.));
#1589=DIRECTION('center_axis',(0.,0.,-1.));
#1590=DIRECTION('ref_axis',(1.,0.,0.));
#1591=DIRECTION('center_axis',(0.,0.,-1.));
#1592=DIRECTION('ref_axis',(1.,0.,0.));
#1593=DIRECTION('',(0.,0.,-1.));
#1594=DIRECTION('center_axis',(0.,0.,-1.));
#1595=DIRECTION('ref_axis',(1.,0.,0.));
#1596=DIRECTION('center_axis',(0.,0.,1.));
#1597=DIRECTION('ref_axis',(1.,0.,0.));
#1598=DIRECTION('center_axis',(0.,0.,1.));
#1599=DIRECTION('ref_axis',(1.,0.,0.));
#1600=DIRECTION('center_axis',(0.,0.,-1.));
#1601=DIRECTION('ref_axis',(1.,0.,0.));
#1602=DIRECTION('center_axis',(0.,0.,-1.));
#1603=DIRECTION('ref_axis',(1.,0.,0.));
#1604=DIRECTION('',(0.,0.,-1.));
#1605=DIRECTION('center_axis',(0.,0.,-1.));
#1606=DIRECTION('ref_axis',(1.,0.,0.));
#1607=DIRECTION('center_axis',(0.,0.,1.));
#1608=DIRECTION('ref_axis',(1.,0.,0.));
#1609=DIRECTION('center_axis',(0.,0.,1.));
#1610=DIRECTION('ref_axis',(1.,0.,0.));
#1611=DIRECTION('center_axis',(0.,0.,-1.));
#1612=DIRECTION('ref_axis',(1.,0.,0.));
#1613=DIRECTION('center_axis',(0.,0.,-1.));
#1614=DIRECTION('ref_axis',(1.,0.,0.));
#1615=DIRECTION('',(0.,0.,-1.));
#1616=DIRECTION('center_axis',(0.,0.,-1.));
#1617=DIRECTION('ref_axis',(1.,0.,0.));
#1618=DIRECTION('center_axis',(0.,0.,1.));
#1619=DIRECTION('ref_axis',(1.,0.,0.));
#1620=DIRECTION('center_axis',(0.,0.,1.));
#1621=DIRECTION('ref_axis',(1.,0.,0.));
#1622=DIRECTION('center_axis',(0.,0.,-1.));
#1623=DIRECTION('ref_axis',(1.,0.,0.));
#1624=DIRECTION('center_axis',(0.,0.,-1.));
#1625=DIRECTION('ref_axis',(1.,0.,0.));
#1626=DIRECTION('',(0.,0.,-1.));
#1627=DIRECTION('center_axis',(0.,0.,-1.));
#1628=DIRECTION('ref_axis',(1.,0.,0.));
#1629=DIRECTION('center_axis',(0.,0.,1.));
#1630=DIRECTION('ref_axis',(1.,0.,0.));
#1631=DIRECTION('center_axis',(0.,0.,1.));
#1632=DIRECTION('ref_axis',(1.,0.,0.));
#1633=DIRECTION('center_axis',(0.,0.,-1.));
#1634=DIRECTION('ref_axis',(1.,0.,0.));
#1635=DIRECTION('center_axis',(0.,0.,-1.));
#1636=DIRECTION('ref_axis',(1.,0.,0.));
#1637=DIRECTION('',(0.,0.,-1.));
#1638=DIRECTION('center_axis',(0.,0.,-1.));
#1639=DIRECTION('ref_axis',(1.,0.,0.));
#1640=DIRECTION('center_axis',(0.,0.,1.));
#1641=DIRECTION('ref_axis',(1.,0.,0.));
#1642=DIRECTION('center_axis',(0.,0.,1.));
#1643=DIRECTION('ref_axis',(1.,0.,0.));
#1644=DIRECTION('center_axis',(0.,0.,-1.));
#1645=DIRECTION('ref_axis',(1.,0.,0.));
#1646=DIRECTION('center_axis',(0.,0.,-1.));
#1647=DIRECTION('ref_axis',(1.,0.,0.));
#1648=DIRECTION('',(0.,0.,-1.));
#1649=DIRECTION('center_axis',(0.,0.,-1.));
#1650=DIRECTION('ref_axis',(1.,0.,0.));
#1651=DIRECTION('center_axis',(0.,0.,1.));
#1652=DIRECTION('ref_axis',(1.,0.,0.));
#1653=DIRECTION('center_axis',(0.,0.,1.));
#1654=DIRECTION('ref_axis',(1.,0.,0.));
#1655=DIRECTION('center_axis',(0.,0.,-1.));
#1656=DIRECTION('ref_axis',(1.,0.,0.));
#1657=DIRECTION('center_axis',(0.,0.,-1.));
#1658=DIRECTION('ref_axis',(1.,0.,0.));
#1659=DIRECTION('',(0.,0.,-1.));
#1660=DIRECTION('center_axis',(0.,0.,-1.));
#1661=DIRECTION('ref_axis',(1.,0.,0.));
#1662=DIRECTION('center_axis',(0.,0.,1.));
#1663=DIRECTION('ref_axis',(1.,0.,0.));
#1664=DIRECTION('center_axis',(0.,0.,1.));
#1665=DIRECTION('ref_axis',(1.,0.,0.));
#1666=DIRECTION('center_axis',(0.,0.,-1.));
#1667=DIRECTION('ref_axis',(1.,0.,0.));
#1668=DIRECTION('center_axis',(0.,0.,-1.));
#1669=DIRECTION('ref_axis',(1.,0.,0.));
#1670=DIRECTION('',(0.,0.,-1.));
#1671=DIRECTION('center_axis',(0.,0.,-1.));
#1672=DIRECTION('ref_axis',(1.,0.,0.));
#1673=DIRECTION('center_axis',(0.,0.,1.));
#1674=DIRECTION('ref_axis',(1.,0.,0.));
#1675=DIRECTION('center_axis',(0.,0.,1.));
#1676=DIRECTION('ref_axis',(1.,0.,0.));
#1677=DIRECTION('center_axis',(0.,0.,-1.));
#1678=DIRECTION('ref_axis',(1.,0.,0.));
#1679=DIRECTION('center_axis',(0.,0.,-1.));
#1680=DIRECTION('ref_axis',(1.,0.,0.));
#1681=DIRECTION('',(0.,0.,-1.));
#1682=DIRECTION('center_axis',(0.,0.,-1.));
#1683=DIRECTION('ref_axis',(1.,0.,0.));
#1684=DIRECTION('center_axis',(0.,0.,1.));
#1685=DIRECTION('ref_axis',(1.,0.,0.));
#1686=DIRECTION('center_axis',(0.,0.,1.));
#1687=DIRECTION('ref_axis',(1.,0.,0.));
#1688=DIRECTION('center_axis',(0.,0.,-1.));
#1689=DIRECTION('ref_axis',(1.,0.,0.));
#1690=DIRECTION('center_axis',(0.,0.,-1.));
#1691=DIRECTION('ref_axis',(1.,0.,0.));
#1692=DIRECTION('',(0.,0.,-1.));
#1693=DIRECTION('center_axis',(0.,0.,-1.));
#1694=DIRECTION('ref_axis',(1.,0.,0.));
#1695=DIRECTION('center_axis',(0.,0.,1.));
#1696=DIRECTION('ref_axis',(1.,0.,0.));
#1697=DIRECTION('center_axis',(0.,0.,1.));
#1698=DIRECTION('ref_axis',(1.,0.,0.));
#1699=DIRECTION('center_axis',(0.,1.,0.));
#1700=DIRECTION('ref_axis',(-1.,0.,0.));
#1701=DIRECTION('',(0.,0.,1.));
#1702=DIRECTION('',(1.,0.,0.));
#1703=DIRECTION('',(0.,0.,1.));
#1704=DIRECTION('center_axis',(1.,0.,0.));
#1705=DIRECTION('ref_axis',(0.,1.,0.));
#1706=DIRECTION('',(0.,0.,1.));
#1707=DIRECTION('',(0.,-1.,0.));
#1708=DIRECTION('center_axis',(0.,-1.,0.));
#1709=DIRECTION('ref_axis',(1.,0.,0.));
#1710=DIRECTION('',(0.,0.,1.));
#1711=DIRECTION('',(-1.,0.,0.));
#1712=DIRECTION('center_axis',(-1.,0.,0.));
#1713=DIRECTION('ref_axis',(0.,-1.,0.));
#1714=DIRECTION('',(0.,1.,0.));
#1715=DIRECTION('center_axis',(0.,1.,0.));
#1716=DIRECTION('ref_axis',(-1.,0.,0.));
#1717=DIRECTION('',(0.,0.,1.));
#1718=DIRECTION('',(1.,0.,0.));
#1719=DIRECTION('',(0.,0.,1.));
#1720=DIRECTION('center_axis',(1.,0.,0.));
#1721=DIRECTION('ref_axis',(0.,1.,0.));
#1722=DIRECTION('',(0.,0.,1.));
#1723=DIRECTION('',(0.,-1.,0.));
#1724=DIRECTION('center_axis',(0.,-1.,0.));
#1725=DIRECTION('ref_axis',(1.,0.,0.));
#1726=DIRECTION('',(0.,0.,1.));
#1727=DIRECTION('',(-1.,0.,0.));
#1728=DIRECTION('center_axis',(-1.,0.,0.));
#1729=DIRECTION('ref_axis',(0.,-1.,0.));
#1730=DIRECTION('',(0.,1.,0.));
#1731=DIRECTION('center_axis',(0.,1.,0.));
#1732=DIRECTION('ref_axis',(-1.,0.,0.));
#1733=DIRECTION('',(0.,0.,1.));
#1734=DIRECTION('',(1.,0.,0.));
#1735=DIRECTION('',(0.,0.,1.));
#1736=DIRECTION('center_axis',(1.,0.,0.));
#1737=DIRECTION('ref_axis',(0.,1.,0.));
#1738=DIRECTION('',(0.,0.,1.));
#1739=DIRECTION('',(0.,-1.,0.));
#1740=DIRECTION('center_axis',(0.,-1.,0.));
#1741=DIRECTION('ref_axis',(1.,0.,0.));
#1742=DIRECTION('',(0.,0.,1.));
#1743=DIRECTION('',(-1.,0.,0.));
#1744=DIRECTION('center_axis',(-1.,0.,0.));
#1745=DIRECTION('ref_axis',(0.,-1.,0.));
#1746=DIRECTION('',(0.,1.,0.));
#1747=DIRECTION('center_axis',(0.,1.,0.));
#1748=DIRECTION('ref_axis',(-1.,0.,0.));
#1749=DIRECTION('',(0.,0.,1.));
#1750=DIRECTION('',(1.,0.,0.));
#1751=DIRECTION('',(0.,0.,1.));
#1752=DIRECTION('center_axis',(1.,0.,0.));
#1753=DIRECTION('ref_axis',(0.,1.,0.));
#1754=DIRECTION('',(0.,0.,1.));
#1755=DIRECTION('',(0.,-1.,0.));
#1756=DIRECTION('center_axis',(0.,-1.,0.));
#1757=DIRECTION('ref_axis',(1.,0.,0.));
#1758=DIRECTION('',(0.,0.,1.));
#1759=DIRECTION('',(-1.,0.,0.));
#1760=DIRECTION('center_axis',(-1.,0.,0.));
#1761=DIRECTION('ref_axis',(0.,-1.,0.));
#1762=DIRECTION('',(0.,1.,0.));
#1763=DIRECTION('center_axis',(0.,0.,1.));
#1764=DIRECTION('ref_axis',(1.,0.,0.));
#1765=DIRECTION('',(0.,0.,1.));
#1766=DIRECTION('center_axis',(0.,0.,1.));
#1767=DIRECTION('ref_axis',(1.,0.,0.));
#1768=DIRECTION('',(0.,0.,1.));
#1769=DIRECTION('center_axis',(0.,0.,1.));
#1770=DIRECTION('ref_axis',(1.,0.,0.));
#1771=DIRECTION('',(0.,0.,1.));
#1772=DIRECTION('center_axis',(0.,0.,1.));
#1773=DIRECTION('ref_axis',(1.,0.,0.));
#1774=DIRECTION('',(0.,0.,1.));
#1775=DIRECTION('center_axis',(0.,0.,1.));
#1776=DIRECTION('ref_axis',(1.,0.,0.));
#1777=DIRECTION('',(0.,0.,1.));
#1778=DIRECTION('center_axis',(0.,0.,1.));
#1779=DIRECTION('ref_axis',(1.,0.,0.));
#1780=DIRECTION('',(0.,0.,1.));
#1781=DIRECTION('center_axis',(0.,0.,1.));
#1782=DIRECTION('ref_axis',(1.,0.,0.));
#1783=DIRECTION('',(0.,0.,1.));
#1784=DIRECTION('center_axis',(0.,0.,-1.));
#1785=DIRECTION('ref_axis',(1.,0.,0.));
#1786=DIRECTION('center_axis',(0.,0.,1.));
#1787=DIRECTION('ref_axis',(1.,0.,0.));
#1788=DIRECTION('',(0.,0.,1.));
#1789=DIRECTION('center_axis',(0.,0.,-1.));
#1790=DIRECTION('ref_axis',(1.,0.,0.));
#1791=DIRECTION('center_axis',(0.,0.,1.));
#1792=DIRECTION('ref_axis',(1.,0.,0.));
#1793=DIRECTION('',(0.,0.,1.));
#1794=DIRECTION('center_axis',(0.,0.,-1.));
#1795=DIRECTION('ref_axis',(1.,0.,0.));
#1796=DIRECTION('center_axis',(0.,0.,1.));
#1797=DIRECTION('ref_axis',(1.,0.,0.));
#1798=DIRECTION('',(0.,0.,1.));
#1799=DIRECTION('center_axis',(0.,0.,-1.));
#1800=DIRECTION('ref_axis',(1.,0.,0.));
#1801=DIRECTION('center_axis',(0.,0.,1.));
#1802=DIRECTION('ref_axis',(1.,0.,0.));
#1803=DIRECTION('',(0.,0.,1.));
#1804=DIRECTION('center_axis',(0.,0.,1.));
#1805=DIRECTION('ref_axis',(1.,0.,0.));
#1806=DIRECTION('',(0.,0.,1.));
#1807=DIRECTION('center_axis',(0.,0.,1.));
#1808=DIRECTION('ref_axis',(1.,0.,0.));
#1809=DIRECTION('',(0.,0.,1.));
#1810=DIRECTION('center_axis',(0.,0.,1.));
#1811=DIRECTION('ref_axis',(1.,0.,0.));
#1812=DIRECTION('',(0.,0.,1.));
#1813=DIRECTION('center_axis',(0.,0.,1.));
#1814=DIRECTION('ref_axis',(1.,0.,0.));
#1815=DIRECTION('',(0.,0.,1.));
#1816=DIRECTION('center_axis',(0.,0.,1.));
#1817=DIRECTION('ref_axis',(1.,0.,0.));
#1818=DIRECTION('',(0.,0.,1.));
#1819=DIRECTION('center_axis',(0.,-1.,0.));
#1820=DIRECTION('ref_axis',(-1.,0.,0.));
#1821=DIRECTION('',(0.,0.,-1.));
#1822=DIRECTION('',(-1.,0.,0.));
#1823=DIRECTION('',(0.,0.,-1.));
#1824=DIRECTION('center_axis',(1.,0.,0.));
#1825=DIRECTION('ref_axis',(0.,-1.,0.));
#1826=DIRECTION('',(0.,-1.,0.));
#1827=DIRECTION('',(0.,0.,-1.));
#1828=DIRECTION('center_axis',(0.,1.,0.));
#1829=DIRECTION('ref_axis',(1.,0.,0.));
#1830=DIRECTION('',(1.,0.,0.));
#1831=DIRECTION('',(0.,0.,-1.));
#1832=DIRECTION('center_axis',(-1.,0.,0.));
#1833=DIRECTION('ref_axis',(0.,1.,0.));
#1834=DIRECTION('',(0.,1.,0.));
#1835=DIRECTION('center_axis',(0.,0.,-1.));
#1836=DIRECTION('ref_axis',(-1.,0.,0.));
#1837=DIRECTION('center_axis',(0.,-1.,0.));
#1838=DIRECTION('ref_axis',(-1.,0.,0.));
#1839=DIRECTION('',(0.,0.,-1.));
#1840=DIRECTION('',(-1.,0.,0.));
#1841=DIRECTION('',(0.,0.,-1.));
#1842=DIRECTION('center_axis',(1.,0.,0.));
#1843=DIRECTION('ref_axis',(0.,-1.,0.));
#1844=DIRECTION('',(0.,-1.,0.));
#1845=DIRECTION('',(0.,0.,-1.));
#1846=DIRECTION('center_axis',(0.,1.,0.));
#1847=DIRECTION('ref_axis',(1.,0.,0.));
#1848=DIRECTION('',(1.,0.,0.));
#1849=DIRECTION('',(0.,0.,-1.));
#1850=DIRECTION('center_axis',(-1.,0.,0.));
#1851=DIRECTION('ref_axis',(0.,1.,0.));
#1852=DIRECTION('',(0.,1.,0.));
#1853=DIRECTION('center_axis',(0.,0.,-1.));
#1854=DIRECTION('ref_axis',(-1.,0.,0.));
#1855=DIRECTION('center_axis',(0.,1.,0.));
#1856=DIRECTION('ref_axis',(-1.,0.,0.));
#1857=DIRECTION('',(0.,0.,1.));
#1858=DIRECTION('',(-1.,0.,0.));
#1859=DIRECTION('',(0.,0.,1.));
#1860=DIRECTION('center_axis',(1.,0.,0.));
#1861=DIRECTION('ref_axis',(0.,1.,0.));
#1862=DIRECTION('',(0.,1.,0.));
#1863=DIRECTION('',(0.,0.,1.));
#1864=DIRECTION('center_axis',(0.,-1.,0.));
#1865=DIRECTION('ref_axis',(1.,0.,0.));
#1866=DIRECTION('',(1.,0.,0.));
#1867=DIRECTION('',(0.,0.,1.));
#1868=DIRECTION('center_axis',(-1.,0.,0.));
#1869=DIRECTION('ref_axis',(0.,-1.,0.));
#1870=DIRECTION('',(0.,-1.,0.));
#1871=DIRECTION('center_axis',(0.,0.,1.));
#1872=DIRECTION('ref_axis',(1.,0.,0.));
#1873=CARTESIAN_POINT('',(0.,0.,0.));
#1874=CARTESIAN_POINT('Origin',(0.,66.675,1.5));
#1875=CARTESIAN_POINT('',(-60.,66.675,0.));
#1876=CARTESIAN_POINT('Origin',(0.,66.675,0.));
#1877=CARTESIAN_POINT('',(-57.,66.675,3.));
#1878=CARTESIAN_POINT('',(-58.5,66.675,1.5));
#1879=CARTESIAN_POINT('Origin',(0.,66.675,3.));
#1880=CARTESIAN_POINT('Origin',(0.,66.675,0.));
#1881=CARTESIAN_POINT('',(-57.,66.675,4.));
#1882=CARTESIAN_POINT('',(-57.,66.675,0.));
#1883=CARTESIAN_POINT('Origin',(0.,66.675,4.));
#1884=CARTESIAN_POINT('Origin',(0.,66.675,0.));
#1885=CARTESIAN_POINT('',(-111.,132.95,0.));
#1886=CARTESIAN_POINT('',(-111.,0.399999999999991,0.));
#1887=CARTESIAN_POINT('',(-111.,132.95,0.));
#1888=CARTESIAN_POINT('',(111.,132.95,0.));
#1889=CARTESIAN_POINT('',(111.,132.95,0.));
#1890=CARTESIAN_POINT('',(111.,0.4,0.));
#1891=CARTESIAN_POINT('',(111.,0.4,0.));
#1892=CARTESIAN_POINT('',(-111.,0.4,0.));
#1893=CARTESIAN_POINT('',(93.25,64.425,0.));
#1894=CARTESIAN_POINT('',(90.75,64.425,0.));
#1895=CARTESIAN_POINT('',(46.625,64.425,0.));
#1896=CARTESIAN_POINT('',(90.75,59.425,0.));
#1897=CARTESIAN_POINT('',(90.75,65.55,0.));
#1898=CARTESIAN_POINT('',(93.25,59.425,0.));
#1899=CARTESIAN_POINT('',(45.375,59.425,0.));
#1900=CARTESIAN_POINT('',(93.25,63.05,0.));
#1901=CARTESIAN_POINT('',(73.25,73.925,0.));
#1902=CARTESIAN_POINT('',(70.75,73.925,0.));
#1903=CARTESIAN_POINT('',(36.625,73.925,0.));
#1904=CARTESIAN_POINT('',(70.75,68.925,0.));
#1905=CARTESIAN_POINT('',(70.75,70.3,0.));
#1906=CARTESIAN_POINT('',(73.25,68.925,0.));
#1907=CARTESIAN_POINT('',(35.375,68.925,0.));
#1908=CARTESIAN_POINT('',(73.25,67.8,0.));
#1909=CARTESIAN_POINT('',(73.25,64.425,0.));
#1910=CARTESIAN_POINT('',(70.75,64.425,0.));
#1911=CARTESIAN_POINT('',(36.625,64.425,0.));
#1912=CARTESIAN_POINT('',(70.75,59.425,0.));
#1913=CARTESIAN_POINT('',(70.75,65.55,0.));
#1914=CARTESIAN_POINT('',(73.25,59.425,0.));
#1915=CARTESIAN_POINT('',(35.375,59.425,0.));
#1916=CARTESIAN_POINT('',(73.25,63.05,0.));
#1917=CARTESIAN_POINT('',(93.25,73.925,0.));
#1918=CARTESIAN_POINT('',(90.75,73.925,0.));
#1919=CARTESIAN_POINT('',(46.625,73.925,0.));
#1920=CARTESIAN_POINT('',(90.75,68.925,0.));
#1921=CARTESIAN_POINT('',(90.75,70.3,0.));
#1922=CARTESIAN_POINT('',(93.25,68.925,0.));
#1923=CARTESIAN_POINT('',(45.375,68.925,0.));
#1924=CARTESIAN_POINT('',(93.25,67.8,0.));
#1925=CARTESIAN_POINT('',(-96.72,2.1,0.));
#1926=CARTESIAN_POINT('',(96.72,2.1,0.));
#1927=CARTESIAN_POINT('',(48.36,2.1,0.));
#1928=CARTESIAN_POINT('',(96.72,4.3,0.));
#1929=CARTESIAN_POINT('',(96.72,35.4875,0.));
#1930=CARTESIAN_POINT('',(-96.72,4.3,0.));
#1931=CARTESIAN_POINT('',(-48.36,4.3,0.));
#1932=CARTESIAN_POINT('',(-96.72,34.3875,0.));
#1933=CARTESIAN_POINT('',(-96.72,129.05,0.));
#1934=CARTESIAN_POINT('',(96.72,129.05,0.));
#1935=CARTESIAN_POINT('',(48.36,129.05,0.));
#1936=CARTESIAN_POINT('',(96.72,131.25,0.));
#1937=CARTESIAN_POINT('',(96.72,98.9625,0.));
#1938=CARTESIAN_POINT('',(-96.72,131.25,0.));
#1939=CARTESIAN_POINT('',(-48.36,131.25,0.));
#1940=CARTESIAN_POINT('',(-96.72,97.8625,0.));
#1941=CARTESIAN_POINT('',(101.12,118.35,0.));
#1942=CARTESIAN_POINT('Origin',(102.82,118.35,0.));
#1943=CARTESIAN_POINT('',(101.12,73.9,0.));
#1944=CARTESIAN_POINT('Origin',(102.82,73.9,0.));
#1945=CARTESIAN_POINT('',(101.12,29.45,0.));
#1946=CARTESIAN_POINT('Origin',(102.82,29.45,0.));
#1947=CARTESIAN_POINT('',(-104.52,118.35,0.));
#1948=CARTESIAN_POINT('Origin',(-102.82,118.35,0.));
#1949=CARTESIAN_POINT('',(-104.52,59.45,0.));
#1950=CARTESIAN_POINT('Origin',(-102.82,59.45,0.));
#1951=CARTESIAN_POINT('',(-104.52,15.,0.));
#1952=CARTESIAN_POINT('Origin',(-102.82,15.,0.));
#1953=CARTESIAN_POINT('',(50.25,14.175,0.));
#1954=CARTESIAN_POINT('Origin',(52.5,14.175,0.));
#1955=CARTESIAN_POINT('',(-54.75,14.175,0.));
#1956=CARTESIAN_POINT('Origin',(-52.5,14.175,0.));
#1957=CARTESIAN_POINT('',(-54.75,119.175,0.));
#1958=CARTESIAN_POINT('Origin',(-52.5,119.175,0.));
#1959=CARTESIAN_POINT('',(50.25,119.175,0.));
#1960=CARTESIAN_POINT('Origin',(52.5,119.175,0.));
#1961=CARTESIAN_POINT('',(-104.52,29.45,0.));
#1962=CARTESIAN_POINT('Origin',(-102.82,29.45,0.));
#1963=CARTESIAN_POINT('',(-104.52,73.9,0.));
#1964=CARTESIAN_POINT('Origin',(-102.82,73.9,0.));
#1965=CARTESIAN_POINT('',(-104.52,103.9,0.));
#1966=CARTESIAN_POINT('Origin',(-102.82,103.9,0.));
#1967=CARTESIAN_POINT('',(101.12,15.,0.));
#1968=CARTESIAN_POINT('Origin',(102.82,15.,0.));
#1969=CARTESIAN_POINT('',(101.12,59.45,0.));
#1970=CARTESIAN_POINT('Origin',(102.82,59.45,0.));
#1971=CARTESIAN_POINT('',(101.12,103.9,0.));
#1972=CARTESIAN_POINT('Origin',(102.82,103.9,0.));
#1973=CARTESIAN_POINT('Origin',(102.82,103.9,4.));
#1974=CARTESIAN_POINT('',(99.57,103.9,4.));
#1975=CARTESIAN_POINT('Origin',(102.82,103.9,4.));
#1976=CARTESIAN_POINT('',(99.57,103.9,2.));
#1977=CARTESIAN_POINT('',(99.57,103.9,4.));
#1978=CARTESIAN_POINT('Origin',(102.82,103.9,2.));
#1979=CARTESIAN_POINT('Origin',(102.82,103.9,2.));
#1980=CARTESIAN_POINT('',(101.12,103.9,2.));
#1981=CARTESIAN_POINT('Origin',(102.82,103.9,2.));
#1982=CARTESIAN_POINT('Origin',(102.82,59.45,4.));
#1983=CARTESIAN_POINT('',(99.57,59.45,4.));
#1984=CARTESIAN_POINT('Origin',(102.82,59.45,4.));
#1985=CARTESIAN_POINT('',(99.57,59.45,2.));
#1986=CARTESIAN_POINT('',(99.57,59.45,4.));
#1987=CARTESIAN_POINT('Origin',(102.82,59.45,2.));
#1988=CARTESIAN_POINT('Origin',(102.82,59.45,2.));
#1989=CARTESIAN_POINT('',(101.12,59.45,2.));
#1990=CARTESIAN_POINT('Origin',(102.82,59.45,2.));
#1991=CARTESIAN_POINT('Origin',(102.82,15.,4.));
#1992=CARTESIAN_POINT('',(99.57,15.,4.));
#1993=CARTESIAN_POINT('Origin',(102.82,15.,4.));
#1994=CARTESIAN_POINT('',(99.57,15.,2.));
#1995=CARTESIAN_POINT('',(99.57,15.,4.));
#1996=CARTESIAN_POINT('Origin',(102.82,15.,2.));
#1997=CARTESIAN_POINT('Origin',(102.82,15.,2.));
#1998=CARTESIAN_POINT('',(101.12,15.,2.));
#1999=CARTESIAN_POINT('Origin',(102.82,15.,2.));
#2000=CARTESIAN_POINT('Origin',(-102.82,118.35,4.));
#2001=CARTESIAN_POINT('',(-106.07,118.35,4.));
#2002=CARTESIAN_POINT('Origin',(-102.82,118.35,4.));
#2003=CARTESIAN_POINT('',(-106.07,118.35,2.));
#2004=CARTESIAN_POINT('',(-106.07,118.35,4.));
#2005=CARTESIAN_POINT('Origin',(-102.82,118.35,2.));
#2006=CARTESIAN_POINT('Origin',(-102.82,118.35,2.));
#2007=CARTESIAN_POINT('',(-104.52,118.35,2.));
#2008=CARTESIAN_POINT('Origin',(-102.82,118.35,2.));
#2009=CARTESIAN_POINT('Origin',(-102.82,73.9,4.));
#2010=CARTESIAN_POINT('',(-106.07,73.9,4.));
#2011=CARTESIAN_POINT('Origin',(-102.82,73.9,4.));
#2012=CARTESIAN_POINT('',(-106.07,73.9,2.));
#2013=CARTESIAN_POINT('',(-106.07,73.9,4.));
#2014=CARTESIAN_POINT('Origin',(-102.82,73.9,2.));
#2015=CARTESIAN_POINT('Origin',(-102.82,73.9,2.));
#2016=CARTESIAN_POINT('',(-104.52,73.9,2.));
#2017=CARTESIAN_POINT('Origin',(-102.82,73.9,2.));
#2018=CARTESIAN_POINT('Origin',(-102.82,29.45,4.));
#2019=CARTESIAN_POINT('',(-106.07,29.45,4.));
#2020=CARTESIAN_POINT('Origin',(-102.82,29.45,4.));
#2021=CARTESIAN_POINT('',(-106.07,29.45,2.));
#2022=CARTESIAN_POINT('',(-106.07,29.45,4.));
#2023=CARTESIAN_POINT('Origin',(-102.82,29.45,2.));
#2024=CARTESIAN_POINT('Origin',(-102.82,29.45,2.));
#2025=CARTESIAN_POINT('',(-104.52,29.45,2.));
#2026=CARTESIAN_POINT('Origin',(-102.82,29.45,2.));
#2027=CARTESIAN_POINT('Origin',(-102.82,59.45,4.));
#2028=CARTESIAN_POINT('',(-106.07,59.45,4.));
#2029=CARTESIAN_POINT('Origin',(-102.82,59.45,4.));
#2030=CARTESIAN_POINT('',(-106.07,59.45,2.));
#2031=CARTESIAN_POINT('',(-106.07,59.45,4.));
#2032=CARTESIAN_POINT('Origin',(-102.82,59.45,2.));
#2033=CARTESIAN_POINT('Origin',(-102.82,59.45,2.));
#2034=CARTESIAN_POINT('',(-104.52,59.45,2.));
#2035=CARTESIAN_POINT('Origin',(-102.82,59.45,2.));
#2036=CARTESIAN_POINT('Origin',(-102.82,103.9,4.));
#2037=CARTESIAN_POINT('',(-106.07,103.9,4.));
#2038=CARTESIAN_POINT('Origin',(-102.82,103.9,4.));
#2039=CARTESIAN_POINT('',(-106.07,103.9,2.));
#2040=CARTESIAN_POINT('',(-106.07,103.9,4.));
#2041=CARTESIAN_POINT('Origin',(-102.82,103.9,2.));
#2042=CARTESIAN_POINT('Origin',(-102.82,103.9,2.));
#2043=CARTESIAN_POINT('',(-104.52,103.9,2.));
#2044=CARTESIAN_POINT('Origin',(-102.82,103.9,2.));
#2045=CARTESIAN_POINT('Origin',(-102.82,15.,4.));
#2046=CARTESIAN_POINT('',(-106.07,15.,4.));
#2047=CARTESIAN_POINT('Origin',(-102.82,15.,4.));
#2048=CARTESIAN_POINT('',(-106.07,15.,2.));
#2049=CARTESIAN_POINT('',(-106.07,15.,4.));
#2050=CARTESIAN_POINT('Origin',(-102.82,15.,2.));
#2051=CARTESIAN_POINT('Origin',(-102.82,15.,2.));
#2052=CARTESIAN_POINT('',(-104.52,15.,2.));
#2053=CARTESIAN_POINT('Origin',(-102.82,15.,2.));
#2054=CARTESIAN_POINT('Origin',(102.82,29.45,4.));
#2055=CARTESIAN_POINT('',(99.57,29.45,4.));
#2056=CARTESIAN_POINT('Origin',(102.82,29.45,4.));
#2057=CARTESIAN_POINT('',(99.57,29.45,2.));
#2058=CARTESIAN_POINT('',(99.57,29.45,4.));
#2059=CARTESIAN_POINT('Origin',(102.82,29.45,2.));
#2060=CARTESIAN_POINT('Origin',(102.82,29.45,2.));
#2061=CARTESIAN_POINT('',(101.12,29.45,2.));
#2062=CARTESIAN_POINT('Origin',(102.82,29.45,2.));
#2063=CARTESIAN_POINT('Origin',(102.82,73.9,4.));
#2064=CARTESIAN_POINT('',(99.57,73.9,4.));
#2065=CARTESIAN_POINT('Origin',(102.82,73.9,4.));
#2066=CARTESIAN_POINT('',(99.57,73.9,2.));
#2067=CARTESIAN_POINT('',(99.57,73.9,4.));
#2068=CARTESIAN_POINT('Origin',(102.82,73.9,2.));
#2069=CARTESIAN_POINT('Origin',(102.82,73.9,2.));
#2070=CARTESIAN_POINT('',(101.12,73.9,2.));
#2071=CARTESIAN_POINT('Origin',(102.82,73.9,2.));
#2072=CARTESIAN_POINT('Origin',(102.82,118.35,4.));
#2073=CARTESIAN_POINT('',(99.57,118.35,4.));
#2074=CARTESIAN_POINT('Origin',(102.82,118.35,4.));
#2075=CARTESIAN_POINT('',(99.57,118.35,2.));
#2076=CARTESIAN_POINT('',(99.57,118.35,4.));
#2077=CARTESIAN_POINT('Origin',(102.82,118.35,2.));
#2078=CARTESIAN_POINT('Origin',(102.82,118.35,2.));
#2079=CARTESIAN_POINT('',(101.12,118.35,2.));
#2080=CARTESIAN_POINT('Origin',(102.82,118.35,2.));
#2081=CARTESIAN_POINT('Origin',(93.25,64.425,0.));
#2082=CARTESIAN_POINT('',(93.25,64.425,4.));
#2083=CARTESIAN_POINT('',(93.25,64.425,0.));
#2084=CARTESIAN_POINT('',(90.75,64.425,4.));
#2085=CARTESIAN_POINT('',(46.625,64.425,4.));
#2086=CARTESIAN_POINT('',(90.75,64.425,0.));
#2087=CARTESIAN_POINT('Origin',(93.25,59.425,0.));
#2088=CARTESIAN_POINT('',(93.25,59.425,4.));
#2089=CARTESIAN_POINT('',(93.25,59.425,0.));
#2090=CARTESIAN_POINT('',(93.25,63.05,4.));
#2091=CARTESIAN_POINT('Origin',(90.75,59.425,0.));
#2092=CARTESIAN_POINT('',(90.75,59.425,4.));
#2093=CARTESIAN_POINT('',(90.75,59.425,0.));
#2094=CARTESIAN_POINT('',(45.375,59.425,4.));
#2095=CARTESIAN_POINT('Origin',(90.75,64.425,0.));
#2096=CARTESIAN_POINT('',(90.75,65.55,4.));
#2097=CARTESIAN_POINT('Origin',(73.25,73.925,0.));
#2098=CARTESIAN_POINT('',(73.25,73.925,4.));
#2099=CARTESIAN_POINT('',(73.25,73.925,0.));
#2100=CARTESIAN_POINT('',(70.75,73.925,4.));
#2101=CARTESIAN_POINT('',(36.625,73.925,4.));
#2102=CARTESIAN_POINT('',(70.75,73.925,0.));
#2103=CARTESIAN_POINT('Origin',(73.25,68.925,0.));
#2104=CARTESIAN_POINT('',(73.25,68.925,4.));
#2105=CARTESIAN_POINT('',(73.25,68.925,0.));
#2106=CARTESIAN_POINT('',(73.25,67.8,4.));
#2107=CARTESIAN_POINT('Origin',(70.75,68.925,0.));
#2108=CARTESIAN_POINT('',(70.75,68.925,4.));
#2109=CARTESIAN_POINT('',(70.75,68.925,0.));
#2110=CARTESIAN_POINT('',(35.375,68.925,4.));
#2111=CARTESIAN_POINT('Origin',(70.75,73.925,0.));
#2112=CARTESIAN_POINT('',(70.75,70.3,4.));
#2113=CARTESIAN_POINT('Origin',(73.25,64.425,0.));
#2114=CARTESIAN_POINT('',(73.25,64.425,4.));
#2115=CARTESIAN_POINT('',(73.25,64.425,0.));
#2116=CARTESIAN_POINT('',(70.75,64.425,4.));
#2117=CARTESIAN_POINT('',(36.625,64.425,4.));
#2118=CARTESIAN_POINT('',(70.75,64.425,0.));
#2119=CARTESIAN_POINT('Origin',(73.25,59.425,0.));
#2120=CARTESIAN_POINT('',(73.25,59.425,4.));
#2121=CARTESIAN_POINT('',(73.25,59.425,0.));
#2122=CARTESIAN_POINT('',(73.25,63.05,4.));
#2123=CARTESIAN_POINT('Origin',(70.75,59.425,0.));
#2124=CARTESIAN_POINT('',(70.75,59.425,4.));
#2125=CARTESIAN_POINT('',(70.75,59.425,0.));
#2126=CARTESIAN_POINT('',(35.375,59.425,4.));
#2127=CARTESIAN_POINT('Origin',(70.75,64.425,0.));
#2128=CARTESIAN_POINT('',(70.75,65.55,4.));
#2129=CARTESIAN_POINT('Origin',(93.25,73.925,0.));
#2130=CARTESIAN_POINT('',(93.25,73.925,4.));
#2131=CARTESIAN_POINT('',(93.25,73.925,0.));
#2132=CARTESIAN_POINT('',(90.75,73.925,4.));
#2133=CARTESIAN_POINT('',(46.625,73.925,4.));
#2134=CARTESIAN_POINT('',(90.75,73.925,0.));
#2135=CARTESIAN_POINT('Origin',(93.25,68.925,0.));
#2136=CARTESIAN_POINT('',(93.25,68.925,4.));
#2137=CARTESIAN_POINT('',(93.25,68.925,0.));
#2138=CARTESIAN_POINT('',(93.25,67.8,4.));
#2139=CARTESIAN_POINT('Origin',(90.75,68.925,0.));
#2140=CARTESIAN_POINT('',(90.75,68.925,4.));
#2141=CARTESIAN_POINT('',(90.75,68.925,0.));
#2142=CARTESIAN_POINT('',(45.375,68.925,4.));
#2143=CARTESIAN_POINT('Origin',(90.75,73.925,0.));
#2144=CARTESIAN_POINT('',(90.75,70.3,4.));
#2145=CARTESIAN_POINT('Origin',(102.82,103.9,0.));
#2146=CARTESIAN_POINT('',(101.12,103.9,0.));
#2147=CARTESIAN_POINT('Origin',(102.82,59.45,0.));
#2148=CARTESIAN_POINT('',(101.12,59.45,0.));
#2149=CARTESIAN_POINT('Origin',(102.82,15.,0.));
#2150=CARTESIAN_POINT('',(101.12,15.,0.));
#2151=CARTESIAN_POINT('Origin',(-102.82,103.9,0.));
#2152=CARTESIAN_POINT('',(-104.52,103.9,0.));
#2153=CARTESIAN_POINT('Origin',(-102.82,73.9,0.));
#2154=CARTESIAN_POINT('',(-104.52,73.9,0.));
#2155=CARTESIAN_POINT('Origin',(-102.82,29.45,0.));
#2156=CARTESIAN_POINT('',(-104.52,29.45,0.));
#2157=CARTESIAN_POINT('Origin',(52.5,119.175,0.));
#2158=CARTESIAN_POINT('',(50.25,119.175,4.));
#2159=CARTESIAN_POINT('',(50.25,119.175,0.));
#2160=CARTESIAN_POINT('Origin',(52.5,119.175,4.));
#2161=CARTESIAN_POINT('Origin',(-52.5,119.175,0.));
#2162=CARTESIAN_POINT('',(-54.75,119.175,4.));
#2163=CARTESIAN_POINT('',(-54.75,119.175,0.));
#2164=CARTESIAN_POINT('Origin',(-52.5,119.175,4.));
#2165=CARTESIAN_POINT('Origin',(-52.5,14.175,0.));
#2166=CARTESIAN_POINT('',(-54.75,14.175,4.));
#2167=CARTESIAN_POINT('',(-54.75,14.175,0.));
#2168=CARTESIAN_POINT('Origin',(-52.5,14.175,4.));
#2169=CARTESIAN_POINT('Origin',(52.5,14.175,0.));
#2170=CARTESIAN_POINT('',(50.25,14.175,4.));
#2171=CARTESIAN_POINT('',(50.25,14.175,0.));
#2172=CARTESIAN_POINT('Origin',(52.5,14.175,4.));
#2173=CARTESIAN_POINT('Origin',(-102.82,15.,0.));
#2174=CARTESIAN_POINT('',(-104.52,15.,0.));
#2175=CARTESIAN_POINT('Origin',(-102.82,59.45,0.));
#2176=CARTESIAN_POINT('',(-104.52,59.45,0.));
#2177=CARTESIAN_POINT('Origin',(-102.82,118.35,0.));
#2178=CARTESIAN_POINT('',(-104.52,118.35,0.));
#2179=CARTESIAN_POINT('Origin',(102.82,29.45,0.));
#2180=CARTESIAN_POINT('',(101.12,29.45,0.));
#2181=CARTESIAN_POINT('Origin',(102.82,73.9,0.));
#2182=CARTESIAN_POINT('',(101.12,73.9,0.));
#2183=CARTESIAN_POINT('Origin',(102.82,118.35,0.));
#2184=CARTESIAN_POINT('',(101.12,118.35,0.));
#2185=CARTESIAN_POINT('Origin',(96.72,129.05,0.));
#2186=CARTESIAN_POINT('',(-96.72,129.05,-72.));
#2187=CARTESIAN_POINT('',(-96.72,129.05,0.));
#2188=CARTESIAN_POINT('',(96.72,129.05,-72.));
#2189=CARTESIAN_POINT('',(-96.72,129.05,-72.));
#2190=CARTESIAN_POINT('',(96.72,129.05,0.));
#2191=CARTESIAN_POINT('Origin',(96.72,131.25,0.));
#2192=CARTESIAN_POINT('',(96.72,131.25,-72.));
#2193=CARTESIAN_POINT('',(96.72,129.05,-72.));
#2194=CARTESIAN_POINT('',(96.72,131.25,0.));
#2195=CARTESIAN_POINT('Origin',(-96.72,131.25,0.));
#2196=CARTESIAN_POINT('',(-96.72,131.25,-72.));
#2197=CARTESIAN_POINT('',(96.72,131.25,-72.));
#2198=CARTESIAN_POINT('',(-96.72,131.25,0.));
#2199=CARTESIAN_POINT('Origin',(-96.72,129.05,0.));
#2200=CARTESIAN_POINT('',(-96.72,131.25,-72.));
#2201=CARTESIAN_POINT('Origin',(0.,130.15,-72.));
#2202=CARTESIAN_POINT('Origin',(96.72,2.1,0.));
#2203=CARTESIAN_POINT('',(-96.72,2.1,-72.));
#2204=CARTESIAN_POINT('',(-96.72,2.1,0.));
#2205=CARTESIAN_POINT('',(96.72,2.1,-72.));
#2206=CARTESIAN_POINT('',(-96.72,2.1,-72.));
#2207=CARTESIAN_POINT('',(96.72,2.1,0.));
#2208=CARTESIAN_POINT('Origin',(96.72,4.3,0.));
#2209=CARTESIAN_POINT('',(96.72,4.3,-72.));
#2210=CARTESIAN_POINT('',(96.72,2.1,-72.));
#2211=CARTESIAN_POINT('',(96.72,4.3,0.));
#2212=CARTESIAN_POINT('Origin',(-96.72,4.3,0.));
#2213=CARTESIAN_POINT('',(-96.72,4.3,-72.));
#2214=CARTESIAN_POINT('',(96.72,4.3,-72.));
#2215=CARTESIAN_POINT('',(-96.72,4.3,0.));
#2216=CARTESIAN_POINT('Origin',(-96.72,2.1,0.));
#2217=CARTESIAN_POINT('',(-96.72,4.3,-72.));
#2218=CARTESIAN_POINT('Origin',(0.,3.2,-72.));
#2219=CARTESIAN_POINT('Origin',(111.,132.95,0.));
#2220=CARTESIAN_POINT('',(-111.,132.95,4.));
#2221=CARTESIAN_POINT('',(-111.,132.95,0.));
#2222=CARTESIAN_POINT('',(111.,132.95,4.));
#2223=CARTESIAN_POINT('',(111.,132.95,4.));
#2224=CARTESIAN_POINT('',(111.,132.95,0.));
#2225=CARTESIAN_POINT('Origin',(111.,0.4,0.));
#2226=CARTESIAN_POINT('',(111.,0.399999999999991,4.));
#2227=CARTESIAN_POINT('',(111.,0.4,4.));
#2228=CARTESIAN_POINT('',(111.,0.4,0.));
#2229=CARTESIAN_POINT('Origin',(-111.,0.4,0.));
#2230=CARTESIAN_POINT('',(-111.,0.399999999999991,4.));
#2231=CARTESIAN_POINT('',(-111.,0.4,4.));
#2232=CARTESIAN_POINT('',(-111.,0.399999999999991,0.));
#2233=CARTESIAN_POINT('Origin',(-111.,132.95,0.));
#2234=CARTESIAN_POINT('',(-111.,132.95,4.));
#2235=CARTESIAN_POINT('Origin',(0.,66.675,4.));
#2236=UNCERTAINTY_MEASURE_WITH_UNIT(LENGTH_MEASURE(0.01),#2240,
'DISTANCE_ACCURACY_VALUE',
'Maximum model space distance between geometric entities at asserted c
onnectivities');
#2237=UNCERTAINTY_MEASURE_WITH_UNIT(LENGTH_MEASURE(0.01),#2240,
'DISTANCE_ACCURACY_VALUE',
'Maximum model space distance between geometric entities at asserted c
onnectivities');
#2238=(
GEOMETRIC_REPRESENTATION_CONTEXT(3)
GLOBAL_UNCERTAINTY_ASSIGNED_CONTEXT((#2236))
GLOBAL_UNIT_ASSIGNED_CONTEXT((#2240,#2242,#2243))
REPRESENTATION_CONTEXT('','3D')
);
#2239=(
GEOMETRIC_REPRESENTATION_CONTEXT(3)
GLOBAL_UNCERTAINTY_ASSIGNED_CONTEXT((#2237))
GLOBAL_UNIT_ASSIGNED_CONTEXT((#2240,#2242,#2243))
REPRESENTATION_CONTEXT('','3D')
);
#2240=(
LENGTH_UNIT()
NAMED_UNIT(*)
SI_UNIT(.MILLI.,.METRE.)
);
#2241=(
LENGTH_UNIT()
NAMED_UNIT(*)
SI_UNIT($,.METRE.)
);
#2242=(
NAMED_UNIT(*)
PLANE_ANGLE_UNIT()
SI_UNIT($,.RADIAN.)
);
#2243=(
NAMED_UNIT(*)
SI_UNIT($,.STERADIAN.)
SOLID_ANGLE_UNIT()
);
#2244=SHAPE_DEFINITION_REPRESENTATION(#2245,#2246);
#2245=PRODUCT_DEFINITION_SHAPE('',$,#2248);
#2246=SHAPE_REPRESENTATION('',(#1357),#2238);
#2247=PRODUCT_DEFINITION_CONTEXT('part definition',#2252,'design');
#2248=PRODUCT_DEFINITION('2026-08-27-12-22-23-518','(Unsaved)',#2249,#2247);
#2249=PRODUCT_DEFINITION_FORMATION('',$,#2254);
#2250=PRODUCT_RELATED_PRODUCT_CATEGORY('(Unsaved)','(Unsaved)',(#2254));
#2251=APPLICATION_PROTOCOL_DEFINITION('international standard',
'automotive_design',2009,#2252);
#2252=APPLICATION_CONTEXT(
'Core Data for Automotive Mechanical Design Process');
#2253=PRODUCT_CONTEXT('part definition',#2252,'mechanical');
#2254=PRODUCT('2026-08-27-12-22-23-518','(Unsaved)',$,(#2253));
#2255=PRESENTATION_STYLE_ASSIGNMENT((#2256));
#2256=SURFACE_STYLE_USAGE(.BOTH.,#2257);
#2257=SURFACE_SIDE_STYLE('',(#2258));
#2258=SURFACE_STYLE_FILL_AREA(#2259);
#2259=FILL_AREA_STYLE('Steel - Satin',(#2260));
#2260=FILL_AREA_STYLE_COLOUR('Steel - Satin',#2261);
#2261=COLOUR_RGB('Steel - Satin',0.627450980392157,0.627450980392157,0.627450980392157);
ENDSEC;
END-ISO-10303-21;
